g 04_lamp
v 0.04949546 -0.08806893 0.5784004
v 0.04949524 -0.06897534 0.4123284
v 0.04949524 -0.1312166 0.4123284
v 0.04949546 -0.08806893 0.5784004
v 0.04949546 -0.03785893 0.5246419
v 0.04949546 0.08535293 0.5784004
v 0.04949546 0.03926681 0.5246419
v 0.04949524 0.1262171 0.4123284
v 0.04949546 0.03926681 0.5246419
v 0.04949524 0.06504507 0.4123284
v -0.1700322 0.1570731 0.4323318
v 0.1597485 -0.1580302 0.4323318
v -0.1700322 -0.1580302 0.4323318
v 0.1597485 0.1570731 0.4323318
v -0.1700322 0.1570731 0.4323318
v 0.1597481 0.1570731 0.3070136
v 0.1597485 0.1570731 0.4323318
v -0.1700326 0.1570731 0.3070136
v 0.1597485 0.1570731 0.4323318
v 0.1597481 -0.1580302 0.3070136
v 0.1597485 -0.1580302 0.4323318
v 0.1597481 0.1570731 0.3070136
v 0.1597485 -0.1580302 0.4323318
v -0.1700326 -0.1580302 0.3070136
v -0.1700322 -0.1580302 0.4323318
v 0.1597481 -0.1580302 0.3070136
v -0.1700322 -0.1580302 0.4323318
v -0.1700326 0.1570731 0.3070136
v -0.1700322 0.1570731 0.4323318
v -0.1700326 -0.1580302 0.3070136
v -0.1700326 0.1570731 0.3070136
v 0.365544 0.3537103 0.2112291
v 0.1597481 0.1570731 0.3070136
v -0.3758277 0.3537103 0.2112291
v 0.1597481 0.1570731 0.3070136
v 0.365544 -0.3546675 0.2112291
v 0.1597481 -0.1580302 0.3070136
v 0.365544 0.3537103 0.2112291
v 0.1597481 -0.1580302 0.3070136
v -0.3758277 -0.3546675 0.2112291
v -0.1700326 -0.1580302 0.3070136
v 0.365544 -0.3546675 0.2112291
v -0.1700326 -0.1580302 0.3070136
v -0.3758277 0.3537103 0.2112291
v -0.1700326 0.1570731 0.3070136
v -0.3758277 -0.3546675 0.2112291
v -0.3758277 0.3537103 0.2112291
v 0.365544 0.3537103 0.1293753
v 0.365544 0.3537103 0.2112291
v -0.3758277 0.3537103 0.1293753
v 0.365544 0.3537103 0.2112291
v 0.365544 -0.3546675 0.1293752
v 0.365544 -0.3546675 0.2112291
v 0.365544 0.3537103 0.1293753
v 0.365544 -0.3546675 0.2112291
v -0.3758277 -0.3546675 0.1293752
v -0.3758277 -0.3546675 0.2112291
v 0.365544 -0.3546675 0.1293752
v -0.3758277 -0.3546675 0.2112291
v -0.3758277 0.3537103 0.1293753
v -0.3758277 0.3537103 0.2112291
v -0.3758277 -0.3546675 0.1293752
v 0.365544 -0.3546675 0.1293752
v -0.2910237 -0.2736365 0.1293752
v -0.3758277 -0.3546675 0.1293752
v 0.2807399 -0.2736365 0.1293752
v 0.365544 0.3537103 0.1293753
v 0.2807399 0.2726803 0.1293753
v -0.3758277 0.3537103 0.1293753
v -0.2910237 0.2726803 0.1293753
v -0.3758277 -0.3546675 0.1293752
v -0.2910237 -0.2736365 0.1293752
v -0.2300866 -0.215411 -0.3722485
v -0.2367121 -0.1686729 -0.3177081
v -0.2843985 -0.214237 0.07483508
v -0.2910237 -0.2736365 0.1293752
v -0.2300866 0.2144551 -0.3722485
v -0.2367121 -0.1686729 -0.3177081
v -0.2300866 -0.215411 -0.3722485
v -0.2367121 0.1677169 -0.3177081
v -0.2910237 0.2726803 0.1293753
v -0.2843985 0.2132807 0.07483508
v -0.2910237 -0.2736365 0.1293752
v -0.2843985 -0.214237 0.07483508
v -0.2300866 0.2144551 -0.3722485
v 0.2829161 0.2747612 -0.4049015
v 0.2198022 0.2144551 -0.3722485
v -0.2932 0.2747612 -0.4049015
v 0.2198022 0.2144551 -0.3722485
v 0.2829161 -0.2757165 -0.4049015
v 0.2198022 -0.215411 -0.3722485
v 0.2829161 0.2747612 -0.4049015
v 0.2198022 -0.215411 -0.3722485
v -0.2932 -0.2757165 -0.4049015
v -0.2300866 -0.215411 -0.3722485
v 0.2829161 -0.2757165 -0.4049015
v -0.2300866 -0.215411 -0.3722485
v -0.2932 0.2747612 -0.4049015
v -0.2300866 0.2144551 -0.3722485
v -0.2932 -0.2757165 -0.4049015
v -0.2932 0.2747612 -0.4049015
v 0.2829161 0.2747612 -0.5038695
v 0.2829161 0.2747612 -0.4049015
v -0.2932 0.2747612 -0.5038695
v 0.2829161 0.2747612 -0.4049015
v 0.2829161 -0.2757165 -0.5038695
v 0.2829161 -0.2757165 -0.4049015
v 0.2829161 0.2747612 -0.5038695
v 0.2829161 -0.2757165 -0.4049015
v -0.2932 -0.2757165 -0.5038695
v -0.2932 -0.2757165 -0.4049015
v 0.2829161 -0.2757165 -0.5038695
v -0.2932 -0.2757165 -0.4049015
v -0.2932 0.2747612 -0.5038695
v -0.2932 0.2747612 -0.4049015
v -0.2932 -0.2757165 -0.5038695
v 0.2829161 -0.2757165 -0.5038695
v -0.2932 0.2747612 -0.5038695
v -0.2932 -0.2757165 -0.5038695
v 0.2829161 0.2747612 -0.5038695
v -0.05977922 -0.08806893 0.5784004
v 0.04949546 0.08535293 0.5784004
v 0.04949546 -0.08806893 0.5784004
v -0.05977922 0.08535293 0.5784004
v -0.05977949 -0.1312166 0.4123284
v 0.04949546 -0.08806893 0.5784004
v 0.04949524 -0.1312166 0.4123284
v -0.05977922 -0.08806893 0.5784004
v -0.05977949 -0.06897534 0.4123284
v -0.05977922 -0.08806893 0.5784004
v -0.05977949 -0.1312166 0.4123284
v -0.05977922 -0.03785893 0.5246419
v -0.05977922 0.08535293 0.5784004
v -0.05977922 0.03926681 0.5246419
v -0.05977949 0.1262171 0.4123284
v -0.05977949 0.06504507 0.4123284
v 0.04949546 0.08535293 0.5784004
v -0.05977949 0.1262171 0.4123284
v 0.04949524 0.1262171 0.4123284
v -0.05977922 0.08535293 0.5784004
v -0.05977949 0.06504507 0.4123284
v 0.04949546 0.03926681 0.5246419
v 0.04949524 0.06504507 0.4123284
v -0.05977922 0.03926681 0.5246419
v -0.05977922 0.03926681 0.5246419
v 0.04949546 -0.03785893 0.5246419
v 0.04949546 0.03926681 0.5246419
v -0.05977922 -0.03785893 0.5246419
v -0.05977922 -0.03785893 0.5246419
v 0.04949524 -0.06897534 0.4123284
v 0.04949546 -0.03785893 0.5246419
v -0.05977949 -0.06897534 0.4123284
v -0.2367121 0.1677169 -0.3177081
v -0.2074217 -0.1686729 -0.3141502
v -0.2367121 -0.1686729 -0.3177081
v -0.2074217 0.1677169 -0.3141502
v -0.2843985 0.2132807 0.07483508
v -0.2551081 0.2132807 0.07839324
v -0.2843985 -0.214237 0.07483508
v -0.2551081 -0.214237 0.07839324
v -0.2551081 -0.214237 0.07839324
v -0.2074217 0.1677169 -0.3141502
v -0.2551081 0.2132807 0.07839324
v -0.2074217 -0.1686729 -0.3141502
v -0.2367121 -0.1686729 -0.3177081
v -0.2074217 -0.1686729 -0.3141502
v -0.2551081 -0.214237 0.07839324
v -0.2843985 -0.214237 0.07483508
v 0.2471189 0.2135877 0.07840041
v 0.199364 -0.1689145 -0.3147068
v 0.2471189 -0.2145437 0.07840041
v 0.199364 0.1679583 -0.3147068
v -0.2326124 0.2384984 0.08140643
v 0.1738416 0.1921699 -0.3177255
v 0.2223284 0.2384984 0.08140643
v -0.1841259 0.1921699 -0.3177255
v 0.2223999 -0.2409867 0.08129217
v -0.1841821 -0.1946435 -0.3179651
v -0.2326838 -0.2409867 0.08129217
v 0.1738978 -0.1946435 -0.3179651
v 0.2198022 0.2144551 -0.3722485
v -0.1841259 0.2204032 -0.3210027
v -0.2300866 0.2144551 -0.3722485
v 0.1738416 0.2204032 -0.3210027
v -0.2326124 0.2667318 0.0781294
v 0.2807399 0.2726803 0.1293753
v -0.2910237 0.2726803 0.1293753
v 0.2223284 0.2667318 0.0781294
v 0.2807399 -0.2736365 0.1293752
v 0.2263936 -0.1689145 -0.3179902
v 0.2198022 -0.215411 -0.3722485
v 0.2741484 -0.2145437 0.07511684
v 0.2263936 0.1679583 -0.3179902
v 0.2807399 0.2726803 0.1293753
v 0.2198022 0.2144551 -0.3722485
v 0.2741484 0.2135877 0.07511684
v -0.2300866 -0.215411 -0.3722485
v -0.1841821 -0.2213521 -0.3210652
v 0.1738978 -0.2213521 -0.3210652
v 0.2198022 -0.215411 -0.3722485
v -0.2910237 -0.2736365 0.1293752
v 0.2223999 -0.2676954 0.07819192
v -0.2326838 -0.2676954 0.07819192
v 0.2807399 -0.2736365 0.1293752
v -0.1841259 0.2204032 -0.3210027
v -0.2326124 0.2384984 0.08140643
v -0.2326124 0.2667318 0.0781294
v -0.1841259 0.1921699 -0.3177255
v 0.2223284 0.2384984 0.08140643
v 0.1738416 0.2204032 -0.3210027
v 0.2223284 0.2667318 0.0781294
v 0.1738416 0.1921699 -0.3177255
v -0.2326838 -0.2676954 0.07819192
v -0.2326838 -0.2409867 0.08129217
v -0.1841821 -0.1946435 -0.3179651
v -0.1841821 -0.2213521 -0.3210652
v 0.2223999 -0.2676954 0.07819192
v 0.1738978 -0.1946435 -0.3179651
v 0.2223999 -0.2409867 0.08129217
v 0.1738978 -0.2213521 -0.3210652
v 0.2741484 -0.2145437 0.07511684
v 0.2471189 -0.2145437 0.07840041
v 0.199364 -0.1689145 -0.3147068
v 0.2263936 -0.1689145 -0.3179902
v 0.2741484 0.2135877 0.07511684
v 0.199364 0.1679583 -0.3147068
v 0.2471189 0.2135877 0.07840041
v 0.2263936 0.1679583 -0.3179902
vt 0.06373867 0.6916493
vt 0.06093579 0.6906675
vt 0.06059422 0.6917868
vt 0.06373867 0.6916493
vt 0.06390461 0.6905792
vt 0.066918 0.6915119
vt 0.06674001 0.6904907
vt 0.07005218 0.6913748
vt 0.06674001 0.6904907
vt 0.06960986 0.6903057
vt 0.1525237 0.7306195
vt 0.1484661 0.7272004
vt 0.1488795 0.7310145
vt 0.1521103 0.7268055
vt 0.1559673 0.7268541
vt 0.1520382 0.7253138
vt 0.1521103 0.7268055
vt 0.1561175 0.7252519
vt 0.1521103 0.7268055
vt 0.1481908 0.7256925
vt 0.1484661 0.7272004
vt 0.1520382 0.7253138
vt 0.1484661 0.7272004
vt 0.1441919 0.7267847
vt 0.1445932 0.7282564
vt 0.1481908 0.7256925
vt 0.1600255 0.7277113
vt 0.1561175 0.7252519
vt 0.1559673 0.7268541
vt 0.1603664 0.7260973
vt 0.02631124 0.6917238
vt 0.02234788 0.6901192
vt 0.02223186 0.6917857
vt 0.02653082 0.6896302
vt 0.02223186 0.6917857
vt 0.01852431 0.6900155
vt 0.01838451 0.6921643
vt 0.02234788 0.6901192
vt 0.01838451 0.6921643
vt 0.01112876 0.6913588
vt 0.01438562 0.6932566
vt 0.01852431 0.6900155
vt 0.03056014 0.6925691
vt 0.02653082 0.6896302
vt 0.02631124 0.6917238
vt 0.03356537 0.6903608
vt 0.02653082 0.6896302
vt 0.02233214 0.6896018
vt 0.02234788 0.6901192
vt 0.02662931 0.6891901
vt 0.02234788 0.6901192
vt 0.01837261 0.6895892
vt 0.01852431 0.6900155
vt 0.02233214 0.6896018
vt 0.01852431 0.6900155
vt 0.01134397 0.690228
vt 0.01112876 0.6913588
vt 0.01837261 0.6895892
vt 0.03356537 0.6903608
vt 0.02662931 0.6891901
vt 0.02653082 0.6896302
vt 0.03327414 0.6892503
vt 0.01837261 0.6895892
vt 0.01247901 0.6890755
vt 0.01134397 0.690228
vt 0.01807263 0.6891312
vt 0.02233214 0.6896018
vt 0.02234208 0.6889936
vt 0.02662931 0.6891901
vt 0.02684525 0.6887012
vt 0.03327414 0.6892503
vt 0.03209537 0.6881511
vt 0.01365798 0.6841494
vt 0.01365798 0.6841494
vt 0.01247901 0.6890755
vt 0.01247901 0.6890755
vt 0.02635617 0.6841587
vt 0.03047689 0.6834123
vt 0.03047689 0.6834123
vt 0.02635617 0.6841587
vt 0.02684525 0.6887012
vt 0.02684525 0.6887012
vt 0.03209537 0.6881511
vt 0.03209537 0.6881511
vt 0.02635617 0.6841587
vt 0.02216017 0.6840622
vt 0.02218619 0.6845987
vt 0.02626484 0.683566
vt 0.02218619 0.6845987
vt 0.01824335 0.6839657
vt 0.01815647 0.6845701
vt 0.02216017 0.6840622
vt 0.01815647 0.6845701
vt 0.01317824 0.6835018
vt 0.01365798 0.6841494
vt 0.01824335 0.6839657
vt 0.03047689 0.6834123
vt 0.02626484 0.683566
vt 0.02635617 0.6841587
vt 0.030859 0.6827325
vt 0.02626484 0.683566
vt 0.02212843 0.6833608
vt 0.02216017 0.6840622
vt 0.02614826 0.682806
vt 0.02216017 0.6840622
vt 0.01829091 0.6831841
vt 0.01824335 0.6839657
vt 0.02212843 0.6833608
vt 0.01824335 0.6839657
vt 0.01327177 0.6826396
vt 0.01317824 0.6835018
vt 0.01829091 0.6831841
vt 0.030859 0.6827325
vt 0.02614826 0.682806
vt 0.02626484 0.683566
vt 0.03069873 0.6819144
vt 0.01829091 0.6831841
vt 0.02231331 0.6793446
vt 0.01847582 0.6791679
vt 0.02212843 0.6833608
vt 0.06382606 0.6936524
vt 0.066918 0.6915119
vt 0.06373867 0.6916493
vt 0.06700518 0.693515
vt 0.06068133 0.6937898
vt 0.06373867 0.6916493
vt 0.06059422 0.6917868
vt 0.06382606 0.6936524
vt 0.06101625 0.6948819
vt 0.06382606 0.6936524
vt 0.06068133 0.6937898
vt 0.06397072 0.694711
vt 0.06700518 0.693515
vt 0.06700432 0.6945381
vt 0.07013944 0.6933779
vt 0.06991895 0.6944782
vt 0.066918 0.6915119
vt 0.07013944 0.6933779
vt 0.07005218 0.6913748
vt 0.06700518 0.693515
vt 0.06932306 0.6878323
vt 0.06674001 0.6904907
vt 0.06960986 0.6903057
vt 0.06650433 0.68764
vt 0.06650433 0.68764
vt 0.06390461 0.6905792
vt 0.06674001 0.6904907
vt 0.06376988 0.6877729
vt 0.06376988 0.6877729
vt 0.06093579 0.6906675
vt 0.06390461 0.6905792
vt 0.0609674 0.6882752
vt 0.02635617 0.6841587
vt 0.03047689 0.6834123
vt 0.03047689 0.6834123
vt 0.02635617 0.6841587
vt 0.02684525 0.6887012
vt 0.02684525 0.6887012
vt 0.03209537 0.6881511
vt 0.03209537 0.6881511
vt 0.2928128 0.6146013
vt 0.2870736 0.6106089
vt 0.2875627 0.6151514
vt 0.2911943 0.6098626
vt 0.01365798 0.6841494
vt 0.01365798 0.6841494
vt 0.01247901 0.6890755
vt 0.01247901 0.6890755
vt 0.2830595 0.6154438
vt 0.2788739 0.6110203
vt 0.2787901 0.6155815
vt 0.2829036 0.611049
vt 0.2875627 0.6151514
vt 0.2829036 0.611049
vt 0.2830595 0.6154438
vt 0.2870736 0.6106089
vt 0.2787901 0.6155815
vt 0.2743754 0.6105997
vt 0.2731964 0.6155258
vt 0.2788739 0.6110203
vt 0.02218619 0.6845987
vt 0.02635617 0.6841587
vt 0.02635617 0.6841587
vt 0.02218619 0.6845987
vt 0.02684525 0.6887012
vt 0.02234208 0.6889936
vt 0.02684525 0.6887012
vt 0.02234208 0.6889936
vt 0.01807263 0.6891312
vt 0.01815647 0.6845701
vt 0.01815647 0.6845701
vt 0.01807263 0.6891312
vt 0.02218619 0.6845987
vt 0.02234208 0.6889936
vt 0.02218619 0.6845987
vt 0.02234208 0.6889936
vt 0.01365798 0.6841494
vt 0.01365798 0.6841494
vt 0.01815647 0.6845701
vt 0.01815647 0.6845701
vt 0.01247901 0.6890755
vt 0.01807263 0.6891312
vt 0.01247901 0.6890755
vt 0.01807263 0.6891312
vt 0.02635617 0.6841587
vt 0.02684525 0.6887012
vt 0.02684525 0.6887012
vt 0.02635617 0.6841587
vt 0.02234208 0.6889936
vt 0.02218619 0.6845987
vt 0.02234208 0.6889936
vt 0.02218619 0.6845987
vt 0.01247901 0.6890755
vt 0.01247901 0.6890755
vt 0.01365798 0.6841494
vt 0.01365798 0.6841494
vt 0.01807263 0.6891312
vt 0.01815647 0.6845701
vt 0.01807263 0.6891312
vt 0.01815647 0.6845701
vt 0.01807263 0.6891312
vt 0.01807263 0.6891312
vt 0.01815647 0.6845701
vt 0.01815647 0.6845701
vt 0.02234208 0.6889936
vt 0.02218619 0.6845987
vt 0.02234208 0.6889936
vt 0.02218619 0.6845987
vn 1 0 0
vn 1 0 0
vn 1 0 0
vn 1 0 0
vn 1 0 0
vn 1 0 0
vn 1 0 0
vn 1 0 0
vn 1 0 0
vn 1 0 0
vn 0 0 1
vn 0 0 1
vn 0 0 1
vn 0 0 1
vn 0 1 0
vn 0 1 0
vn 0 1 0
vn 0 1 0
vn 1 0 0
vn 1 0 0
vn 1 0 0
vn 1 0 0
vn 0 -1 0
vn 0 -1 0
vn 0 -1 0
vn 0 -1 0
vn -1 0 0
vn -1 0 0
vn -1 0 0
vn -1 0 0
vn 0 0.4379208 0.8990135
vn 0 0.4379208 0.8990135
vn 0 0.4379208 0.8990135
vn 0 0.4379208 0.8990135
vn 0.4219679 0 0.9066108
vn 0.4219679 0 0.9066107
vn 0.421968 0 0.9066107
vn 0.4219678 0 0.9066108
vn 0 -0.4379207 0.8990136
vn 0 -0.4379207 0.8990136
vn 0 -0.4379206 0.8990136
vn 0 -0.4379208 0.8990136
vn -0.4219691 0 0.9066103
vn -0.4219691 0 0.9066101
vn -0.4219693 0 0.9066101
vn -0.421969 0 0.9066103
vn 0 1 0
vn 0 1 0
vn 0 1 0
vn 0 1 0
vn 1 0 0
vn 1 0 0
vn 1 0 0
vn 1 0 0
vn 0 -1 0
vn 0 -1 0
vn 0 -1 0
vn 0 -1 0
vn -1 0 0
vn -1 0 0
vn -1 0 0
vn -1 0 0
vn 0 0 -1
vn 0 0 -1
vn 0 0 -1
vn 0 0 -1
vn 0 0 -1
vn 0 0 -1
vn 0 0 -1
vn 0 0 -1
vn 0 0 -1
vn 0 0 -1
vn -0.9927019 0 -0.1205938
vn -0.9927019 0 -0.1205938
vn -0.9927024 0 -0.1205905
vn -0.9927024 0 -0.1205904
vn -0.9927019 0 -0.1205938
vn -0.9927019 0 -0.1205938
vn -0.9927019 0 -0.1205938
vn -0.9927019 0 -0.1205938
vn -0.9927024 0 -0.1205904
vn -0.9927024 0 -0.1205905
vn -0.9927024 0 -0.1205904
vn -0.9927024 0 -0.1205905
vn 0 0.4761383 0.8793704
vn 0 0.4761384 0.8793704
vn 0 0.4761383 0.8793704
vn 0 0.4761383 0.8793704
vn 0.4595098 0 0.8881727
vn 0.4595087 0 0.8881732
vn 0.4595085 0 0.8881733
vn 0.4595099 0 0.8881727
vn 0 -0.476142 0.8793685
vn 0 -0.4761418 0.8793685
vn 0 -0.4761417 0.8793685
vn 0 -0.476142 0.8793685
vn -0.4595127 0 0.8881712
vn -0.4595121 0 0.8881716
vn -0.459512 0 0.8881716
vn -0.4595129 0 0.8881712
vn 0 1 0
vn 0 1 0
vn 0 1 0
vn 0 1 0
vn 1 0 0
vn 1 0 0
vn 1 0 0
vn 1 0 0
vn 0 -1 0
vn 0 -1 0
vn 0 -1 0
vn 0 -1 0
vn -1 0 0
vn -1 0 0
vn -1 0 0
vn -1 0 0
vn 0 0 -1
vn 0 0 -1
vn 0 0 -1
vn 0 0 -1
vn 0 0 1
vn 0 0 1
vn 0 0 1
vn 0 0 1
vn 0 -0.9678667 0.251464
vn 0 -0.9678667 0.251464
vn 0 -0.9678667 0.251464
vn 0 -0.9678667 0.251464
vn -1 0 0
vn -1 0 0
vn -1 0 0
vn -1 0 0
vn -1 0 0
vn -1 0 0
vn -1 0 0
vn -1 0 0
vn 0 0.9710353 0.2389359
vn 0 0.9710353 0.2389359
vn 0 0.9710353 0.2389359
vn 0 0.9710353 0.238936
vn 0 -0.9746572 -0.2237039
vn 0 -0.9746572 -0.2237039
vn 0 -0.9746572 -0.2237039
vn 0 -0.9746572 -0.2237039
vn 0 0 -1
vn 0 0 -1
vn 0 0 -1
vn 0 0 -1
vn 0 0.9636986 -0.2669924
vn 0 0.9636986 -0.2669924
vn 0 0.9636986 -0.2669924
vn 0 0.9636986 -0.2669923
vn -0.09001562 -0.6654078 0.7410328
vn -0.09001596 0.6654044 0.7410358
vn -0.09001563 0.6654075 0.741033
vn -0.09001596 -0.6654047 0.7410356
vn 0.08024294 -0.7464809 -0.6605507
vn 0.08024283 -0.7464818 -0.6605498
vn 0.08024293 0.7464811 -0.6605505
vn 0.0802428 0.7464821 -0.6605494
vn -0.9927019 0 -0.120594
vn -0.9927019 0 -0.120594
vn -0.9927019 0 -0.120594
vn -0.9927019 0 -0.120594
vn -0.09001563 0.6654075 0.741033
vn -0.09001596 0.6654044 0.7410358
vn 0.0802428 0.7464821 -0.6605494
vn 0.08024293 0.7464811 -0.6605505
vn 0.9927019 0 -0.1205941
vn 0.9927019 0 -0.1205941
vn 0.9927019 0 -0.1205941
vn 0.9927019 0 -0.1205941
vn 0 0.9933309 -0.1152989
vn 0 0.9933309 -0.1152989
vn 0 0.9933309 -0.1152989
vn 0 0.9933309 -0.1152989
vn 0 -0.9933308 -0.1152992
vn 0 -0.9933308 -0.1152992
vn 0 -0.9933308 -0.1152992
vn 0 -0.9933308 -0.1152993
vn 0 0.9933311 -0.1152969
vn 0 0.9933311 -0.1152968
vn 0 0.9933311 -0.1152969
vn 0 0.9933311 -0.1152969
vn 0 0.9933305 -0.1153011
vn 0 0.9933305 -0.1153011
vn 0 0.9933305 -0.115301
vn 0 0.9933305 -0.1153011
vn 0.9927018 0 -0.1205954
vn 0.9927018 0 -0.1205954
vn 0.9927018 0 -0.1205954
vn 0.9927018 0 -0.1205954
vn 0.9927018 0 -0.1205954
vn 0.9927018 0 -0.1205954
vn 0.9927018 0 -0.1205954
vn 0.9927018 0 -0.1205954
vn 0 -0.9933307 -0.1153003
vn 0 -0.9933307 -0.1153003
vn 0 -0.9933307 -0.1153002
vn 0 -0.9933307 -0.1153002
vn 0 -0.9933307 -0.1153005
vn 0 -0.9933307 -0.1153005
vn 0 -0.9933307 -0.1153005
vn 0 -0.9933307 -0.1153005
vn 0.6634001 0.08627371 0.7432746
vn 0.7482658 -0.07648712 -0.6589749
vn 0.7482638 -0.07648739 -0.6589772
vn 0.6634003 0.0862737 0.7432745
vn -0.748266 -0.07648622 -0.6589748
vn -0.6633999 0.08627451 0.7432747
vn -0.748264 -0.07648649 -0.6589771
vn -0.6634 0.0862745 0.7432746
vn 0.7482654 0.07649136 -0.6589748
vn 0.7482643 0.07649153 -0.6589762
vn 0.6633989 -0.08627135 0.7432759
vn 0.6634011 -0.08627114 0.743274
vn -0.7482657 0.07649173 -0.6589746
vn -0.6633987 -0.08627104 0.7432762
vn -0.7482646 0.07649189 -0.658976
vn -0.6634009 -0.08627082 0.7432743
vn -0.08024468 0.7464815 -0.6605498
vn -0.08024472 0.7464813 -0.6605502
vn 0.09001625 0.6654048 0.7410355
vn 0.09001593 0.6654078 0.7410328
vn -0.08024462 -0.7464817 -0.6605496
vn 0.09001629 -0.6654046 0.7410356
vn -0.08024465 -0.7464814 -0.6605499
vn 0.09001598 -0.6654076 0.741033
g 04_lamp_0
f 3/3/3 2/2/2 1/1/1
f 5/5/5 4/4/4 2/2/2
f 4/4/4 5/5/5 6/6/6
f 7/7/7 6/6/6 5/5/5
f 6/6/6 7/7/7 8/8/8
f 10/10/10 8/8/8 9/9/9
f 13/13/13 12/12/12 11/11/11
f 14/14/14 11/11/11 12/12/12
f 17/17/17 16/16/16 15/15/15
f 18/18/18 15/15/15 16/16/16
f 21/21/21 20/20/20 19/19/19
f 22/22/22 19/19/19 20/20/20
f 25/25/25 24/24/24 23/23/23
f 26/26/26 23/23/23 24/24/24
f 29/29/29 28/28/28 27/27/27
f 30/30/30 27/27/27 28/28/28
f 33/33/33 32/32/32 31/31/31
f 34/34/34 31/31/31 32/32/32
f 37/37/37 36/36/36 35/35/35
f 38/38/38 35/35/35 36/36/36
f 41/41/41 40/40/40 39/39/39
f 42/42/42 39/39/39 40/40/40
f 45/45/45 44/44/44 43/43/43
f 46/46/46 43/43/43 44/44/44
f 49/49/49 48/48/48 47/47/47
f 50/50/50 47/47/47 48/48/48
f 53/53/53 52/52/52 51/51/51
f 54/54/54 51/51/51 52/52/52
f 57/57/57 56/56/56 55/55/55
f 58/58/58 55/55/55 56/56/56
f 61/61/61 60/60/60 59/59/59
f 62/62/62 59/59/59 60/60/60
f 65/65/65 64/64/64 63/63/63
f 66/66/66 63/63/63 64/64/64
f 63/63/63 66/66/66 67/67/67
f 68/68/68 67/67/67 66/66/66
f 67/67/67 68/68/68 69/69/69
f 70/70/70 69/69/69 68/68/68
f 69/69/69 70/70/70 71/71/71
f 72/72/72 71/71/71 70/70/70
f 75/75/75 74/74/74 73/73/73
f 76/76/76 75/75/75 73/73/73
f 79/79/79 78/78/78 77/77/77
f 78/78/78 80/80/80 77/77/77
f 77/77/77 80/80/80 81/81/81
f 80/80/80 82/82/82 81/81/81
f 81/81/81 82/82/82 83/83/83
f 82/82/82 84/84/84 83/83/83
f 87/87/87 86/86/86 85/85/85
f 88/88/88 85/85/85 86/86/86
f 91/91/91 90/90/90 89/89/89
f 92/92/92 89/89/89 90/90/90
f 95/95/95 94/94/94 93/93/93
f 96/96/96 93/93/93 94/94/94
f 99/99/99 98/98/98 97/97/97
f 100/100/100 97/97/97 98/98/98
f 103/103/103 102/102/102 101/101/101
f 104/104/104 101/101/101 102/102/102
f 107/107/107 106/106/106 105/105/105
f 108/108/108 105/105/105 106/106/106
f 111/111/111 110/110/110 109/109/109
f 112/112/112 109/109/109 110/110/110
f 115/115/115 114/114/114 113/113/113
f 116/116/116 113/113/113 114/114/114
f 119/119/119 118/118/118 117/117/117
f 120/120/120 117/117/117 118/118/118
f 123/123/123 122/122/122 121/121/121
f 124/124/124 121/121/121 122/122/122
f 127/127/127 126/126/126 125/125/125
f 128/128/128 125/125/125 126/126/126
f 131/131/131 130/130/130 129/129/129
f 132/132/132 129/129/129 130/130/130
f 130/130/130 133/133/133 132/132/132
f 134/134/134 132/132/132 133/133/133
f 133/133/133 135/135/135 134/134/134
f 136/136/136 134/134/134 135/135/135
f 139/139/139 138/138/138 137/137/137
f 140/140/140 137/137/137 138/138/138
f 143/143/143 142/142/142 141/141/141
f 144/144/144 141/141/141 142/142/142
f 147/147/147 146/146/146 145/145/145
f 148/148/148 145/145/145 146/146/146
f 151/151/151 150/150/150 149/149/149
f 152/152/152 149/149/149 150/150/150
f 155/155/155 154/154/154 153/153/153
f 154/154/154 156/156/156 153/153/153
f 153/153/153 156/156/156 157/157/157
f 156/156/156 158/158/158 157/157/157
f 157/157/157 158/158/158 159/159/159
f 158/158/158 160/160/160 159/159/159
f 163/163/163 162/162/162 161/161/161
f 164/164/164 161/161/161 162/162/162
f 167/167/167 166/166/166 165/165/165
f 168/168/168 167/167/167 165/165/165
f 171/171/171 170/170/170 169/169/169
f 172/172/172 169/169/169 170/170/170
f 175/175/175 174/174/174 173/173/173
f 176/176/176 173/173/173 174/174/174
f 179/179/179 178/178/178 177/177/177
f 180/180/180 177/177/177 178/178/178
f 183/183/183 182/182/182 181/181/181
f 182/182/182 184/184/184 181/181/181
f 185/185/185 182/182/182 183/183/183
f 181/181/181 184/184/184 186/186/186
f 187/187/187 185/185/185 183/183/183
f 184/184/184 188/188/188 186/186/186
f 188/188/188 185/185/185 187/187/187
f 186/186/186 188/188/188 187/187/187
f 191/191/191 190/190/190 189/189/189
f 190/190/190 192/192/192 189/189/189
f 193/193/193 190/190/190 191/191/191
f 189/189/189 192/192/192 194/194/194
f 195/195/195 193/193/193 191/191/191
f 192/192/192 196/196/196 194/194/194
f 196/196/196 193/193/193 195/195/195
f 194/194/194 196/196/196 195/195/195
f 199/199/199 198/198/198 197/197/197
f 200/200/200 199/199/199 197/197/197
f 197/197/197 198/198/198 201/201/201
f 202/202/202 199/199/199 200/200/200
f 198/198/198 203/203/203 201/201/201
f 204/204/204 202/202/202 200/200/200
f 201/201/201 203/203/203 204/204/204
f 203/203/203 202/202/202 204/204/204
f 207/207/207 206/206/206 205/205/205
f 206/206/206 208/208/208 205/205/205
f 209/209/209 206/206/206 207/207/207
f 205/205/205 208/208/208 210/210/210
f 211/211/211 209/209/209 207/207/207
f 208/208/208 212/212/212 210/210/210
f 212/212/212 209/209/209 211/211/211
f 210/210/210 212/212/212 211/211/211
f 215/215/215 214/214/214 213/213/213
f 216/216/216 215/215/215 213/213/213
f 213/213/213 214/214/214 217/217/217
f 218/218/218 215/215/215 216/216/216
f 214/214/214 219/219/219 217/217/217
f 220/220/220 218/218/218 216/216/216
f 217/217/217 219/219/219 220/220/220
f 219/219/219 218/218/218 220/220/220
f 223/223/223 222/222/222 221/221/221
f 224/224/224 223/223/223 221/221/221
f 221/221/221 222/222/222 225/225/225
f 226/226/226 223/223/223 224/224/224
f 222/222/222 227/227/227 225/225/225
f 228/228/228 226/226/226 224/224/224
f 225/225/225 227/227/227 228/228/228
f 227/227/227 226/226/226 228/228/228
