g 21_box
v -0.3601961 -0.3599839 0.2057142
v 0.35967 0.3598831 0.2057142
v -0.3601961 0.3598831 0.2057142
v 0.35967 -0.3599839 0.2057142
v -0.3601961 -0.3599839 0.2057142
v 0.35967 -0.3599839 0.3222206
v 0.35967 -0.3599839 0.2057142
v -0.3601961 -0.3599839 0.3222206
v 0.35967 -0.3599839 0.2057142
v 0.35967 0.3598831 0.3222206
v 0.35967 0.3598831 0.2057142
v 0.35967 -0.3599839 0.3222206
v 0.35967 0.3598831 0.2057142
v -0.3601961 0.3598831 0.3222206
v -0.3601961 0.3598831 0.2057142
v 0.35967 0.3598831 0.3222206
v -0.3601961 0.3598831 0.2057142
v -0.3601961 -0.3599839 0.3222206
v -0.3601961 -0.3599839 0.2057142
v -0.3601961 0.3598831 0.3222206
v -0.3280171 -0.327804 0.2829281
v -0.3280171 0.3277032 -0.2717783
v -0.3280171 0.3277032 0.2829281
v -0.3280171 -0.327804 -0.2717783
v 0.35967 -0.3599829 -0.2105567
v -0.3601961 0.3598831 -0.2105567
v 0.35967 0.3598831 -0.2105567
v -0.3601961 -0.3599829 -0.2105567
v 0.35967 -0.3599829 -0.2105567
v 0.35967 0.3598831 -0.3270616
v 0.35967 -0.3599829 -0.3270625
v 0.35967 0.3598831 -0.2105567
v 0.35967 0.3598831 -0.2105567
v -0.3601961 0.3598831 -0.3270616
v 0.35967 0.3598831 -0.3270616
v -0.3601961 0.3598831 -0.2105567
v -0.3601961 0.3598831 -0.2105567
v -0.3601961 -0.3599829 -0.3270616
v -0.3601961 0.3598831 -0.3270616
v -0.3601961 -0.3599829 -0.2105567
v -0.3601961 -0.3599829 -0.2105567
v 0.35967 -0.3599829 -0.3270625
v -0.3601961 -0.3599829 -0.3270616
v 0.35967 -0.3599829 -0.2105567
v -0.3280171 -0.327804 0.2829281
v 0.327491 -0.327804 -0.2717783
v -0.3280171 -0.327804 -0.2717783
v 0.327491 -0.327804 0.2829281
v 0.327491 -0.327804 0.2829281
v 0.327491 0.3277032 -0.2717783
v 0.327491 -0.327804 -0.2717783
v 0.327491 0.3277032 0.2829281
v 0.327491 0.3277032 0.2829281
v -0.3280171 0.3277032 -0.2717783
v 0.327491 0.3277032 -0.2717783
v -0.3280171 0.3277032 0.2829281
v 0.2809038 -0.3443359 -0.2626252
v 0.3443391 -0.3443359 0.3066539
v 0.3443391 -0.3443359 -0.2626252
v 0.2809038 -0.3443359 0.3066539
v 0.3443391 -0.3443359 -0.2626252
v 0.3443391 -0.2808996 0.3066539
v 0.3443391 -0.2808996 -0.2626252
v 0.3443391 -0.3443359 0.3066539
v 0.3443391 -0.2808996 -0.2626252
v 0.2809038 -0.2808996 0.3066539
v 0.2809038 -0.2808996 -0.2626252
v 0.3443391 -0.2808996 0.3066539
v 0.2809038 -0.2808996 -0.2626252
v 0.2809038 -0.3443359 0.3066539
v 0.2809038 -0.3443359 -0.2626252
v 0.2809038 -0.2808996 0.3066539
v -0.2814299 -0.3443359 -0.2626252
v -0.3448652 -0.3443359 0.3066539
v -0.2814299 -0.3443359 0.3066539
v -0.3448652 -0.3443359 -0.2626252
v -0.3448652 -0.3443359 -0.2626252
v -0.3448652 -0.2808996 0.3066539
v -0.3448652 -0.3443359 0.3066539
v -0.3448652 -0.2808996 -0.2626252
v -0.3448652 -0.2808996 -0.2626252
v -0.2814299 -0.2808996 0.3066539
v -0.3448652 -0.2808996 0.3066539
v -0.2814299 -0.2808996 -0.2626252
v -0.2814299 -0.2808996 -0.2626252
v -0.2814299 -0.3443359 0.3066539
v -0.2814299 -0.2808996 0.3066539
v -0.2814299 -0.3443359 -0.2626252
v 0.2809038 0.3442341 -0.2626252
v 0.3443391 0.3442341 0.3066539
v 0.2809038 0.3442341 0.3066539
v 0.3443391 0.3442341 -0.2626252
v 0.3443391 0.3442341 -0.2626252
v 0.3443391 0.2807998 0.3066539
v 0.3443391 0.3442341 0.3066539
v 0.3443391 0.2807998 -0.2626252
v 0.3443391 0.2807998 -0.2626252
v 0.2809038 0.2807998 0.3066539
v 0.3443391 0.2807998 0.3066539
v 0.2809038 0.2807998 -0.2626252
v 0.2809038 0.2807998 -0.2626252
v 0.2809038 0.3442341 0.3066539
v 0.2809038 0.2807998 0.3066539
v 0.2809038 0.3442341 -0.2626252
v -0.2814299 0.3442341 -0.2626252
v -0.3448652 0.3442341 0.3066539
v -0.3448652 0.3442341 -0.2626252
v -0.2814299 0.3442341 0.3066539
v -0.3448652 0.3442341 -0.2626252
v -0.3448652 0.2807998 0.3066539
v -0.3448652 0.2807998 -0.2626252
v -0.3448652 0.3442341 0.3066539
v -0.3448652 0.2807998 -0.2626252
v -0.2814299 0.2807998 0.3066539
v -0.2814299 0.2807998 -0.2626252
v -0.3448652 0.2807998 0.3066539
v -0.2814299 0.2807998 -0.2626252
v -0.2814299 0.3442341 0.3066539
v -0.2814299 0.3442341 -0.2626252
v -0.2814299 0.2807998 0.3066539
v -0.265156 -0.2649438 0.2904844
v 0.2646299 0.264843 0.2904844
v 0.2646299 -0.2649438 0.2904844
v -0.265156 0.264843 0.2904844
v 0.2644062 -0.2647196 -0.3270625
v 0.2644062 -0.2647196 -0.2847477
v -0.2649322 -0.2647196 -0.2847468
v -0.2649322 -0.2647196 -0.3270616
v 0.2644062 0.2646188 -0.3270616
v 0.2644062 0.2646188 -0.2847468
v 0.2644062 -0.2647196 -0.2847477
v 0.2644062 -0.2647196 -0.3270625
v 0.2644062 -0.2647196 -0.2847477
v -0.2649322 0.2646188 -0.2847468
v -0.2649322 -0.2647196 -0.2847468
v 0.2644062 0.2646188 -0.2847468
v -0.2649322 0.2646188 -0.3270616
v -0.2649322 0.2646188 -0.2847468
v 0.2644062 0.2646188 -0.2847468
v 0.2644062 0.2646188 -0.3270616
v -0.2649322 -0.2647196 -0.3270616
v -0.2649322 -0.2647196 -0.2847468
v -0.2649322 0.2646188 -0.2847468
v -0.2649322 0.2646188 -0.3270616
v 0.35967 -0.3599839 0.3222206
v 0.2646299 -0.2649438 0.3222206
v 0.2646299 0.264843 0.3222206
v 0.35967 0.3598831 0.3222206
v -0.3601961 -0.3599839 0.3222206
v -0.265156 0.264843 0.3222206
v -0.265156 -0.2649438 0.3222206
v -0.3601961 0.3598831 0.3222206
v 0.35967 -0.3599829 -0.3270625
v 0.2644062 -0.2647196 -0.3270625
v -0.2649322 -0.2647196 -0.3270616
v -0.3601961 -0.3599829 -0.3270616
v 0.35967 0.3598831 -0.3270616
v -0.2649322 0.2646188 -0.3270616
v 0.2644062 0.2646188 -0.3270616
v -0.3601961 0.3598831 -0.3270616
v 0.2646299 -0.2649438 0.3222206
v 0.2646299 -0.2649438 0.2904844
v 0.2646299 0.264843 0.2904844
v 0.2646299 0.264843 0.3222206
v -0.265156 -0.2649438 0.3222206
v -0.265156 0.264843 0.2904844
v -0.265156 -0.2649438 0.2904844
v -0.265156 0.264843 0.3222206
vt 0.1105558 0.9773902
vt 0.1151905 0.9727555
vt 0.1105558 0.9727555
vt 0.1151905 0.9773902
vt 0.1064608 0.9782238
vt 0.1121167 0.9789345
vt 0.1121167 0.9782238
vt 0.1064608 0.9789345
vt 0.1128273 0.9789345
vt 0.1121167 0.9845904
vt 0.1128273 0.9845904
vt 0.1121167 0.9789345
vt 0.1121167 0.9853011
vt 0.1064608 0.9845904
vt 0.1064608 0.9853011
vt 0.1121167 0.9845904
vt 0.1057501 0.9845904
vt 0.1064608 0.9789345
vt 0.1057501 0.9789345
vt 0.1064608 0.9845904
vt 0.07495721 0.9774665
vt 0.07659989 0.9755253
vt 0.07495721 0.9755253
vt 0.07659989 0.9774665
vt 0.1060513 0.9662576
vt 0.1112059 0.9714122
vt 0.1112059 0.9662576
vt 0.1060513 0.9714122
vt 0.1060513 0.9662576
vt 0.1112059 0.96561
vt 0.1060513 0.96561
vt 0.1112059 0.9662576
vt 0.1112059 0.9662576
vt 0.1118536 0.9714122
vt 0.1118536 0.9662576
vt 0.1112059 0.9714122
vt 0.1112059 0.9714122
vt 0.1060513 0.97206
vt 0.1112059 0.97206
vt 0.1060513 0.9714122
vt 0.1060513 0.9714122
vt 0.1054036 0.9662576
vt 0.1054036 0.9714122
vt 0.1060513 0.9662576
vt 0.07495721 0.9774665
vt 0.07659989 0.9794076
vt 0.07659989 0.9774665
vt 0.07495721 0.9794076
vt 0.07495721 0.9794076
vt 0.07659989 0.9813488
vt 0.07659989 0.9794076
vt 0.07495721 0.9813488
vt 0.07495721 0.9735841
vt 0.07659989 0.9755253
vt 0.07659989 0.9735841
vt 0.07495721 0.9755253
vt 0.1172341 0.9751614
vt 0.1183381 0.9850688
vt 0.1183381 0.9751614
vt 0.1172341 0.9850688
vt 0.1183381 0.9751614
vt 0.119442 0.9850688
vt 0.119442 0.9751614
vt 0.1183381 0.9850688
vt 0.119442 0.9751614
vt 0.120546 0.9850688
vt 0.120546 0.9751614
vt 0.119442 0.9850688
vt 0.1161301 0.9751614
vt 0.1172341 0.9850688
vt 0.1172341 0.9751614
vt 0.1161301 0.9850688
vt 0.1172341 0.9751614
vt 0.1183381 0.9850688
vt 0.1172341 0.9850688
vt 0.1183381 0.9751614
vt 0.1183381 0.9751614
vt 0.119442 0.9850688
vt 0.1183381 0.9850688
vt 0.119442 0.9751614
vt 0.119442 0.9751614
vt 0.120546 0.9850688
vt 0.119442 0.9850688
vt 0.120546 0.9751614
vt 0.1161301 0.9751614
vt 0.1172341 0.9850688
vt 0.1161301 0.9850688
vt 0.1172341 0.9751614
vt 0.1172341 0.9751614
vt 0.1183381 0.9850688
vt 0.1172341 0.9850688
vt 0.1183381 0.9751614
vt 0.1183381 0.9751614
vt 0.119442 0.9850688
vt 0.1183381 0.9850688
vt 0.119442 0.9751614
vt 0.119442 0.9751614
vt 0.120546 0.9850688
vt 0.119442 0.9850688
vt 0.120546 0.9751614
vt 0.1161301 0.9751614
vt 0.1172341 0.9850688
vt 0.1161301 0.9850688
vt 0.1172341 0.9751614
vt 0.1172341 0.9751614
vt 0.1183381 0.9850688
vt 0.1183381 0.9751614
vt 0.1172341 0.9850688
vt 0.1183381 0.9751614
vt 0.119442 0.9850688
vt 0.119442 0.9751614
vt 0.1183381 0.9850688
vt 0.119442 0.9751614
vt 0.120546 0.9850688
vt 0.120546 0.9751614
vt 0.119442 0.9850688
vt 0.1161301 0.9751614
vt 0.1172341 0.9850688
vt 0.1172341 0.9751614
vt 0.1161301 0.9850688
vt 0.07128819 0.9796581
vt 0.07369574 0.9820657
vt 0.07369574 0.9796581
vt 0.07128819 0.9820657
vt 0.1054036 0.9662576
vt 0.1057274 0.9659338
vt 0.1057274 0.9717361
vt 0.1054036 0.9714122
vt 0.1112059 0.96561
vt 0.1118536 0.9662576
vt 0.1057274 0.9659338
vt 0.1060513 0.96561
vt 0.0747304 0.9713814
vt 0.07253625 0.9735756
vt 0.0747304 0.9735756
vt 0.07253625 0.9713814
vt 0.1118536 0.9714122
vt 0.1118536 0.9714122
vt 0.1118536 0.9662576
vt 0.1118536 0.9662576
vt 0.1060513 0.97206
vt 0.1057274 0.9717361
vt 0.1118536 0.9714122
vt 0.1112059 0.97206
vt 0.1121167 0.9789345
vt 0.1121167 0.9789345
vt 0.1121167 0.9845904
vt 0.1121167 0.9845904
vt 0.1064608 0.9789345
vt 0.1064608 0.9845904
vt 0.1064608 0.9789345
vt 0.1064608 0.9845904
vt 0.1054036 0.9662576
vt 0.1054036 0.9662576
vt 0.1054036 0.9714122
vt 0.1054036 0.9714122
vt 0.1112059 0.96561
vt 0.1118536 0.9714122
vt 0.1112059 0.96561
vt 0.1118536 0.9714122
vt 0.1121167 0.9789345
vt 0.1121167 0.9789345
vt 0.1121167 0.9845904
vt 0.1121167 0.9845904
vt 0.1064608 0.9789345
vt 0.1064608 0.9845904
vt 0.1064608 0.9789345
vt 0.1064608 0.9845904
vn 0 0 -1
vn 0 0 -1
vn 0 0 -1
vn 0 0 -1
vn 0 -1 0
vn 0 -1 0
vn 0 -1 0
vn 0 -1 0
vn 1 0 0
vn 1 0 0
vn 1 0 0
vn 1 0 0
vn 0 1 0
vn 0 1 0
vn 0 1 0
vn 0 1 0
vn -1 0 0
vn -1 0 0
vn -1 0 0
vn -1 0 0
vn -1 0 0
vn -1 0 0
vn -1 0 0
vn -1 0 0
vn 0 0 1
vn 0 0 1
vn 0 0 1
vn 0 0 1
vn 1 0 0
vn 1 0 0
vn 1 0 0
vn 1 0 0
vn 0 1 0
vn 0 1 0
vn 0 1 0
vn 0 1 0
vn -1 0 0
vn -1 0 0
vn -1 0 0
vn -1 0 0
vn 0 -1 0
vn 0 -1 0
vn 0 -1 0
vn 0 -1 0
vn 0 -1 0
vn 0 -1 0
vn 0 -1 0
vn 0 -1 0
vn 1 0 0
vn 1 0 0
vn 1 0 0
vn 1 0 0
vn 0 1 0
vn 0 1 0
vn 0 1 0
vn 0 1 0
vn 0 -1 0
vn 0 -1 0
vn 0 -1 0
vn 0 -1 0
vn 1 0 0
vn 1 0 0
vn 1 0 0
vn 1 0 0
vn 0 1 0
vn 0 1 0
vn 0 1 0
vn 0 1 0
vn -1 0 0
vn -1 0 0
vn -1 0 0
vn -1 0 0
vn 0 -1 0
vn 0 -1 0
vn 0 -1 0
vn 0 -1 0
vn -1 0 0
vn -1 0 0
vn -1 0 0
vn -1 0 0
vn 0 1 0
vn 0 1 0
vn 0 1 0
vn 0 1 0
vn 1 0 0
vn 1 0 0
vn 1 0 0
vn 1 0 0
vn 0 1 0
vn 0 1 0
vn 0 1 0
vn 0 1 0
vn 1 0 0
vn 1 0 0
vn 1 0 0
vn 1 0 0
vn 0 -1 0
vn 0 -1 0
vn 0 -1 0
vn 0 -1 0
vn -1 0 0
vn -1 0 0
vn -1 0 0
vn -1 0 0
vn 0 1 0
vn 0 1 0
vn 0 1 0
vn 0 1 0
vn -1 0 0
vn -1 0 0
vn -1 0 0
vn -1 0 0
vn 0 -1 0
vn 0 -1 0
vn 0 -1 0
vn 0 -1 0
vn 1 0 0
vn 1 0 0
vn 1 0 0
vn 1 0 0
vn 0 0 1
vn 0 0 1
vn 0 0 1
vn 0 0 1
vn -0.7071068 0.7071068 0
vn -0.7071068 0.7071068 0
vn 0.7071072 0.7071064 0
vn 0.7071064 0.7071071 0
vn -0.7071071 -0.7071064 0
vn -0.7071064 -0.7071072 0
vn -0.7071068 0.7071068 0
vn -0.7071068 0.7071068 0
vn 0 0 -1
vn 0 0 -1
vn 0 0 -1
vn 0 0 -1
vn 0.7071068 -0.7071068 0
vn 0.7071068 -0.7071068 0
vn -0.7071064 -0.7071072 0
vn -0.7071071 -0.7071064 0
vn 0.7071064 0.7071071 0
vn 0.7071072 0.7071064 0
vn 0.7071068 -0.7071068 0
vn 0.7071068 -0.7071068 0
vn 0 0 1
vn 0 0 1
vn 0 0 1
vn 0 0 1
vn 0 0 1
vn 0 0 1
vn 0 0 1
vn 0 0 1
vn 0 0 -1
vn 0 0 -1
vn 0 0 -1
vn 0 0 -1
vn 0 0 -1
vn 0 0 -1
vn 0 0 -1
vn 0 0 -1
vn -0.7071067 0.7071068 0
vn -0.7071067 0.7071068 0
vn -0.7071067 -0.7071068 0
vn -0.7071067 -0.7071068 0
vn 0.7071067 0.7071068 0
vn 0.7071067 -0.7071068 0
vn 0.7071067 0.7071068 0
vn 0.7071067 -0.7071068 0
g 21_box_0
f 3/3/3 2/2/2 1/1/1
f 4/4/4 1/1/1 2/2/2
f 7/7/7 6/6/6 5/5/5
f 8/8/8 5/5/5 6/6/6
f 11/11/11 10/10/10 9/9/9
f 12/12/12 9/9/9 10/10/10
f 15/15/15 14/14/14 13/13/13
f 16/16/16 13/13/13 14/14/14
f 19/19/19 18/18/18 17/17/17
f 20/20/20 17/17/17 18/18/18
f 23/23/23 22/22/22 21/21/21
f 24/24/24 21/21/21 22/22/22
f 27/27/27 26/26/26 25/25/25
f 28/28/28 25/25/25 26/26/26
f 31/31/31 30/30/30 29/29/29
f 32/32/32 29/29/29 30/30/30
f 35/35/35 34/34/34 33/33/33
f 36/36/36 33/33/33 34/34/34
f 39/39/39 38/38/38 37/37/37
f 40/40/40 37/37/37 38/38/38
f 43/43/43 42/42/42 41/41/41
f 44/44/44 41/41/41 42/42/42
f 47/47/47 46/46/46 45/45/45
f 48/48/48 45/45/45 46/46/46
f 51/51/51 50/50/50 49/49/49
f 52/52/52 49/49/49 50/50/50
f 55/55/55 54/54/54 53/53/53
f 56/56/56 53/53/53 54/54/54
f 59/59/59 58/58/58 57/57/57
f 60/60/60 57/57/57 58/58/58
f 63/63/63 62/62/62 61/61/61
f 64/64/64 61/61/61 62/62/62
f 67/67/67 66/66/66 65/65/65
f 68/68/68 65/65/65 66/66/66
f 71/71/71 70/70/70 69/69/69
f 72/72/72 69/69/69 70/70/70
f 75/75/75 74/74/74 73/73/73
f 76/76/76 73/73/73 74/74/74
f 79/79/79 78/78/78 77/77/77
f 80/80/80 77/77/77 78/78/78
f 83/83/83 82/82/82 81/81/81
f 84/84/84 81/81/81 82/82/82
f 87/87/87 86/86/86 85/85/85
f 88/88/88 85/85/85 86/86/86
f 91/91/91 90/90/90 89/89/89
f 92/92/92 89/89/89 90/90/90
f 95/95/95 94/94/94 93/93/93
f 96/96/96 93/93/93 94/94/94
f 99/99/99 98/98/98 97/97/97
f 100/100/100 97/97/97 98/98/98
f 103/103/103 102/102/102 101/101/101
f 104/104/104 101/101/101 102/102/102
f 107/107/107 106/106/106 105/105/105
f 108/108/108 105/105/105 106/106/106
f 111/111/111 110/110/110 109/109/109
f 112/112/112 109/109/109 110/110/110
f 115/115/115 114/114/114 113/113/113
f 116/116/116 113/113/113 114/114/114
f 119/119/119 118/118/118 117/117/117
f 120/120/120 117/117/117 118/118/118
f 123/123/123 122/122/122 121/121/121
f 124/124/124 121/121/121 122/122/122
f 127/127/127 126/126/126 125/125/125
f 128/128/128 127/127/127 125/125/125
f 131/131/131 130/130/130 129/129/129
f 132/132/132 131/131/131 129/129/129
f 135/135/135 134/134/134 133/133/133
f 136/136/136 133/133/133 134/134/134
f 139/139/139 138/138/138 137/137/137
f 140/140/140 139/139/139 137/137/137
f 143/143/143 142/142/142 141/141/141
f 144/144/144 143/143/143 141/141/141
f 147/147/147 146/146/146 145/145/145
f 148/148/148 147/147/147 145/145/145
f 145/145/145 146/146/146 149/149/149
f 150/150/150 147/147/147 148/148/148
f 146/146/146 151/151/151 149/149/149
f 152/152/152 150/150/150 148/148/148
f 149/149/149 151/151/151 152/152/152
f 151/151/151 150/150/150 152/152/152
f 155/155/155 154/154/154 153/153/153
f 156/156/156 155/155/155 153/153/153
f 153/153/153 154/154/154 157/157/157
f 158/158/158 155/155/155 156/156/156
f 154/154/154 159/159/159 157/157/157
f 160/160/160 158/158/158 156/156/156
f 157/157/157 159/159/159 160/160/160
f 159/159/159 158/158/158 160/160/160
f 163/163/163 162/162/162 161/161/161
f 164/164/164 163/163/163 161/161/161
f 161/161/161 162/162/162 165/165/165
f 166/166/166 163/163/163 164/164/164
f 162/162/162 167/167/167 165/165/165
f 168/168/168 166/166/166 164/164/164
f 165/165/165 167/167/167 168/168/168
f 167/167/167 166/166/166 168/168/168
