g a hanger 3
v 0.1269109 0.08042527 0.244551
v 0.1405839 0.001586079 0.3130963
v 0.1405763 0.08042523 0.3118596
v 0.1405839 0.001586079 0.3130963
v 0.12657 0.0804252 0.3819595
v 0.12657 -0.07604342 0.381959
v 0.1405839 0.001586079 0.3130963
v 0.1405915 -0.07604338 0.3143139
v 0.1269109 -0.07604334 0.2445509
v 0.1269109 0.08042527 0.244551
v 0.01485276 -0.07604342 0.1473087
v 0.01485277 0.08042527 0.1473087
v 0.02316745 0.1419492 0.07969612
v 0.02316744 -0.1375671 0.07969612
v 0.07609021 0.003825352 0.430234
v 0.12657 0.0804252 0.3819595
v 0.07528988 0.08042517 0.4306962
v 0.07692467 -0.07604345 0.429752
v 0.003068052 0.08042514 0.450229
v 0.003068045 -0.07604349 0.4502288
v 0.09527506 -0.07604318 0.3636723
v 0.05927052 -0.0008951679 0.3999087
v 0.06018586 -0.07604318 0.3993801
v 0.00478753 -0.07604318 0.4136554
v 0.05942051 -0.07604318 0.399822
v 0.05942051 -0.07604318 0.399822
v 0.06018586 -0.07604318 0.3993801
v 0.05927052 -0.0008951679 0.3999087
v 0.004787538 0.08042514 0.4136556
v 0.00478753 -0.07604318 0.4136554
v 0.05828003 0.08042517 0.4004809
v 0.09527518 0.0804252 0.3636728
v 0.09527506 -0.07604318 0.3636723
v 0.1089155 0.007938045 0.3139146
v 0.108908 -0.07604318 0.3149012
v 0.09608059 -0.07604318 0.2576983
v -0.1143588 0.0804252 0.3832204
v -0.120822 -0.02679135 0.3049262
v -0.120822 0.03117318 0.3049262
v -0.1143588 -0.07604342 0.3832201
v -0.06868146 -0.002039983 0.4262943
v -0.06986929 0.08042517 0.4256086
v 0.003068052 0.08042514 0.450229
v -0.06974457 0.08042517 0.4256806
v -0.1143588 -0.07604342 0.3832201
v -0.06868146 -0.002039983 0.4262943
v -0.06761549 -0.07604345 0.4269096
v 0.003068045 -0.07604349 0.4502288
v 0.003068052 0.08042514 0.450229
v -0.1143588 -0.07604342 0.3832201
v -0.1004856 -0.02679122 0.3007996
v -0.120822 -0.02679135 0.3049262
v -0.08469793 -0.07604318 0.3636725
v -0.05459005 -0.07604332 0.4105856
v -0.04810937 -0.07604318 0.4009587
v -0.06761549 -0.07604345 0.4269096
v 0.003068045 -0.07604349 0.4502288
v 0.00478753 -0.07604318 0.4136554
v 0.07692467 -0.07604345 0.429752
v 0.06554621 -0.07604329 0.4102883
v 0.05942051 -0.07604318 0.399822
v 0.06018586 -0.07604318 0.3993801
v 0.12657 -0.07604342 0.381959
v 0.09527506 -0.07604318 0.3636723
v -0.120822 0.03117318 0.3049262
v -0.1004856 0.03117318 0.3007996
v -0.08469793 0.08042514 0.3636728
v -0.1143588 0.0804252 0.3832204
v -0.06974457 0.08042517 0.4256806
v -0.06986929 0.08042517 0.4256086
v -0.05455216 0.08042517 0.410477
v -0.08469793 0.08042514 0.3636728
v -0.0464918 0.08042514 0.4018738
v 0.003068052 0.08042514 0.450229
v 0.004787538 0.08042514 0.4136556
v 0.06385364 0.08042517 0.4104884
v 0.07528988 0.08042517 0.4306962
v 0.05828003 0.08042517 0.4004809
v 0.12657 0.0804252 0.3819595
v 0.09527518 0.0804252 0.3636728
v 0.1212397 0.08042517 0.3127635
v 0.1405763 0.08042523 0.3118596
v 0.1089221 0.08042517 0.313063
v 0.1269109 0.08042527 0.244551
v 0.09608073 0.08042514 0.2576983
v 0.01485277 0.08042527 0.1473087
v -0.01460838 0.0804252 0.1581191
v 0.00478753 -0.07604318 0.4136554
v -0.04731828 0.000478135 0.4014062
v -0.04810937 -0.07604318 0.4009587
v -0.08469793 -0.07604318 0.3636725
v -0.08469793 0.08042514 0.3636728
v -0.1004856 0.03117318 0.3007996
v -0.1004856 -0.02679122 0.3007996
v -0.08469793 0.08042514 0.3636728
v -0.04731828 0.000478135 0.4014062
v -0.0464918 0.08042514 0.4018738
v 0.004787538 0.08042514 0.4136556
v 0.00478753 -0.07604318 0.4136554
v 0.09527518 0.0804252 0.3636728
v 0.1089155 0.007938045 0.3139146
v 0.1089221 0.08042517 0.313063
v 0.09608073 0.08042514 0.2576983
v 0.09608059 -0.07604318 0.2576983
v -0.01460838 0.0804252 0.1581191
v -0.01460838 -0.07604313 0.1581191
v -0.02088897 -0.1375669 0.07874088
v -0.02088897 0.141949 0.07874088
v -0.1004856 0.03117318 0.3007996
v -0.120822 -0.02679135 0.3049262
v -0.1004856 -0.02679122 0.3007996
v -0.120822 0.03117318 0.3049262
v -0.01460838 -0.07604313 0.1581191
v 0.1269109 -0.07604334 0.2445509
v 0.01485276 -0.07604342 0.1473087
v 0.09608059 -0.07604318 0.2576983
v 0.1193698 -0.07604325 0.3148955
v 0.1405915 -0.07604338 0.3143139
v 0.108908 -0.07604318 0.3149012
v 0.12657 -0.07604342 0.381959
v 0.09527506 -0.07604318 0.3636723
v 0.01485276 -0.07604342 0.1473087
v -0.02088897 -0.1375669 0.07874088
v -0.01460838 -0.07604313 0.1581191
v 0.02316744 -0.1375671 0.07969612
v 0.001174303 -0.1375669 0.03070026
v 0.6400284 -0.08337052 -0.1403962
v -0.646799 -0.0798329 -0.1410994
v 0.6269969 -0.08337047 -0.1559262
v 0.6408518 -0.08337047 -0.1756409
v -0.6343064 -0.0798329 -0.1559875
v -0.6475888 -0.0798329 -0.1748868
v -0.6475888 0.08421528 -0.1748868
v -0.646799 0.08421528 -0.1410994
v -0.01460838 0.0804252 0.1581191
v -0.02088897 0.141949 0.07874088
v 0.02316745 0.1419492 0.07969612
v 0.01485277 0.08042527 0.1473087
v -0.02088897 0.141949 0.07874088
v 0.001174312 0.1419492 0.03070026
v 0.6400284 0.08775232 -0.1403962
v -0.646799 0.08421528 -0.1410994
v -0.6343064 0.08421528 -0.1559875
v -0.6475888 0.08421528 -0.1748868
v 0.6269969 0.08775238 -0.1559262
v 0.6408518 0.08775238 -0.1756409
v 0.001174312 0.1419492 0.03070026
v 0.6269969 -0.08337047 -0.1559262
v 0.6269969 0.08775238 -0.1559262
v 0.001174303 -0.1375669 0.03070026
v -0.6343064 0.08421528 -0.1559875
v -0.6343064 -0.0798329 -0.1559875
v 0.02316744 -0.1375671 0.07969612
v 0.6400284 0.08775232 -0.1403962
v 0.6400284 -0.08337052 -0.1403962
v 0.02316745 0.1419492 0.07969612
v -0.02088897 0.141949 0.07874088
v -0.646799 -0.0798329 -0.1410994
v -0.646799 0.08421528 -0.1410994
v -0.02088897 -0.1375669 0.07874088
v 0.6408518 -0.08337047 -0.1756409
v 0.6400284 0.08775232 -0.1403962
v 0.6408518 0.08775238 -0.1756409
v 0.6400284 -0.08337052 -0.1403962
v 0.6408518 0.08775238 -0.1756409
v -0.6475888 -0.0798329 -0.1748868
v 0.6408518 -0.08337047 -0.1756409
v -0.6475888 0.08421528 -0.1748868
v 0.6269969 -0.08337047 -0.1559262
v -0.6343064 0.08421528 -0.1559875
v 0.6269969 0.08775238 -0.1559262
v -0.6343064 -0.0798329 -0.1559875
vt 0.1021504 0.5458329
vt 0.1021448 0.5467429
vt 0.1021449 0.5467258
vt 0.1021448 0.5467429
vt 0.1021393 0.5476389
vt 0.1021393 0.5476389
vt 0.1021448 0.5467429
vt 0.1021447 0.5467597
vt 0.1021504 0.5458329
vt 0.1021504 0.5458329
vt 0.1036942 0.5448574
vt 0.1036942 0.5448574
vt 0.1036942 0.5431733
vt 0.1036942 0.5431733
vt 0.1029234 0.5480916
vt 0.1021393 0.5476389
vt 0.1029344 0.548098
vt 0.1029118 0.548085
vt 0.1037409 0.5485636
vt 0.1037409 0.5485636
vt 0.1025088 0.5474254
vt 0.1031006 0.5477671
vt 0.1030879 0.5477598
vt 0.1037409 0.5481368
vt 0.1030985 0.5477659
vt 0.1030985 0.5477659
vt 0.1030879 0.5477598
vt 0.1031006 0.5477671
vt 0.1037409 0.5481368
vt 0.1037409 0.5481368
vt 0.1031143 0.5477751
vt 0.1025088 0.5474256
vt 0.1025088 0.5474254
vt 0.1025037 0.5467463
vt 0.1025038 0.5467599
vt 0.1024977 0.5459594
vt 0.1053426 0.5476389
vt 0.1055094 0.5465556
vt 0.1055094 0.5465556
vt 0.1053426 0.5476389
vt 0.1045851 0.5480763
vt 0.1046015 0.5480667
vt 0.1037409 0.5485636
vt 0.1045998 0.5480677
vt 0.1053426 0.5476389
vt 0.1045851 0.5480763
vt 0.1045703 0.5480847
vt 0.1037409 0.5485636
vt 0.1037409 0.5485636
vt 0.1053426 0.5476389
vt 0.1051398 0.5465556
vt 0.1055094 0.5465556
vt 0.1049988 0.5474256
vt 0.1044567 0.5479161
vt 0.104367 0.5477828
vt 0.1045703 0.5480847
vt 0.1037409 0.5485636
vt 0.1037409 0.5481368
vt 0.1029118 0.548085
vt 0.1030137 0.5479107
vt 0.1030985 0.5477659
vt 0.1030879 0.5477598
vt 0.1021393 0.5476389
vt 0.1025088 0.5474256
vt 0.1055094 0.5465556
vt 0.1051398 0.5465556
vt 0.1049988 0.5474256
vt 0.1053426 0.5476389
vt 0.1045998 0.5480677
vt 0.1046015 0.5480667
vt 0.1044562 0.5479144
vt 0.1049988 0.5474256
vt 0.1043447 0.5477954
vt 0.1037409 0.5485636
vt 0.1037409 0.5481368
vt 0.1030372 0.5479136
vt 0.1029344 0.548098
vt 0.1031143 0.5477751
vt 0.1021393 0.5476389
vt 0.1025088 0.5474256
vt 0.1023332 0.5467304
vt 0.1021449 0.5467258
vt 0.1025036 0.5467346
vt 0.1021504 0.5458329
vt 0.1024977 0.5459594
vt 0.1036942 0.5448574
vt 0.1040291 0.5450135
vt 0.1037409 0.5481368
vt 0.1043561 0.547789
vt 0.104367 0.5477827
vt 0.1049988 0.5474254
vt 0.1049988 0.5474256
vt 0.1051398 0.5465556
vt 0.1051398 0.5465556
vt 0.1049988 0.5474256
vt 0.1043561 0.547789
vt 0.1043447 0.5477954
vt 0.1037409 0.5481368
vt 0.1037409 0.5481368
vt 0.1025088 0.5474256
vt 0.1025037 0.5467463
vt 0.1025036 0.5467346
vt 0.1024977 0.5459594
vt 0.1024977 0.5459594
vt 0.1040291 0.5450135
vt 0.1040291 0.5450135
vt 0.1040291 0.5431733
vt 0.1040291 0.5431733
vt 0.1051398 0.5465556
vt 0.1055094 0.5465556
vt 0.1051398 0.5465556
vt 0.1055094 0.5465556
vt 0.1040291 0.5450135
vt 0.1021504 0.545833
vt 0.1036942 0.5448574
vt 0.1024977 0.5459594
vt 0.102359 0.5467599
vt 0.1021447 0.5467598
vt 0.1025038 0.54676
vt 0.1021393 0.5476389
vt 0.1025088 0.5474254
vt 0.1036942 0.5448574
vt 0.1040291 0.5431733
vt 0.1040291 0.5450135
vt 0.1036942 0.5431733
vt 0.1038616 0.5427878
vt 0.09634124 0.5410367
vt 0.1113821 0.5410367
vt 0.09658901 0.5407414
vt 0.09632558 0.5403666
vt 0.1111343 0.5407414
vt 0.1113977 0.5403665
vt 0.1113977 0.5403665
vt 0.1113821 0.5410367
vt 0.1040291 0.5450135
vt 0.1040291 0.5431733
vt 0.1036942 0.5431733
vt 0.1036942 0.5448574
vt 0.1040291 0.5431733
vt 0.1038616 0.5427878
vt 0.09634124 0.5410367
vt 0.1113821 0.5410367
vt 0.1111343 0.5407414
vt 0.1113977 0.5403665
vt 0.09658901 0.5407414
vt 0.09632558 0.5403666
vt 0.1038616 0.5427878
vt 0.09658901 0.5407414
vt 0.09658901 0.5407414
vt 0.1038616 0.5427878
vt 0.1111343 0.5407414
vt 0.1111343 0.5407414
vt 0.1036942 0.5431733
vt 0.09634124 0.5410367
vt 0.09634124 0.5410367
vt 0.1036942 0.5431733
vt 0.1040291 0.5431733
vt 0.1113821 0.5410367
vt 0.1113821 0.5410367
vt 0.1040291 0.5431733
vt 0.09632558 0.5403666
vt 0.09634124 0.5410367
vt 0.09632558 0.5403666
vt 0.09634124 0.5410367
vt 0.09632558 0.5403666
vt 0.1113977 0.5403665
vt 0.09632558 0.5403666
vt 0.1113977 0.5403665
vt 0.09658901 0.5407414
vt 0.1111343 0.5407414
vt 0.09658901 0.5407414
vt 0.1111343 0.5407414
vn 0.8642456 -0.001099457 -0.5030689
vn 0.9999982 6.95195E-05 0.00192303
vn 0.9999968 -0.001016777 -0.00235623
vn 0.9999982 6.95195E-05 0.00192303
vn 0.8755603 0.001585075 0.4831063
vn 0.8754787 0.001683684 0.4832537
vn 0.9999982 6.95195E-05 0.00192303
vn 0.9999796 0.001193809 0.006276652
vn 0.8648548 -0.0005176347 -0.5020219
vn 0.8642456 -0.001099457 -0.5030689
vn 0.9647499 0 -0.2631685
vn 0.9647499 0 -0.2631682
vn 0.9925233 0 0.1220559
vn 0.9925233 0 0.122056
vn 0.4927334 -4.746715E-05 0.8701803
vn 0.8755603 0.001585075 0.4831063
vn 0.4892534 0.0009202617 0.8721413
vn 0.4961826 -0.001044545 0.8682176
vn -0.02855381 0.0005439245 0.9995921
vn -0.02624837 -0.000511238 0.9996552
vn -0.8656208 -0.001996635 -0.5006961
vn -0.4949016 -0.000420511 -0.8689489
vn -0.3315804 -0.7488152 -0.573873
vn -0.007857646 0.001362428 -0.9999682
vn -0.1741451 -0.7070316 -0.685405
vn -0.1741451 -0.7070316 -0.685405
vn -0.3315804 -0.7488152 -0.573873
vn -0.4949016 -0.000420511 -0.8689489
vn -0.007550467 0.001862898 -0.9999698
vn -0.007857646 0.001362428 -0.9999682
vn -0.4896063 0.001410063 -0.8719425
vn -0.8653488 -0.001793211 -0.5011669
vn -0.8656208 -0.001996635 -0.5006961
vn -0.9997632 -0.0001198309 -0.02176188
vn -0.9996575 0.0008098606 -0.02615809
vn -0.8626354 0.001033591 0.5058252
vn -0.862583 -0.0008656658 0.5059148
vn -0.9966101 0 0.08226983
vn -0.9966101 0 0.08226982
vn -0.8615039 -0.0017371 0.5077481
vn -0.5134699 -0.0001886456 0.8581076
vn -0.3757234 0.6877208 0.6211861
vn -0.02855381 0.0005439245 0.9995921
vn -0.2258198 0.7081412 0.6689854
vn -0.8615039 -0.0017371 0.5077481
vn -0.5134699 -0.0001886456 0.8581076
vn -0.5089979 -0.001350202 0.8607667
vn -0.02624837 -0.000511238 0.9996552
vn -0.02855381 0.0005439245 0.9995921
vn -0.1215171 -0.9588366 -0.2566439
vn -0.249695 -0.8121365 -0.5273393
vn -0.249695 -0.8121365 -0.5273393
vn -0.1338105 -0.9498569 -0.2826069
vn 0 -1 0
vn 0 -1 -8.790005E-06
vn 0 -1 0
vn 0 -1 -8.326551E-06
vn 0 -1 -8.61397E-06
vn 0 -1 0
vn 0 -1 0
vn -0.1741451 -0.7070316 -0.685405
vn -0.3315804 -0.7488152 -0.573873
vn 0 -1 0
vn 0 -1 0
vn -0.2496989 0.812137 -0.5273367
vn -0.2496989 0.812137 -0.5273367
vn -0.1334625 0.9501277 -0.2818602
vn -0.1210515 0.9591612 -0.2556491
vn -0.2258198 0.7081412 0.6689854
vn -0.3757234 0.6877208 0.6211861
vn 0 1 0
vn -0.1334625 0.9501277 -0.2818602
vn 0 1 0
vn 0 1 0
vn 0 1 0
vn 0 1 0
vn 0 1 0
vn 0 1 0
vn 0 1 0
vn 0 1 0
vn 0 1 0
vn 0 1 0
vn 0 1 0
vn 0 1 0
vn 0 1 0
vn 0 1 0
vn 0 1 0
vn -0.007857646 0.001362428 -0.9999682
vn 0.4885738 4.667017E-05 -0.8725225
vn 0.4931296 0.001131873 -0.8699551
vn 0.8344501 -0.0006943541 -0.5510831
vn 0.8330521 -0.001556424 -0.5531923
vn 0.9698901 0 -0.2435433
vn 0.9698898 0 -0.243544
vn 0.8330521 -0.001556424 -0.5531923
vn 0.4885738 4.667017E-05 -0.8725225
vn 0.4839759 -0.001045232 -0.8750806
vn -0.007550467 0.001862898 -0.9999698
vn -0.007857646 0.001362428 -0.9999682
vn -0.8653488 -0.001793211 -0.5011669
vn -0.9997632 -0.0001198309 -0.02176188
vn -0.999853 -0.001073727 -0.01710921
vn -0.8618624 0.0004513356 0.5071421
vn -0.8626354 0.001033591 0.5058252
vn -0.9250597 0 0.3798217
vn -0.9250597 0 0.3798216
vn -0.9968844 0 0.07887588
vn -0.9968844 0 0.07887588
vn -0.1988662 0 -0.9800267
vn -0.1988672 0 -0.9800265
vn -0.1988675 0 -0.9800264
vn -0.1988658 0 -0.9800267
vn 0 -1 0
vn 0 -1 0
vn 0 -1 8.773432E-06
vn 0 -1 0
vn 0 -1 0
vn 0 -1 0
vn 0 -1 0
vn 0 -1 0
vn 0 -1 0
vn 0.08581807 -0.7633815 0.6402218
vn -0.0008958175 -0.9754032 0.2204263
vn 0.08581807 -0.7633815 0.6402218
vn 0.06284742 -0.9725264 0.2241486
vn -0.001153164 -0.9996217 -0.02747871
vn 0.6502272 -0.7596371 -0.01249674
vn -0.6521447 -0.7579685 -0.01382004
vn 0.02176622 -0.9995661 -0.01984303
vn 0.7117307 -0.702274 0.01582671
vn -0.02500326 -0.9994982 -0.01944767
vn -0.712637 -0.7013153 0.0174681
vn -0.7126498 0.7013026 0.01745889
vn -0.6521444 0.7579688 -0.01381972
vn 0.08582032 0.7633806 0.6402225
vn -0.000895325 0.9754027 0.2204288
vn 0.06284884 0.9725258 0.2241507
vn 0.08582032 0.7633806 0.6402225
vn -0.000895325 0.9754027 0.2204288
vn -0.001152941 0.9996217 -0.02747565
vn 0.6502292 0.7596353 -0.01249311
vn -0.6521444 0.7579688 -0.01381972
vn -0.0250249 0.9994981 -0.01942197
vn -0.7126498 0.7013026 0.01745889
vn 0.02178941 0.9995661 -0.01981597
vn 0.7117441 0.7022607 0.01581836
vn -0.002452291 0 -0.999997
vn -0.9993805 0 -0.03519616
vn -0.9993805 0 -0.03519463
vn -0.002452406 0 -0.999997
vn 0.9993441 0 -0.03621474
vn 0.9993441 0 -0.03621336
vn 0.3360451 0 0.9418459
vn 0.3360451 0 0.9418459
vn 0.3360451 0 0.9418459
vn 0.3360451 0 0.9418459
vn -0.3313867 0 0.943495
vn -0.3313866 0 0.943495
vn -0.3313866 0 0.943495
vn -0.3313866 0 0.943495
vn 0.7117307 -0.702274 0.01582671
vn 0.6502292 0.7596353 -0.01249311
vn 0.7117441 0.7022607 0.01581836
vn 0.6502272 -0.7596371 -0.01249674
vn -0.0005852656 0 -0.9999999
vn -0.000585284 0 -0.9999999
vn -0.0005852639 0 -0.9999999
vn -0.0005852858 0 -0.9999999
vn -0.9993805 0 -0.03519616
vn 0.9993441 0 -0.03621474
vn -0.9993805 0 -0.03519463
vn 0.9993441 0 -0.03621336
g a hanger 3_0
f 3/3/3 2/2/2 1/1/1
f 3/3/3 5/5/5 4/4/4
f 5/5/5 6/6/6 4/4/4
f 8/8/8 7/7/7 6/6/6
f 8/8/8 9/9/9 7/7/7
f 9/9/9 10/10/10 7/7/7
f 9/9/9 11/11/11 10/10/10
f 12/12/12 10/10/10 11/11/11
f 12/12/12 11/11/11 13/13/13
f 14/14/14 13/13/13 11/11/11
f 6/6/6 16/16/16 15/15/15
f 17/17/17 15/15/15 16/16/16
f 18/18/18 6/6/6 15/15/15
f 17/17/17 19/19/19 15/15/15
f 18/18/18 15/15/15 20/20/20
f 19/19/19 20/20/20 15/15/15
f 23/23/23 22/22/22 21/21/21
f 25/25/25 24/24/24 22/22/22
f 28/28/28 27/27/27 26/26/26
f 30/30/30 29/29/29 28/28/28
f 31/31/31 28/28/28 29/29/29
f 31/31/31 32/32/32 28/28/28
f 32/32/32 33/33/33 28/28/28
f 33/33/33 32/32/32 34/34/34
f 35/35/35 33/33/33 34/34/34
f 35/35/35 34/34/34 36/36/36
f 39/39/39 38/38/38 37/37/37
f 40/40/40 37/37/37 38/38/38
f 37/37/37 40/40/40 41/41/41
f 42/42/42 37/37/37 41/41/41
f 42/42/42 41/41/41 43/43/43
f 44/44/44 42/42/42 43/43/43
f 47/47/47 46/46/46 45/45/45
f 47/47/47 48/48/48 46/46/46
f 48/48/48 49/49/49 46/46/46
f 52/52/52 51/51/51 50/50/50
f 51/51/51 53/53/53 50/50/50
f 50/50/50 53/53/53 54/54/54
f 55/55/55 54/54/54 53/53/53
f 56/56/56 50/50/50 54/54/54
f 56/56/56 54/54/54 57/57/57
f 55/55/55 58/58/58 54/54/54
f 58/58/58 57/57/57 54/54/54
f 59/59/59 57/57/57 58/58/58
f 60/60/60 59/59/59 58/58/58
f 60/60/60 58/58/58 61/61/61
f 61/61/61 62/62/62 60/60/60
f 59/59/59 60/60/60 62/62/62
f 63/63/63 59/59/59 62/62/62
f 62/62/62 64/64/64 63/63/63
f 67/67/67 66/66/66 65/65/65
f 68/68/68 67/67/67 65/65/65
f 70/70/70 69/69/69 68/68/68
f 69/69/69 71/71/71 68/68/68
f 72/72/72 68/68/68 71/71/71
f 73/73/73 72/72/72 71/71/71
f 69/69/69 74/74/74 71/71/71
f 73/73/73 71/71/71 75/75/75
f 74/74/74 75/75/75 71/71/71
f 75/75/75 74/74/74 76/76/76
f 77/77/77 76/76/76 74/74/74
f 78/78/78 75/75/75 76/76/76
f 77/77/77 79/79/79 76/76/76
f 78/78/78 76/76/76 80/80/80
f 79/79/79 80/80/80 76/76/76
f 80/80/80 79/79/79 81/81/81
f 82/82/82 81/81/81 79/79/79
f 83/83/83 80/80/80 81/81/81
f 82/82/82 84/84/84 81/81/81
f 83/83/83 81/81/81 85/85/85
f 84/84/84 85/85/85 81/81/81
f 84/84/84 86/86/86 85/85/85
f 87/87/87 85/85/85 86/86/86
f 90/90/90 89/89/89 88/88/88
f 90/90/90 91/91/91 89/89/89
f 91/91/91 92/92/92 89/89/89
f 92/92/92 91/91/91 93/93/93
f 94/94/94 93/93/93 91/91/91
f 97/97/97 96/96/96 95/95/95
f 97/97/97 98/98/98 96/96/96
f 98/98/98 99/99/99 96/96/96
f 102/102/102 101/101/101 100/100/100
f 102/102/102 103/103/103 101/101/101
f 103/103/103 104/104/104 101/101/101
f 103/103/103 105/105/105 104/104/104
f 106/106/106 104/104/104 105/105/105
f 106/106/106 105/105/105 107/107/107
f 108/108/108 107/107/107 105/105/105
f 111/111/111 110/110/110 109/109/109
f 112/112/112 109/109/109 110/110/110
f 115/115/115 114/114/114 113/113/113
f 116/116/116 113/113/113 114/114/114
f 116/116/116 114/114/114 117/117/117
f 118/118/118 117/117/117 114/114/114
f 119/119/119 116/116/116 117/117/117
f 117/117/117 118/118/118 120/120/120
f 120/120/120 119/119/119 117/117/117
f 120/120/120 121/121/121 119/119/119
f 124/124/124 123/123/123 122/122/122
f 123/123/123 125/125/125 122/122/122
f 126/126/126 125/125/125 123/123/123
f 125/125/125 126/126/126 127/127/127
f 123/123/123 128/128/128 126/126/126
f 129/129/129 127/127/127 126/126/126
f 130/130/130 127/127/127 129/129/129
f 129/129/129 131/131/131 130/130/130
f 131/131/131 126/126/126 128/128/128
f 132/132/132 130/130/130 131/131/131
f 132/132/132 131/131/131 128/128/128
f 132/132/132 128/128/128 133/133/133
f 134/134/134 133/133/133 128/128/128
f 137/137/137 136/136/136 135/135/135
f 138/138/138 137/137/137 135/135/135
f 140/140/140 139/139/139 137/137/137
f 137/137/137 141/141/141 140/140/140
f 139/139/139 140/140/140 142/142/142
f 143/143/143 142/142/142 140/140/140
f 144/144/144 142/142/142 143/143/143
f 145/145/145 140/140/140 141/141/141
f 143/143/143 145/145/145 144/144/144
f 146/146/146 145/145/145 141/141/141
f 146/146/146 144/144/144 145/145/145
f 149/149/149 148/148/148 147/147/147
f 150/150/150 147/147/147 148/148/148
f 147/147/147 150/150/150 151/151/151
f 152/152/152 151/151/151 150/150/150
f 155/155/155 154/154/154 153/153/153
f 156/156/156 153/153/153 154/154/154
f 159/159/159 158/158/158 157/157/157
f 160/160/160 157/157/157 158/158/158
f 163/163/163 162/162/162 161/161/161
f 164/164/164 161/161/161 162/162/162
f 167/167/167 166/166/166 165/165/165
f 168/168/168 165/165/165 166/166/166
f 171/171/171 170/170/170 169/169/169
f 172/172/172 169/169/169 170/170/170
