g banana
v -0.2579719 0.39696 1.120371E-08
v -0.2262866 0.2660981 0.1111018
v -0.2776709 0.3925599 0.03355397
v -0.1687935 0.279891 1.286572E-07
v -0.1420807 0.1022381 0.1841569
v -0.05920399 0.1452615 1.82293E-07
v -0.04259795 -0.0438439 0.1994648
v 0.03544801 0.01699606 1.886102E-07
v 0.09850314 -0.1594481 0.1955976
v 0.1623315 -0.08869696 2.648299E-07
v 0.2819271 -0.2407212 0.1721481
v 0.3230665 -0.1684993 3.590333E-07
v 0.4607903 -0.2754254 0.1378765
v 0.473452 -0.2092262 4.134582E-07
v 0.6141263 -0.2371694 0.05485194
v 0.607438 -0.213084 4.368281E-07
v 0.6462905 -0.2217745 0.0497785
v 0.6350804 -0.2009791 4.446979E-07
v -0.2776708 0.3925598 -0.03355402
v -0.1687935 0.279891 1.286572E-07
v -0.2579719 0.39696 1.120371E-08
v -0.2262864 0.2660981 -0.1111018
v -0.05920399 0.1452615 1.82293E-07
v -0.1420806 0.1022385 -0.184157
v 0.03544801 0.01699606 1.886102E-07
v -0.04259789 -0.04384347 -0.1994648
v 0.1623315 -0.08869696 2.648299E-07
v 0.09850343 -0.159448 -0.1955975
v 0.3230665 -0.1684993 3.590333E-07
v 0.2819275 -0.2407211 -0.1721478
v 0.473452 -0.2092262 4.134582E-07
v 0.4607906 -0.2754253 -0.1378759
v 0.607438 -0.213084 4.368281E-07
v 0.6141261 -0.2371696 -0.05485116
v 0.6350804 -0.2009791 4.446979E-07
v 0.6462902 -0.2217749 -0.04977767
v -0.3283105 0.5471497 0.0646129
v -0.3361814 0.3798513 -8.480878E-08
v -0.3649525 0.5484502 -7.552369E-08
v -0.3167781 0.3840034 0.03263569
v -0.3949172 0.2279485 -2.189328E-07
v -0.3394055 0.2400789 0.1051939
v -0.3877891 -0.02437767 -3.806292E-07
v -0.3064298 0.01737148 0.1802857
v -0.2765964 -0.2262455 -4.007255E-07
v -0.1986222 -0.165466 0.1992861
v -0.09201401 -0.3708895 -2.589146E-07
v -0.0286939 -0.3005647 0.1943154
v 0.1627538 -0.4538251 -2.964459E-08
v 0.2016731 -0.383466 0.165464
v 0.4281611 -0.4695293 1.525359E-07
v 0.4380041 -0.4056952 0.1248219
v 0.6342626 -0.3093655 3.751816E-07
v 0.6275321 -0.2853155 0.05154065
v 0.6799207 -0.2841613 4.174651E-07
v 0.6687107 -0.2633655 0.04977854
v -0.2550262 0.5445485 0.06461293
v -0.3167781 0.3840034 0.03263569
v -0.3283105 0.5471497 0.0646129
v -0.2776709 0.3925599 0.03355397
v -0.3394055 0.2400789 0.1051939
v -0.2262866 0.2660981 0.1111018
v -0.3064298 0.01737148 0.1802857
v -0.1420807 0.1022381 0.1841569
v -0.1986222 -0.165466 0.1992861
v -0.04259795 -0.0438439 0.1994648
v -0.0286939 -0.3005647 0.1943154
v 0.09850314 -0.1594481 0.1955976
v 0.2016731 -0.383466 0.165464
v 0.2819271 -0.2407212 0.1721481
v 0.4380041 -0.4056952 0.1248219
v 0.4607903 -0.2754254 0.1378765
v 0.6275321 -0.2853155 0.05154065
v 0.6141263 -0.2371694 0.05485194
v 0.6687107 -0.2633655 0.04977854
v 0.6462905 -0.2217745 0.0497785
v -0.2776709 0.3925599 0.03355397
v -0.2183843 0.5432484 9.916251E-08
v -0.2579719 0.39696 1.120371E-08
v -0.2550262 0.5445485 0.06461293
v -0.2579719 0.39696 1.120371E-08
v -0.2550264 0.5445487 -0.06461287
v -0.2776708 0.3925598 -0.03355402
v -0.2183843 0.5432484 9.916251E-08
v -0.3283103 0.5471497 -0.06461293
v -0.2776708 0.3925598 -0.03355402
v -0.2550264 0.5445487 -0.06461287
v -0.3167782 0.3840035 -0.03263584
v -0.2262864 0.2660981 -0.1111018
v -0.3394055 0.2400791 -0.1051941
v -0.1420806 0.1022385 -0.184157
v -0.3064295 0.01737167 -0.1802862
v -0.04259789 -0.04384347 -0.1994648
v -0.1986219 -0.1654659 -0.1992867
v 0.09850343 -0.159448 -0.1955975
v -0.02869359 -0.3005646 -0.1943159
v 0.2819275 -0.2407211 -0.1721478
v 0.2016734 -0.3834658 -0.1654639
v 0.4607906 -0.2754253 -0.1378759
v 0.4380044 -0.405695 -0.1248215
v 0.6141261 -0.2371696 -0.05485116
v 0.6275319 -0.2853157 -0.05153988
v 0.6462902 -0.2217749 -0.04977767
v 0.6687104 -0.2633659 -0.04977765
v -0.3649525 0.5484502 -7.552369E-08
v -0.3167782 0.3840035 -0.03263584
v -0.3283103 0.5471497 -0.06461293
v -0.3361814 0.3798513 -8.480878E-08
v -0.3394055 0.2400791 -0.1051941
v -0.3949172 0.2279485 -2.189328E-07
v -0.3064295 0.01737167 -0.1802862
v -0.3877891 -0.02437767 -3.806292E-07
v -0.1986219 -0.1654659 -0.1992867
v -0.2765964 -0.2262455 -4.007255E-07
v -0.02869359 -0.3005646 -0.1943159
v -0.09201401 -0.3708895 -2.589146E-07
v 0.2016734 -0.3834658 -0.1654639
v 0.1627538 -0.4538251 -2.964459E-08
v 0.4380044 -0.405695 -0.1248215
v 0.4281611 -0.4695293 1.525359E-07
v 0.6275319 -0.2853157 -0.05153988
v 0.6342626 -0.3093655 3.751816E-07
v 0.6687104 -0.2633659 -0.04977765
v 0.6799207 -0.2841613 4.174651E-07
v -0.2550262 0.5445485 0.06461293
v -0.2550264 0.5445487 -0.06461287
v -0.2183843 0.5432484 9.916251E-08
v -0.3649525 0.5484502 -7.552369E-08
v -0.3283105 0.5471497 0.0646129
v -0.3283103 0.5471497 -0.06461293
v 0.6687104 -0.2633659 -0.04977765
v 0.6350804 -0.2009791 4.446979E-07
v 0.6462902 -0.2217749 -0.04977767
v 0.6687107 -0.2633655 0.04977854
v 0.6799207 -0.2841613 4.174651E-07
v 0.6462905 -0.2217745 0.0497785
vt 0.1450894 0.8224825
vt 0.1515764 0.8127303
vt 0.1429941 0.8204087
vt 0.1558376 0.8194788
vt 0.1623297 0.8043151
vt 0.1684886 0.8145567
vt 0.1735983 0.7972964
vt 0.1797814 0.8086812
vt 0.1868513 0.7916113
vt 0.1921507 0.8035112
vt 0.2021768 0.7875816
vt 0.206177 0.7991332
vt 0.2162763 0.7856647
vt 0.2189384 0.7959486
vt 0.2299535 0.7884629
vt 0.2301645 0.793299
vt 0.2336857 0.7890414
vt 0.2337093 0.7934842
vt 0.154689 0.8461292
vt 0.1638314 0.8373898
vt 0.1546615 0.8433552
vt 0.1659994 0.8451465
vt 0.176159 0.8313922
vt 0.17955 0.8428612
vt 0.1881957 0.8270752
vt 0.1923871 0.8393312
vt 0.200405 0.8214856
vt 0.2055681 0.8334471
vt 0.2131223 0.8141466
vt 0.2189254 0.824891
vt 0.2239844 0.8070031
vt 0.2297989 0.8158087
vt 0.2337105 0.8006459
vt 0.2373424 0.8041144
vt 0.2360017 0.7978026
vt 0.2394176 0.800888
vt 0.1330853 0.828397
vt 0.1380062 0.8166642
vt 0.1291307 0.8249207
vt 0.1403908 0.8181605
vt 0.1379318 0.8046912
vt 0.1451716 0.8077149
vt 0.1456255 0.7876989
vt 0.154371 0.7953248
vt 0.1593148 0.7759278
vt 0.1662052 0.7862418
vt 0.1762873 0.7683649
vt 0.1808512 0.7798883
vt 0.1965975 0.7651691
vt 0.1983469 0.7765645
vt 0.2169465 0.7672281
vt 0.2150148 0.7766935
vt 0.2329674 0.7799234
vt 0.2308344 0.7841505
vt 0.2366172 0.7818083
vt 0.2346661 0.7856585
vt 0.1377224 0.8311253
vt 0.1403908 0.8181605
vt 0.1330853 0.828397
vt 0.1429941 0.8204087
vt 0.1451716 0.8077149
vt 0.1515764 0.8127303
vt 0.154371 0.7953248
vt 0.1623297 0.8043151
vt 0.1662052 0.7862418
vt 0.1735983 0.7972964
vt 0.1808512 0.7798883
vt 0.1868513 0.7916113
vt 0.1983469 0.7765645
vt 0.2021768 0.7875816
vt 0.2150148 0.7766935
vt 0.2162763 0.7856647
vt 0.2308344 0.7841505
vt 0.2299535 0.7884629
vt 0.2346661 0.7856585
vt 0.2336857 0.7890414
vt 0.1429941 0.8204087
vt 0.1428309 0.8329513
vt 0.1450894 0.8224825
vt 0.1377224 0.8311253
vt 0.1546615 0.8433552
vt 0.1434741 0.8422725
vt 0.154689 0.8461292
vt 0.1457528 0.8376371
vt 0.1421908 0.8474547
vt 0.154689 0.8461292
vt 0.1434741 0.8422725
vt 0.1546203 0.849508
vt 0.1659994 0.8451465
vt 0.1655563 0.8531897
vt 0.17955 0.8428612
vt 0.1808248 0.8547337
vt 0.1923871 0.8393312
vt 0.1955407 0.852214
vt 0.2055681 0.8334471
vt 0.2101864 0.8457992
vt 0.2189254 0.824891
vt 0.2245548 0.8352261
vt 0.2297989 0.8158087
vt 0.235741 0.8228071
vt 0.2373424 0.8041144
vt 0.2412404 0.8062076
vt 0.2394176 0.800888
vt 0.2426234 0.8024676
vt 0.1418736 0.8528833
vt 0.1546203 0.849508
vt 0.1421908 0.8474547
vt 0.1540089 0.8524715
vt 0.1655563 0.8531897
vt 0.1629136 0.8605086
vt 0.1808248 0.8547337
vt 0.1803593 0.8663298
vt 0.1955407 0.852214
vt 0.1983396 0.8643067
vt 0.2101864 0.8457992
vt 0.2154686 0.8569946
vt 0.2245548 0.8352261
vt 0.2316631 0.844257
vt 0.235741 0.8228071
vt 0.2440234 0.8278989
vt 0.2412404 0.8062076
vt 0.2455053 0.8073393
vt 0.2426234 0.8024676
vt 0.246565 0.8036039
vt 0.1441532 0.7803121
vt 0.1342863 0.7803121
vt 0.1392197 0.7831116
vt 0.1392197 0.7719135
vt 0.1441532 0.774713
vt 0.1342863 0.774713
vt 0.1427784 0.7665801
vt 0.1438919 0.7600616
vt 0.1412316 0.7633209
vt 0.1496458 0.7633209
vt 0.1469855 0.7665801
vt 0.148099 0.7600616
vn 0.6942715 0.5560479 0.4569439
vn 0.7077287 0.553832 0.4386232
vn 0.6773818 0.56449 0.4717044
vn 0.7070559 0.5542977 0.4391196
vn 0.7093457 0.5469083 0.4446571
vn 0.7076305 0.5486024 0.4453025
vn 0.651794 0.6150104 0.4437642
vn 0.650488 0.6168136 0.4431776
vn 0.5045155 0.7463537 0.4340739
vn 0.4898401 0.7549911 0.4359417
vn 0.3415984 0.8362063 0.4290331
vn 0.3198246 0.8422152 0.4340344
vn 0.1618415 0.8859939 0.4345368
vn 0.1239835 0.8921584 0.4343748
vn -0.1291649 0.8977417 0.4211607
vn -0.1634488 0.89337 0.4185388
vn -0.3463319 0.8403236 0.4170258
vn -0.3626132 0.828056 0.4275919
vn 0.7027496 0.541778 -0.461107
vn 0.7026464 0.5613114 -0.4372843
vn 0.6980537 0.5317488 -0.4795458
vn 0.7032412 0.5599923 -0.4380189
vn 0.7102189 0.5459255 -0.444471
vn 0.7105681 0.5445154 -0.4456411
vn 0.6492729 0.6177569 -0.4436453
vn 0.6511915 0.6160685 -0.4431809
vn 0.4885933 0.7575115 -0.4329584
vn 0.5027182 0.7461969 -0.4364224
vn 0.3194542 0.8454079 -0.4280591
vn 0.3414808 0.8334395 -0.4344763
vn 0.134496 0.8902484 -0.435165
vn 0.1691827 0.8837281 -0.4363506
vn -0.1788757 0.8885136 -0.4225483
vn -0.1484956 0.8969044 -0.4165472
vn -0.3552417 0.8368805 -0.4164545
vn -0.3348954 0.8402345 -0.4264401
vn -0.8585504 -0.1490763 0.4905786
vn -0.9909993 0.1337865 0.004638943
vn -0.9850097 -0.1724802 -0.002522193
vn -0.8657795 0.0849247 0.4931671
vn -0.9872698 0.1587787 0.009360153
vn -0.8892894 0.1377497 0.4361071
vn -0.9632366 -0.2686017 0.005324251
vn -0.8663505 -0.2347488 0.4408286
vn -0.7640148 -0.6451976 0.001181757
vn -0.681585 -0.5809236 0.4449379
vn -0.477143 -0.8788218 -0.002618289
vn -0.4150941 -0.8009877 0.4314112
vn -0.1872134 -0.9822907 -0.007488268
vn -0.1498798 -0.8920346 0.426392
vn 0.2682149 -0.9633083 -0.009897464
vn 0.2920955 -0.8579781 0.4225562
vn 0.5638116 -0.8258576 -0.008697446
vn 0.5220456 -0.744425 0.416293
vn 0.4838991 -0.8751236 -0.0006796561
vn 0.4391837 -0.7894981 0.4287313
vn -0.00265874 -0.1943576 0.9809271
vn -0.0678628 0.1886519 0.9796964
vn -0.006843935 -0.1928048 0.9812133
vn -0.05568572 0.120222 0.991184
vn -0.1321144 0.3759503 0.9171734
vn -0.1503499 0.3806586 0.9124111
vn -0.1072403 0.1815545 0.9775159
vn -0.1201821 0.1904777 0.9743072
vn -0.02270346 0.02620823 0.9993987
vn -0.0190513 0.02218716 0.9995723
vn 0.04587349 -0.04971956 0.9977092
vn 0.05438124 -0.05988286 0.996723
vn 0.1153112 -0.1093061 0.9872971
vn 0.125985 -0.1149972 0.9853444
vn 0.2656302 -0.1442506 0.9532221
vn 0.3214078 -0.1317144 0.9377357
vn 0.2994905 -0.02608006 0.9537427
vn 0.2789035 0.03875742 0.9595367
vn 0.09139622 -0.002418053 0.9958117
vn 0.1241312 0.06691543 0.9900069
vn 0.8501555 -0.2288992 0.4741737
vn 0.8466593 -0.2258153 0.481846
vn 0.8520315 -0.2305717 0.4699777
vn 0.8456251 -0.2249111 0.4840796
vn 0.8509337 -0.2248156 -0.4747313
vn 0.846246 -0.2277548 -0.481659
vn 0.8530751 -0.2234526 -0.4715205
vn 0.84484 -0.228625 -0.4837107
vn -0.002816811 -0.1978616 -0.9802259
vn -0.05619539 0.1338995 -0.9894003
vn -0.00706898 -0.1991959 -0.9799342
vn -0.07384 0.2007774 -0.97685
vn -0.1372295 0.4006546 -0.905894
vn -0.1511754 0.3846292 -0.9106078
vn -0.1075023 0.183797 -0.9770681
vn -0.1104245 0.1713368 -0.9790046
vn -0.02033826 0.02320336 -0.9995239
vn -0.02300182 0.02736513 -0.9993609
vn 0.05433524 -0.05745984 -0.9968681
vn 0.04473885 -0.05073819 -0.9977094
vn 0.1291709 -0.1173411 -0.9846553
vn 0.1175314 -0.1108716 -0.9868607
vn 0.3499055 -0.1555074 -0.9237877
vn 0.2737612 -0.1292662 -0.9530714
vn 0.2797952 -0.02778049 -0.9596577
vn 0.2368222 0.01858333 -0.9713752
vn 0.1022305 -0.002591958 -0.9947574
vn 0.03321946 0.01790681 -0.9992877
vn -0.9850097 -0.1724802 -0.002522193
vn -0.8631146 0.1052776 -0.4939127
vn -0.8605703 -0.1558712 -0.4848948
vn -0.9909993 0.1337865 0.004638943
vn -0.879382 0.1571192 -0.449445
vn -0.9872698 0.1587787 0.009360153
vn -0.860046 -0.236065 -0.4523207
vn -0.9632366 -0.2686017 0.005324251
vn -0.6779153 -0.5836344 -0.4469918
vn -0.7640148 -0.6451976 0.001181757
vn -0.412196 -0.8059215 -0.424953
vn -0.477143 -0.8788218 -0.002618289
vn -0.1476737 -0.8998325 -0.41048
vn -0.1872134 -0.9822907 -0.007488268
vn 0.2821721 -0.8690803 -0.4062983
vn 0.2682149 -0.9633083 -0.009897464
vn 0.5086308 -0.7591855 -0.4061184
vn 0.5638116 -0.8258576 -0.008697446
vn 0.4382147 -0.7907295 -0.4274515
vn 0.4838991 -0.8751236 -0.0006796561
vn 0.03546898 0.9993708 4.160144E-07
vn 0.03546802 0.9993709 5.967414E-07
vn 0.0354632 0.999371 1.324156E-06
vn 0.03547028 0.9993708 -2.708756E-07
vn 0.03547226 0.9993706 -2.243855E-06
vn 0.0354685 0.9993709 -1.533715E-06
vn 0.8802503 0.4745095 -5.447798E-06
vn 0.8802506 0.4745091 -4.393097E-06
vn 0.8802505 0.4745094 -6.643327E-06
vn 0.8802502 0.4745099 -3.698025E-06
vn 0.880249 0.4745121 -4.935007E-06
vn 0.8802497 0.4745108 -8.881601E-07
g banana_0
f 3/3/3 2/2/2 1/1/1
f 4/4/4 1/1/1 2/2/2
f 2/2/2 5/5/5 4/4/4
f 6/6/6 4/4/4 5/5/5
f 5/5/5 7/7/7 6/6/6
f 8/8/8 6/6/6 7/7/7
f 7/7/7 9/9/9 8/8/8
f 10/10/10 8/8/8 9/9/9
f 9/9/9 11/11/11 10/10/10
f 12/12/12 10/10/10 11/11/11
f 11/11/11 13/13/13 12/12/12
f 14/14/14 12/12/12 13/13/13
f 13/13/13 15/15/15 14/14/14
f 16/16/16 14/14/14 15/15/15
f 15/15/15 17/17/17 16/16/16
f 18/18/18 16/16/16 17/17/17
f 21/21/21 20/20/20 19/19/19
f 22/22/22 19/19/19 20/20/20
f 20/20/20 23/23/23 22/22/22
f 24/24/24 22/22/22 23/23/23
f 23/23/23 25/25/25 24/24/24
f 26/26/26 24/24/24 25/25/25
f 25/25/25 27/27/27 26/26/26
f 28/28/28 26/26/26 27/27/27
f 27/27/27 29/29/29 28/28/28
f 30/30/30 28/28/28 29/29/29
f 29/29/29 31/31/31 30/30/30
f 32/32/32 30/30/30 31/31/31
f 31/31/31 33/33/33 32/32/32
f 34/34/34 32/32/32 33/33/33
f 33/33/33 35/35/35 34/34/34
f 36/36/36 34/34/34 35/35/35
f 39/39/39 38/38/38 37/37/37
f 40/40/40 37/37/37 38/38/38
f 38/38/38 41/41/41 40/40/40
f 42/42/42 40/40/40 41/41/41
f 41/41/41 43/43/43 42/42/42
f 44/44/44 42/42/42 43/43/43
f 43/43/43 45/45/45 44/44/44
f 46/46/46 44/44/44 45/45/45
f 45/45/45 47/47/47 46/46/46
f 48/48/48 46/46/46 47/47/47
f 47/47/47 49/49/49 48/48/48
f 50/50/50 48/48/48 49/49/49
f 49/49/49 51/51/51 50/50/50
f 52/52/52 50/50/50 51/51/51
f 51/51/51 53/53/53 52/52/52
f 54/54/54 52/52/52 53/53/53
f 53/53/53 55/55/55 54/54/54
f 56/56/56 54/54/54 55/55/55
f 59/59/59 58/58/58 57/57/57
f 60/60/60 57/57/57 58/58/58
f 58/58/58 61/61/61 60/60/60
f 62/62/62 60/60/60 61/61/61
f 61/61/61 63/63/63 62/62/62
f 64/64/64 62/62/62 63/63/63
f 63/63/63 65/65/65 64/64/64
f 66/66/66 64/64/64 65/65/65
f 65/65/65 67/67/67 66/66/66
f 68/68/68 66/66/66 67/67/67
f 67/67/67 69/69/69 68/68/68
f 70/70/70 68/68/68 69/69/69
f 69/69/69 71/71/71 70/70/70
f 72/72/72 70/70/70 71/71/71
f 71/71/71 73/73/73 72/72/72
f 74/74/74 72/72/72 73/73/73
f 73/73/73 75/75/75 74/74/74
f 76/76/76 74/74/74 75/75/75
f 79/79/79 78/78/78 77/77/77
f 80/80/80 77/77/77 78/78/78
f 83/83/83 82/82/82 81/81/81
f 84/84/84 81/81/81 82/82/82
f 87/87/87 86/86/86 85/85/85
f 88/88/88 85/85/85 86/86/86
f 86/86/86 89/89/89 88/88/88
f 90/90/90 88/88/88 89/89/89
f 89/89/89 91/91/91 90/90/90
f 92/92/92 90/90/90 91/91/91
f 91/91/91 93/93/93 92/92/92
f 94/94/94 92/92/92 93/93/93
f 93/93/93 95/95/95 94/94/94
f 96/96/96 94/94/94 95/95/95
f 95/95/95 97/97/97 96/96/96
f 98/98/98 96/96/96 97/97/97
f 97/97/97 99/99/99 98/98/98
f 100/100/100 98/98/98 99/99/99
f 99/99/99 101/101/101 100/100/100
f 102/102/102 100/100/100 101/101/101
f 101/101/101 103/103/103 102/102/102
f 104/104/104 102/102/102 103/103/103
f 107/107/107 106/106/106 105/105/105
f 108/108/108 105/105/105 106/106/106
f 106/106/106 109/109/109 108/108/108
f 110/110/110 108/108/108 109/109/109
f 109/109/109 111/111/111 110/110/110
f 112/112/112 110/110/110 111/111/111
f 111/111/111 113/113/113 112/112/112
f 114/114/114 112/112/112 113/113/113
f 113/113/113 115/115/115 114/114/114
f 116/116/116 114/114/114 115/115/115
f 115/115/115 117/117/117 116/116/116
f 118/118/118 116/116/116 117/117/117
f 117/117/117 119/119/119 118/118/118
f 120/120/120 118/118/118 119/119/119
f 119/119/119 121/121/121 120/120/120
f 122/122/122 120/120/120 121/121/121
f 121/121/121 123/123/123 122/122/122
f 124/124/124 122/122/122 123/123/123
f 127/127/127 126/126/126 125/125/125
f 126/126/126 128/128/128 125/125/125
f 125/125/125 128/128/128 129/129/129
f 130/130/130 128/128/128 126/126/126
f 133/133/133 132/132/132 131/131/131
f 132/132/132 134/134/134 131/131/131
f 131/131/131 134/134/134 135/135/135
f 136/136/136 134/134/134 132/132/132
