g book
v -0.2378393 0.3471207 -0.04608867
v 0.2626815 0.3471207 7.200157E-08
v -0.2488175 0.3471207 -1.632634E-07
v 0.2626816 0.3471206 -0.08889993
v -0.2072466 0.3471207 -0.08890014
v -0.2072466 0.3809999 -0.08890015
v 0.2843876 0.3809999 -0.1269999
v 0.2843876 0.3809999 -0.08889992
v -0.2238854 0.3809999 -0.1270002
v -0.2378393 0.3809999 -0.04608868
v -0.269262 0.3809999 -0.06350017
v -0.2488175 0.3809999 -1.677746E-07
v -0.2843875 0.3809999 -1.841351E-07
v 0.2843876 0.3809999 -0.08889992
v -0.2072466 0.3471207 -0.08890014
v -0.2072466 0.3809999 -0.08890015
v 0.2626816 0.3471206 -0.08889993
v 0.2843875 2.158288E-08 -0.08889987
v 0.2626816 2.210056E-08 -0.08889988
v 0.2626816 -0.3471206 -0.08889984
v 0.2843875 -0.3809999 -0.08889981
v -0.2072466 -0.3471206 -0.08890005
v -0.2072466 -0.3809999 -0.08890004
v -0.2378393 0.3471207 -0.04608867
v -0.2072466 0.3809999 -0.08890015
v -0.2072466 0.3471207 -0.08890014
v -0.2378393 0.3809999 -0.04608868
v -0.2488175 0.3471207 -1.632634E-07
v -0.2488175 0.3809999 -1.677746E-07
v -0.269262 0.3809999 -0.06350017
v -0.2238854 2.863172E-08 -0.1270001
v -0.2238854 0.3809999 -0.1270002
v -0.269262 3.816947E-08 -0.06350012
v -0.2843875 0.3809999 -1.841351E-07
v -0.2843875 4.698575E-08 -1.334019E-07
v -0.2843875 -0.3809999 -8.266871E-08
v -0.269262 -0.3809999 -0.06350007
v -0.2238854 -0.3809999 -0.1270001
v -0.2238854 0.3809999 -0.1270002
v 0.2843875 1.650955E-08 -0.1269999
v 0.2843876 0.3809999 -0.1269999
v -0.2238854 2.863172E-08 -0.1270001
v -0.2238854 -0.3809999 -0.1270001
v 0.2843875 -0.3809999 -0.1269998
v 0.2843876 0.3809999 -0.1269999
v 0.2843875 2.158288E-08 -0.08889987
v 0.2843876 0.3809999 -0.08889992
v 0.2843875 1.650955E-08 -0.1269999
v 0.2843875 -0.3809999 -0.1269998
v 0.2843875 -0.3809999 -0.08889981
v 0.2626816 0.3471206 -0.08889993
v 0.2626815 3.393831E-08 1.182235E-07
v 0.2626815 0.3471207 7.200157E-08
v 0.2626816 2.210056E-08 -0.08889988
v 0.2626816 -0.3471206 -0.08889984
v 0.2626815 -0.3471206 1.644454E-07
v 0.2626815 -0.3471206 1.644454E-07
v -0.2378394 -0.3471206 -0.04608858
v -0.2488175 -0.3471206 -7.081952E-08
v 0.2626816 -0.3471206 -0.08889984
v -0.2072466 -0.3471206 -0.08890005
v 0.2843875 -0.3809999 -0.1269998
v -0.2072466 -0.3809999 -0.08890004
v 0.2843875 -0.3809999 -0.08889981
v -0.2238854 -0.3809999 -0.1270001
v -0.2378394 -0.3809999 -0.04608858
v -0.269262 -0.3809999 -0.06350007
v -0.2488175 -0.3809999 -6.630822E-08
v -0.2843875 -0.3809999 -8.266871E-08
v -0.2072466 -0.3809999 -0.08890004
v -0.2378394 -0.3471206 -0.04608858
v -0.2072466 -0.3471206 -0.08890005
v -0.2378394 -0.3809999 -0.04608858
v -0.2488175 -0.3471206 -7.081952E-08
v -0.2488175 -0.3809999 -6.630822E-08
v 0.2626815 0.3471207 7.200157E-08
v -0.2378394 0.3471207 0.04608835
v -0.2488175 0.3471207 -1.632634E-07
v 0.2626815 0.3471207 0.08890007
v -0.2072467 0.3471207 0.08889985
v 0.2843874 0.381 0.1270001
v -0.2072467 0.3809999 0.08889985
v 0.2843874 0.381 0.08890007
v -0.2238855 0.3809999 0.1269998
v -0.2378394 0.3809999 0.04608835
v -0.269262 0.3809999 0.06349982
v -0.2488175 0.3809999 -1.677746E-07
v -0.2843875 0.3809999 -1.841351E-07
v -0.2072467 0.3471207 0.08889985
v 0.2843874 0.381 0.08890007
v -0.2072467 0.3809999 0.08889985
v 0.2626815 0.3471207 0.08890007
v 0.2843874 4.525838E-08 0.08890013
v 0.2626815 4.577606E-08 0.08890011
v 0.2626815 -0.3471206 0.08890016
v 0.2843874 -0.3809999 0.08890018
v -0.2072467 -0.3471206 0.08889995
v -0.2072467 -0.3809998 0.08889995
v -0.2072467 0.3809999 0.08889985
v -0.2378394 0.3471207 0.04608835
v -0.2072467 0.3471207 0.08889985
v -0.2378394 0.3809999 0.04608835
v -0.2488175 0.3471207 -1.632634E-07
v -0.2488175 0.3809999 -1.677746E-07
v -0.2238855 6.245386E-08 0.1269999
v -0.269262 0.3809999 0.06349982
v -0.2238855 0.3809999 0.1269998
v -0.269262 5.508055E-08 0.06349988
v -0.2843875 0.3809999 -1.841351E-07
v -0.2843875 4.698575E-08 -1.334019E-07
v -0.2843875 -0.3809999 -8.266871E-08
v -0.269262 -0.3809998 0.06349993
v -0.2238855 -0.3809998 0.1269999
v 0.2843874 5.03317E-08 0.1270001
v -0.2238855 0.3809999 0.1269998
v 0.2843874 0.381 0.1270001
v -0.2238855 6.245386E-08 0.1269999
v -0.2238855 -0.3809998 0.1269999
v 0.2843874 -0.3809999 0.1270002
v 0.2843874 4.525838E-08 0.08890013
v 0.2843874 0.381 0.1270001
v 0.2843874 0.381 0.08890007
v 0.2843874 5.03317E-08 0.1270001
v 0.2843874 -0.3809999 0.1270002
v 0.2843874 -0.3809999 0.08890018
v 0.2626815 3.393831E-08 1.182235E-07
v 0.2626815 0.3471207 0.08890007
v 0.2626815 0.3471207 7.200157E-08
v 0.2626815 4.577606E-08 0.08890011
v 0.2626815 -0.3471206 0.08890016
v 0.2626815 -0.3471206 1.644454E-07
v -0.2378394 -0.3471206 0.04608845
v 0.2626815 -0.3471206 1.644454E-07
v -0.2488175 -0.3471206 -7.081952E-08
v 0.2626815 -0.3471206 0.08890016
v -0.2072467 -0.3471206 0.08889995
v -0.2072467 -0.3809998 0.08889995
v 0.2843874 -0.3809999 0.1270002
v 0.2843874 -0.3809999 0.08890018
v -0.2238855 -0.3809998 0.1269999
v -0.2378394 -0.3809999 0.04608845
v -0.269262 -0.3809998 0.06349993
v -0.2488175 -0.3809999 -6.630822E-08
v -0.2843875 -0.3809999 -8.266871E-08
v -0.2378394 -0.3471206 0.04608845
v -0.2072467 -0.3809998 0.08889995
v -0.2072467 -0.3471206 0.08889995
v -0.2378394 -0.3809999 0.04608845
v -0.2488175 -0.3471206 -7.081952E-08
v -0.2488175 -0.3809999 -6.630822E-08
vt 0.8643563 0.2672045
vt 0.8335749 0.2700387
vt 0.8650299 0.2700387
vt 0.8335749 0.2645718
vt 0.8624763 0.2645718
vt 0.8661608 0.2821372
vt 0.8359332 0.2797941
vt 0.8359332 0.2821372
vt 0.8671823 0.2797941
vt 0.8680435 0.2847697
vt 0.8699747 0.2836985
vt 0.8687205 0.2876034
vt 0.8709074 0.2876034
vt 0.7571583 0.2996584
vt 0.7981673 0.3024792
vt 0.7981673 0.2996584
vt 0.7589669 0.3024792
vt 0.7571583 0.3315632
vt 0.7589669 0.3315632
vt 0.7589669 0.3603479
vt 0.7571583 0.3631798
vt 0.7981673 0.3603479
vt 0.7981673 0.3631798
vt 0.802556 0.3024792
vt 0.7981673 0.2996584
vt 0.7981673 0.3024792
vt 0.802556 0.2996584
vt 0.8065076 0.3024792
vt 0.8065076 0.2996584
vt 0.8639346 0.3631705
vt 0.8574252 0.3313933
vt 0.8574252 0.3631705
vt 0.8639346 0.3313933
vt 0.869379 0.3631705
vt 0.869379 0.3313933
vt 0.869379 0.2996162
vt 0.8639346 0.2996162
vt 0.8574252 0.2996162
vt 0.8574252 0.3631705
vt 0.815033 0.3313933
vt 0.815033 0.3631705
vt 0.8574252 0.3313933
vt 0.8574252 0.2996162
vt 0.815033 0.2996162
vt 0.8359332 0.2797941
vt 0.812506 0.2821372
vt 0.8359332 0.2821372
vt 0.812506 0.2797941
vt 0.7890758 0.2797941
vt 0.7890758 0.2821372
vt 0.8335749 0.2645718
vt 0.8122284 0.2700387
vt 0.8335749 0.2700387
vt 0.8122284 0.2645718
vt 0.7908827 0.2645718
vt 0.7908827 0.2700387
vt 0.7908827 0.2700387
vt 0.7601053 0.2672045
vt 0.7594286 0.2700387
vt 0.7908827 0.2645718
vt 0.7619879 0.2645718
vt 0.7890758 0.2797941
vt 0.758836 0.2821372
vt 0.7890758 0.2821372
vt 0.7578118 0.2797941
vt 0.756955 0.2847697
vt 0.7550219 0.2836985
vt 0.7562805 0.2876034
vt 0.7540926 0.2876034
vt 0.7981673 0.3631798
vt 0.802556 0.3603479
vt 0.7981673 0.3603479
vt 0.802556 0.3631798
vt 0.8065076 0.3603479
vt 0.8065076 0.3631798
vt 0.8335749 0.2700387
vt 0.8643563 0.2672045
vt 0.8650299 0.2700387
vt 0.8335749 0.2645718
vt 0.8624763 0.2645718
vt 0.8359332 0.2797941
vt 0.8661608 0.2821372
vt 0.8359332 0.2821372
vt 0.8671823 0.2797941
vt 0.8680435 0.2847697
vt 0.8699747 0.2836985
vt 0.8687205 0.2876034
vt 0.8709074 0.2876034
vt 0.7981673 0.3024792
vt 0.7571583 0.2996584
vt 0.7981673 0.2996584
vt 0.7589669 0.3024792
vt 0.7571583 0.3315632
vt 0.7589669 0.3315632
vt 0.7589669 0.3603479
vt 0.7571583 0.3631798
vt 0.7981673 0.3603479
vt 0.7981673 0.3631798
vt 0.7981673 0.2996584
vt 0.802556 0.3024792
vt 0.7981673 0.3024792
vt 0.802556 0.2996584
vt 0.8065076 0.3024792
vt 0.8065076 0.2996584
vt 0.8574252 0.3313933
vt 0.8639346 0.3631705
vt 0.8574252 0.3631705
vt 0.8639346 0.3313933
vt 0.869379 0.3631705
vt 0.869379 0.3313933
vt 0.869379 0.2996162
vt 0.8639346 0.2996162
vt 0.8574252 0.2996162
vt 0.815033 0.3313933
vt 0.8574252 0.3631705
vt 0.815033 0.3631705
vt 0.8574252 0.3313933
vt 0.8574252 0.2996162
vt 0.815033 0.2996162
vt 0.812506 0.2821372
vt 0.8359332 0.2797941
vt 0.8359332 0.2821372
vt 0.812506 0.2797941
vt 0.7890758 0.2797941
vt 0.7890758 0.2821372
vt 0.8122284 0.2700387
vt 0.8335749 0.2645718
vt 0.8335749 0.2700387
vt 0.8122284 0.2645718
vt 0.7908827 0.2645718
vt 0.7908827 0.2700387
vt 0.7601053 0.2672045
vt 0.7908827 0.2700387
vt 0.7594286 0.2700387
vt 0.7908827 0.2645718
vt 0.7619879 0.2645718
vt 0.758836 0.2821372
vt 0.7890758 0.2797941
vt 0.7890758 0.2821372
vt 0.7578118 0.2797941
vt 0.756955 0.2847697
vt 0.7550219 0.2836985
vt 0.7562805 0.2876034
vt 0.7540926 0.2876034
vt 0.802556 0.3603479
vt 0.7981673 0.3631798
vt 0.7981673 0.3603479
vt 0.802556 0.3631798
vt 0.8065076 0.3603479
vt 0.8065076 0.3631798
vn 0 1 0
vn 0 1 0
vn 0 1 0
vn 0 1 0
vn 0 1 0
vn 0 1 0
vn 0 1 0
vn 0 1 0
vn 0 1 0
vn 0 1 0
vn 0 1 0
vn 0 1 0
vn 0 1 0
vn -5.094567E-07 0 1
vn -4.610464E-07 0 1
vn -4.613367E-07 0 1
vn -5.366405E-07 0 1
vn -6.048356E-07 0 1
vn -6.048356E-07 0 1
vn -5.366406E-07 0 1
vn -5.094567E-07 0 1
vn -4.610465E-07 0 1
vn -4.613367E-07 0 1
vn 0.9101516 0 0.4142753
vn 0.8136152 0 0.5814037
vn 0.8136152 0 0.5814036
vn 0.9101516 0 0.4142753
vn 1 0 3.307173E-07
vn 1 0 3.258414E-07
vn -0.9101518 0 -0.4142749
vn -0.8136155 0 -0.5814032
vn -0.8136155 0 -0.5814032
vn -0.9101517 0 -0.414275
vn -1 0 -3.648485E-07
vn -1 0 -3.453449E-07
vn -1 0 -3.392501E-07
vn -0.9101518 0 -0.4142749
vn -0.8136155 0 -0.5814032
vn 4.688157E-07 0 -1
vn 4.688157E-07 0 -1
vn 4.688157E-07 0 -1
vn 4.688157E-07 0 -1
vn 4.688157E-07 0 -1
vn 4.688157E-07 0 -1
vn 1 0 3.258414E-07
vn 1 0 3.258414E-07
vn 1 0 3.258414E-07
vn 1 0 3.258414E-07
vn 1 0 3.258414E-07
vn 1 0 3.258414E-07
vn 1 0 5.983198E-07
vn 1 0 5.983198E-07
vn 1 0 5.983198E-07
vn 1 0 5.983198E-07
vn 1 0 8.273074E-07
vn 1 0 5.983198E-07
vn 0 -1 0
vn 0 -1 0
vn 0 -1 0
vn 0 -1 0
vn 0 -1 0
vn 0 -1 0
vn 0 -1 0
vn 0 -1 0
vn 0 -1 0
vn 0 -1 0
vn 0 -1 0
vn 0 -1 0
vn 0 -1 0
vn 0.8136152 0 0.5814037
vn 0.9101516 0 0.4142753
vn 0.8136152 0 0.5814036
vn 0.9101516 0 0.4142753
vn 1 0 3.307173E-07
vn 1 0 3.258414E-07
vn 0 1 0
vn 0 1 0
vn 0 1 0
vn 0 1 0
vn 0 1 0
vn 0 1 0
vn 0 1 0
vn 0 1 0
vn 0 1 0
vn 0 1 0
vn 0 1 0
vn 0 1 0
vn 0 1 0
vn 4.610464E-07 0 -1
vn 5.094567E-07 0 -1
vn 4.613367E-07 0 -1
vn 5.366404E-07 0 -1
vn 6.048356E-07 0 -1
vn 6.048356E-07 0 -1
vn 5.366406E-07 0 -1
vn 5.094567E-07 0 -1
vn 4.610465E-07 0 -1
vn 4.613367E-07 0 -1
vn 0.8136162 0 -0.5814025
vn 0.9101521 0 -0.4142743
vn 0.8136162 0 -0.5814025
vn 0.9101521 0 -0.4142743
vn 1 0 3.307173E-07
vn 1 0 3.258414E-07
vn -0.8136162 0 0.5814023
vn -0.9101522 0 0.4142741
vn -0.8136162 0 0.5814024
vn -0.9101522 0 0.4142742
vn -1 0 -3.648485E-07
vn -1 0 -3.453449E-07
vn -1 0 -3.392501E-07
vn -0.9101521 0 0.4142742
vn -0.8136162 0 0.5814023
vn -4.688157E-07 0 1
vn -4.688157E-07 0 1
vn -4.688157E-07 0 1
vn -4.688157E-07 0 1
vn -4.688157E-07 0 1
vn -4.688157E-07 0 1
vn 1 0 3.258414E-07
vn 1 0 3.258414E-07
vn 1 0 3.258414E-07
vn 1 0 3.258414E-07
vn 1 0 3.258414E-07
vn 1 0 3.258414E-07
vn 1 0 5.983198E-07
vn 1 0 5.983198E-07
vn 1 0 5.983198E-07
vn 1 0 5.983198E-07
vn 1 0 3.693322E-07
vn 1 0 5.983198E-07
vn 0 -1 0
vn 0 -1 0
vn 0 -1 0
vn 0 -1 0
vn 0 -1 0
vn 0 -1 0
vn 0 -1 0
vn 0 -1 0
vn 0 -1 0
vn 0 -1 0
vn 0 -1 0
vn 0 -1 0
vn 0 -1 0
vn 0.9101521 0 -0.4142743
vn 0.8136162 0 -0.5814025
vn 0.8136162 0 -0.5814025
vn 0.9101521 0 -0.4142743
vn 1 0 3.307173E-07
vn 1 0 3.258414E-07
g book_0
f 3/3/3 2/2/2 1/1/1
f 2/2/2 4/4/4 1/1/1
f 1/1/1 4/4/4 5/5/5
f 8/8/8 7/7/7 6/6/6
f 9/9/9 6/6/6 7/7/7
f 6/6/6 9/9/9 10/10/10
f 11/11/11 10/10/10 9/9/9
f 10/10/10 11/11/11 12/12/12
f 13/13/13 12/12/12 11/11/11
f 16/16/16 15/15/15 14/14/14
f 17/17/17 14/14/14 15/15/15
f 14/14/14 17/17/17 18/18/18
f 19/19/19 18/18/18 17/17/17
f 19/19/19 20/20/20 18/18/18
f 21/21/21 18/18/18 20/20/20
f 20/20/20 22/22/22 21/21/21
f 23/23/23 21/21/21 22/22/22
f 26/26/26 25/25/25 24/24/24
f 27/27/27 24/24/24 25/25/25
f 24/24/24 27/27/27 28/28/28
f 29/29/29 28/28/28 27/27/27
f 32/32/32 31/31/31 30/30/30
f 33/33/33 30/30/30 31/31/31
f 30/30/30 33/33/33 34/34/34
f 35/35/35 34/34/34 33/33/33
f 35/35/35 33/33/33 36/36/36
f 37/37/37 36/36/36 33/33/33
f 33/33/33 31/31/31 37/37/37
f 38/38/38 37/37/37 31/31/31
f 41/41/41 40/40/40 39/39/39
f 42/42/42 39/39/39 40/40/40
f 42/42/42 40/40/40 43/43/43
f 44/44/44 43/43/43 40/40/40
f 47/47/47 46/46/46 45/45/45
f 48/48/48 45/45/45 46/46/46
f 48/48/48 46/46/46 49/49/49
f 50/50/50 49/49/49 46/46/46
f 53/53/53 52/52/52 51/51/51
f 54/54/54 51/51/51 52/52/52
f 54/54/54 52/52/52 55/55/55
f 56/56/56 55/55/55 52/52/52
f 59/59/59 58/58/58 57/57/57
f 57/57/57 58/58/58 60/60/60
f 60/60/60 58/58/58 61/61/61
f 64/64/64 63/63/63 62/62/62
f 65/65/65 62/62/62 63/63/63
f 63/63/63 66/66/66 65/65/65
f 67/67/67 65/65/65 66/66/66
f 66/66/66 68/68/68 67/67/67
f 69/69/69 67/67/67 68/68/68
f 72/72/72 71/71/71 70/70/70
f 73/73/73 70/70/70 71/71/71
f 71/71/71 74/74/74 73/73/73
f 75/75/75 73/73/73 74/74/74
f 78/78/78 77/77/77 76/76/76
f 76/76/76 77/77/77 79/79/79
f 79/79/79 77/77/77 80/80/80
f 83/83/83 82/82/82 81/81/81
f 84/84/84 81/81/81 82/82/82
f 82/82/82 85/85/85 84/84/84
f 86/86/86 84/84/84 85/85/85
f 85/85/85 87/87/87 86/86/86
f 88/88/88 86/86/86 87/87/87
f 91/91/91 90/90/90 89/89/89
f 92/92/92 89/89/89 90/90/90
f 90/90/90 93/93/93 92/92/92
f 94/94/94 92/92/92 93/93/93
f 94/94/94 93/93/93 95/95/95
f 96/96/96 95/95/95 93/93/93
f 95/95/95 96/96/96 97/97/97
f 98/98/98 97/97/97 96/96/96
f 101/101/101 100/100/100 99/99/99
f 102/102/102 99/99/99 100/100/100
f 100/100/100 103/103/103 102/102/102
f 104/104/104 102/102/102 103/103/103
f 107/107/107 106/106/106 105/105/105
f 108/108/108 105/105/105 106/106/106
f 106/106/106 109/109/109 108/108/108
f 110/110/110 108/108/108 109/109/109
f 110/110/110 111/111/111 108/108/108
f 112/112/112 108/108/108 111/111/111
f 108/108/108 112/112/112 105/105/105
f 113/113/113 105/105/105 112/112/112
f 116/116/116 115/115/115 114/114/114
f 117/117/117 114/114/114 115/115/115
f 117/117/117 118/118/118 114/114/114
f 119/119/119 114/114/114 118/118/118
f 122/122/122 121/121/121 120/120/120
f 123/123/123 120/120/120 121/121/121
f 123/123/123 124/124/124 120/120/120
f 125/125/125 120/120/120 124/124/124
f 128/128/128 127/127/127 126/126/126
f 129/129/129 126/126/126 127/127/127
f 129/129/129 130/130/130 126/126/126
f 131/131/131 126/126/126 130/130/130
f 134/134/134 133/133/133 132/132/132
f 133/133/133 135/135/135 132/132/132
f 132/132/132 135/135/135 136/136/136
f 139/139/139 138/138/138 137/137/137
f 140/140/140 137/137/137 138/138/138
f 137/137/137 140/140/140 141/141/141
f 142/142/142 141/141/141 140/140/140
f 141/141/141 142/142/142 143/143/143
f 144/144/144 143/143/143 142/142/142
f 147/147/147 146/146/146 145/145/145
f 148/148/148 145/145/145 146/146/146
f 145/145/145 148/148/148 149/149/149
f 150/150/150 149/149/149 148/148/148
