g Chess_Pawn_Light
v 0.06622962 -0.1160406 -0.4193913
v 0.1333153 0.0001552122 -0.4193913
v 0.06622963 0.116351 -0.4193913
v -0.0679417 0.116351 -0.4193913
v -0.06794169 -0.1160406 -0.4193913
v -0.1350273 0.0001552122 -0.4193913
v -0.2374928 0.0001551865 -0.4456985
v -0.1187209 0.2058744 -0.4456985
v -0.1141064 0.1978819 -0.2779137
v -0.2282639 0.0001551865 -0.2779137
v 0.1142086 0.1978819 -0.2779137
v -0.1187209 -0.2055639 -0.4456985
v 0.1188231 0.2058744 -0.4456985
v -0.1141064 -0.1975715 -0.2779137
v 0.2283662 0.0001551865 -0.2779137
v 0.1188231 -0.2055639 -0.4456985
v 0.2375951 0.0001551865 -0.4456985
v 0.1142086 -0.1975714 -0.2779137
v -0.1697817 0.0001551351 -0.1850741
v -0.07684407 0.1333416 -0.159607
v -0.1537393 0.0001551351 -0.159607
v -0.08486529 0.1472347 -0.1850741
v -0.08486529 -0.1469244 -0.1850742
v 0.07694632 0.1333416 -0.159607
v -0.07684406 -0.1330313 -0.159607
v 0.08496752 0.1472347 -0.1850741
v 0.08496754 -0.1469244 -0.1850742
v 0.1538415 0.0001551351 -0.159607
v 0.07694631 -0.1330313 -0.159607
v 0.169884 0.0001551351 -0.1850741
v 0.2375951 0.0001551865 -0.4456985
v 0.1748203 0.0001551865 -0.4456985
v 0.08743569 -0.1511994 -0.4456985
v 0.1188231 -0.2055639 -0.4456985
v 0.1188231 0.2058744 -0.4456985
v -0.08733348 -0.1511994 -0.4456985
v 0.08743571 0.1515099 -0.4456985
v -0.1187209 -0.2055639 -0.4456985
v -0.1187209 0.2058744 -0.4456985
v -0.1747181 0.0001551865 -0.4456985
v -0.08733349 0.1515099 -0.4456985
v -0.2374928 0.0001551865 -0.4456985
v -0.1537393 0.0001551351 -0.159607
v -0.03337856 -0.05774688 0.1206207
v -0.07684406 -0.1330313 -0.159607
v -0.06680825 0.0001550837 0.1206207
v 0.03348082 -0.05774688 0.1206207
v -0.07684407 0.1333416 -0.159607
v 0.07694631 -0.1330313 -0.159607
v -0.03337857 0.05805699 0.1206207
v 0.06691052 0.0001550837 0.1206207
v 0.07694632 0.1333416 -0.159607
v 0.1538415 0.0001551351 -0.159607
v 0.03348082 0.05805699 0.1206207
v 0.05876826 -0.1015462 0.1628716
v 0.05700177 -0.09848657 0.1361493
v -0.05689951 -0.09848657 0.1361493
v -0.05866599 -0.1015462 0.1628716
v 0.1174854 0.0001548781 0.1628716
v -0.1138502 0.0001548267 0.1361493
v -0.1173831 0.0001548781 0.1628716
v 0.1139524 0.0001548267 0.1361493
v 0.05876826 0.101856 0.1628716
v -0.05689952 0.09879626 0.1361493
v -0.05866601 0.101856 0.1628716
v 0.05700177 0.09879626 0.1361493
v -0.06680825 0.0001550837 0.1206207
v -0.03337856 -0.05774688 0.1206207
v -0.03337857 0.05805699 0.1206207
v 0.03348082 -0.05774688 0.1206207
v 0.03348082 0.05805699 0.1206207
v 0.06691052 0.0001550837 0.1206207
v -0.1173831 0.0001548781 0.1628716
v -0.04666085 -0.08075301 0.1725984
v -0.05866599 -0.1015462 0.1628716
v -0.09337284 0.0001545441 0.1725984
v -0.05866601 0.101856 0.1628716
v -0.04666086 0.08106206 0.1725984
v 0.05876826 0.101856 0.1628716
v 0.0467631 0.08106206 0.1725984
v 0.1174854 0.0001548781 0.1628716
v 0.04676311 -0.08075301 0.1725984
v 0.05876826 -0.1015462 0.1628716
v 0.09347509 0.0001545441 0.1725984
v -0.08427376 -0.1458996 -0.2314939
v -0.1685986 0.0001553664 -0.2314939
v -0.1697817 0.0001551351 -0.1850741
v -0.08486529 -0.1469244 -0.1850742
v -0.08486529 0.1472347 -0.1850741
v 0.08437598 -0.1458996 -0.2314939
v -0.08427375 0.1462104 -0.2314939
v 0.08496754 -0.1469244 -0.1850742
v 0.08496752 0.1472347 -0.1850741
v 0.1687009 0.0001553664 -0.2314939
v 0.08437598 0.1462104 -0.2314939
v 0.169884 0.0001551351 -0.1850741
v 0.08743569 -0.1511994 -0.4456985
v -0.06794169 -0.1160406 -0.4193913
v -0.08733348 -0.1511994 -0.4456985
v 0.06622962 -0.1160406 -0.4193913
v -0.1350273 0.0001552122 -0.4193913
v 0.1748203 0.0001551865 -0.4456985
v -0.1747181 0.0001551865 -0.4456985
v 0.1333153 0.0001552122 -0.4193913
v -0.0679417 0.116351 -0.4193913
v 0.08743571 0.1515099 -0.4456985
v -0.08733349 0.1515099 -0.4456985
v 0.06622963 0.116351 -0.4193913
v -0.2282639 0.0001551865 -0.2779137
v -0.1141064 0.1978819 -0.2779137
v -0.08427375 0.1462104 -0.2314939
v -0.1685986 0.0001553664 -0.2314939
v 0.08437598 0.1462104 -0.2314939
v -0.1141064 -0.1975715 -0.2779137
v 0.1142086 0.1978819 -0.2779137
v -0.08427376 -0.1458996 -0.2314939
v 0.1687009 0.0001553664 -0.2314939
v 0.1142086 -0.1975714 -0.2779137
v 0.2283662 0.0001551865 -0.2779137
v 0.08437598 -0.1458996 -0.2314939
v -0.0907162 0.0001527451 0.4177675
v -0.06413092 0.06433522 0.4177675
v 5.157923E-05 0.0001527194 0.4472598
v -0.1468138 0.0001527451 0.3405559
v 5.156538E-05 0.09092052 0.4177675
v -0.1037979 0.1040022 0.3405559
v -0.06413092 -0.06402977 0.4177675
v -0.1037979 -0.1036967 0.3405559
v -0.1468138 0.0001527451 0.245117
v -0.1037979 -0.1036967 0.245117
v 5.155832E-05 0.1470181 0.3405559
v 0.06423406 0.06433522 0.4177675
v -0.1037979 0.1040022 0.245117
v 5.157116E-05 -0.1467126 0.3405559
v 5.157116E-05 -0.1467126 0.245117
v 5.157332E-05 -0.09061501 0.4177675
v 0.103901 0.1040022 0.3405559
v 0.09081931 0.0001527451 0.4177675
v 0.06423407 -0.06402977 0.4177675
v 0.103901 -0.1036967 0.3405559
v 0.1469168 0.0001527451 0.3405559
v 5.156292E-05 0.1470181 0.245117
v 0.103901 -0.1036967 0.245117
v 0.103901 0.1040022 0.245117
v 0.1469168 0.0001527451 0.245117
v -0.06413089 0.06433526 0.1679053
v 5.156538E-05 0.09092055 0.1679053
v 5.156968E-05 0.0001527451 0.1384131
v -0.0907162 0.0001527451 0.1679053
v 0.06423406 0.06433522 0.1679054
v -0.06413089 -0.06402975 0.1679053
v 0.09081931 0.0001527451 0.1679053
v 5.156411E-05 -0.09061499 0.1679053
v 0.06423404 -0.06402975 0.1679053
vt 0.358932 0.7960877
vt 0.358932 0.7960877
vt 0.358932 0.7960877
vt 0.358932 0.7960877
vt 0.358932 0.7960877
vt 0.358932 0.7960877
vt 0.358932 0.7960877
vt 0.358932 0.7960877
vt 0.358932 0.7960877
vt 0.358932 0.7960877
vt 0.358932 0.7960877
vt 0.358932 0.7960877
vt 0.358932 0.7960877
vt 0.358932 0.7960877
vt 0.358932 0.7960877
vt 0.358932 0.7960877
vt 0.358932 0.7960877
vt 0.358932 0.7960877
vt 0.358932 0.7960877
vt 0.358932 0.7960877
vt 0.358932 0.7960877
vt 0.358932 0.7960877
vt 0.358932 0.7960877
vt 0.358932 0.7960877
vt 0.358932 0.7960877
vt 0.358932 0.7960877
vt 0.358932 0.7960877
vt 0.358932 0.7960877
vt 0.358932 0.7960877
vt 0.358932 0.7960877
vt 0.358932 0.7960877
vt 0.358932 0.7960877
vt 0.358932 0.7960877
vt 0.358932 0.7960877
vt 0.358932 0.7960877
vt 0.358932 0.7960877
vt 0.358932 0.7960877
vt 0.358932 0.7960877
vt 0.358932 0.7960877
vt 0.358932 0.7960877
vt 0.358932 0.7960877
vt 0.358932 0.7960877
vt 0.358932 0.7960877
vt 0.358932 0.7960877
vt 0.358932 0.7960877
vt 0.358932 0.7960877
vt 0.358932 0.7960877
vt 0.358932 0.7960877
vt 0.358932 0.7960877
vt 0.358932 0.7960877
vt 0.358932 0.7960877
vt 0.358932 0.7960877
vt 0.358932 0.7960877
vt 0.358932 0.7960877
vt 0.358932 0.7960877
vt 0.358932 0.7960877
vt 0.358932 0.7960877
vt 0.358932 0.7960877
vt 0.358932 0.7960877
vt 0.358932 0.7960877
vt 0.358932 0.7960877
vt 0.358932 0.7960877
vt 0.358932 0.7960877
vt 0.358932 0.7960877
vt 0.358932 0.7960877
vt 0.358932 0.7960877
vt 0.358932 0.7960877
vt 0.358932 0.7960877
vt 0.358932 0.7960877
vt 0.358932 0.7960877
vt 0.358932 0.7960877
vt 0.358932 0.7960877
vt 0.358932 0.7960877
vt 0.358932 0.7960877
vt 0.358932 0.7960877
vt 0.358932 0.7960877
vt 0.358932 0.7960877
vt 0.358932 0.7960877
vt 0.358932 0.7960877
vt 0.358932 0.7960877
vt 0.358932 0.7960877
vt 0.358932 0.7960877
vt 0.358932 0.7960877
vt 0.358932 0.7960877
vt 0.358932 0.7960877
vt 0.358932 0.7960877
vt 0.358932 0.7960877
vt 0.358932 0.7960877
vt 0.358932 0.7960877
vt 0.358932 0.7960877
vt 0.358932 0.7960877
vt 0.358932 0.7960877
vt 0.358932 0.7960877
vt 0.358932 0.7960877
vt 0.358932 0.7960877
vt 0.358932 0.7960877
vt 0.358932 0.7960877
vt 0.358932 0.7960877
vt 0.358932 0.7960877
vt 0.358932 0.7960877
vt 0.358932 0.7960877
vt 0.358932 0.7960877
vt 0.358932 0.7960877
vt 0.358932 0.7960877
vt 0.358932 0.7960877
vt 0.358932 0.7960877
vt 0.358932 0.7960877
vt 0.358932 0.7960877
vt 0.358932 0.7960877
vt 0.358932 0.7960877
vt 0.358932 0.7960877
vt 0.358932 0.7960877
vt 0.358932 0.7960877
vt 0.358932 0.7960877
vt 0.358932 0.7960877
vt 0.358932 0.7960877
vt 0.358932 0.7960877
vt 0.358932 0.7960877
vt 0.358932 0.7960877
vt 0.358932 0.7960877
vt 0.358932 0.7960877
vt 0.358932 0.7960877
vt 0.358932 0.7960877
vt 0.358932 0.7960877
vt 0.358932 0.7960877
vt 0.358932 0.7960877
vt 0.358932 0.7960877
vt 0.358932 0.7960877
vt 0.358932 0.7960877
vt 0.358932 0.7960877
vt 0.358932 0.7960877
vt 0.358932 0.7960877
vt 0.358932 0.7960877
vt 0.358932 0.7960877
vt 0.358932 0.7960877
vt 0.358932 0.7960877
vt 0.358932 0.7960877
vt 0.358932 0.7960877
vt 0.358932 0.7960877
vt 0.358932 0.7960877
vt 0.358932 0.7960877
vt 0.358932 0.7960877
vt 0.358932 0.7960877
vt 0.358932 0.7960877
vt 0.358932 0.7960877
vt 0.358932 0.7960877
vt 0.358932 0.7960877
vt 0.358932 0.7960877
vt 0.358932 0.7960877
vt 0.358932 0.7960877
vt 0.358932 0.7960877
vt 0.358932 0.7960877
vt 0.358932 0.7960877
vt 0.358932 0.7960877
vn 0 0 -1
vn 0 0 -1
vn 0 0 -1
vn 0 0 -1
vn 0 0 -1
vn 0 0 -1
vn -0.9984907 0 0.05492142
vn -0.4992455 0.8647182 0.05492155
vn -0.4992455 0.8647182 0.05492155
vn -0.9984907 0 0.05492143
vn 0.4992453 0.8647183 0.0549215
vn -0.4992453 -0.8647183 0.05492126
vn 0.4992453 0.8647183 0.0549215
vn -0.4992453 -0.8647183 0.05492125
vn 0.9984907 0 0.05492134
vn 0.4992452 -0.8647184 0.0549212
vn 0.9984907 0 0.05492134
vn 0.4992453 -0.8647183 0.05492119
vn -0.8461192 0 0.5329939
vn -0.4230594 0.7327604 0.5329943
vn -0.8461192 0 0.5329939
vn -0.4230595 0.7327604 0.5329942
vn -0.4230599 -0.732761 0.532993
vn 0.4230595 0.7327604 0.5329942
vn -0.4230595 -0.7327612 0.532993
vn 0.4230594 0.7327605 0.5329942
vn 0.4230599 -0.7327611 0.532993
vn 0.8461192 0 0.5329937
vn 0.4230596 -0.7327613 0.532993
vn 0.8461192 0 0.5329937
vn 0 0 -1
vn 0 0 -1
vn 0 0 -1
vn 0 0 -1
vn 0 0 -1
vn 0 0 -1
vn 0 0 -1
vn 0 0 -1
vn 0 0 -1
vn 0 0 -1
vn 0 0 -1
vn 0 0 -1
vn -0.955099 0 0.2962867
vn -0.4775496 -0.82714 0.2962865
vn -0.4775496 -0.82714 0.2962865
vn -0.955099 0 0.2962866
vn 0.4775496 -0.8271402 0.2962865
vn -0.4775495 0.82714 0.2962869
vn 0.4775496 -0.82714 0.2962865
vn -0.4775496 0.82714 0.2962869
vn 0.955099 0 0.2962866
vn 0.4775494 0.82714 0.2962869
vn 0.955099 0 0.2962867
vn 0.4775494 0.82714 0.2962869
vn 0.4956868 -0.8585543 -0.131069
vn 0.4125202 -0.7145061 -0.5650735
vn -0.4125201 -0.7145062 -0.5650735
vn -0.4956868 -0.8585543 -0.131069
vn 0.9913731 0 -0.13107
vn -0.8250405 0 -0.5650735
vn -0.9913731 0 -0.1310699
vn 0.8250405 0 -0.5650737
vn 0.4956862 0.8585541 -0.1310721
vn -0.4125206 0.7145055 -0.565074
vn -0.4956861 0.8585542 -0.131072
vn 0.4125205 0.7145056 -0.565074
vn -0.3134643 0 -0.9496
vn -0.1567319 -0.2714668 -0.9496003
vn -0.1567324 0.2714691 -0.9495996
vn 0.156732 -0.2714667 -0.9496003
vn 0.1567325 0.2714691 -0.9495996
vn 0.3134644 0 -0.9495999
vn -0.3754712 0 0.926834
vn -0.1254325 -0.2172575 0.9680216
vn -0.1877383 -0.3251716 0.9268322
vn -0.2508636 0 0.9680225
vn -0.1877326 0.3251635 0.9268361
vn -0.1254311 0.2172506 0.9680234
vn 0.1877326 0.3251634 0.9268361
vn 0.125431 0.2172506 0.9680234
vn 0.3754711 0 0.9268341
vn 0.1254324 -0.2172574 0.9680216
vn 0.1877383 -0.3251716 0.9268322
vn 0.2508634 0 0.9680225
vn -0.4998383 -0.8657438 -0.02548282
vn -0.9996754 0 -0.02547835
vn -0.9996754 0 -0.02547835
vn -0.4998369 -0.8657446 -0.02548282
vn -0.4998385 0.865744 -0.02547411
vn 0.4998381 -0.8657439 -0.02548297
vn -0.4998371 0.8657448 -0.02547411
vn 0.499837 -0.8657445 -0.02548296
vn 0.4998385 0.865744 -0.02547412
vn 0.9996754 0 -0.0254785
vn 0.4998371 0.8657448 -0.02547411
vn 0.9996754 0 -0.0254785
vn -0.2714877 0.4662445 -0.8419682
vn 0.278189 0.4723575 -0.8363547
vn 0.2722555 0.4756816 -0.8364233
vn -0.2658086 0.4696214 -0.8419034
vn 0.552469 0 -0.8335333
vn -0.5353521 0 -0.844629
vn 0.552469 0 -0.8335333
vn -0.5353521 0 -0.844629
vn 0.2781894 -0.4723578 -0.8363545
vn -0.2714879 -0.4662447 -0.841968
vn 0.2722557 -0.4756818 -0.8364231
vn -0.2658089 -0.4696216 -0.8419033
vn -0.6140516 0 0.7892659
vn -0.3070264 0.531785 0.7892652
vn -0.3070259 0.5317852 0.7892652
vn -0.6140516 0 0.7892659
vn 0.3070258 0.5317852 0.7892652
vn -0.3070251 -0.5317833 0.7892668
vn 0.3070262 0.531785 0.7892652
vn -0.3070257 -0.5317829 0.7892668
vn 0.6140513 0 0.7892662
vn 0.307025 -0.5317831 0.7892669
vn 0.6140513 0 0.7892662
vn 0.3070255 -0.5317828 0.7892669
vn -0.6335991 0 0.7736616
vn -0.4480222 0.448022 0.7736617
vn 0 0 1
vn -0.9573622 0 0.2888903
vn 0 0.633599 0.7736616
vn -0.6769575 0.6769571 0.2888904
vn -0.4480223 -0.4480223 0.7736615
vn -0.6769573 -0.6769573 0.2888902
vn -0.9573622 0 -0.2888901
vn -0.6769574 -0.6769574 -0.28889
vn 0 0.9573622 0.2888904
vn 0.4480224 0.4480219 0.7736616
vn -0.6769575 0.6769573 -0.28889
vn 0 -0.9573622 0.2888901
vn 0 -0.9573622 -0.28889
vn 0 -0.6335992 0.7736615
vn 0.6769577 0.676957 0.2888902
vn 0.6335995 0 0.7736613
vn 0.4480228 -0.4480222 0.7736613
vn 0.6769576 -0.6769571 0.2888901
vn 0.9573622 0 0.28889
vn 0 0.9573622 -0.2888899
vn 0.6769575 -0.6769572 -0.2888899
vn 0.6769575 0.6769572 -0.28889
vn 0.9573622 0 -0.28889
vn -0.4480222 0.4480222 -0.7736616
vn 0 0.6335992 -0.7736616
vn 0 0 -1
vn -0.633599 0 -0.7736616
vn 0.4480226 0.4480221 -0.7736614
vn -0.4480221 -0.4480223 -0.7736616
vn 0.6335992 0 -0.7736613
vn 0 -0.6335992 -0.7736615
vn 0.4480224 -0.4480224 -0.7736614
g Chess_Pawn_Light_0
f 3/3/3 2/2/2 1/1/1
f 1/1/1 4/4/4 3/3/3
f 1/1/1 5/5/5 4/4/4
f 5/5/5 6/6/6 4/4/4
f 9/9/9 8/8/8 7/7/7
f 10/10/10 9/9/9 7/7/7
f 9/9/9 11/11/11 8/8/8
f 10/10/10 7/7/7 12/12/12
f 11/11/11 13/13/13 8/8/8
f 14/14/14 10/10/10 12/12/12
f 11/11/11 15/15/15 13/13/13
f 14/14/14 12/12/12 16/16/16
f 15/15/15 17/17/17 13/13/13
f 18/18/18 14/14/14 16/16/16
f 18/18/18 16/16/16 17/17/17
f 15/15/15 18/18/18 17/17/17
f 21/21/21 20/20/20 19/19/19
f 20/20/20 22/22/22 19/19/19
f 21/21/21 19/19/19 23/23/23
f 20/20/20 24/24/24 22/22/22
f 25/25/25 21/21/21 23/23/23
f 24/24/24 26/26/26 22/22/22
f 25/25/25 23/23/23 27/27/27
f 24/24/24 28/28/28 26/26/26
f 29/29/29 25/25/25 27/27/27
f 28/28/28 30/30/30 26/26/26
f 29/29/29 27/27/27 30/30/30
f 28/28/28 29/29/29 30/30/30
f 33/33/33 32/32/32 31/31/31
f 34/34/34 33/33/33 31/31/31
f 31/31/31 32/32/32 35/35/35
f 36/36/36 33/33/33 34/34/34
f 32/32/32 37/37/37 35/35/35
f 38/38/38 36/36/36 34/34/34
f 35/35/35 37/37/37 39/39/39
f 40/40/40 36/36/36 38/38/38
f 37/37/37 41/41/41 39/39/39
f 42/42/42 40/40/40 38/38/38
f 39/39/39 41/41/41 42/42/42
f 41/41/41 40/40/40 42/42/42
f 45/45/45 44/44/44 43/43/43
f 44/44/44 46/46/46 43/43/43
f 47/47/47 44/44/44 45/45/45
f 43/43/43 46/46/46 48/48/48
f 49/49/49 47/47/47 45/45/45
f 46/46/46 50/50/50 48/48/48
f 51/51/51 47/47/47 49/49/49
f 48/48/48 50/50/50 52/52/52
f 53/53/53 51/51/51 49/49/49
f 50/50/50 54/54/54 52/52/52
f 54/54/54 51/51/51 53/53/53
f 52/52/52 54/54/54 53/53/53
f 57/57/57 56/56/56 55/55/55
f 58/58/58 57/57/57 55/55/55
f 55/55/55 56/56/56 59/59/59
f 60/60/60 57/57/57 58/58/58
f 61/61/61 60/60/60 58/58/58
f 56/56/56 62/62/62 59/59/59
f 59/59/59 62/62/62 63/63/63
f 64/64/64 60/60/60 61/61/61
f 65/65/65 64/64/64 61/61/61
f 63/63/63 66/66/66 65/65/65
f 62/62/62 66/66/66 63/63/63
f 66/66/66 64/64/64 65/65/65
f 60/60/60 67/67/67 57/57/57
f 67/67/67 68/68/68 57/57/57
f 57/57/57 68/68/68 56/56/56
f 69/69/69 67/67/67 60/60/60
f 64/64/64 69/69/69 60/60/60
f 68/68/68 70/70/70 56/56/56
f 56/56/56 70/70/70 62/62/62
f 71/71/71 69/69/69 64/64/64
f 66/66/66 71/71/71 64/64/64
f 70/70/70 72/72/72 62/62/62
f 72/72/72 71/71/71 66/66/66
f 62/62/62 72/72/72 66/66/66
f 75/75/75 74/74/74 73/73/73
f 74/74/74 76/76/76 73/73/73
f 73/73/73 76/76/76 77/77/77
f 76/76/76 78/78/78 77/77/77
f 78/78/78 76/76/76 74/74/74
f 77/77/77 78/78/78 79/79/79
f 78/78/78 80/80/80 79/79/79
f 80/80/80 78/78/78 74/74/74
f 79/79/79 80/80/80 81/81/81
f 82/82/82 74/74/74 75/75/75
f 80/80/80 74/74/74 82/82/82
f 83/83/83 82/82/82 75/75/75
f 80/80/80 84/84/84 81/81/81
f 82/82/82 84/84/84 80/80/80
f 84/84/84 82/82/82 83/83/83
f 81/81/81 84/84/84 83/83/83
f 87/87/87 86/86/86 85/85/85
f 88/88/88 87/87/87 85/85/85
f 87/87/87 89/89/89 86/86/86
f 88/88/88 85/85/85 90/90/90
f 89/89/89 91/91/91 86/86/86
f 92/92/92 88/88/88 90/90/90
f 89/89/89 93/93/93 91/91/91
f 92/92/92 90/90/90 94/94/94
f 93/93/93 95/95/95 91/91/91
f 96/96/96 92/92/92 94/94/94
f 96/96/96 94/94/94 95/95/95
f 93/93/93 96/96/96 95/95/95
f 99/99/99 98/98/98 97/97/97
f 98/98/98 100/100/100 97/97/97
f 101/101/101 98/98/98 99/99/99
f 97/97/97 100/100/100 102/102/102
f 103/103/103 101/101/101 99/99/99
f 100/100/100 104/104/104 102/102/102
f 105/105/105 101/101/101 103/103/103
f 102/102/102 104/104/104 106/106/106
f 107/107/107 105/105/105 103/103/103
f 104/104/104 108/108/108 106/106/106
f 108/108/108 105/105/105 107/107/107
f 106/106/106 108/108/108 107/107/107
f 111/111/111 110/110/110 109/109/109
f 112/112/112 111/111/111 109/109/109
f 111/111/111 113/113/113 110/110/110
f 112/112/112 109/109/109 114/114/114
f 113/113/113 115/115/115 110/110/110
f 116/116/116 112/112/112 114/114/114
f 113/113/113 117/117/117 115/115/115
f 116/116/116 114/114/114 118/118/118
f 117/117/117 119/119/119 115/115/115
f 120/120/120 116/116/116 118/118/118
f 120/120/120 118/118/118 119/119/119
f 117/117/117 120/120/120 119/119/119
f 123/123/123 122/122/122 121/121/121
f 121/121/121 122/122/122 124/124/124
f 123/123/123 125/125/125 122/122/122
f 122/122/122 126/126/126 124/124/124
f 122/122/122 125/125/125 126/126/126
f 123/123/123 121/121/121 127/127/127
f 121/121/121 124/124/124 128/128/128
f 127/127/127 121/121/121 128/128/128
f 124/124/124 126/126/126 129/129/129
f 128/128/128 124/124/124 130/130/130
f 124/124/124 129/129/129 130/130/130
f 125/125/125 131/131/131 126/126/126
f 123/123/123 132/132/132 125/125/125
f 125/125/125 132/132/132 131/131/131
f 126/126/126 133/133/133 129/129/129
f 126/126/126 131/131/131 133/133/133
f 127/127/127 128/128/128 134/134/134
f 128/128/128 130/130/130 135/135/135
f 134/134/134 128/128/128 135/135/135
f 123/123/123 127/127/127 136/136/136
f 136/136/136 127/127/127 134/134/134
f 132/132/132 137/137/137 131/131/131
f 123/123/123 138/138/138 132/132/132
f 132/132/132 138/138/138 137/137/137
f 123/123/123 136/136/136 139/139/139
f 123/123/123 139/139/139 138/138/138
f 136/136/136 134/134/134 140/140/140
f 139/139/139 136/136/136 140/140/140
f 138/138/138 139/139/139 141/141/141
f 138/138/138 141/141/141 137/137/137
f 139/139/139 140/140/140 141/141/141
f 131/131/131 137/137/137 142/142/142
f 131/131/131 142/142/142 133/133/133
f 140/140/140 134/134/134 143/143/143
f 134/134/134 135/135/135 143/143/143
f 137/137/137 141/141/141 144/144/144
f 137/137/137 144/144/144 142/142/142
f 141/141/141 140/140/140 145/145/145
f 140/140/140 143/143/143 145/145/145
f 141/141/141 145/145/145 144/144/144
f 133/133/133 142/142/142 146/146/146
f 142/142/142 144/144/144 147/147/147
f 142/142/142 147/147/147 146/146/146
f 146/146/146 147/147/147 148/148/148
f 133/133/133 146/146/146 149/149/149
f 149/149/149 146/146/146 148/148/148
f 129/129/129 133/133/133 149/149/149
f 144/144/144 150/150/150 147/147/147
f 144/144/144 145/145/145 150/150/150
f 147/147/147 150/150/150 148/148/148
f 129/129/129 149/149/149 151/151/151
f 151/151/151 149/149/149 148/148/148
f 130/130/130 129/129/129 151/151/151
f 145/145/145 152/152/152 150/150/150
f 145/145/145 143/143/143 152/152/152
f 150/150/150 152/152/152 148/148/148
f 130/130/130 151/151/151 153/153/153
f 153/153/153 151/151/151 148/148/148
f 135/135/135 130/130/130 153/153/153
f 143/143/143 154/154/154 152/152/152
f 152/152/152 154/154/154 148/148/148
f 154/154/154 153/153/153 148/148/148
f 135/135/135 153/153/153 154/154/154
f 143/143/143 135/135/135 154/154/154
