g CoffeeCup_Empty
v -0.1222561 0.3662185 0.2377827
v 0.1170254 0.3662185 0.2377827
v 0.09973063 0.3129914 0.2394811
v -0.104961 0.3129914 0.2394811
v -0.2705603 0.1926765 0.2394812
v -0.3158383 0.2255733 0.2377827
v -0.3338136 -0.001997657 0.2394812
v -0.3897805 -0.001997657 0.2377826
v -0.2705603 -0.1966703 0.2394812
v -0.3158383 -0.2295673 0.2377826
v -0.104961 -0.3169852 0.2394812
v -0.1222561 -0.3702138 0.2377827
v 0.0997307 -0.3169852 0.2394812
v 0.1170254 -0.3702138 0.2377827
v 0.2653297 -0.1966703 0.2394812
v 0.3106078 -0.2295673 0.2377826
v 0.328583 -0.001997657 0.2394812
v 0.3845497 -0.001997657 0.2377826
v 0.2653295 0.1926765 0.2394812
v 0.3106078 0.2255733 0.2377827
v 0.09973063 0.3129914 0.2394811
v 0.1170254 0.3662185 0.2377827
v 0.08541086 0.2689633 -0.1299613
v 0.04519583 0.1451491 -0.2577789
v 0.1225557 0.08894482 -0.2577789
v 0.2278395 0.1654822 -0.1299613
v 0.1059136 0.3320017 0.008861474
v 0.1521048 -0.001997657 -0.2577789
v 0.2815171 0.2044173 0.008861474
v 0.1170254 0.3662185 0.2377827
v 0.3106078 0.2255733 0.2377827
v 0.2822427 -0.001953264 -0.1299613
v 0.1225557 -0.09293891 -0.2577789
v 0.3485917 -0.002015657 0.008861474
v 0.3845497 -0.001997657 0.2377826
v 0.2278395 -0.1693883 -0.1299612
v 0.04519583 -0.1491445 -0.2577789
v 0.2815171 -0.208451 0.008861474
v 0.3106078 -0.2295673 0.2377826
v 0.08541086 -0.2728694 -0.1299612
v -0.05042647 -0.1491445 -0.2577789
v 0.1059137 -0.3360342 0.008861474
v 0.1170254 -0.3702138 0.2377827
v -0.09064119 -0.2728694 -0.1299612
v -0.1277861 -0.09293891 -0.2577789
v -0.1111439 -0.3360342 0.008861474
v -0.1222561 -0.3702138 0.2377827
v -0.2330705 -0.1693883 -0.1299612
v -0.1573352 -0.001997657 -0.2577789
v -0.2867475 -0.208451 0.008861474
v -0.3158383 -0.2295673 0.2377826
v -0.2874734 -0.001953264 -0.1299613
v -0.1277861 0.08894482 -0.2577789
v -0.3538222 -0.002015657 0.008861474
v -0.3897805 -0.001997657 0.2377826
v -0.2330705 0.1654822 -0.1299613
v -0.05042647 0.1451491 -0.2577789
v -0.2867475 0.2044173 0.008861474
v -0.3158383 0.2255733 0.2377827
v -0.1111443 0.3320017 0.008861474
v -0.1222561 0.3662185 0.2377827
v -0.08940976 0.2651812 -0.1299613
v -0.0304183 0.2677274 -0.1299613
v -0.002763952 0.2719585 -0.1506873
v -0.03174813 0.2940506 -0.07758665
v 0.04519583 0.1451491 -0.2577789
v 0.02492491 0.2677274 -0.1299613
v 0.08541086 0.2689633 -0.1299613
v 0.0268143 0.2947304 -0.0765776
v 0.1059136 0.3320017 0.008861474
v -0.03614268 0.3565836 0.1403028
v 0.03097506 0.3565775 0.1402186
v -0.03695257 0.3613752 0.193001
v -0.002813662 0.368854 0.210089
v 0.1170254 0.3662185 0.2377827
v 0.03203393 0.3613882 0.193187
v -0.03614268 0.3565836 0.1403028
v 0.03097506 0.3565775 0.1402186
v 0.03109038 0.4468785 0.159194
v -0.03671778 0.4468785 0.159194
v -0.03695257 0.3613752 0.193001
v 0.03274561 0.5004271 0.1421538
v -0.03671778 0.4468785 0.2078167
v -0.002813662 0.368854 0.210089
v -0.03837296 0.5004271 0.1421538
v 0.03448136 0.5293419 0.07018489
v -0.002813662 0.4543369 0.2177466
v 0.03203393 0.3613882 0.193187
v -0.03837296 0.5415574 0.174865
v -0.04010898 0.5293419 0.07018489
v 0.03270357 0.5061878 0.009343121
v 0.03109046 0.4468785 0.2078167
v 0.03097506 0.3565775 0.1402186
v 0.03109038 0.4468785 0.159194
v 0.03274561 0.5004271 0.1421538
v 0.03274561 0.5415574 0.174865
v 0.03448136 0.5293419 0.07018489
v -0.002813662 0.5557737 0.1810492
v 0.03448136 0.5780343 0.06820501
v 0.03270357 0.5061878 0.009343121
v -0.002813662 0.5934176 0.06616571
v 0.03274556 0.5410701 -0.02325174
v 0.03072295 0.431708 -0.04181873
v -0.04010898 0.5780343 0.06820501
v -0.002813662 0.5524617 -0.03188332
v 0.03062897 0.4512237 -0.08157434
v -0.03837296 0.5409604 -0.0233188
v 0.02492491 0.2677274 -0.1299613
v 0.0268143 0.2947304 -0.0765776
v -0.002813662 0.4604028 -0.09271878
v -0.002763952 0.2719585 -0.1506873
v -0.03627985 0.4529662 -0.08284016
v -0.0304183 0.2677274 -0.1299613
v -0.03174813 0.2940506 -0.07758665
v -0.03833399 0.5063393 0.009432863
v 0.03072295 0.431708 -0.04181873
v -0.03645083 0.4334589 -0.04303229
v 0.0268143 0.2947304 -0.0765776
v -0.261107 -0.1898027 0.1867485
v -0.3221286 -0.001997657 0.1867485
v -0.261107 0.1858075 0.1867485
v -0.2029471 0.01204718 0.1732643
v -0.1635924 -0.08690182 0.1732643
v -0.1939517 0.1188671 0.1732643
v -0.1433529 0.1874568 0.1732643
v -0.1013502 -0.3058723 0.1867485
v -0.06600144 -0.2096962 0.1732643
v 0.08593778 -0.1814269 0.1669818
v 0.09611959 -0.3058723 0.1867485
v 0.1815135 -0.1017804 0.1669817
v -0.1013506 0.301877 0.1867485
v -0.04552826 0.2211894 0.1732643
v 0.02193695 0.1829591 0.1732643
v 0.2558766 -0.1898027 0.1867485
v 0.09611959 0.301877 0.1867485
v 0.2180572 -0.01370081 0.1669817
v 0.04375779 0.1281078 0.1732643
v 0.09148007 0.1528645 0.1732643
v 0.1777654 0.1259148 0.1669817
v 0.2189942 0.05657551 0.1669817
v 0.2558766 0.1858075 0.1867485
v 0.3168982 -0.001997657 0.1867485
v -0.1635924 -0.08690182 0.1732643
v -0.2029471 0.01204718 0.1732643
v -0.1939517 0.1188671 0.1732643
v -0.1433529 0.1874568 0.1732643
v -0.06600144 -0.2096962 0.1732643
v -0.04552826 0.2211894 0.1732643
v 0.02193695 0.1829591 0.1732643
v 0.04375779 0.1281078 0.1732643
v 0.08593778 -0.1814269 0.1669818
v 0.09148007 0.1528645 0.1732643
v 0.1777654 0.1259148 0.1669817
v 0.1815135 -0.1017804 0.1669817
v 0.2180572 -0.01370081 0.1669817
v 0.2189942 0.05657551 0.1669817
v -0.05042647 -0.1491445 -0.2577789
v -0.002615185 -0.001997657 -0.2594045
v -0.1277861 -0.09293891 -0.2577789
v 0.04519583 -0.1491445 -0.2577789
v -0.1573352 -0.001997657 -0.2577789
v 0.1225557 -0.09293891 -0.2577789
v -0.1277861 0.08894482 -0.2577789
v 0.1521048 -0.001997657 -0.2577789
v -0.05042647 0.1451491 -0.2577789
v 0.1225557 0.08894482 -0.2577789
v 0.04519583 0.1451491 -0.2577789
v 0.09611959 0.301877 0.1867485
v -0.1013506 0.301877 0.1867485
v -0.104961 0.3129914 0.2394811
v -0.261107 0.1858075 0.1867485
v 0.09973063 0.3129914 0.2394811
v -0.2705603 0.1926765 0.2394812
v 0.2653295 0.1926765 0.2394812
v -0.3221286 -0.001997657 0.1867485
v 0.2558766 0.1858075 0.1867485
v -0.3338136 -0.001997657 0.2394812
v 0.328583 -0.001997657 0.2394812
v -0.261107 -0.1898027 0.1867485
v 0.3168982 -0.001997657 0.1867485
v -0.2705603 -0.1966703 0.2394812
v 0.2653297 -0.1966703 0.2394812
v -0.1013502 -0.3058723 0.1867485
v 0.2558766 -0.1898027 0.1867485
v -0.104961 -0.3169852 0.2394812
v 0.0997307 -0.3169852 0.2394812
v 0.09611959 -0.3058723 0.1867485
vt 0.2233744 0.5543922
vt 0.2204817 0.5543922
vt 0.2204817 0.5551781
vt 0.2233744 0.5551781
vt 0.2263038 0.5551781
vt 0.2263038 0.5543922
vt 0.2288 0.5551781
vt 0.2288 0.5543922
vt 0.2313043 0.5551781
vt 0.2313043 0.5543922
vt 0.2337784 0.5551781
vt 0.2337784 0.5543922
vt 0.2363353 0.5551781
vt 0.2363353 0.5543922
vt 0.2387963 0.5551781
vt 0.2387963 0.5543922
vt 0.2412046 0.5551781
vt 0.2412046 0.5543922
vt 0.2435461 0.5551781
vt 0.2435461 0.5543922
vt 0.2457022 0.5551781
vt 0.2457022 0.5543922
vt 0.2457022 0.5490548
vt 0.2457022 0.5463305
vt 0.2435461 0.5463305
vt 0.2435461 0.5490548
vt 0.2457022 0.5510766
vt 0.2412046 0.5463305
vt 0.2435461 0.5510766
vt 0.2457022 0.5543922
vt 0.2435461 0.5543922
vt 0.2412046 0.5490548
vt 0.2387963 0.5463305
vt 0.2412046 0.5510766
vt 0.2412046 0.5543922
vt 0.2387963 0.5490548
vt 0.2363353 0.5463305
vt 0.2387963 0.5510766
vt 0.2387963 0.5543922
vt 0.2363353 0.5490548
vt 0.2337784 0.5463305
vt 0.2363353 0.5510766
vt 0.2363353 0.5543922
vt 0.2337784 0.5490548
vt 0.2313043 0.5463305
vt 0.2337784 0.5510766
vt 0.2337784 0.5543922
vt 0.2313043 0.5490548
vt 0.2288 0.5463305
vt 0.2313043 0.5510766
vt 0.2313043 0.5543922
vt 0.2288 0.5490548
vt 0.2263038 0.5463305
vt 0.2288 0.5510766
vt 0.2288 0.5543922
vt 0.2263038 0.5490548
vt 0.2233744 0.5463305
vt 0.2263038 0.5510766
vt 0.2263038 0.5543922
vt 0.2233744 0.5510766
vt 0.2233744 0.5543922
vt 0.2233744 0.5490548
vt 0.2225485 0.5490548
vt 0.2220481 0.548779
vt 0.2225485 0.5499884
vt 0.2204817 0.5463305
vt 0.2215705 0.5490548
vt 0.2204817 0.5490548
vt 0.2215705 0.5499884
vt 0.2204817 0.5510766
vt 0.2225485 0.5528521
vt 0.2215705 0.5528521
vt 0.2225485 0.5534477
vt 0.2220481 0.5536078
vt 0.2204817 0.5543922
vt 0.2215705 0.5534477
vt 0.2260322 0.5403569
vt 0.2260313 0.5417414
vt 0.2278734 0.5417425
vt 0.2278743 0.5403579
vt 0.2260327 0.5394218
vt 0.2293851 0.5417433
vt 0.2278747 0.5394228
vt 0.2260332 0.5386378
vt 0.2293859 0.5403587
vt 0.2312332 0.5417444
vt 0.2278752 0.5386389
vt 0.2260336 0.5378018
vt 0.2293864 0.5394238
vt 0.231234 0.5403599
vt 0.2328412 0.5417454
vt 0.2278757 0.5378028
vt 0.2260344 0.5367429
vt 0.2278765 0.5367441
vt 0.2293881 0.536745
vt 0.2293874 0.5378038
vt 0.2312362 0.5367461
vt 0.2293869 0.5386398
vt 0.2312355 0.5378049
vt 0.2328441 0.536747
vt 0.231235 0.538641
vt 0.2328435 0.5378059
vt 0.2348987 0.5367483
vt 0.2312345 0.5394249
vt 0.232843 0.5386418
vt 0.2348981 0.5378071
vt 0.2328425 0.5394258
vt 0.2388214 0.5378094
vt 0.2380243 0.5367501
vt 0.2348975 0.538643
vt 0.2388209 0.5386454
vt 0.2348971 0.539427
vt 0.2388204 0.5394294
vt 0.237868 0.5403639
vt 0.232842 0.5403608
vt 0.2348958 0.5417466
vt 0.2348966 0.5403621
vt 0.2378672 0.5417484
vt 0.1877372 0.8003168
vt 0.190121 0.8032039
vt 0.193748 0.8041141
vt 0.191791 0.801577
vt 0.1906079 0.7999398
vt 0.1935997 0.8025224
vt 0.1952434 0.8024431
vt 0.1875012 0.7965605
vt 0.189634 0.7971191
vt 0.1918253 0.7952728
vt 0.1895231 0.7933667
vt 0.1941014 0.7945429
vt 0.1973437 0.802873
vt 0.1968164 0.8012484
vt 0.1968947 0.7997645
vt 0.1930484 0.7919647
vt 0.1993748 0.79967
vt 0.1959095 0.7948598
vt 0.1962337 0.7988474
vt 0.1971281 0.7983273
vt 0.1977587 0.7969663
vt 0.197061 0.7955733
vt 0.1991613 0.7958516
vt 0.1967352 0.7929085
vt 0.3599117 0.6925614
vt 0.360899 0.6939275
vt 0.362408 0.6947163
vt 0.3637795 0.6946501
vt 0.3590992 0.690208
vt 0.3650919 0.6936533
vt 0.3651573 0.6924152
vt 0.3646057 0.69165
vt 0.3609275 0.6886675
vt 0.365352 0.6912161
vt 0.3658782 0.6900805
vt 0.3628266 0.6880585
vt 0.3643352 0.6883228
vt 0.3652961 0.6889182
vt 0.2516873 0.5280928
vt 0.2501501 0.5328239
vt 0.2541746 0.5298999
vt 0.248613 0.5280928
vt 0.2551247 0.5328239
vt 0.2461258 0.5298999
vt 0.2541745 0.5357479
vt 0.2451757 0.5328239
vt 0.2516873 0.5375549
vt 0.2461258 0.5357476
vt 0.248613 0.5375549
vt 0.256733 0.5522515
vt 0.2562348 0.5530371
vt 0.2567523 0.553701
vt 0.2553529 0.5533415
vt 0.2575713 0.552448
vt 0.2553997 0.5541864
vt 0.257464 0.5509912
vt 0.2544633 0.5531183
vt 0.2566806 0.5513149
vt 0.2540191 0.5538391
vt 0.2565211 0.5498691
vt 0.2538786 0.5524102
vt 0.2560855 0.5505931
vt 0.2530973 0.5527413
vt 0.2551031 0.5495196
vt 0.2538207 0.5514888
vt 0.2551813 0.5503616
vt 0.2529932 0.5513025
vt 0.2537563 0.5500702
vt 0.2543166 0.5507055
vn -0.00937325 0.0288479 0.9995399
vn 0.009373317 0.02884791 0.9995399
vn 0.00937327 0.02884793 0.9995399
vn -0.009373129 0.02884794 0.9995399
vn -0.02454075 0.01782946 0.9995399
vn -0.02454071 0.01782952 0.9995399
vn -0.03033499 0 0.9995399
vn -0.03033499 0 0.9995399
vn -0.02454131 -0.01783006 0.9995399
vn -0.02454125 -0.01783015 0.9995399
vn -0.009373844 -0.02884923 0.9995399
vn -0.009373855 -0.02884923 0.9995399
vn 0.009374005 -0.02884924 0.9995399
vn 0.009373928 -0.02884927 0.9995399
vn 0.02454146 -0.01783009 0.9995399
vn 0.0245414 -0.01783017 0.9995399
vn 0.03033501 0 0.9995399
vn 0.03033501 0 0.9995399
vn 0.02454085 0.01782946 0.9995399
vn 0.02454083 0.0178295 0.9995399
vn 0.00937327 0.02884793 0.9995399
vn 0.009373317 0.02884791 0.9995399
vn 0.4187605 0.7278448 -0.54303
vn 0.3350702 0.6119196 -0.7164372
vn 0.5668539 0.4118021 -0.7135094
vn 0.6755884 0.4908955 -0.5500926
vn 0.4473047 0.8580606 -0.2522903
vn 0.7007176 -4.320309E-05 -0.7134387
vn 0.7832587 0.569028 -0.2504255
vn 0.5157342 0.84382 -0.148277
vn 0.7992038 0.5806716 -0.1552216
vn 0.8350623 5.166583E-05 -0.5501552
vn 0.5669302 -0.4119407 -0.7133688
vn 0.9681172 -4.037703E-05 -0.2504976
vn 0.9878873 1.482961E-05 -0.1551737
vn 0.6755711 -0.4907787 -0.550218
vn 0.2165575 -0.6665341 -0.7133269
vn 0.7832032 -0.5690642 -0.2505167
vn 0.7992312 -0.5806592 -0.1551268
vn 0.2580436 -0.7941226 -0.5502571
vn -0.2165574 -0.6665339 -0.7133269
vn 0.2991521 -0.9207208 -0.2505617
vn 0.3052824 -0.9395462 -0.1550985
vn -0.2580432 -0.7941228 -0.5502568
vn -0.5669293 -0.4119405 -0.7133696
vn -0.2991511 -0.9207212 -0.2505615
vn -0.3052826 -0.9395461 -0.1550989
vn -0.6755741 -0.490775 -0.5502176
vn -0.7007165 -4.322012E-05 -0.7134398
vn -0.7832036 -0.5690638 -0.2505164
vn -0.7992309 -0.5806593 -0.1551276
vn -0.8350626 5.166585E-05 -0.5501549
vn -0.5658073 0.4165122 -0.7116035
vn -0.9681174 -3.637816E-05 -0.250497
vn -0.987887 1.482962E-05 -0.1551747
vn -0.672442 0.4936893 -0.551446
vn -0.3325345 0.6192024 -0.7113432
vn -0.7820347 0.5697735 -0.2525468
vn -0.7992038 0.5806715 -0.155222
vn -0.4456376 0.8580765 -0.2551706
vn -0.5157275 0.8438431 -0.1481683
vn -0.4182221 0.7264003 -0.5453741
vn -0.1573893 0.7920567 -0.5898091
vn -0.0131844 0.7244424 -0.6892092
vn -0.0177177 0.9091048 -0.4161907
vn 0.3350702 0.6119196 -0.7164372
vn 0.1240559 0.7971616 -0.5908836
vn 0.4187605 0.7278448 -0.54303
vn 0.003357431 0.9121665 -0.409806
vn 0.4473047 0.8580606 -0.2522903
vn -0.02032364 0.9861784 -0.1644354
vn 0.02029561 0.9861768 -0.1644488
vn -0.05092485 0.9867961 -0.1537527
vn -0.0001802929 0.999668 0.02576518
vn 0.5157342 0.84382 -0.148277
vn 0.05098113 0.9867888 -0.1537814
vn -0.4956019 0.1772496 -0.8502713
vn 0.4960544 0.1812617 -0.849161
vn 0.6820489 0.00175428 -0.7313045
vn -0.6829722 -0.001195775 -0.7304434
vn -0.9298702 -0.04888638 0.3646253
vn 0.761269 -0.4927944 -0.4214537
vn -0.8068624 0.05678986 0.5880035
vn -0.00169523 -0.1285616 0.9917
vn -0.7612725 -0.4927992 -0.4214417
vn 0.7277539 -0.6851999 -0.02958496
vn -0.0004983476 0.1544662 0.9879979
vn 0.929875 -0.04262636 0.3653976
vn -0.7536349 0.4644679 0.4650851
vn -0.7275185 -0.6854503 -0.02957322
vn 0.6754928 -0.5739323 0.4629376
vn 0.8056862 0.05939778 0.5893568
vn 0.4960544 0.1812617 -0.849161
vn 0.6820489 0.00175428 -0.7313045
vn 0.761269 -0.4927944 -0.4214537
vn 0.7536346 0.4644683 0.4650849
vn 0.7277539 -0.6851999 -0.02958496
vn 0 0.7675337 0.6410086
vn 0.7735491 0.6337364 -0.0001036022
vn 0.6754928 -0.5739323 0.4629376
vn -0.0003195018 0.9998389 -0.01794102
vn 0.7880794 0.465929 -0.4022947
vn 0.6554342 -0.3083015 0.6894608
vn -0.7733744 0.6339495 -0.0002863528
vn 0.007454419 0.7719513 -0.6356381
vn 0.8393852 0.1884564 -0.5098202
vn -0.78573 0.4703512 -0.4017439
vn 0.7660037 0.1601314 -0.6225723
vn 0.7555755 -0.1808497 0.6296024
vn 0.01119695 0.3868606 -0.9220701
vn 0.01307291 0.2649419 -0.9641758
vn -0.8353567 0.1916332 -0.5152241
vn -0.7629421 0.1570922 -0.6270896
vn -0.7694242 -0.1784675 0.6132992
vn -0.6789547 -0.571659 0.4606803
vn 0.6554342 -0.3083015 0.6894608
vn -0.676145 -0.3041744 0.6710484
vn 0.7555755 -0.1808497 0.6296024
vn 0.1390867 -0.07170775 0.9876806
vn 0.1362981 -0.07461433 0.987854
vn 0.09460784 -0.1019438 0.9902811
vn 0.03690429 -0.01199084 0.9992468
vn 0.03690428 -0.01199084 0.9992468
vn 0.03690429 -0.01199084 0.9992468
vn 0.03690429 -0.01199084 0.9992468
vn 0.06032205 0.05010366 0.9969207
vn -0.07198058 -0.04114449 0.9965571
vn -0.03324877 0.01060214 0.9993908
vn -0.07057461 0.1092841 0.991502
vn -0.03324877 0.01060214 0.9993908
vn 0.007871299 -0.07186018 0.9973837
vn 0.03690428 -0.01199084 0.9992468
vn 0.03690429 -0.01199084 0.9992468
vn -0.1201001 0.1110009 0.9865368
vn -0.08124077 -0.0413822 0.9958351
vn -0.03324877 0.01060214 0.9993908
vn -0.06659284 0.02978278 0.9973356
vn -0.03324877 0.01060214 0.9993908
vn -0.03324877 0.01060214 0.9993908
vn -0.03324877 0.01060214 0.9993908
vn -0.1798236 0.03739164 0.982988
vn -0.1614414 0.08386165 0.9833127
vn 0.03690428 -0.01199084 0.9992468
vn 0.03690429 -0.01199084 0.9992468
vn 0.03690429 -0.01199084 0.9992468
vn 0.03690429 -0.01199084 0.9992468
vn -0.07198058 -0.04114449 0.9965571
vn 0.03690428 -0.01199084 0.9992468
vn 0.03690429 -0.01199084 0.9992468
vn -0.06659284 0.02978278 0.9973356
vn -0.03324877 0.01060214 0.9993908
vn -0.03324877 0.01060214 0.9993908
vn -0.03324877 0.01060214 0.9993908
vn -0.03324877 0.01060214 0.9993908
vn -0.03324877 0.01060214 0.9993908
vn -0.03324877 0.01060214 0.9993908
vn -0.003246743 -0.009992464 -0.9999448
vn 0 0 -1
vn -0.008499978 -0.006175686 -0.9999448
vn 0.003246568 -0.009992471 -0.9999448
vn -0.01050656 0 -0.9999448
vn 0.008499806 -0.006175695 -0.9999448
vn -0.008500256 0.00617569 -0.9999448
vn 0.01050656 0 -0.9999448
vn -0.003246941 0.009992479 -0.9999448
vn 0.008500083 0.006175698 -0.9999448
vn 0.003246765 0.009992486 -0.9999448
vn -0.2453171 -0.9339248 0.2600076
vn 0.3690588 -0.905158 0.2109135
vn 0.3016947 -0.9285306 0.2163592
vn 0.8124121 -0.5219085 0.259996
vn -0.3016966 -0.9285297 0.21636
vn 0.7898552 -0.5738661 0.2163483
vn -0.7898549 -0.573867 0.216347
vn 0.9640275 0.05528916 0.2599887
vn -0.7474176 -0.6113672 0.2599947
vn 0.9763179 0 0.2163407
vn -0.9763188 0 0.216337
vn 0.7468149 0.6307077 0.2108917
vn -0.9640285 -0.05528793 0.259985
vn 0.789859 0.5738652 0.2163368
vn -0.7898591 0.5738656 0.2163355
vn 0.2453183 0.9339309 0.2599844
vn -0.8124121 0.5219148 0.2599835
vn 0.3016985 0.9285346 0.2163364
vn -0.3016996 0.9285342 0.2163368
vn -0.3504823 0.8997611 0.2599848
g CoffeeCup_Empty_0
f 3/3/3 2/2/2 1/1/1
f 4/4/4 3/3/3 1/1/1
f 4/4/4 1/1/1 5/5/5
f 1/1/1 6/6/6 5/5/5
f 5/5/5 6/6/6 7/7/7
f 6/6/6 8/8/8 7/7/7
f 7/7/7 8/8/8 9/9/9
f 8/8/8 10/10/10 9/9/9
f 9/9/9 10/10/10 11/11/11
f 10/10/10 12/12/12 11/11/11
f 11/11/11 12/12/12 13/13/13
f 12/12/12 14/14/14 13/13/13
f 13/13/13 14/14/14 15/15/15
f 14/14/14 16/16/16 15/15/15
f 15/15/15 16/16/16 17/17/17
f 16/16/16 18/18/18 17/17/17
f 17/17/17 18/18/18 19/19/19
f 18/18/18 20/20/20 19/19/19
f 19/19/19 20/20/20 21/21/21
f 20/20/20 22/22/22 21/21/21
f 25/25/25 24/24/24 23/23/23
f 26/26/26 25/25/25 23/23/23
f 26/26/26 23/23/23 27/27/27
f 28/28/28 25/25/25 26/26/26
f 29/29/29 26/26/26 27/27/27
f 27/27/27 30/30/30 29/29/29
f 30/30/30 31/31/31 29/29/29
f 32/32/32 28/28/28 26/26/26
f 32/32/32 26/26/26 29/29/29
f 33/33/33 28/28/28 32/32/32
f 29/29/29 31/31/31 34/34/34
f 34/34/34 32/32/32 29/29/29
f 31/31/31 35/35/35 34/34/34
f 36/36/36 33/33/33 32/32/32
f 36/36/36 32/32/32 34/34/34
f 37/37/37 33/33/33 36/36/36
f 34/34/34 35/35/35 38/38/38
f 38/38/38 36/36/36 34/34/34
f 35/35/35 39/39/39 38/38/38
f 40/40/40 37/37/37 36/36/36
f 40/40/40 36/36/36 38/38/38
f 41/41/41 37/37/37 40/40/40
f 38/38/38 39/39/39 42/42/42
f 42/42/42 40/40/40 38/38/38
f 39/39/39 43/43/43 42/42/42
f 44/44/44 41/41/41 40/40/40
f 44/44/44 40/40/40 42/42/42
f 45/45/45 41/41/41 44/44/44
f 42/42/42 43/43/43 46/46/46
f 46/46/46 44/44/44 42/42/42
f 43/43/43 47/47/47 46/46/46
f 48/48/48 45/45/45 44/44/44
f 48/48/48 44/44/44 46/46/46
f 49/49/49 45/45/45 48/48/48
f 46/46/46 47/47/47 50/50/50
f 50/50/50 48/48/48 46/46/46
f 47/47/47 51/51/51 50/50/50
f 52/52/52 49/49/49 48/48/48
f 52/52/52 48/48/48 50/50/50
f 53/53/53 49/49/49 52/52/52
f 50/50/50 51/51/51 54/54/54
f 54/54/54 52/52/52 50/50/50
f 51/51/51 55/55/55 54/54/54
f 56/56/56 53/53/53 52/52/52
f 56/56/56 52/52/52 54/54/54
f 57/57/57 53/53/53 56/56/56
f 54/54/54 55/55/55 58/58/58
f 58/58/58 56/56/56 54/54/54
f 55/55/55 59/59/59 58/58/58
f 58/58/58 59/59/59 60/60/60
f 59/59/59 61/61/61 60/60/60
f 62/62/62 56/56/56 58/58/58
f 62/62/62 57/57/57 56/56/56
f 60/60/60 62/62/62 58/58/58
f 57/57/57 62/62/62 63/63/63
f 64/64/64 57/57/57 63/63/63
f 65/65/65 63/63/63 62/62/62
f 60/60/60 65/65/65 62/62/62
f 57/57/57 64/64/64 66/66/66
f 64/64/64 67/67/67 66/66/66
f 67/67/67 68/68/68 66/66/66
f 67/67/67 69/69/69 68/68/68
f 65/65/65 60/60/60 69/69/69
f 69/69/69 70/70/70 68/68/68
f 60/60/60 70/70/70 69/69/69
f 60/60/60 71/71/71 70/70/70
f 60/60/60 61/61/61 71/71/71
f 71/71/71 72/72/72 70/70/70
f 61/61/61 73/73/73 71/71/71
f 73/73/73 61/61/61 74/74/74
f 75/75/75 70/70/70 72/72/72
f 75/75/75 74/74/74 61/61/61
f 76/76/76 75/75/75 72/72/72
f 74/74/74 75/75/75 76/76/76
f 79/79/79 78/78/78 77/77/77
f 80/80/80 79/79/79 77/77/77
f 77/77/77 81/81/81 80/80/80
f 79/79/79 80/80/80 82/82/82
f 81/81/81 83/83/83 80/80/80
f 81/81/81 84/84/84 83/83/83
f 80/80/80 85/85/85 82/82/82
f 82/82/82 85/85/85 86/86/86
f 84/84/84 87/87/87 83/83/83
f 84/84/84 88/88/88 87/87/87
f 83/83/83 89/89/89 80/80/80
f 89/89/89 85/85/85 80/80/80
f 85/85/85 90/90/90 86/86/86
f 86/86/86 90/90/90 91/91/91
f 88/88/88 92/92/92 87/87/87
f 88/88/88 93/93/93 92/92/92
f 93/93/93 94/94/94 92/92/92
f 94/94/94 95/95/95 92/92/92
f 95/95/95 96/96/96 92/92/92
f 92/92/92 96/96/96 87/87/87
f 95/95/95 97/97/97 96/96/96
f 87/87/87 98/98/98 83/83/83
f 96/96/96 98/98/98 87/87/87
f 98/98/98 89/89/89 83/83/83
f 97/97/97 99/99/99 96/96/96
f 96/96/96 99/99/99 98/98/98
f 97/97/97 100/100/100 99/99/99
f 98/98/98 101/101/101 89/89/89
f 99/99/99 101/101/101 98/98/98
f 100/100/100 102/102/102 99/99/99
f 99/99/99 102/102/102 101/101/101
f 100/100/100 103/103/103 102/102/102
f 101/101/101 104/104/104 89/89/89
f 89/89/89 104/104/104 85/85/85
f 104/104/104 90/90/90 85/85/85
f 102/102/102 105/105/105 101/101/101
f 101/101/101 105/105/105 104/104/104
f 103/103/103 106/106/106 102/102/102
f 102/102/102 106/106/106 105/105/105
f 104/104/104 107/107/107 90/90/90
f 105/105/105 107/107/107 104/104/104
f 106/106/106 103/103/103 108/108/108
f 103/103/103 109/109/109 108/108/108
f 106/106/106 110/110/110 105/105/105
f 110/110/110 106/106/106 108/108/108
f 105/105/105 110/110/110 107/107/107
f 111/111/111 110/110/110 108/108/108
f 112/112/112 110/110/110 111/111/111
f 110/110/110 112/112/112 107/107/107
f 113/113/113 112/112/112 111/111/111
f 112/112/112 113/113/113 114/114/114
f 107/107/107 115/115/115 90/90/90
f 107/107/107 112/112/112 115/115/115
f 90/90/90 115/115/115 91/91/91
f 91/91/91 115/115/115 116/116/116
f 117/117/117 112/112/112 114/114/114
f 112/112/112 117/117/117 115/115/115
f 115/115/115 117/117/117 116/116/116
f 117/117/117 114/114/114 118/118/118
f 116/116/116 117/117/117 118/118/118
f 121/121/121 120/120/120 119/119/119
f 122/122/122 121/121/121 119/119/119
f 123/123/123 122/122/122 119/119/119
f 121/121/121 122/122/122 124/124/124
f 121/121/121 124/124/124 125/125/125
f 123/123/123 119/119/119 126/126/126
f 126/126/126 127/127/127 123/123/123
f 128/128/128 127/127/127 126/126/126
f 128/128/128 126/126/126 129/129/129
f 130/130/130 128/128/128 129/129/129
f 131/131/131 121/121/121 125/125/125
f 131/131/131 125/125/125 132/132/132
f 131/131/131 132/132/132 133/133/133
f 130/130/130 129/129/129 134/134/134
f 135/135/135 131/131/131 133/133/133
f 134/134/134 136/136/136 130/130/130
f 133/133/133 137/137/137 135/135/135
f 135/135/135 137/137/137 138/138/138
f 135/135/135 138/138/138 139/139/139
f 135/135/135 139/139/139 140/140/140
f 134/134/134 140/140/140 136/136/136
f 141/141/141 135/135/135 140/140/140
f 141/141/141 140/140/140 134/134/134
f 134/134/134 142/142/142 141/141/141
f 145/145/145 144/144/144 143/143/143
f 146/146/146 145/145/145 143/143/143
f 146/146/146 143/143/143 147/147/147
f 148/148/148 146/146/146 147/147/147
f 149/149/149 148/148/148 147/147/147
f 147/147/147 150/150/150 149/149/149
f 150/150/150 147/147/147 151/151/151
f 152/152/152 150/150/150 151/151/151
f 153/153/153 152/152/152 151/151/151
f 153/153/153 151/151/151 154/154/154
f 153/153/153 154/154/154 155/155/155
f 155/155/155 156/156/156 153/153/153
f 159/159/159 158/158/158 157/157/157
f 157/157/157 158/158/158 160/160/160
f 161/161/161 158/158/158 159/159/159
f 160/160/160 158/158/158 162/162/162
f 163/163/163 158/158/158 161/161/161
f 162/162/162 158/158/158 164/164/164
f 165/165/165 158/158/158 163/163/163
f 164/164/164 158/158/158 166/166/166
f 165/165/165 167/167/167 158/158/158
f 166/166/166 158/158/158 167/167/167
f 170/170/170 169/169/169 168/168/168
f 171/171/171 169/169/169 170/170/170
f 172/172/172 170/170/170 168/168/168
f 173/173/173 171/171/171 170/170/170
f 172/172/172 168/168/168 174/174/174
f 175/175/175 171/171/171 173/173/173
f 168/168/168 176/176/176 174/174/174
f 177/177/177 175/175/175 173/173/173
f 174/174/174 176/176/176 178/178/178
f 179/179/179 175/175/175 177/177/177
f 176/176/176 180/180/180 178/178/178
f 181/181/181 179/179/179 177/177/177
f 178/178/178 180/180/180 182/182/182
f 183/183/183 179/179/179 181/181/181
f 180/180/180 184/184/184 182/182/182
f 185/185/185 183/183/183 181/181/181
f 182/182/182 184/184/184 186/186/186
f 187/187/187 183/183/183 185/185/185
f 186/186/186 187/187/187 185/185/185
f 184/184/184 187/187/187 186/186/186
