g Cube
v 0.3514367 0.3498632 0.09210829
v 0.2106352 0.2059531 0.2258231
v -0.2017499 0.2059531 0.2258231
v -0.3487685 0.3498632 0.09210829
v -0.3487685 -0.350342 0.09210829
v -0.2017499 -0.206432 0.2258231
v 0.2106352 -0.206432 0.2258231
v 0.3514367 -0.350342 0.09210829
v -0.3487685 0.3498632 0.09210829
v -0.2017499 0.2059531 0.2258231
v -0.2017499 -0.206432 0.2258231
v -0.3487685 -0.350342 0.09210829
v 0.3514367 -0.350342 0.09210829
v 0.2106352 -0.206432 0.2258231
v 0.2106352 0.2059531 0.2258231
v 0.3514367 0.3498632 0.09210829
v 0.2106352 0.2059531 0.2258231
v 0.2106352 -0.206432 0.2258231
v -0.2017499 -0.206432 0.2258231
v -0.2017499 0.2059531 0.2258231
v 0.3496149 0.3507925 -0.09801887
v 0.211946 0.2068701 -0.2173842
v 0.211946 -0.206039 -0.2173842
v 0.3496149 -0.3499614 -0.09801887
v 0.211946 0.2068701 -0.2173842
v -0.2009632 0.2068701 -0.2173842
v -0.2009632 -0.206039 -0.2173842
v 0.211946 -0.206039 -0.2173842
v -0.3511389 -0.3499614 -0.09801887
v -0.2009632 -0.206039 -0.2173842
v -0.2009632 0.2068701 -0.2173842
v -0.3511389 0.3507925 -0.09801887
v 0.3496149 -0.3499614 -0.09801887
v 0.211946 -0.206039 -0.2173842
v -0.2009632 -0.206039 -0.2173842
v -0.3511389 -0.3499614 -0.09801887
v -0.3511389 0.3507925 -0.09801887
v -0.2009632 0.2068701 -0.2173842
v 0.211946 0.2068701 -0.2173842
v 0.3496149 0.3507925 -0.09801887
v 0.3514367 -0.350342 0.09210829
v 0.3514367 0.3498632 0.09210829
v 0.3496149 0.3507925 -0.09801887
v 0.3496149 -0.3499614 -0.09801887
v 0.3514367 0.3498632 0.09210829
v -0.3487685 0.3498632 0.09210829
v -0.3511389 0.3507925 -0.09801887
v 0.3496149 0.3507925 -0.09801887
v -0.3487685 0.3498632 0.09210829
v -0.3487685 -0.350342 0.09210829
v -0.3511389 -0.3499614 -0.09801887
v -0.3511389 0.3507925 -0.09801887
v -0.3487685 -0.350342 0.09210829
v 0.3514367 -0.350342 0.09210829
v 0.3496149 -0.3499614 -0.09801887
v -0.3511389 -0.3499614 -0.09801887
vt 0.1034025 0.8556716
vt 0.1034025 0.8556716
vt 0.1194511 0.8556716
vt 0.1194511 0.8556716
vt 0.1194511 0.8717203
vt 0.1194511 0.8717203
vt 0.1034025 0.8717203
vt 0.1034025 0.8717203
vt 0.1600541 0.8556716
vt 0.1600541 0.8556716
vt 0.1600541 0.8717203
vt 0.1600541 0.8717203
vt 0.1440054 0.8717203
vt 0.1440054 0.8717203
vt 0.1440054 0.8556716
vt 0.1440054 0.8556716
vt 0.2313632 0.5370002
vt 0.2313632 0.5530489
vt 0.2474118 0.5530489
vt 0.2474118 0.5370002
vt 0.1440054 0.8556716
vt 0.1440054 0.8556716
vt 0.1440054 0.8717203
vt 0.1440054 0.8717203
vt 0.2301328 0.5308483
vt 0.2461815 0.5308483
vt 0.2461815 0.5468969
vt 0.2301328 0.5468969
vt 0.1600541 0.8717203
vt 0.1600541 0.8717203
vt 0.1600541 0.8556716
vt 0.1600541 0.8556716
vt 0.0984809 0.8717203
vt 0.0984809 0.8717203
vt 0.1145296 0.8717203
vt 0.1145296 0.8717203
vt 0.1145296 0.8556716
vt 0.1145296 0.8556716
vt 0.0984809 0.8556716
vt 0.0984809 0.8556716
vt 0.1034025 0.8717203
vt 0.1034025 0.8556716
vt 0.1230887 0.8556716
vt 0.0984809 0.8717203
vt 0.1522306 0.8537185
vt 0.1600541 0.8556716
vt 0.1633577 0.8537185
vt 0.147309 0.8537185
vt 0.1182207 0.8519804
vt 0.1009953 0.8606468
vt 0.1182207 0.8680291
vt 0.1182207 0.8519804
vt 0.1674364 0.8667988
vt 0.1513877 0.8667988
vt 0.1464662 0.8667988
vt 0.1625148 0.8667988
vn 0 0.6806807 0.7325802
vn 0 0.6806807 0.7325802
vn 0 0.6806807 0.7325802
vn 0 0.6806807 0.7325802
vn 0 -0.6806809 0.7325801
vn 0 -0.6806809 0.7325801
vn 0 -0.6806809 0.7325801
vn 0 -0.6806809 0.7325801
vn -0.6728424 0 0.7397859
vn -0.6728424 0 0.7397859
vn -0.6728424 0 0.7397859
vn -0.6728424 0 0.7397859
vn 0.6886232 0 0.7251193
vn 0.6886232 0 0.7251193
vn 0.6886232 0 0.7251193
vn 0.6886232 0 0.7251193
vn 0 0 1
vn 0 0 1
vn 0 0 1
vn 0 0 1
vn 0.6550944 0 -0.7555471
vn 0.6550944 0 -0.7555471
vn 0.6550944 0 -0.7555471
vn 0.6550944 0 -0.7555471
vn 0 0 -1
vn 0 0 -1
vn 0 0 -1
vn 0 0 -1
vn -0.6222278 0 -0.7828363
vn -0.6222278 0 -0.7828363
vn -0.6222278 0 -0.7828363
vn -0.6222278 0 -0.7828363
vn 0 -0.6383838 -0.7697182
vn 0 -0.6383838 -0.7697182
vn 0 -0.6383838 -0.7697182
vn 0 -0.6383838 -0.7697182
vn 0 0.6383837 -0.7697182
vn 0 0.6383837 -0.7697182
vn 0 0.6383837 -0.7697182
vn 0 0.6383837 -0.7697182
vn 0.9999541 0 -0.00958184
vn 0.9999541 0 -0.00958184
vn 0.9999541 0 -0.00958184
vn 0.9999541 0 -0.00958184
vn 0 0.9999881 0.004887641
vn 0 0.9999881 0.004887641
vn 0 0.9999881 0.004887641
vn 0 0.9999881 0.004887641
vn -0.9999223 0 0.01246675
vn -0.9999223 0 0.01246675
vn -0.9999223 0 0.01246675
vn -0.9999223 0 0.01246675
vn 0 -0.999998 -0.002001919
vn 0 -0.999998 -0.002001919
vn 0 -0.999998 -0.002001919
vn 0 -0.999998 -0.002001919
g Cube_0
f 3/3/3 2/2/2 1/1/1
f 4/4/4 3/3/3 1/1/1
f 7/7/7 6/6/6 5/5/5
f 8/8/8 7/7/7 5/5/5
f 11/11/11 10/10/10 9/9/9
f 12/12/12 11/11/11 9/9/9
f 15/15/15 14/14/14 13/13/13
f 16/16/16 15/15/15 13/13/13
f 19/19/19 18/18/18 17/17/17
f 20/20/20 19/19/19 17/17/17
f 23/23/23 22/22/22 21/21/21
f 24/24/24 23/23/23 21/21/21
f 27/27/27 26/26/26 25/25/25
f 28/28/28 27/27/27 25/25/25
f 31/31/31 30/30/30 29/29/29
f 32/32/32 31/31/31 29/29/29
f 35/35/35 34/34/34 33/33/33
f 36/36/36 35/35/35 33/33/33
f 39/39/39 38/38/38 37/37/37
f 40/40/40 39/39/39 37/37/37
f 43/43/43 42/42/42 41/41/41
f 44/44/44 43/43/43 41/41/41
f 47/47/47 46/46/46 45/45/45
f 48/48/48 47/47/47 45/45/45
f 51/51/51 50/50/50 49/49/49
f 52/52/52 51/51/51 49/49/49
f 55/55/55 54/54/54 53/53/53
f 56/56/56 55/55/55 53/53/53
