g Cylinder
v 0.2289757 -0.1780136 0.2219596
v -0.2297848 -0.1780136 0.2219596
v -0.0004044988 0.2192846 0.2219596
v 0.2264 -0.180447 -0.2087318
v -0.003849325 0.2204411 -0.2098586
v -0.2363475 -0.1795372 -0.2112075
v 0.4370318 -0.299853 0.1324313
v 0.2289757 -0.1780136 0.2219596
v -0.0004044988 0.2192846 0.2219596
v -0.00338046 0.4629633 0.1324313
v -0.4437928 -0.299853 0.1324313
v -0.2297848 -0.1780136 0.2219596
v 0.2289757 -0.1780136 0.2219596
v 0.4370318 -0.299853 0.1324313
v -0.00338046 0.4629633 0.1324313
v -0.0004044988 0.2192846 0.2219596
v -0.2297848 -0.1780136 0.2219596
v -0.4437928 -0.299853 0.1324313
v -0.44086 -0.2996013 -0.1176051
v -0.2363475 -0.1795372 -0.2112075
v -0.003849325 0.2204411 -0.2098586
v -0.004997497 0.4659169 -0.1114286
v 0.4358841 -0.3000031 -0.1114286
v 0.2264 -0.180447 -0.2087318
v -0.2363475 -0.1795372 -0.2112075
v -0.44086 -0.2996013 -0.1176051
v -0.004997497 0.4659169 -0.1114286
v -0.003849325 0.2204411 -0.2098586
v 0.2264 -0.180447 -0.2087318
v 0.4358841 -0.3000031 -0.1114286
v -0.00338046 0.4629633 0.1324313
v -0.004997497 0.4659169 -0.1114286
v 0.4358841 -0.3000031 -0.1114286
v 0.4370318 -0.299853 0.1324313
v -0.4437928 -0.299853 0.1324313
v -0.44086 -0.2996013 -0.1176051
v -0.004997497 0.4659169 -0.1114286
v -0.00338046 0.4629633 0.1324313
v 0.4370318 -0.299853 0.1324313
v 0.4358841 -0.3000031 -0.1114286
v -0.44086 -0.2996013 -0.1176051
v -0.4437928 -0.299853 0.1324313
vt 0.03656142 0.3856479
vt 0.01078128 0.3856479
vt 0.02367135 0.4079741
vt 0.03656142 0.3856479
vt 0.02367135 0.4079741
vt 0.01078128 0.3856479
vt 0.1109708 0.6034505
vt 0.1109708 0.6034505
vt 0.09808077 0.6257767
vt 0.09808077 0.6257767
vt 0.01078128 0.6158521
vt 0.01078128 0.6158521
vt 0.03656142 0.6158521
vt 0.03656142 0.6158521
vt 0.06552665 0.6219012
vt 0.06552665 0.6219012
vt 0.05263658 0.599575
vt 0.05263658 0.599575
vt 0.05263658 0.599575
vt 0.05263658 0.599575
vt 0.06552665 0.6219012
vt 0.06552665 0.6219012
vt 0.03888672 0.6050007
vt 0.03888672 0.6050007
vt 0.01310658 0.6050007
vt 0.01310658 0.6050007
vt 0.1042816 0.6250016
vt 0.1042816 0.6250016
vt 0.1171716 0.6026754
vt 0.1171716 0.6026754
vt 0.06552665 0.6219012
vt 0.06552665 0.6219012
vt 0.06911554 0.6057758
vt 0.05981436 0.6081011
vt 0.01078128 0.6158521
vt 0.01310658 0.6050007
vt 0.03529783 0.6133751
vt 0.03529783 0.6133751
vt 0.03656142 0.6158521
vt 0.03888672 0.6050007
vt 0.01310658 0.6050007
vt 0.01078128 0.6158521
vn 0 0 1
vn 0 0 1
vn 0 0 1
vn 0.00535047 0.0002622794 -0.9999857
vn 0.00535047 0.0002622794 -0.9999857
vn 0.00535047 0.0002622794 -0.9999857
vn 0.5199189 0.3001753 0.7997369
vn 0.5199189 0.3001753 0.7997369
vn 0.5199189 0.3001753 0.7997369
vn 0.5199189 0.3001753 0.7997369
vn 0 -0.5921351 0.8058388
vn 0 -0.5921351 0.8058388
vn 0 -0.5921351 0.8058388
vn 0 -0.5921351 0.8058388
vn -0.5058305 0.2920414 0.8116941
vn -0.5058305 0.2920414 0.8116941
vn -0.5058305 0.2920414 0.8116941
vn -0.5058305 0.2920414 0.8116941
vn -0.5386294 0.3139286 -0.7818741
vn -0.5386294 0.3139286 -0.7818741
vn -0.5386294 0.3139286 -0.7818741
vn -0.5386294 0.3139286 -0.7818741
vn 0.004442136 -0.6230578 -0.7821631
vn 0.004442136 -0.6230578 -0.7821631
vn 0.004442136 -0.6230578 -0.7821631
vn 0.004442136 -0.6230578 -0.7821631
vn 0.543587 0.3119106 -0.7792464
vn 0.543587 0.3119106 -0.7792464
vn 0.543587 0.3119106 -0.7792464
vn 0.543587 0.3119106 -0.7792464
vn 0.866348 0.4994368 -0.002040238
vn 0.866348 0.4994368 -0.002040238
vn 0.866348 0.4994368 -0.002040238
vn 0.866348 0.4994368 -0.002040238
vn -0.8675244 0.4973938 0.0009169034
vn -0.8675244 0.4973938 0.0009169034
vn -0.8675244 0.4973938 0.0009169034
vn -0.8675244 0.4973938 0.0009169034
vn -0.0002279169 -1 -0.0002065401
vn -0.0002279169 -1 -0.0002065401
vn -0.0002279169 -1 -0.0002065401
vn -0.0002279169 -1 -0.0002065401
g Cylinder_0
f 3/3/3 2/2/2 1/1/1
f 6/6/6 5/5/5 4/4/4
f 9/9/9 8/8/8 7/7/7
f 10/10/10 9/9/9 7/7/7
f 13/13/13 12/12/12 11/11/11
f 14/14/14 13/13/13 11/11/11
f 17/17/17 16/16/16 15/15/15
f 18/18/18 17/17/17 15/15/15
f 21/21/21 20/20/20 19/19/19
f 22/22/22 21/21/21 19/19/19
f 25/25/25 24/24/24 23/23/23
f 26/26/26 25/25/25 23/23/23
f 29/29/29 28/28/28 27/27/27
f 30/30/30 29/29/29 27/27/27
f 33/33/33 32/32/32 31/31/31
f 34/34/34 33/33/33 31/31/31
f 37/37/37 36/36/36 35/35/35
f 38/38/38 37/37/37 35/35/35
f 41/41/41 40/40/40 39/39/39
f 42/42/42 41/41/41 39/39/39
