g Cylinder.002
v -2.987044E-08 0.496193 0.1234672
v -7.858168E-08 0.2509673 0.2474882
v -0.1842973 1.799018E-09 0.2474882
v -0.3643782 3.474405E-09 0.1234672
v -0.3643782 3.474405E-09 0.1234672
v -0.1842973 1.799018E-09 0.2474882
v -1.00522E-07 -0.2509673 0.2474882
v -7.324902E-08 -0.496193 0.1234672
v 0.364378 -1.679823E-08 0.1234672
v 0.1842971 -8.45459E-09 0.2474882
v -7.858168E-08 0.2509673 0.2474882
v -2.987044E-08 0.496193 0.1234672
v -7.324902E-08 -0.496193 0.1234672
v -1.00522E-07 -0.2509673 0.2474882
v 0.1842971 -8.45459E-09 0.2474882
v 0.364378 -1.679823E-08 0.1234672
v 0.1842971 -8.45459E-09 0.2474882
v -1.00522E-07 -0.2509673 0.2474882
v -0.1842973 1.799018E-09 0.2474882
v -7.858168E-08 0.2509673 0.2474882
v 0.3651232 -1.652477E-08 -0.1321663
v 0.1834861 -1.191214E-08 -0.2248124
v -5.161285E-08 -0.2498628 -0.2248124
v -7.313616E-08 -0.4972077 -0.1321663
v 0.1834861 -1.191214E-08 -0.2248124
v -2.976915E-08 0.2498628 -0.2248124
v -0.1834862 -1.703652E-09 -0.2248124
v -5.161285E-08 -0.2498628 -0.2248124
v -7.313616E-08 -0.4972077 -0.1321663
v -5.161285E-08 -0.2498628 -0.2248124
v -0.1834862 -1.703652E-09 -0.2248124
v -0.3651233 3.789328E-09 -0.1321663
v -2.966888E-08 0.4972077 -0.1321663
v -2.976915E-08 0.2498628 -0.2248124
v 0.1834861 -1.191214E-08 -0.2248124
v 0.3651232 -1.652477E-08 -0.1321663
v -0.3651233 3.789328E-09 -0.1321663
v -0.1834862 -1.703652E-09 -0.2248124
v -2.976915E-08 0.2498628 -0.2248124
v -2.966888E-08 0.4972077 -0.1321663
v -0.3643782 3.474405E-09 0.1234672
v -0.3651233 3.789328E-09 -0.1321663
v -2.966888E-08 0.4972077 -0.1321663
v -2.987044E-08 0.496193 0.1234672
v -2.987044E-08 0.496193 0.1234672
v -2.966888E-08 0.4972077 -0.1321663
v 0.3651232 -1.652477E-08 -0.1321663
v 0.364378 -1.679823E-08 0.1234672
v 0.364378 -1.679823E-08 0.1234672
v 0.3651232 -1.652477E-08 -0.1321663
v -7.313616E-08 -0.4972077 -0.1321663
v -7.324902E-08 -0.496193 0.1234672
v -7.324902E-08 -0.496193 0.1234672
v -7.313616E-08 -0.4972077 -0.1321663
v -0.3651233 3.789328E-09 -0.1321663
v -0.3643782 3.474405E-09 0.1234672
vt 0.02877449 0.5775328
vt 0.02877449 0.5775328
vt 0.03304658 0.5818049
vt 0.03304658 0.5818049
vt 0.07015595 0.5769221
vt 0.07015595 0.5769221
vt 0.06588386 0.5811942
vt 0.06588386 0.5811942
vt 0.06161178 0.5769221
vt 0.06161178 0.5769221
vt 0.06588386 0.57265
vt 0.06588386 0.57265
vt 0.02877449 0.586077
vt 0.02877449 0.586077
vt 0.02450241 0.5818049
vt 0.02450241 0.5818049
vt 0.2881742 0.6540706
vt 0.2924463 0.6583427
vt 0.2967184 0.6540706
vt 0.2924463 0.6497985
vt 0.02450241 0.5818049
vt 0.02450241 0.5818049
vt 0.02877449 0.586077
vt 0.02877449 0.586077
vt 0.2891578 0.6488789
vt 0.2831013 0.6549354
vt 0.2770448 0.6488789
vt 0.2831013 0.6428223
vt 0.06588386 0.5811942
vt 0.06588386 0.5811942
vt 0.07015595 0.5769221
vt 0.07015595 0.5769221
vt 0.06588386 0.57265
vt 0.06588386 0.57265
vt 0.06161178 0.5769221
vt 0.06161178 0.5769221
vt 0.03304658 0.5818049
vt 0.03304658 0.5818049
vt 0.02877449 0.5775328
vt 0.02877449 0.5775328
vt 0.07015595 0.5769221
vt 0.07015595 0.5769221
vt 0.0628788 0.5752075
vt 0.06588386 0.57265
vt 0.03565503 0.57265
vt 0.03565503 0.57265
vt 0.03138295 0.5769221
vt 0.02450241 0.5818049
vt 0.05550633 0.574829
vt 0.05550633 0.574829
vt 0.05977841 0.5791011
vt 0.06588386 0.5811942
vt 0.06588386 0.5811942
vt 0.06588386 0.5811942
vt 0.07015595 0.5769221
vt 0.07015595 0.5769221
vn -0.5235941 0.3845002 0.7602689
vn -0.5235941 0.3845002 0.7602689
vn -0.5235941 0.3845002 0.7602689
vn -0.5235941 0.3845002 0.7602689
vn -0.5235941 -0.3845001 0.7602689
vn -0.5235941 -0.3845001 0.7602689
vn -0.5235941 -0.3845001 0.7602689
vn -0.5235941 -0.3845001 0.7602689
vn 0.5235941 0.3845001 0.760269
vn 0.5235941 0.3845001 0.760269
vn 0.5235941 0.3845001 0.760269
vn 0.5235941 0.3845001 0.760269
vn 0.5235941 -0.3845001 0.760269
vn 0.5235941 -0.3845001 0.760269
vn 0.5235941 -0.3845001 0.760269
vn 0.5235941 -0.3845001 0.760269
vn 0 0 1
vn 0 0 1
vn 0 0 1
vn 0 0 1
vn 0.4310099 -0.3165111 -0.8450155
vn 0.4310099 -0.3165111 -0.8450155
vn 0.4310099 -0.3165111 -0.8450155
vn 0.4310099 -0.3165111 -0.8450155
vn 0 0 -1
vn 0 0 -1
vn 0 0 -1
vn 0 0 -1
vn -0.4310098 -0.316511 -0.8450155
vn -0.4310098 -0.316511 -0.8450155
vn -0.4310098 -0.316511 -0.8450155
vn -0.4310098 -0.316511 -0.8450155
vn 0.4310099 0.316511 -0.8450155
vn 0.4310099 0.316511 -0.8450155
vn 0.4310099 0.316511 -0.8450155
vn 0.4310099 0.316511 -0.8450155
vn -0.4310098 0.3165111 -0.8450155
vn -0.4310098 0.3165111 -0.8450155
vn -0.4310098 0.3165111 -0.8450155
vn -0.4310098 0.3165111 -0.8450155
vn -0.8060126 0.5918936 0.002349489
vn -0.8060126 0.5918936 0.002349489
vn -0.8060126 0.5918936 0.002349489
vn -0.8060126 0.5918936 0.002349489
vn 0.8060128 0.5918935 0.00234949
vn 0.8060128 0.5918935 0.00234949
vn 0.8060128 0.5918935 0.00234949
vn 0.8060128 0.5918935 0.00234949
vn 0.8060127 -0.5918935 0.002349489
vn 0.8060127 -0.5918935 0.002349489
vn 0.8060127 -0.5918935 0.002349489
vn 0.8060127 -0.5918935 0.002349489
vn -0.8060127 -0.5918935 0.002349489
vn -0.8060127 -0.5918935 0.002349489
vn -0.8060127 -0.5918935 0.002349489
vn -0.8060127 -0.5918935 0.002349489
g Cylinder.002_0
f 3/3/3 2/2/2 1/1/1
f 4/4/4 3/3/3 1/1/1
f 7/7/7 6/6/6 5/5/5
f 8/8/8 7/7/7 5/5/5
f 11/11/11 10/10/10 9/9/9
f 12/12/12 11/11/11 9/9/9
f 15/15/15 14/14/14 13/13/13
f 16/16/16 15/15/15 13/13/13
f 19/19/19 18/18/18 17/17/17
f 20/20/20 19/19/19 17/17/17
f 23/23/23 22/22/22 21/21/21
f 24/24/24 23/23/23 21/21/21
f 27/27/27 26/26/26 25/25/25
f 28/28/28 27/27/27 25/25/25
f 31/31/31 30/30/30 29/29/29
f 32/32/32 31/31/31 29/29/29
f 35/35/35 34/34/34 33/33/33
f 36/36/36 35/35/35 33/33/33
f 39/39/39 38/38/38 37/37/37
f 40/40/40 39/39/39 37/37/37
f 43/43/43 42/42/42 41/41/41
f 44/44/44 43/43/43 41/41/41
f 47/47/47 46/46/46 45/45/45
f 48/48/48 47/47/47 45/45/45
f 51/51/51 50/50/50 49/49/49
f 52/52/52 51/51/51 49/49/49
f 55/55/55 54/54/54 53/53/53
f 56/56/56 55/55/55 53/53/53
