g Cylinder
v 0.0001949472 0.2291175 -0.2947795
v 0.1610303 0.1624973 0.1601315
v 0.0001949472 0.2291175 0.1601315
v 0.1610303 0.1624973 -0.2947795
v 0.2276504 0.001662029 0.1601315
v 0.2276504 0.001662029 -0.2947795
v 0.1610303 -0.1591733 0.1601315
v 0.1610303 -0.1591733 -0.2947795
v 0.0001949273 -0.2257935 0.1601315
v 0.0001949273 -0.2257935 -0.2947795
v -0.1606404 -0.1591733 0.1601315
v -0.1606404 -0.1591733 -0.2947795
v -0.2272606 0.001662042 0.1601315
v -0.2272606 0.001662042 -0.2947795
v -0.1606404 0.1624973 0.1601315
v -0.1606404 0.1624973 -0.2947795
v 0.0001949472 0.2291175 0.1601315
v 0.0001949472 0.2291175 -0.2947795
v 0.1610303 0.1624973 0.1601315
v 0.2276504 0.001662029 0.1601315
v 0.1610303 -0.1591733 0.1601315
v 0.0001949472 0.2291175 0.1601315
v 0.0001949273 -0.2257935 0.1601315
v -0.1606404 0.1624973 0.1601315
v -0.1606404 -0.1591733 0.1601315
v -0.2272606 0.001662042 0.1601315
v 0.1610303 -0.1591733 -0.2947795
v 0.2276504 0.001662029 -0.2947795
v 0.1610303 0.1624973 -0.2947795
v 0.0001949273 -0.2257935 -0.2947795
v 0.0001949472 0.2291175 -0.2947795
v -0.1606404 0.1624973 -0.2947795
v -0.1606404 -0.1591733 -0.2947795
v -0.2272606 0.001662042 -0.2947795
v -0.07329267 0.07741018 0.8604855
v 0.07368243 0.07741023 0.8604855
v 0.0001948527 0.1084593 0.849413
v 0.104122 0.002451343 0.849413
v -0.1037322 0.00245129 0.849413
v 0.07368248 -0.0725076 0.8604855
v -0.07329261 -0.07250765 0.8604855
v 0.0001949387 -0.1035566 0.849413
v -0.2235115 0.002450866 -0.3959137
v -0.1515715 -0.1493156 -0.4389274
v -0.2144353 0.002450866 -0.4389276
v -0.1515716 0.1542175 -0.4389274
v -0.1579893 -0.1557334 -0.3959135
v 0.0001950035 -0.2121793 -0.4389276
v -0.1579894 0.1606352 -0.3959134
v 0.0001948281 0.2170812 -0.4389276
v 0.0001950061 -0.2212556 -0.3959134
v 0.1519615 -0.1493155 -0.4389276
v -0.1584711 -0.156215 0.2635863
v -0.2241928 0.002451078 0.2635863
v 0.0001950056 -0.2219366 0.2635863
v 0.158861 -0.1562149 0.2635863
v 0.079528 -0.1890757 0.2635863
v 0.1583792 -0.1557333 -0.3959137
v 0.2245826 0.002451237 0.2635863
v 0.2148252 0.002451025 -0.4389276
v 0.1194163 0.002451237 0.481112
v 0.08449715 -0.08185103 0.481112
v 0.1917218 -0.07688183 0.2635863
v 0.2239014 0.002451025 -0.3959137
v 0.1583792 0.1606354 -0.3959134
v 0.1519614 0.1542175 -0.4389276
v -0.07913803 -0.1890758 0.2635863
v 0.1917217 0.08178424 0.2635862
v 0.0001948245 0.2261574 -0.3959134
v 0.1588609 0.1611172 0.2635862
v 0.0001949614 -0.1167702 0.481112
v 0.07952785 0.193978 0.2635861
v 0.0001948235 0.2268388 0.2635859
v 0.0844971 0.0867534 0.481112
v -0.07913819 0.193978 0.2635861
v -0.1584712 0.1611171 0.2635862
v 0.0001948646 0.1216725 0.481112
v -0.191332 0.08178411 0.2635862
v -0.08410731 0.0867534 0.481112
v 0.0001948791 0.08372838 0.8390279
v 0.05766646 0.05992288 0.8390279
v -0.05727666 0.05992285 0.8390279
v -0.08108219 0.00245129 0.8390279
v -0.1190265 0.002451184 0.481112
v -0.08410726 -0.08185107 0.481112
v 0.0001948771 0.08877496 0.8909272
v -0.06084515 0.06349134 0.8909272
v 0.06123494 0.06349138 0.8909272
v -0.08612879 0.00245129 0.8909272
v -0.06084508 -0.05858875 0.8909272
v 0.08651857 0.002451343 0.8909272
v -0.05727661 -0.05502032 0.8390279
v 0.0001949471 -0.08387237 0.8909272
v 0.081472 0.002451343 0.8390279
v 0.0576665 -0.05502032 0.8390279
v 0.06123498 -0.05858875 0.8909272
v 0.0001949451 -0.07882585 0.8390279
v -0.191332 -0.07688196 0.2635863
v -0.06384201 -0.06286775 0.9136816
v 0.0001948978 0.002451343 0.9136816
v 0.0001949331 -0.08992387 0.9136816
v -0.09036702 0.00245129 0.9136816
v 0.06423187 -0.06286775 0.9136816
v -0.06384205 0.06777038 0.9136816
v 0.09075682 0.002451343 0.9136816
v 0.0001948581 0.09482644 0.9136816
v 0.06423181 0.06777044 0.9136816
v -0.07329261 -0.07250765 0.8604855
v 0.0001949331 -0.08992387 0.9136816
v 0.0001949387 -0.1035566 0.849413
v 0.07368248 -0.0725076 0.8604855
v -0.06384201 -0.06286775 0.9136816
v 0.06423187 -0.06286775 0.9136816
v -0.1037322 0.00245129 0.849413
v 0.104122 0.002451343 0.849413
v -0.09036702 0.00245129 0.9136816
v 0.09075682 0.002451343 0.9136816
v -0.07329267 0.07741018 0.8604855
v 0.07368243 0.07741023 0.8604855
v -0.06384205 0.06777038 0.9136816
v 0.06423181 0.06777044 0.9136816
v 0.0001948527 0.1084593 0.849413
v 0.0001948581 0.09482644 0.9136816
v -0.1360066 -0.1345943 -0.4715419
v 0.001038559 0.00245097 -0.4715419
v -0.1927726 0.002450874 -0.4715419
v 0.001038636 -0.1913603 -0.4715419
v -0.1360067 0.1394961 -0.4715419
v 0.1380838 -0.1345942 -0.4715419
v 0.001038478 0.1962622 -0.4715419
v 0.1948498 0.002451017 -0.4715419
v 0.1380837 0.1394963 -0.4715419
v -0.1515716 0.1542175 -0.4389274
v -0.1360067 0.1394961 -0.4715419
v 0.001038478 0.1962622 -0.4715419
v 0.0001948281 0.2170812 -0.4389276
v -0.2144353 0.002450866 -0.4389276
v 0.1380837 0.1394963 -0.4715419
v -0.1927726 0.002450874 -0.4715419
v 0.1519614 0.1542175 -0.4389276
v -0.1515715 -0.1493156 -0.4389274
v 0.1948498 0.002451017 -0.4715419
v -0.1360066 -0.1345943 -0.4715419
v 0.2148252 0.002451025 -0.4389276
v 0.0001950035 -0.2121793 -0.4389276
v 0.1380838 -0.1345942 -0.4715419
v 0.001038636 -0.1913603 -0.4715419
v 0.1519615 -0.1493155 -0.4389276
vt 0.3112039 0.5462935
vt 0.3137436 0.5361348
vt 0.3112039 0.5361348
vt 0.3137436 0.5462935
vt 0.3162832 0.5361348
vt 0.3162832 0.5462935
vt 0.3188229 0.5361348
vt 0.3188229 0.5462935
vt 0.3213626 0.5361348
vt 0.3213626 0.5462935
vt 0.3239022 0.5361348
vt 0.3239022 0.5462935
vt 0.3264419 0.5361348
vt 0.3264419 0.5462935
vt 0.3289815 0.5361348
vt 0.3289815 0.5462935
vt 0.3315212 0.5361348
vt 0.3315212 0.5462935
vt 0.3724402 0.6849597
vt 0.3710121 0.6884077
vt 0.3724402 0.6918556
vt 0.3758882 0.6835315
vt 0.3758882 0.6932838
vt 0.3793361 0.6849597
vt 0.3793361 0.6918556
vt 0.3807644 0.6884077
vt 0.3622816 0.6918556
vt 0.3608534 0.6884077
vt 0.3622816 0.6849597
vt 0.3657296 0.6932838
vt 0.3657296 0.6835315
vt 0.3691775 0.6849597
vt 0.3691775 0.6918556
vt 0.3706057 0.6884077
vt 0.3383311 0.5509208
vt 0.3383311 0.5509208
vt 0.3383311 0.5509208
vt 0.3383311 0.5509208
vt 0.3383311 0.5509208
vt 0.3383311 0.5509208
vt 0.3383311 0.5509208
vt 0.3383311 0.5509208
vt 0.381349 0.6931513
vt 0.381349 0.6931513
vt 0.381349 0.6931513
vt 0.381349 0.6931513
vt 0.381349 0.6931513
vt 0.381349 0.6931513
vt 0.381349 0.6931513
vt 0.381349 0.6931513
vt 0.381349 0.6931513
vt 0.381349 0.6931513
vt 0.381349 0.6931513
vt 0.381349 0.6931513
vt 0.381349 0.6931513
vt 0.381349 0.6931513
vt 0.381349 0.6931513
vt 0.381349 0.6931513
vt 0.381349 0.6931513
vt 0.381349 0.6931513
vt 0.381349 0.6931513
vt 0.381349 0.6931513
vt 0.381349 0.6931513
vt 0.381349 0.6931513
vt 0.381349 0.6931513
vt 0.381349 0.6931513
vt 0.381349 0.6931513
vt 0.381349 0.6931513
vt 0.381349 0.6931513
vt 0.381349 0.6931513
vt 0.381349 0.6931513
vt 0.381349 0.6931513
vt 0.381349 0.6931513
vt 0.381349 0.6931513
vt 0.381349 0.6931513
vt 0.381349 0.6931513
vt 0.381349 0.6931513
vt 0.381349 0.6931513
vt 0.381349 0.6931513
vt 0.381349 0.6931513
vt 0.381349 0.6931513
vt 0.381349 0.6931513
vt 0.381349 0.6931513
vt 0.381349 0.6931513
vt 0.381349 0.6931513
vt 0.381349 0.6931513
vt 0.381349 0.6931513
vt 0.381349 0.6931513
vt 0.381349 0.6931513
vt 0.381349 0.6931513
vt 0.381349 0.6931513
vt 0.381349 0.6931513
vt 0.381349 0.6931513
vt 0.381349 0.6931513
vt 0.381349 0.6931513
vt 0.381349 0.6931513
vt 0.381349 0.6931513
vt 0.381349 0.6931513
vt 0.3383311 0.5509208
vt 0.3383311 0.5509208
vt 0.3383311 0.5509208
vt 0.3383311 0.5509208
vt 0.3383311 0.5509208
vt 0.3383311 0.5509208
vt 0.3383311 0.5509208
vt 0.3383311 0.5509208
vt 0.3383311 0.5509208
vt 0.3383311 0.5509208
vt 0.3383311 0.5509208
vt 0.3383311 0.5509208
vt 0.3383311 0.5509208
vt 0.3383311 0.5509208
vt 0.3383311 0.5509208
vt 0.3383311 0.5509208
vt 0.3383311 0.5509208
vt 0.3383311 0.5509208
vt 0.3383311 0.5509208
vt 0.3383311 0.5509208
vt 0.3383311 0.5509208
vt 0.3383311 0.5509208
vt 0.3383311 0.5509208
vt 0.3383311 0.5509208
vt 0.3383311 0.5509208
vt 0.381349 0.6931513
vt 0.381349 0.6931513
vt 0.381349 0.6931513
vt 0.381349 0.6931513
vt 0.381349 0.6931513
vt 0.381349 0.6931513
vt 0.381349 0.6931513
vt 0.381349 0.6931513
vt 0.381349 0.6931513
vt 0.381349 0.6931513
vt 0.381349 0.6931513
vt 0.381349 0.6931513
vt 0.381349 0.6931513
vt 0.381349 0.6931513
vt 0.381349 0.6931513
vt 0.381349 0.6931513
vt 0.381349 0.6931513
vt 0.381349 0.6931513
vt 0.381349 0.6931513
vt 0.381349 0.6931513
vt 0.381349 0.6931513
vt 0.381349 0.6931513
vt 0.381349 0.6931513
vt 0.381349 0.6931513
vt 0.381349 0.6931513
vn 0 0.7763822 -0.6302624
vn 0.5489851 0.5489851 0.6302624
vn 0 0.7763822 0.6302624
vn 0.548985 0.5489851 -0.6302624
vn 0.7763822 0 0.6302624
vn 0.7763822 0 -0.6302624
vn 0.5489851 -0.5489852 0.6302624
vn 0.5489851 -0.5489852 -0.6302624
vn 0 -0.7763823 0.6302624
vn 0 -0.7763823 -0.6302624
vn -0.5489852 -0.5489851 0.6302624
vn -0.5489852 -0.5489851 -0.6302624
vn -0.7763823 0 0.6302624
vn -0.7763823 0 -0.6302624
vn -0.5489852 0.5489851 0.6302624
vn -0.5489852 0.5489851 -0.6302624
vn 0 0.7763822 0.6302624
vn 0 0.7763822 -0.6302624
vn 0.5489851 0.5489851 0.6302624
vn 0.7763822 0 0.6302624
vn 0.5489851 -0.5489852 0.6302624
vn 0 0.7763822 0.6302624
vn 0 -0.7763823 0.6302624
vn -0.5489852 0.5489851 0.6302624
vn -0.5489852 -0.5489851 0.6302624
vn -0.7763823 0 0.6302624
vn 0.5489851 -0.5489852 -0.6302624
vn 0.7763822 0 -0.6302624
vn 0.548985 0.5489851 -0.6302624
vn 0 -0.7763823 -0.6302624
vn 0 0.7763822 -0.6302624
vn -0.5489852 0.5489851 -0.6302624
vn -0.5489852 -0.5489851 -0.6302624
vn -0.7763823 0 -0.6302624
vn 0 0.0615939 -0.9981013
vn 0 0.06159399 -0.9981013
vn 0 -0.3358947 -0.9418995
vn 0 0 -1
vn 0 0 -1
vn 0 -0.06159383 -0.9981013
vn 0 -0.06159383 -0.9981013
vn 0 0.3358953 -0.9418993
vn -0.9948063 0 -0.1017854
vn -0.6918723 -0.6918724 -0.2064588
vn -0.9784551 0 -0.2064596
vn -0.6918724 0.6918728 -0.2064575
vn -0.7034342 -0.7034346 -0.1017849
vn 0 -0.9784554 -0.2064588
vn -0.7034347 0.7034341 -0.1017845
vn 0 0.9784554 -0.2064586
vn 0 -0.9948065 -0.1017848
vn 0.6918729 -0.6918723 -0.2064574
vn -0.6910711 -0.6910716 0.2117564
vn -0.9773225 0 0.2117563
vn 0 -0.9773225 0.2117565
vn 0.6910716 -0.6910712 0.2117564
vn 0.3743117 -0.9036669 0.2080309
vn 0.7034347 -0.7034341 -0.1017843
vn 0.9773225 0 0.2117563
vn 0.9784552 0 -0.2064589
vn 0.9581905 0 0.2861311
vn 0.6775432 -0.6775427 0.2861313
vn 0.9036672 -0.3743111 0.2080307
vn 0.9948063 0 -0.1017852
vn 0.7034339 0.7034349 -0.1017848
vn 0.6918725 0.6918725 -0.2064582
vn -0.374311 -0.9036672 0.2080309
vn 0.9036669 0.3743119 0.2080306
vn 0 0.9948063 -0.1017851
vn 0.691071 0.6910719 0.2117562
vn 0 -0.9581904 0.2861314
vn 0.3743106 0.9036674 0.2080304
vn 0 0.9773227 0.2117556
vn 0.6775428 0.6775433 0.2861308
vn -0.3743112 0.9036673 0.2080303
vn -0.6910715 0.6910714 0.2117561
vn 0 0.9581906 0.2861307
vn -0.9036672 0.3743111 0.2080306
vn -0.677543 0.677543 0.2861309
vn 0 0.9999901 0.004453965
vn 0.7070999 0.7070996 0.004453962
vn -0.7070999 0.7070996 0.004454054
vn -0.9999901 0 0.004454197
vn -0.9581905 0 0.2861312
vn -0.6775425 -0.6775432 0.2861314
vn 0 0.9953056 -0.09678164
vn -0.7037871 0.7037875 -0.09678195
vn 0.7037871 0.7037875 -0.09678188
vn -0.9953056 0 -0.09678211
vn -0.7037874 -0.7037873 -0.09678121
vn 0.9953056 0 -0.09678147
vn -0.7070996 -0.7070999 0.004454642
vn 0 -0.9953057 -0.09678058
vn 0.9999901 0 0.004454444
vn 0.7071004 -0.7070991 0.004454605
vn 0.7037879 -0.7037869 -0.09678109
vn 0 -0.9999901 0.004454874
vn -0.9036669 -0.3743117 0.2080308
vn 0 0 1
vn 0 0 1
vn 0 0 1
vn 0 0 1
vn 0 0 1
vn 0 0 1
vn 0 0 1
vn 0 0 1
vn 0 0 1
vn -0.6966596 -0.6770087 0.2373284
vn 0 -0.9748009 0.2230766
vn 0 -0.978234 0.2075048
vn 0.6966597 -0.6770085 0.2373284
vn -0.6991557 -0.6744429 0.237293
vn 0.6991557 -0.6744429 0.237293
vn -0.9774827 -0.006013772 0.2109301
vn 0.9774825 -0.006013188 0.2109307
vn -0.9774058 -0.008717089 0.2111915
vn 0.9774057 -0.008716357 0.2111922
vn -0.6845967 0.6890995 0.2376325
vn 0.6845962 0.6891 0.2376325
vn -0.6856206 0.6882304 0.2371987
vn 0.68562 0.6882312 0.2371988
vn 0 0.9749112 0.2225941
vn 0 0.9782338 0.2075057
vn 0 0 -1
vn 0 0 -1
vn 0 0 -1
vn 0 0 -1
vn 0 0 -1
vn 0 0 -1
vn 0 0 -1
vn 0 0 -1
vn 0 0 -1
vn -0.5928969 0.5892121 -0.5489101
vn -0.5883466 0.5938345 -0.548825
vn 0.005552758 0.8429581 -0.5379507
vn -0.003759218 0.8428559 -0.5381262
vn -0.8329947 0 -0.5532811
vn 0.6037853 0.5981681 -0.5269139
vn -0.8329947 0 -0.553281
vn 0.5990233 0.6028577 -0.5270044
vn -0.5928965 -0.5892124 -0.5489104
vn 0.8527642 0 -0.5222959
vn -0.5883458 -0.5938351 -0.5488252
vn 0.8527644 0 -0.522296
vn -0.003758317 -0.8428558 -0.5381265
vn 0.6037858 -0.5981674 -0.526914
vn 0.005553644 -0.8429579 -0.5379509
vn 0.5990236 -0.6028574 -0.5270046
g Cylinder_0
f 3/3/3 2/2/2 1/1/1
f 2/2/2 4/4/4 1/1/1
f 2/2/2 5/5/5 4/4/4
f 5/5/5 6/6/6 4/4/4
f 5/5/5 7/7/7 6/6/6
f 7/7/7 8/8/8 6/6/6
f 7/7/7 9/9/9 8/8/8
f 9/9/9 10/10/10 8/8/8
f 9/9/9 11/11/11 10/10/10
f 11/11/11 12/12/12 10/10/10
f 11/11/11 13/13/13 12/12/12
f 13/13/13 14/14/14 12/12/12
f 13/13/13 15/15/15 14/14/14
f 15/15/15 16/16/16 14/14/14
f 15/15/15 17/17/17 16/16/16
f 17/17/17 18/18/18 16/16/16
f 21/21/21 20/20/20 19/19/19
f 19/19/19 22/22/22 21/21/21
f 22/22/22 23/23/23 21/21/21
f 22/22/22 24/24/24 23/23/23
f 24/24/24 25/25/25 23/23/23
f 24/24/24 26/26/26 25/25/25
f 29/29/29 28/28/28 27/27/27
f 27/27/27 30/30/30 29/29/29
f 30/30/30 31/31/31 29/29/29
f 30/30/30 32/32/32 31/31/31
f 30/30/30 33/33/33 32/32/32
f 33/33/33 34/34/34 32/32/32
f 37/37/37 36/36/36 35/35/35
f 36/36/36 38/38/38 35/35/35
f 35/35/35 38/38/38 39/39/39
f 38/38/38 40/40/40 39/39/39
f 39/39/39 40/40/40 41/41/41
f 40/40/40 42/42/42 41/41/41
f 45/45/45 44/44/44 43/43/43
f 45/45/45 43/43/43 46/46/46
f 47/47/47 43/43/43 44/44/44
f 44/44/44 48/48/48 47/47/47
f 49/49/49 46/46/46 43/43/43
f 46/46/46 49/49/49 50/50/50
f 51/51/51 47/47/47 48/48/48
f 48/48/48 52/52/52 51/51/51
f 47/47/47 53/53/53 43/43/43
f 54/54/54 43/43/43 53/53/53
f 53/53/53 47/47/47 55/55/55
f 51/51/51 55/55/55 47/47/47
f 55/55/55 51/51/51 56/56/56
f 57/57/57 55/55/55 56/56/56
f 57/57/57 56/56/56 55/55/55
f 58/58/58 51/51/51 52/52/52
f 58/58/58 56/56/56 51/51/51
f 56/56/56 58/58/58 59/59/59
f 52/52/52 60/60/60 58/58/58
f 59/59/59 61/61/61 56/56/56
f 62/62/62 56/56/56 61/61/61
f 56/56/56 62/62/62 55/55/55
f 63/63/63 56/56/56 59/59/59
f 63/63/63 59/59/59 56/56/56
f 64/64/64 58/58/58 60/60/60
f 64/64/64 59/59/59 58/58/58
f 64/64/64 60/60/60 65/65/65
f 64/64/64 65/65/65 59/59/59
f 66/66/66 65/65/65 60/60/60
f 67/67/67 53/53/53 55/55/55
f 67/67/67 55/55/55 53/53/53
f 59/59/59 68/68/68 61/61/61
f 68/68/68 59/59/59 65/65/65
f 65/65/65 66/66/66 69/69/69
f 50/50/50 69/69/69 66/66/66
f 69/69/69 50/50/50 49/49/49
f 70/70/70 68/68/68 65/65/65
f 68/68/68 70/70/70 61/61/61
f 65/65/65 69/69/69 70/70/70
f 55/55/55 71/71/71 53/53/53
f 71/71/71 55/55/55 62/62/62
f 72/72/72 70/70/70 69/69/69
f 73/73/73 72/72/72 69/69/69
f 69/69/69 49/49/49 73/73/73
f 70/70/70 72/72/72 74/74/74
f 74/74/74 61/61/61 70/70/70
f 72/72/72 73/73/73 74/74/74
f 75/75/75 73/73/73 49/49/49
f 76/76/76 75/75/75 49/49/49
f 49/49/49 43/43/43 76/76/76
f 73/73/73 75/75/75 77/77/77
f 77/77/77 74/74/74 73/73/73
f 75/75/75 76/76/76 77/77/77
f 78/78/78 76/76/76 43/43/43
f 54/54/54 78/78/78 43/43/43
f 76/76/76 78/78/78 79/79/79
f 79/79/79 77/77/77 76/76/76
f 78/78/78 54/54/54 79/79/79
f 77/77/77 80/80/80 74/74/74
f 74/74/74 81/81/81 61/61/61
f 81/81/81 74/74/74 80/80/80
f 79/79/79 82/82/82 77/77/77
f 80/80/80 77/77/77 82/82/82
f 82/82/82 79/79/79 83/83/83
f 84/84/84 79/79/79 54/54/54
f 84/84/84 83/83/83 79/79/79
f 84/84/84 54/54/54 85/85/85
f 84/84/84 85/85/85 83/83/83
f 80/80/80 82/82/82 86/86/86
f 87/87/87 86/86/86 82/82/82
f 82/82/82 83/83/83 87/87/87
f 86/86/86 88/88/88 80/80/80
f 81/81/81 80/80/80 88/88/88
f 89/89/89 87/87/87 83/83/83
f 89/89/89 83/83/83 90/90/90
f 88/88/88 91/91/91 81/81/81
f 92/92/92 90/90/90 83/83/83
f 92/92/92 83/83/83 85/85/85
f 90/90/90 92/92/92 93/93/93
f 94/94/94 81/81/81 91/91/91
f 94/94/94 61/61/61 81/81/81
f 94/94/94 91/91/91 95/95/95
f 94/94/94 95/95/95 61/61/61
f 96/96/96 95/95/95 91/91/91
f 62/62/62 61/61/61 95/95/95
f 93/93/93 97/97/97 96/96/96
f 95/95/95 96/96/96 97/97/97
f 95/95/95 97/97/97 62/62/62
f 97/97/97 93/93/93 92/92/92
f 71/71/71 62/62/62 97/97/97
f 97/97/97 92/92/92 71/71/71
f 85/85/85 71/71/71 92/92/92
f 85/85/85 53/53/53 71/71/71
f 53/53/53 85/85/85 54/54/54
f 98/98/98 54/54/54 53/53/53
f 98/98/98 53/53/53 54/54/54
f 101/101/101 100/100/100 99/99/99
f 99/99/99 100/100/100 102/102/102
f 100/100/100 101/101/101 103/103/103
f 102/102/102 100/100/100 104/104/104
f 100/100/100 103/103/103 105/105/105
f 104/104/104 100/100/100 106/106/106
f 100/100/100 105/105/105 107/107/107
f 100/100/100 107/107/107 106/106/106
f 110/110/110 109/109/109 108/108/108
f 110/110/110 111/111/111 109/109/109
f 112/112/112 108/108/108 109/109/109
f 113/113/113 109/109/109 111/111/111
f 108/108/108 112/112/112 114/114/114
f 111/111/111 115/115/115 113/113/113
f 116/116/116 114/114/114 112/112/112
f 117/117/117 113/113/113 115/115/115
f 114/114/114 116/116/116 118/118/118
f 115/115/115 119/119/119 117/117/117
f 120/120/120 118/118/118 116/116/116
f 121/121/121 117/117/117 119/119/119
f 118/118/118 120/120/120 122/122/122
f 119/119/119 122/122/122 121/121/121
f 123/123/123 122/122/122 120/120/120
f 123/123/123 121/121/121 122/122/122
f 126/126/126 125/125/125 124/124/124
f 124/124/124 125/125/125 127/127/127
f 125/125/125 126/126/126 128/128/128
f 127/127/127 125/125/125 129/129/129
f 125/125/125 128/128/128 130/130/130
f 129/129/129 125/125/125 131/131/131
f 125/125/125 130/130/130 132/132/132
f 125/125/125 132/132/132 131/131/131
f 135/135/135 134/134/134 133/133/133
f 136/136/136 135/135/135 133/133/133
f 133/133/133 134/134/134 137/137/137
f 138/138/138 135/135/135 136/136/136
f 134/134/134 139/139/139 137/137/137
f 140/140/140 138/138/138 136/136/136
f 137/137/137 139/139/139 141/141/141
f 142/142/142 138/138/138 140/140/140
f 139/139/139 143/143/143 141/141/141
f 144/144/144 142/142/142 140/140/140
f 141/141/141 143/143/143 145/145/145
f 146/146/146 142/142/142 144/144/144
f 143/143/143 147/147/147 145/145/145
f 148/148/148 146/146/146 144/144/144
f 145/145/145 147/147/147 148/148/148
f 147/147/147 146/146/146 148/148/148
