g Espresso_Cup_Empty
v -0.08912484 0.2707522 0.2485175
v 0.08574388 0.2707522 0.2485175
v 0.08254357 0.2582465 0.1408144
v -0.0859087 0.2582465 0.1408144
v -0.2221885 0.1592353 0.1408144
v -0.2305968 0.167968 0.2485175
v -0.2745166 0.001090654 0.153846
v -0.2846342 0.001656326 0.2485175
v -0.2221885 -0.1611793 0.1408144
v -0.2305968 -0.1646515 0.2485175
v -0.0859087 -0.2601932 0.1408144
v -0.08912484 -0.2674378 0.2485175
v 0.08254357 -0.2601932 0.1408144
v 0.08574443 -0.2674378 0.2485175
v 0.218824 -0.1611793 0.1408144
v 0.2272158 -0.1646515 0.2485175
v 0.270878 -0.0009719051 0.1408144
v 0.2812537 0.001656326 0.2485175
v 0.218824 0.1592353 0.1408144
v 0.2272158 0.167968 0.2485175
v 0.08254357 0.2582465 0.1408144
v 0.08574388 0.2707522 0.2485175
v -0.1039 0.3162244 0.247067
v 0.1005187 0.3162244 0.247067
v 0.08574388 0.2707522 0.2485175
v -0.08912484 0.2707522 0.2485175
v -0.2305968 0.167968 0.2485175
v -0.2692781 0.1960706 0.247067
v -0.2846342 0.001656326 0.2485175
v -0.332447 0.001656326 0.247067
v -0.2305968 -0.1646515 0.2485175
v -0.2692781 -0.1927581 0.247067
v -0.08912484 -0.2674378 0.2485175
v -0.1039 -0.3129121 0.247067
v 0.08574443 -0.2674378 0.2485175
v 0.1005187 -0.3129121 0.247067
v 0.2272158 -0.1646515 0.2485175
v 0.2658978 -0.1927581 0.247067
v 0.2812537 0.001656326 0.2485175
v 0.3290667 0.001656326 0.247067
v 0.2272158 0.167968 0.2485175
v 0.2658978 0.1960706 0.247067
v 0.08574388 0.2707522 0.2485175
v 0.1005187 0.3162244 0.247067
v 0.09165286 0.2878961 -0.2389086
v -0.05754342 0.1710439 -0.4406365
v 0.05416248 0.1710439 -0.4406365
v -0.09384512 0.2842482 -0.2460949
v -0.246072 0.1781691 -0.2388392
v -0.1479151 0.1053857 -0.4406365
v -0.3037555 0.000616344 -0.2389156
v -0.1824343 -0.0008527435 -0.4406365
v -0.2460653 -0.1769325 -0.2389242
v -0.1479151 -0.1070913 -0.4406365
v -0.09503303 -0.2866633 -0.2389311
v -0.05754342 -0.1727495 -0.4406365
v 0.09165271 -0.2866651 -0.2389257
v 0.05416248 -0.1727495 -0.4406365
v 0.2426859 -0.1769343 -0.2389099
v 0.1445337 -0.1070913 -0.4406365
v 0.3003762 0.000616344 -0.2388978
v 0.1790534 -0.0008527435 -0.4406365
v 0.242686 0.1781653 -0.2389066
v 0.1445337 0.1053857 -0.4406365
v 0.09165286 0.2878961 -0.2389086
v 0.05416248 0.1710439 -0.4406365
v 0.1015262 0.3184145 0.08506784
v 0.2685337 0.1970749 0.08506784
v 0.1005187 0.3162244 0.247067
v 0.2658978 0.1960706 0.247067
v 0.3323253 0.0007464729 0.08506784
v 0.3290667 0.001656326 0.247067
v 0.2685337 -0.1955841 0.08506787
v 0.2658978 -0.1927581 0.247067
v 0.1015263 -0.3169217 0.08506787
v 0.1005187 -0.3129121 0.247067
v -0.1049071 -0.3169217 0.08506787
v -0.1039 -0.3129121 0.247067
v -0.271915 -0.1955841 0.08506787
v -0.2692781 -0.1927581 0.247067
v -0.3357062 0.0007464729 0.08506784
v -0.332447 0.001656326 0.247067
v -0.271915 0.1970749 0.08506784
v -0.2692781 0.1960706 0.247067
v -0.1049071 0.3184145 0.08506784
v -0.1039 0.3162244 0.247067
v -0.0367922 0.3084968 -0.1322276
v -0.00190439 0.3100762 -0.153283
v 0.0330262 0.3084968 -0.1322276
v 0.1015262 0.3184145 0.08506784
v -0.02645657 0.3181507 -0.07857897
v 0.02288476 0.31858 -0.07794673
v -0.02546169 0.326083 0.08917022
v -0.03330657 0.3247952 0.1495249
v 0.02203501 0.326083 0.08917022
v -0.001872857 0.3248148 0.1618703
v 0.03021285 0.3248071 0.149696
v 0.1005187 0.3162244 0.247067
v -0.02645657 0.3181507 -0.07857897
v -0.02420899 0.4199886 -0.08067762
v 0.02016617 0.4199689 -0.08048268
v 0.02288476 0.31858 -0.07794673
v 0.04002132 0.4262217 -0.1274109
v 0.0330262 0.3084968 -0.1322276
v 0.02029828 0.5001166 -0.05190685
v -0.02420899 0.4199886 -0.08067762
v -0.02407242 0.5003589 -0.05243512
v -0.001920039 0.4273028 -0.149137
v -0.00190439 0.3100762 -0.153283
v 0.02027625 0.5343733 -0.01669292
v -0.02409967 0.5344147 -0.01670492
v -0.04390039 0.4262572 -0.1277432
v -0.0367922 0.3084968 -0.1322276
v -0.02420899 0.4199886 -0.08067762
v -0.02645657 0.3181507 -0.07857897
v -0.02407242 0.5003589 -0.05243512
v -0.04190701 0.5240975 -0.09274274
v -0.02409967 0.5344147 -0.01670492
v -0.00192467 0.5280735 -0.1130389
v -0.04139744 0.5755557 -0.02863383
v -0.02410478 0.5381862 0.05551203
v 0.03802919 0.5234574 -0.0913443
v -0.001924963 0.5943322 -0.03407814
v -0.0407023 0.5828752 0.06996148
v -0.02410483 0.4916327 0.1095261
v 0.03754657 0.575622 -0.02865303
v -0.001924963 0.6010359 0.069826
v -0.03798687 0.5234138 0.1587194
v -0.02410753 0.4105997 0.1215248
v 0.03685191 0.5828752 0.06996148
v -0.03623427 0.4105997 0.1775719
v -0.02546169 0.326083 0.08917022
v -0.03330657 0.3247952 0.1495249
v 0.02027161 0.5381862 0.05551203
v -0.02410478 0.5381862 0.05551203
v -0.001924963 0.5286682 0.167499
v -0.001924963 0.4105997 0.1882917
v -0.001872857 0.3248148 0.1618703
v 0.03413602 0.5234138 0.1587194
v 0.02027161 0.4916327 0.1095261
v -0.02410483 0.4916327 0.1095261
v 0.03238336 0.4105997 0.1775724
v 0.03021285 0.3248071 0.149696
v 0.02026887 0.4105997 0.1215234
v -0.02410753 0.4105997 0.1215248
v 0.02203501 0.326083 0.08917022
v -0.02546169 0.326083 0.08917022
v -0.001690692 -0.0008527435 -0.4425612
v -0.1479151 -0.1070913 -0.4406365
v -0.05754342 -0.1727495 -0.4406365
v 0.05416248 -0.1727495 -0.4406365
v -0.1824343 -0.0008527435 -0.4406365
v 0.1445337 -0.1070913 -0.4406365
v -0.1479151 0.1053857 -0.4406365
v 0.1790534 -0.0008527435 -0.4406365
v -0.05754342 0.1710439 -0.4406365
v 0.1445337 0.1053857 -0.4406365
v 0.05416248 0.1710439 -0.4406365
v -0.2221885 -0.1611793 0.1408144
v -0.001682919 0.001090654 0.1689016
v -0.0859087 -0.2601932 0.1408144
v -0.2745166 0.001090654 0.153846
v 0.08254357 -0.2601932 0.1408144
v -0.2221885 0.1592353 0.1408144
v 0.218824 -0.1611793 0.1408144
v -0.0859087 0.2582465 0.1408144
v 0.270878 -0.0009719051 0.1408144
v 0.08254357 0.2582465 0.1408144
v 0.218824 0.1592353 0.1408144
vt 0.6265379 0.3000549
vt 0.6451259 0.3000549
vt 0.6451259 0.2421862
vt 0.6265379 0.2421862
vt 0.6064044 0.2421862
vt 0.6064045 0.3000549
vt 0.5854397 0.2421862
vt 0.5854397 0.3000549
vt 0.5636011 0.242186
vt 0.5636011 0.3000549
vt 0.5416312 0.242186
vt 0.5416312 0.3000549
vt 0.5196805 0.242186
vt 0.5196805 0.3000549
vt 0.4981963 0.242186
vt 0.4981963 0.3000549
vt 0.477279 0.2421862
vt 0.477279 0.3000549
vt 0.457187 0.2421862
vt 0.457187 0.3000549
vt 0.4393228 0.2421862
vt 0.4393228 0.3000549
vt 0.3262978 0.5543
vt 0.3240724 0.5543
vt 0.3240724 0.5547604
vt 0.3262978 0.5547604
vt 0.3279572 0.5547604
vt 0.3279572 0.5543
vt 0.3296328 0.5547604
vt 0.3296328 0.5543
vt 0.3313307 0.5547604
vt 0.3313307 0.5543
vt 0.3330398 0.5547604
vt 0.3330398 0.5543
vt 0.3347859 0.5547604
vt 0.3347859 0.5543
vt 0.3364952 0.5547604
vt 0.3364952 0.5543
vt 0.3381897 0.5547604
vt 0.3381897 0.5543
vt 0.3398435 0.5547604
vt 0.3398435 0.5543
vt 0.3418212 0.5547604
vt 0.3418212 0.5543
vt 0.3240724 0.5496495
vt 0.3262978 0.5475612
vt 0.3240724 0.5475612
vt 0.3262978 0.5496495
vt 0.3279572 0.5496495
vt 0.3279572 0.5475612
vt 0.3296328 0.5496495
vt 0.3296328 0.5475612
vt 0.3313307 0.5496495
vt 0.3313307 0.5475612
vt 0.3330398 0.5496495
vt 0.3330398 0.5475612
vt 0.3347859 0.5496495
vt 0.3347859 0.5475612
vt 0.3364952 0.5496495
vt 0.3364952 0.5475612
vt 0.3381897 0.5496495
vt 0.3381897 0.5475612
vt 0.3398435 0.5496495
vt 0.3398435 0.5475612
vt 0.3418212 0.5496495
vt 0.3418212 0.5475612
vt 0.3418212 0.5521438
vt 0.3398435 0.5521438
vt 0.3418212 0.5543
vt 0.3398435 0.5543
vt 0.3381897 0.5521438
vt 0.3381897 0.5543
vt 0.3364952 0.5521438
vt 0.3364952 0.5543
vt 0.3347859 0.5521438
vt 0.3347859 0.5543
vt 0.3330398 0.5521438
vt 0.3330398 0.5543
vt 0.3313307 0.5521438
vt 0.3313307 0.5543
vt 0.3296328 0.5521438
vt 0.3296328 0.5543
vt 0.3279572 0.5521438
vt 0.3279572 0.5543
vt 0.3262978 0.5521438
vt 0.3262978 0.5543
vt 0.3257029 0.5502874
vt 0.3251859 0.5500962
vt 0.3246676 0.5502421
vt 0.3240724 0.5521438
vt 0.3254225 0.5508733
vt 0.324947 0.5508707
vt 0.3254001 0.5524139
vt 0.3256102 0.553089
vt 0.3249688 0.5524158
vt 0.3251859 0.5534744
vt 0.3247515 0.5531271
vt 0.3240724 0.5543
vt 0.3177059 0.5410108
vt 0.322616 0.5410038
vt 0.3226267 0.540366
vt 0.3177176 0.5402853
vt 0.3226269 0.5374394
vt 0.3177175 0.5374394
vt 0.3255119 0.5403365
vt 0.3226269 0.540996
vt 0.3255119 0.540996
vt 0.3226269 0.5357617
vt 0.3177175 0.5357617
vt 0.3283382 0.5403277
vt 0.3283382 0.540996
vt 0.3226269 0.5341678
vt 0.3177175 0.5341678
vt 0.3226269 0.531045
vt 0.3177175 0.531133
vt 0.3255119 0.53107
vt 0.3255119 0.5341678
vt 0.3283382 0.5310849
vt 0.3255119 0.5357617
vt 0.3283382 0.5341678
vt 0.3315158 0.5310965
vt 0.3255119 0.5374394
vt 0.3283382 0.5357617
vt 0.3315158 0.5341678
vt 0.3342706 0.5311483
vt 0.3283382 0.5374394
vt 0.3315158 0.5357617
vt 0.3342706 0.5341678
vt 0.3372805 0.5311819
vt 0.3315158 0.5374394
vt 0.3372805 0.5341678
vt 0.3428315 0.5311223
vt 0.3428315 0.5341678
vt 0.3315158 0.5403168
vt 0.3315158 0.540996
vt 0.3342706 0.5357617
vt 0.3372805 0.5357617
vt 0.3428315 0.5357617
vt 0.3342706 0.5374394
vt 0.3342706 0.5402656
vt 0.3342706 0.540996
vt 0.3372805 0.5374394
vt 0.3428315 0.5374394
vt 0.3372805 0.5402328
vt 0.3372805 0.540996
vt 0.3428315 0.5402916
vt 0.3428109 0.540996
vt 0.3101946 0.5492085
vt 0.3051153 0.5530203
vt 0.3083259 0.5552777
vt 0.3122503 0.555217
vt 0.3038448 0.5493068
vt 0.3153894 0.5528611
vt 0.3049997 0.5455557
vt 0.3165443 0.5491101
vt 0.3081388 0.5431998
vt 0.3152737 0.5453965
vt 0.3120632 0.543139
vt 0.1591838 0.9752764
vt 0.1544548 0.9716726
vt 0.1562611 0.9774784
vt 0.1603061 0.9716726
vt 0.1526485 0.9774784
vt 0.1591838 0.9681506
vt 0.1497259 0.9752764
vt 0.1562611 0.9659486
vt 0.1486094 0.9716726
vt 0.1526485 0.9659486
vt 0.1497259 0.9681506
vn 0.3054903 -0.9447529 0.1188181
vn -0.3054664 -0.9447663 0.1187731
vn -0.3082817 -0.9438541 0.1187509
vn 0.3082539 -0.9438574 0.1187966
vn 0.800733 -0.5885933 0.1112862
vn 0.8008892 -0.5883819 0.1112801
vn 0.9949099 0.0006332906 0.1007657
vn 0.9949057 -0.001387859 0.1007998
vn 0.7999325 0.5939895 0.08534946
vn 0.8092337 0.5811805 0.08584972
vn 0.3067469 0.948988 0.0729932
vn 0.3095815 0.9480654 0.07301579
vn -0.3067735 0.948983 0.0729484
vn -0.3095578 0.9480767 0.07297018
vn -0.8039917 0.5890096 0.08163876
vn -0.8085135 0.5827661 0.08178984
vn -0.9953916 0.00489263 0.09576795
vn -0.9953707 -0.004625897 0.09599829
vn -0.8064395 -0.5810052 0.1099466
vn -0.8018995 -0.5872271 0.1100974
vn -0.3082817 -0.9438541 0.1187509
vn -0.3054664 -0.9447663 0.1187731
vn -0.009370901 0.02884054 0.9995401
vn 0.009370833 0.02884057 0.9995401
vn 0.009370804 0.02884057 0.9995401
vn -0.009370785 0.02884058 0.9995401
vn -0.02453296 0.01782449 0.9995401
vn -0.0245331 0.01782429 0.9995401
vn -0.03032429 0 0.9995401
vn -0.0303243 0 0.9995401
vn -0.02453258 -0.01782345 0.9995401
vn -0.0245322 -0.01782397 0.9995401
vn -0.009370348 -0.02883912 0.9995402
vn -0.009370271 -0.02883914 0.9995402
vn 0.009370602 -0.02883912 0.9995402
vn 0.009370298 -0.02883922 0.9995402
vn 0.0245326 -0.01782351 0.9995401
vn 0.02453228 -0.01782395 0.9995401
vn 0.03032407 0 0.9995401
vn 0.03032406 0 0.9995401
vn 0.0245328 0.01782452 0.9995401
vn 0.024533 0.01782424 0.9995401
vn 0.009370804 0.02884057 0.9995401
vn 0.009370833 0.02884057 0.9995401
vn 0.4292008 0.8523464 -0.2988182
vn -0.2642189 0.8117881 -0.5207577
vn 0.2678364 0.8110706 -0.5200271
vn -0.4206965 0.8536938 -0.3069547
vn -0.783337 0.5741034 -0.2383031
vn -0.6945229 0.4990134 -0.5182891
vn -0.9709377 0.0003431629 -0.2393324
vn -0.8569666 -0.001172294 -0.5153707
vn -0.7859225 -0.5706587 -0.2380639
vn -0.6941972 -0.5051958 -0.5127061
vn -0.3002973 -0.9238662 -0.237261
vn -0.265255 -0.8176042 -0.5110414
vn 0.3002889 -0.9238701 -0.2372563
vn 0.2652669 -0.8176035 -0.5110362
vn 0.7859202 -0.570667 -0.2380516
vn 0.6940244 -0.5054528 -0.5126867
vn 0.9709451 0.0003439224 -0.2393023
vn 0.8569672 -0.00123348 -0.5153697
vn 0.7851027 0.5707592 -0.2405154
vn 0.692387 0.5022057 -0.5180635
vn 0.4292008 0.8523464 -0.2988182
vn 0.2678364 0.8110706 -0.5200271
vn 0.5264555 0.8485278 -0.05333931
vn 0.8077798 0.5865593 -0.05865064
vn 0.5008061 0.8652385 0.02356977
vn 0.8083739 0.5884295 0.01680604
vn 0.9983552 -0.0003307388 -0.05732935
vn 0.9997973 0.001111765 0.02010366
vn 0.8075854 -0.5870797 -0.05606461
vn 0.8093237 -0.5868964 0.02340772
vn 0.3084433 -0.9496335 -0.05530846
vn 0.3092421 -0.9506427 0.02545165
vn -0.3084479 -0.9496319 -0.0553092
vn -0.3092429 -0.9506423 0.02545212
vn -0.8075855 -0.5870795 -0.05606467
vn -0.8093238 -0.5868961 0.02341043
vn -0.9983553 -0.0003453089 -0.05732778
vn -0.9997972 0.001111813 0.02010813
vn -0.80575 0.5891769 -0.06031204
vn -0.808374 0.5884291 0.01680867
vn -0.5234309 0.8502049 -0.05631874
vn -0.500672 0.8653157 0.02358302
vn -0.2050415 0.9720901 -0.1140121
vn -0.009618018 0.9756597 -0.2190789
vn 0.1840379 0.9771317 -0.1065073
vn 0.5264555 0.8485278 -0.05333931
vn -0.1522962 0.9841669 -0.09067176
vn 0.1341078 0.9872392 -0.08587148
vn -0.06335602 0.9976572 -0.02581195
vn -0.08961945 0.9957675 0.02038251
vn 0.06044184 0.9978514 -0.02528568
vn -0.0001038427 0.9956248 0.09344091
vn 0.08970846 0.9957587 0.02042028
vn 0.5008061 0.8652385 0.02356977
vn -0.6865641 -0.005389579 0.7270492
vn -0.6679522 -0.1165718 0.7350175
vn 0.6608698 -0.1180575 0.741157
vn 0.6811567 -0.003475335 0.7321295
vn 0.9199444 0.07374776 -0.38505
vn 0.9179309 -0.001113925 -0.3967386
vn 0.6575584 -0.3722697 0.6550054
vn -0.6679522 -0.1165718 0.7350175
vn -0.6684232 -0.367413 0.6466978
vn 0.006075061 0.1744536 -0.9846467
vn 0.002287682 0.02077414 -0.9997815
vn 0.6882957 -0.6800222 0.252624
vn -0.6908506 -0.678356 0.2501171
vn -0.9198228 0.07169278 -0.3857281
vn -0.9185942 -0.003772201 -0.3951841
vn -0.6679522 -0.1165718 0.7350175
vn -0.6865641 -0.005389579 0.7270492
vn -0.6684232 -0.367413 0.6466978
vn -0.8622797 0.3138879 -0.3974269
vn -0.6908506 -0.678356 0.2501171
vn 0.008787481 0.5314088 -0.8470699
vn -0.8403638 0.5019923 -0.2044319
vn -0.7344807 -0.6485366 -0.1998459
vn 0.8661078 0.3091964 -0.3927531
vn 0.003667617 0.9368408 -0.3497371
vn -0.8457388 0.5056404 0.1704507
vn -0.7884381 -0.3016196 -0.5360886
vn 0.8398783 0.5018937 -0.2066573
vn -0.0002324971 0.9664193 0.2569698
vn -0.8393927 0.291327 0.4588555
vn -0.7673444 0.06509595 -0.6379225
vn 0.845694 0.5056522 0.1706384
vn -0.8993365 -0.0202646 0.4367874
vn -0.6297173 0.2699871 -0.7283976
vn -0.9688904 -0.07913676 0.2344974
vn 0.7347522 -0.6482615 -0.1997404
vn -0.7344807 -0.6485366 -0.1998459
vn 0 0.536485 0.8439098
vn -0.0005720228 -0.029615 0.9995613
vn -0.001465063 -0.3066017 0.9518368
vn 0.839336 0.2913681 0.4589332
vn 0.7885852 -0.3015274 -0.535924
vn -0.7884381 -0.3016196 -0.5360886
vn 0.8985909 -0.01813107 0.4384125
vn 0.969106 -0.07278889 0.2356589
vn 0.766498 0.06825054 -0.6386101
vn -0.7673444 0.06509595 -0.6379225
vn 0.6298131 0.2736064 -0.7269627
vn -0.6297173 0.2699871 -0.7283976
vn 0 0 -1
vn -0.008614895 -0.006259051 -0.9999434
vn -0.003290563 -0.01012735 -0.9999434
vn 0.003290449 -0.01012733 -0.9999434
vn -0.01064868 0 -0.9999434
vn 0.008614765 -0.006259057 -0.9999434
vn -0.008615029 0.006259054 -0.9999434
vn 0.01064865 0 -0.9999434
vn -0.00329069 0.01012736 -0.9999434
vn 0.008615023 0.006259061 -0.9999434
vn 0.003290701 0.01012734 -0.9999434
vn -0.05891294 -0.09199794 0.9940149
vn 0.009503278 0.0004986299 0.9999547
vn -0.03141813 -0.09681101 0.9948068
vn -0.0550986 -0.0002226812 0.9984809
vn 0.03141802 -0.09681095 0.9948068
vn -0.05925624 0.09388419 0.9938181
vn 0.08250996 -0.06006385 0.9947786
vn -0.03193863 0.09817814 0.9946562
vn 0.1025057 -0.0001181639 0.9947324
vn 0.03193852 0.09817809 0.9946562
vn 0.08335208 0.06043998 0.9946855
g Espresso_Cup_Empty_0
f 3/3/3 2/2/2 1/1/1
f 4/4/4 3/3/3 1/1/1
f 4/4/4 1/1/1 5/5/5
f 1/1/1 6/6/6 5/5/5
f 5/5/5 6/6/6 7/7/7
f 6/6/6 8/8/8 7/7/7
f 7/7/7 8/8/8 9/9/9
f 8/8/8 10/10/10 9/9/9
f 9/9/9 10/10/10 11/11/11
f 10/10/10 12/12/12 11/11/11
f 11/11/11 12/12/12 13/13/13
f 12/12/12 14/14/14 13/13/13
f 13/13/13 14/14/14 15/15/15
f 14/14/14 16/16/16 15/15/15
f 15/15/15 16/16/16 17/17/17
f 16/16/16 18/18/18 17/17/17
f 17/17/17 18/18/18 19/19/19
f 18/18/18 20/20/20 19/19/19
f 19/19/19 20/20/20 21/21/21
f 20/20/20 22/22/22 21/21/21
f 25/25/25 24/24/24 23/23/23
f 26/26/26 25/25/25 23/23/23
f 26/26/26 23/23/23 27/27/27
f 23/23/23 28/28/28 27/27/27
f 27/27/27 28/28/28 29/29/29
f 28/28/28 30/30/30 29/29/29
f 29/29/29 30/30/30 31/31/31
f 30/30/30 32/32/32 31/31/31
f 31/31/31 32/32/32 33/33/33
f 32/32/32 34/34/34 33/33/33
f 33/33/33 34/34/34 35/35/35
f 34/34/34 36/36/36 35/35/35
f 35/35/35 36/36/36 37/37/37
f 36/36/36 38/38/38 37/37/37
f 37/37/37 38/38/38 39/39/39
f 38/38/38 40/40/40 39/39/39
f 39/39/39 40/40/40 41/41/41
f 40/40/40 42/42/42 41/41/41
f 41/41/41 42/42/42 43/43/43
f 42/42/42 44/44/44 43/43/43
f 47/47/47 46/46/46 45/45/45
f 46/46/46 48/48/48 45/45/45
f 48/48/48 46/46/46 49/49/49
f 46/46/46 50/50/50 49/49/49
f 49/49/49 50/50/50 51/51/51
f 50/50/50 52/52/52 51/51/51
f 51/51/51 52/52/52 53/53/53
f 52/52/52 54/54/54 53/53/53
f 53/53/53 54/54/54 55/55/55
f 54/54/54 56/56/56 55/55/55
f 55/55/55 56/56/56 57/57/57
f 56/56/56 58/58/58 57/57/57
f 57/57/57 58/58/58 59/59/59
f 58/58/58 60/60/60 59/59/59
f 59/59/59 60/60/60 61/61/61
f 60/60/60 62/62/62 61/61/61
f 61/61/61 62/62/62 63/63/63
f 62/62/62 64/64/64 63/63/63
f 63/63/63 64/64/64 65/65/65
f 64/64/64 66/66/66 65/65/65
f 63/63/63 65/65/65 67/67/67
f 68/68/68 63/63/63 67/67/67
f 61/61/61 63/63/63 68/68/68
f 67/67/67 69/69/69 68/68/68
f 69/69/69 70/70/70 68/68/68
f 71/71/71 61/61/61 68/68/68
f 68/68/68 70/70/70 71/71/71
f 59/59/59 61/61/61 71/71/71
f 70/70/70 72/72/72 71/71/71
f 73/73/73 59/59/59 71/71/71
f 71/71/71 72/72/72 73/73/73
f 57/57/57 59/59/59 73/73/73
f 72/72/72 74/74/74 73/73/73
f 75/75/75 57/57/57 73/73/73
f 73/73/73 74/74/74 75/75/75
f 55/55/55 57/57/57 75/75/75
f 74/74/74 76/76/76 75/75/75
f 77/77/77 55/55/55 75/75/75
f 75/75/75 76/76/76 77/77/77
f 53/53/53 55/55/55 77/77/77
f 76/76/76 78/78/78 77/77/77
f 79/79/79 53/53/53 77/77/77
f 77/77/77 78/78/78 79/79/79
f 51/51/51 53/53/53 79/79/79
f 78/78/78 80/80/80 79/79/79
f 81/81/81 51/51/51 79/79/79
f 79/79/79 80/80/80 81/81/81
f 49/49/49 51/51/51 81/81/81
f 80/80/80 82/82/82 81/81/81
f 83/83/83 49/49/49 81/81/81
f 81/81/81 82/82/82 83/83/83
f 82/82/82 84/84/84 83/83/83
f 83/83/83 84/84/84 85/85/85
f 48/48/48 49/49/49 83/83/83
f 85/85/85 48/48/48 83/83/83
f 84/84/84 86/86/86 85/85/85
f 48/48/48 85/85/85 87/87/87
f 48/48/48 87/87/87 88/88/88
f 45/45/45 48/48/48 88/88/88
f 89/89/89 45/45/45 88/88/88
f 90/90/90 45/45/45 89/89/89
f 85/85/85 91/91/91 87/87/87
f 92/92/92 90/90/90 89/89/89
f 85/85/85 93/93/93 91/91/91
f 91/91/91 93/93/93 92/92/92
f 94/94/94 93/93/93 85/85/85
f 86/86/86 94/94/94 85/85/85
f 93/93/93 95/95/95 92/92/92
f 92/92/92 95/95/95 90/90/90
f 86/86/86 96/96/96 94/94/94
f 95/95/95 97/97/97 90/90/90
f 98/98/98 96/96/96 86/86/86
f 97/97/97 98/98/98 90/90/90
f 98/98/98 97/97/97 96/96/96
f 101/101/101 100/100/100 99/99/99
f 102/102/102 101/101/101 99/99/99
f 101/101/101 102/102/102 103/103/103
f 102/102/102 104/104/104 103/103/103
f 105/105/105 101/101/101 103/103/103
f 106/106/106 101/101/101 105/105/105
f 107/107/107 106/106/106 105/105/105
f 103/103/103 104/104/104 108/108/108
f 104/104/104 109/109/109 108/108/108
f 107/107/107 105/105/105 110/110/110
f 111/111/111 107/107/107 110/110/110
f 108/108/108 109/109/109 112/112/112
f 109/109/109 113/113/113 112/112/112
f 114/114/114 112/112/112 113/113/113
f 115/115/115 114/114/114 113/113/113
f 114/114/114 116/116/116 112/112/112
f 116/116/116 117/117/117 112/112/112
f 108/108/108 112/112/112 117/117/117
f 116/116/116 118/118/118 117/117/117
f 108/108/108 119/119/119 103/103/103
f 119/119/119 108/108/108 117/117/117
f 118/118/118 120/120/120 117/117/117
f 117/117/117 120/120/120 119/119/119
f 118/118/118 121/121/121 120/120/120
f 119/119/119 122/122/122 103/103/103
f 122/122/122 105/105/105 103/103/103
f 120/120/120 123/123/123 119/119/119
f 122/122/122 119/119/119 123/123/123
f 121/121/121 124/124/124 120/120/120
f 123/123/123 120/120/120 124/124/124
f 121/121/121 125/125/125 124/124/124
f 105/105/105 122/122/122 126/126/126
f 126/126/126 122/122/122 123/123/123
f 110/110/110 105/105/105 126/126/126
f 127/127/127 123/123/123 124/124/124
f 123/123/123 127/127/127 126/126/126
f 125/125/125 128/128/128 124/124/124
f 127/127/127 124/124/124 128/128/128
f 125/125/125 129/129/129 128/128/128
f 110/110/110 126/126/126 130/130/130
f 127/127/127 130/130/130 126/126/126
f 129/129/129 131/131/131 128/128/128
f 129/129/129 132/132/132 131/131/131
f 132/132/132 133/133/133 131/131/131
f 134/134/134 110/110/110 130/130/130
f 111/111/111 110/110/110 134/134/134
f 135/135/135 111/111/111 134/134/134
f 136/136/136 127/127/127 128/128/128
f 136/136/136 128/128/128 131/131/131
f 131/131/131 133/133/133 137/137/137
f 137/137/137 136/136/136 131/131/131
f 133/133/133 138/138/138 137/137/137
f 139/139/139 130/130/130 127/127/127
f 136/136/136 139/139/139 127/127/127
f 134/134/134 130/130/130 139/139/139
f 136/136/136 137/137/137 139/139/139
f 135/135/135 134/134/134 140/140/140
f 140/140/140 134/134/134 139/139/139
f 141/141/141 135/135/135 140/140/140
f 137/137/137 138/138/138 142/142/142
f 137/137/137 142/142/142 139/139/139
f 140/140/140 139/139/139 142/142/142
f 138/138/138 143/143/143 142/142/142
f 140/140/140 144/144/144 141/141/141
f 144/144/144 140/140/140 142/142/142
f 144/144/144 142/142/142 143/143/143
f 144/144/144 145/145/145 141/141/141
f 146/146/146 144/144/144 143/143/143
f 145/145/145 144/144/144 146/146/146
f 147/147/147 145/145/145 146/146/146
f 150/150/150 149/149/149 148/148/148
f 150/150/150 148/148/148 151/151/151
f 149/149/149 152/152/152 148/148/148
f 148/148/148 153/153/153 151/151/151
f 154/154/154 148/148/148 152/152/152
f 153/153/153 148/148/148 155/155/155
f 148/148/148 154/154/154 156/156/156
f 148/148/148 157/157/157 155/155/155
f 158/158/158 148/148/148 156/156/156
f 157/157/157 148/148/148 158/158/158
f 161/161/161 160/160/160 159/159/159
f 160/160/160 162/162/162 159/159/159
f 161/161/161 163/163/163 160/160/160
f 164/164/164 162/162/162 160/160/160
f 163/163/163 165/165/165 160/160/160
f 166/166/166 164/164/164 160/160/160
f 165/165/165 167/167/167 160/160/160
f 160/160/160 168/168/168 166/166/166
f 167/167/167 169/169/169 160/160/160
f 168/168/168 160/160/160 169/169/169
