g ice
v 0.4195317 -0.3843026 -0.3843025
v 0.3905127 3.92552E-09 -0.4133452
v 0.3948188 -0.3961507 -0.4220697
v 0.4133454 1.041351E-08 -0.3905126
v 0.3946677 0.3946677 -0.4205869
v 0.3735906 5.641061E-08 3.657738E-08
v 0.4133454 -0.3905126 9.458007E-08
v 0.4205868 -0.3946676 0.3946678
v 0.4133452 1.144133E-07 0.3905127
v 0.4205868 0.3946677 -0.3946677
v 0.4133452 0.3905128 -9.419744E-09
v 0.4195315 0.3843027 0.3843027
v 0.3946677 0.4205868 -0.3946677
v 3.447645E-09 0.3905126 -0.4133454
v 0.3905126 0.4133454 -1.590773E-08
v -3.447617E-09 0.4133452 -0.3905127
v 0.3948185 0.4220699 0.3961507
v -0.3946677 0.3946676 -0.420587
v -0.3946677 0.4205867 -0.3946679
v 0.3948185 0.3961508 0.4220699
v -1.213792E-07 0.4133454 0.3905126
v 0.3905126 1.14006E-07 0.4133454
v -1.213792E-07 0.3905127 0.4133452
v 0.4133452 1.144133E-07 0.3905127
v 0.3946677 -0.3946676 0.420587
v 0.4205868 -0.3946676 0.3946678
v -0.3946678 0.4205868 0.3946676
v -0.3946678 0.3946677 0.4205868
v -0.4205868 0.3946676 -0.3946679
v -0.3905126 -1.14006E-07 -0.4133454
v -0.4133454 0.3905126 -1.342465E-07
v -0.4133452 -1.144133E-07 -0.3905127
v -0.3946676 -0.3946678 -0.4205869
v -0.4205867 -0.3946678 -0.3946677
v -0.3905127 0.4133452 -1.338393E-07
v -0.4205869 0.3946677 0.3946676
v -0.4133454 -1.041351E-08 0.3905126
v -0.3905127 -3.92552E-09 0.4133452
v -0.4205868 -0.3946677 0.3946677
v -0.3946677 -0.3946677 0.4205869
v 0.3946677 -0.4205867 0.3946678
v 5.64106E-08 -0.3735906 2.991336E-08
v 3.447624E-09 -0.4133452 0.3905127
v 0.3905127 -0.4133452 9.417279E-08
v -0.3946677 -0.4205868 0.3946677
v 0.3948188 -0.4220698 -0.3961506
v -0.3905126 -0.4133454 -2.375875E-08
v 1.213792E-07 -0.4133454 -0.3905126
v -0.3946676 -0.4205869 -0.3946677
v 0.3948188 -0.3961507 -0.4220697
v 5.641062E-08 -4.974659E-08 -0.3735906
v 1.213792E-07 -0.3905127 -0.4133452
v 0.3905127 3.92552E-09 -0.4133452
v -0.3946676 -0.3946678 -0.4205869
v 0.3946677 0.3946677 -0.4205869
v -0.3905126 -1.14006E-07 -0.4133454
v 3.447645E-09 0.3905126 -0.4133454
v -0.3946677 0.3946676 -0.420587
v -0.3946678 0.4205868 0.3946676
v -0.3905127 0.4133452 -1.338393E-07
v -5.64106E-08 0.3735906 -6.957984E-08
v -1.213792E-07 0.4133454 0.3905126
v -0.3946677 0.4205867 -0.3946679
v 0.3948185 0.4220699 0.3961507
v -3.447617E-09 0.4133452 -0.3905127
v 0.3905126 0.4133454 -1.590773E-08
v 0.3946677 0.4205868 -0.3946677
v 0.3948185 0.3961508 0.4220699
v -5.641061E-08 4.974659E-08 0.3735906
v -1.213792E-07 0.3905127 0.4133452
v 0.3905126 1.14006E-07 0.4133454
v -0.3946678 0.3946677 0.4205868
v 0.3946677 -0.3946676 0.420587
v -0.3905127 -3.92552E-09 0.4133452
v -3.447653E-09 -0.3905126 0.4133454
v -0.3946677 -0.3946677 0.4205869
v -0.4205868 -0.3946677 0.3946677
v -0.3735906 -5.641061E-08 -7.624385E-08
v -0.4133454 -1.041351E-08 0.3905126
v -0.4133452 -0.3905127 -3.024674E-08
v -0.4205869 0.3946677 0.3946676
v -0.4205867 -0.3946678 -0.3946677
v -0.4133454 0.3905126 -1.342465E-07
v -0.4133452 -1.144133E-07 -0.3905127
v -0.4205868 0.3946676 -0.3946679
v 0.3946677 -0.4205867 0.3946678
v 0.3946677 -0.3946676 0.420587
v 0.4205868 -0.3946676 0.3946678
v -3.447653E-09 -0.3905126 0.4133454
v 0.3905127 -0.4133452 9.417279E-08
v 3.447624E-09 -0.4133452 0.3905127
v 0.4133454 -0.3905126 9.458007E-08
v -0.3946677 -0.3946677 0.4205869
v 0.3948188 -0.4220698 -0.3961506
v 0.4195317 -0.3843026 -0.3843025
v 0.3948188 -0.3961507 -0.4220697
v 1.213792E-07 -0.4133454 -0.3905126
v 1.213792E-07 -0.3905127 -0.4133452
v -0.3946677 -0.4205868 0.3946677
v -0.4205868 -0.3946677 0.3946677
v -0.4133452 -0.3905127 -3.024674E-08
v -0.3905126 -0.4133454 -2.375875E-08
v -0.4205867 -0.3946678 -0.3946677
v -0.3946676 -0.4205869 -0.3946677
v -0.3946676 -0.3946678 -0.4205869
vt 0.7997031 0.4858275
vt 0.7978795 0.4685792
vt 0.7976782 0.4863614
vt 0.7993484 0.468581
vt 0.7977629 0.4503821
vt 0.8168706 0.4685138
vt 0.8169502 0.4860846
vt 0.8347094 0.4861812
vt 0.8344895 0.4684236
vt 0.7991935 0.451001
vt 0.8167274 0.450935
vt 0.834177 0.4510881
vt 0.7992072 0.4497625
vt 0.7975839 0.4325145
vt 0.81661 0.4494372
vt 0.7990897 0.4324418
vt 0.8337435 0.4493089
vt 0.7976888 0.4149632
vt 0.7989161 0.415009
vt 0.8346961 0.4493435
vt 0.8335263 0.4320751
vt 0.8521644 0.4496376
vt 0.835019 0.4320108
vt 0.8521194 0.4511147
vt 0.8698546 0.4501589
vt 0.8698 0.451801
vt 0.8335483 0.4148512
vt 0.8349968 0.4142618
vt 0.7983426 0.4135601
vt 0.7800361 0.4149154
vt 0.8161229 0.4135116
vt 0.7800618 0.4134379
vt 0.7621954 0.4146268
vt 0.7622297 0.4129708
vt 0.8161935 0.4150041
vt 0.8335763 0.4136274
vt 0.8336012 0.3961521
vt 0.835061 0.3961762
vt 0.8339068 0.3785545
vt 0.83554 0.3785899
vt 0.7921723 0.4579541
vt 0.7745911 0.475546
vt 0.7920492 0.4755422
vt 0.7745827 0.4580776
vt 0.792183 0.4931333
vt 0.756953 0.4579714
vt 0.7745908 0.4930212
vt 0.7571392 0.4755414
vt 0.7570014 0.4931296
vt 0.7619597 0.4503523
vt 0.7799389 0.4325275
vt 0.7622254 0.4324665
vt 0.7799067 0.4502185
vt 0.7621954 0.4146268
vt 0.7977629 0.4503821
vt 0.7800361 0.4149154
vt 0.7975839 0.4325145
vt 0.7976888 0.4149632
vt 0.8335483 0.4148512
vt 0.8161935 0.4150041
vt 0.8163545 0.4322392
vt 0.8335263 0.4320751
vt 0.7989161 0.415009
vt 0.8337435 0.4493089
vt 0.7990897 0.4324418
vt 0.81661 0.4494372
vt 0.7992072 0.4497625
vt 0.8346961 0.4493435
vt 0.8524928 0.4321866
vt 0.835019 0.4320108
vt 0.8521644 0.4496376
vt 0.8349968 0.4142618
vt 0.8698546 0.4501589
vt 0.8527279 0.4146299
vt 0.8700591 0.4324665
vt 0.8704721 0.414727
vt 0.8339068 0.3785545
vt 0.816177 0.3960283
vt 0.8336012 0.3961521
vt 0.8163095 0.3785636
vt 0.8335763 0.4136274
vt 0.7986743 0.3782469
vt 0.8161229 0.4135116
vt 0.7986721 0.3958844
vt 0.7983426 0.4135601
vt 0.7921723 0.4579541
vt 0.7937284 0.4576894
vt 0.7924384 0.456398
vt 0.793512 0.4755411
vt 0.7745827 0.4580776
vt 0.7920492 0.4755422
vt 0.7745798 0.4565938
vt 0.7937396 0.4933971
vt 0.756953 0.4579714
vt 0.7571784 0.4559974
vt 0.7554604 0.4575972
vt 0.7571392 0.4755414
vt 0.7556731 0.475541
vt 0.792183 0.4931333
vt 0.7924502 0.4946894
vt 0.7745913 0.4945011
vt 0.7745908 0.4930212
vt 0.7567343 0.4946856
vt 0.7570014 0.4931296
vt 0.7554451 0.4933933
vn 0.9508871 -0.2144471 -0.223218
vn 0.7122593 -0.009435721 -0.701853
vn 0.5843275 -0.4542982 -0.6724392
vn 0.941305 -0.005613324 -0.3375105
vn 0.4556899 0.4556902 -0.7646524
vn 0.9998931 -0.01034259 -0.01034259
vn 0.9425664 -0.3340185 0.0005360263
vn 0.8891897 -0.3235289 0.3235287
vn 0.9376947 -0.005727122 0.3474132
vn 0.8891895 0.3235291 -0.3235288
vn 0.9389277 0.3439112 -0.01182973
vn 0.9456571 0.2255278 0.2342433
vn 0.4556899 0.7646528 -0.4556895
vn 0 0.707107 -0.7071065
vn 0.7071052 0.7071068 -0.001435652
vn 0 0.707107 -0.7071065
vn 0.5806085 0.6727632 0.4585667
vn -0.4556901 0.4556897 -0.7646525
vn -0.4556898 0.7646527 -0.4556898
vn 0.5843275 0.4542994 0.6724384
vn -0.002650857 0.7071055 0.707103
vn 0.7122599 0.009435873 0.7018524
vn -0.002650877 0.7071055 0.707103
vn 0.9376947 -0.005727122 0.3474132
vn 0.4556901 -0.4556905 0.764652
vn 0.8891897 -0.3235289 0.3235287
vn -0.4556901 0.764653 0.4556887
vn -0.4556905 0.4556907 0.7646517
vn -0.7646528 0.4556898 -0.4556895
vn -0.7071064 0 -0.7071072
vn -0.7071061 0.7071074 0
vn -0.7071063 0 -0.7071072
vn -0.4556896 -0.4556904 -0.7646524
vn -0.7646526 -0.4556898 -0.4556896
vn -0.7071061 0.7071074 0
vn -0.7646532 0.4556898 0.455689
vn -0.7071072 0 0.7071063
vn -0.7071073 0 0.7071062
vn -0.764653 -0.4556901 0.4556887
vn -0.4556907 -0.4556902 0.7646518
vn -0.05932889 -0.9964738 -0.05932892
vn -0.0004386452 -0.9999999 0.0004297057
vn 0 -0.9948583 -0.1012778
vn -0.1012776 -0.9948566 0.001814338
vn 0.05932921 -0.9964738 -0.05932891
vn -0.06099484 -0.9962644 0.06112871
vn 0.1012781 -0.9948581 0
vn -0.001698587 -0.9948567 0.1012779
vn 0.05932919 -0.9964738 0.05932919
vn -0.06099486 0.06112844 -0.9962645
vn -0.0004386438 0.000429443 -0.9999999
vn -0.001698593 0.1012775 -0.9948568
vn -0.1012775 0.001814072 -0.9948566
vn 0.05932919 0.05932892 -0.9964738
vn -0.0593289 -0.0593292 -0.9964738
vn 0.1012779 0 -0.9948581
vn 0 -0.1012779 -0.9948583
vn 0.05932921 -0.05932918 -0.9964738
vn 0.05932888 0.9964738 -0.05932914
vn 0.1012777 0.9948583 0
vn -0.0004389453 0.9999999 -0.0004297048
vn -0.001698851 0.9948567 -0.1012778
vn 0.05932886 0.9964738 0.0593289
vn -0.06099508 0.9962644 -0.0611287
vn 0 0.9948583 0.1012777
vn -0.1012778 0.9948565 -0.001814367
vn -0.05932918 0.9964738 0.05932888
vn -0.06099525 -0.06112857 0.9962644
vn -0.0004389663 -0.0004294551 0.9999999
vn -0.001698919 -0.1012776 0.9948567
vn -0.1012779 -0.001814164 0.9948565
vn 0.05932897 -0.05932897 0.9964738
vn -0.05932928 0.05932923 0.9964738
vn 0.1012778 0 0.9948583
vn 0 0.101278 0.9948581
vn 0.05932895 0.05932925 0.9964738
vn -0.9964738 0.05932886 -0.05932918
vn -1 0 0
vn -0.9948581 0 -0.101278
vn -0.9948583 0.1012777 0
vn -0.9964738 -0.05932918 -0.05932917
vn -0.9964738 0.05932888 0.05932886
vn -0.9948581 -0.101278 0
vn -0.9948583 0 0.1012777
vn -0.9964738 -0.05932916 0.05932888
vn 0.45569 -0.7646529 0.4556891
vn 0.4556901 -0.4556905 0.764652
vn 0.8891897 -0.3235289 0.3235287
vn 0 -0.7071071 0.7071064
vn 0.7071062 -0.7071059 0.00143582
vn 0 -0.7071071 0.7071065
vn 0.9425664 -0.3340185 0.0005360263
vn -0.4556907 -0.4556902 0.7646518
vn 0.5806084 -0.6727626 -0.4585677
vn 0.9508871 -0.2144471 -0.223218
vn 0.5843275 -0.4542982 -0.6724392
vn -0.002650397 -0.7071041 -0.7071045
vn -0.002650413 -0.7071041 -0.7071045
vn -0.4556897 -0.764653 0.4556891
vn -0.764653 -0.4556901 0.4556887
vn -0.7071066 -0.7071069 0
vn -0.7071066 -0.7071069 0
vn -0.7646526 -0.4556898 -0.4556896
vn -0.4556897 -0.7646528 -0.4556894
vn -0.4556896 -0.4556904 -0.7646524
g ice_0
f 3/3/3 2/2/2 1/1/1
f 4/4/4 1/1/1 2/2/2
f 2/2/2 5/5/5 4/4/4
f 4/4/4 6/6/6 1/1/1
f 7/7/7 1/1/1 6/6/6
f 7/7/7 6/6/6 8/8/8
f 9/9/9 8/8/8 6/6/6
f 10/10/10 4/4/4 5/5/5
f 10/10/10 6/6/6 4/4/4
f 6/6/6 11/11/11 9/9/9
f 11/11/11 6/6/6 10/10/10
f 12/12/12 9/9/9 11/11/11
f 10/10/10 5/5/5 13/13/13
f 5/5/5 14/14/14 13/13/13
f 13/13/13 15/15/15 10/10/10
f 11/11/11 10/10/10 15/15/15
f 16/16/16 13/13/13 14/14/14
f 15/15/15 17/17/17 11/11/11
f 12/12/12 11/11/11 17/17/17
f 14/14/14 18/18/18 16/16/16
f 19/19/19 16/16/16 18/18/18
f 12/12/12 17/17/17 20/20/20
f 17/17/17 21/21/21 20/20/20
f 20/20/20 22/22/22 12/12/12
f 23/23/23 20/20/20 21/21/21
f 24/24/24 12/12/12 22/22/22
f 22/22/22 25/25/25 24/24/24
f 26/26/26 24/24/24 25/25/25
f 21/21/21 27/27/27 23/23/23
f 28/28/28 23/23/23 27/27/27
f 29/29/29 19/19/19 18/18/18
f 18/18/18 30/30/30 29/29/29
f 29/29/29 31/31/31 19/19/19
f 32/32/32 29/29/29 30/30/30
f 30/30/30 33/33/33 32/32/32
f 34/34/34 32/32/32 33/33/33
f 35/35/35 19/19/19 31/31/31
f 31/31/31 36/36/36 35/35/35
f 27/27/27 35/35/35 36/36/36
f 36/36/36 28/28/28 27/27/27
f 36/36/36 37/37/37 28/28/28
f 38/38/38 28/28/28 37/37/37
f 37/37/37 39/39/39 38/38/38
f 40/40/40 38/38/38 39/39/39
f 43/43/43 42/42/42 41/41/41
f 44/44/44 41/41/41 42/42/42
f 43/43/43 45/45/45 42/42/42
f 44/44/44 42/42/42 46/46/46
f 47/47/47 42/42/42 45/45/45
f 48/48/48 46/46/46 42/42/42
f 47/47/47 49/49/49 42/42/42
f 48/48/48 42/42/42 49/49/49
f 52/52/52 51/51/51 50/50/50
f 53/53/53 50/50/50 51/51/51
f 52/52/52 54/54/54 51/51/51
f 53/53/53 51/51/51 55/55/55
f 56/56/56 51/51/51 54/54/54
f 57/57/57 55/55/55 51/51/51
f 58/58/58 51/51/51 56/56/56
f 57/57/57 51/51/51 58/58/58
f 61/61/61 60/60/60 59/59/59
f 62/62/62 61/61/61 59/59/59
f 63/63/63 60/60/60 61/61/61
f 64/64/64 61/61/61 62/62/62
f 65/65/65 63/63/63 61/61/61
f 66/66/66 61/61/61 64/64/64
f 65/65/65 61/61/61 67/67/67
f 66/66/66 67/67/67 61/61/61
f 70/70/70 69/69/69 68/68/68
f 71/71/71 68/68/68 69/69/69
f 70/70/70 72/72/72 69/69/69
f 71/71/71 69/69/69 73/73/73
f 72/72/72 74/74/74 69/69/69
f 75/75/75 73/73/73 69/69/69
f 74/74/74 76/76/76 69/69/69
f 69/69/69 76/76/76 75/75/75
f 79/79/79 78/78/78 77/77/77
f 80/80/80 77/77/77 78/78/78
f 79/79/79 81/81/81 78/78/78
f 80/80/80 78/78/78 82/82/82
f 83/83/83 78/78/78 81/81/81
f 84/84/84 82/82/82 78/78/78
f 83/83/83 85/85/85 78/78/78
f 85/85/85 84/84/84 78/78/78
f 88/88/88 87/87/87 86/86/86
f 87/87/87 89/89/89 86/86/86
f 86/86/86 90/90/90 88/88/88
f 91/91/91 86/86/86 89/89/89
f 92/92/92 88/88/88 90/90/90
f 89/89/89 93/93/93 91/91/91
f 90/90/90 94/94/94 92/92/92
f 95/95/95 92/92/92 94/94/94
f 95/95/95 94/94/94 96/96/96
f 94/94/94 97/97/97 96/96/96
f 98/98/98 96/96/96 97/97/97
f 99/99/99 91/91/91 93/93/93
f 100/100/100 99/99/99 93/93/93
f 100/100/100 101/101/101 99/99/99
f 102/102/102 99/99/99 101/101/101
f 101/101/101 103/103/103 102/102/102
f 97/97/97 104/104/104 98/98/98
f 104/104/104 102/102/102 103/103/103
f 105/105/105 98/98/98 104/104/104
f 103/103/103 105/105/105 104/104/104
