g juice
v -0.2185165 0.3414597 0.2025491
v -0.1903838 0.4149708 0.2286037
v -0.1903838 0.3414597 0.2286037
v -0.2185165 0.4149708 0.2025491
v -0.2360414 0.3414597 0.1684437
v -0.2360414 0.4149708 0.1684437
v -0.2408447 0.3414597 0.1304012
v -0.2408447 0.4149708 0.1304012
v -0.2323471 0.3414597 0.09301021
v -0.2323471 0.4149708 0.09301019
v -0.2115734 0.3414597 0.0607805
v -0.2115735 0.4149708 0.06078049
v -0.1810294 0.3414597 0.0375995
v -0.1810294 0.4149708 0.03759949
v -0.144399 0.3414597 0.02626315
v -0.144399 0.4149708 0.02626314
v -0.1061004 0.3414597 0.02813881
v -0.1061004 0.4149708 0.02813878
v -0.07075305 0.3414597 0.04300022
v -0.07075306 0.4149708 0.04300021
v -0.04262029 0.3414597 0.06905488
v -0.0426203 0.4149708 0.06905487
v -0.02509536 0.3414597 0.1031602
v -0.02509538 0.4149708 0.1031602
v -0.02029203 0.3414598 0.1412027
v -0.02029205 0.4149708 0.1412027
v -0.02878966 0.3414598 0.1785937
v -0.02878968 0.4149708 0.1785937
v -0.0495633 0.3414598 0.2108234
v -0.04956331 0.4149708 0.2108234
v -0.08010735 0.3414598 0.2340045
v -0.08010736 0.4149708 0.2340044
v -0.1167378 0.3414598 0.2453408
v -0.1167378 0.4149708 0.2453408
v -0.1550364 0.3414597 0.2434652
v -0.1550364 0.4149708 0.2434652
v -0.1903838 0.3414597 0.2286037
v -0.1903838 0.4149708 0.2286037
v -0.2185165 0.4149708 0.2025491
v -0.1550364 0.4149708 0.2434652
v -0.1903838 0.4149708 0.2286037
v -0.02878968 0.4149708 0.1785937
v -0.08010736 0.4149708 0.2340044
v -0.1167378 0.4149708 0.2453408
v -0.04956331 0.4149708 0.2108234
v -0.07075306 0.4149708 0.04300021
v -0.02509538 0.4149708 0.1031602
v -0.02029205 0.4149708 0.1412027
v -0.0426203 0.4149708 0.06905487
v -0.2115735 0.4149708 0.06078049
v -0.2408447 0.4149708 0.1304012
v -0.2360414 0.4149708 0.1684437
v -0.2323471 0.4149708 0.09301019
v -0.144399 0.4149708 0.02626314
v -0.1061004 0.4149708 0.02813878
v -0.1810294 0.4149708 0.03759949
v 0.2683249 0.3356016 0.2746698
v -0.2683248 0.04398375 0.2746698
v -0.2683248 0.3356016 0.2746697
v 0.2683249 0.04398373 0.2746698
v -0.2683247 -0.0518293 0.2746698
v 0.268325 -0.05182932 0.2746699
v -0.2683246 -0.4086262 0.2746699
v 0.268325 -0.4086261 0.2746699
v 0.2746698 0.3356016 -0.2683249
v 0.2746698 0.04398373 0.268325
v 0.2746697 0.3356016 0.2683249
v 0.2746698 0.04398385 -0.2683248
v 0.2746698 -0.05182932 0.268325
v 0.2683249 0.3356016 -0.2746697
v 0.2746698 -0.05182924 -0.2683248
v 0.2746699 -0.4086261 0.2683251
v 0.2746699 -0.4086261 -0.2683247
v 0.268325 0.04398375 -0.2746696
v -0.2683248 0.3356015 -0.2746697
v 0.268325 -0.05182929 -0.2746696
v 0.268325 -0.4086261 -0.2746696
v -0.2683248 0.04398377 -0.2746697
v -0.2746696 0.3356015 -0.2683249
v -0.2683247 -0.05182933 -0.2746696
v -0.2683247 -0.4086262 -0.2746696
v -0.2746696 0.04398377 -0.2683249
v -0.2746697 0.3356016 0.2683249
v -0.2746696 0.04398365 0.2683249
v -0.2746696 -0.05182933 -0.2683248
v -0.2746695 -0.4086262 -0.2683247
v -0.2746696 -0.0518294 0.268325
v -0.2746695 -0.4086262 0.268325
v 0.2746697 0.3356016 0.2683249
v 0.2683249 0.04398373 0.2746698
v 0.2683249 0.3356016 0.2746698
v 0.2746698 0.04398373 0.268325
v 0.268325 -0.05182932 0.2746699
v 0.2746698 -0.05182932 0.268325
v 0.268325 -0.4086261 0.2746699
v 0.2746699 -0.4086261 0.2683251
v -0.2746695 -0.4086262 0.268325
v -0.2683247 -0.0518293 0.2746698
v -0.2683246 -0.4086262 0.2746699
v -0.2746696 -0.0518294 0.268325
v -0.2683248 0.04398375 0.2746698
v -0.2746696 0.04398365 0.2683249
v -0.2683248 0.3356016 0.2746697
v -0.2746697 0.3356016 0.2683249
v -0.2683248 0.3356016 0.2746697
v -0.2746697 0.3356016 0.2683249
v -0.2683248 0.3419463 0.2683249
v 0.2683249 0.3356016 0.2746698
v -0.2683248 0.3419463 -0.2683249
v -0.2746696 0.3356015 -0.2683249
v -0.2683248 0.3356015 -0.2746697
v 0.2683249 0.3419464 -0.2683249
v 0.2683249 0.3356016 -0.2746697
v 0.2746698 0.3356016 -0.2683249
v 0.2683249 0.3419464 0.2683249
v 0.2746697 0.3356016 0.2683249
v -0.2683246 -0.4086262 0.2746699
v -0.2683247 -0.4149711 0.268325
v -0.2746695 -0.4086262 0.268325
v -0.2746695 -0.4086262 -0.2683247
v 0.268325 -0.414971 0.2683251
v 0.268325 -0.4086261 0.2746699
v 0.2746699 -0.4086261 0.2683251
v 0.268325 -0.414971 -0.2683247
v 0.2746699 -0.4086261 -0.2683247
v 0.268325 -0.4086261 -0.2746696
v -0.2683247 -0.4149711 -0.2683247
v -0.2683247 -0.4086262 -0.2746696
vt 0.3807597 0.3464592
vt 0.3775095 0.3395942
vt 0.3775094 0.3464592
vt 0.3807597 0.3395943
vt 0.3840099 0.3464592
vt 0.3840099 0.3395943
vt 0.38726 0.3464592
vt 0.3872601 0.3395944
vt 0.3905102 0.3464592
vt 0.3905103 0.3395945
vt 0.3937603 0.3464592
vt 0.3937604 0.3395946
vt 0.3970104 0.3464592
vt 0.3970104 0.3395946
vt 0.4002604 0.3464592
vt 0.4002605 0.3395947
vt 0.4035103 0.3464591
vt 0.4035104 0.3395948
vt 0.4067602 0.3464591
vt 0.4067603 0.3395949
vt 0.41001 0.3464591
vt 0.4100101 0.339595
vt 0.4132597 0.3464591
vt 0.4132598 0.3395952
vt 0.4165094 0.346459
vt 0.4165095 0.3395953
vt 0.419759 0.346459
vt 0.4197591 0.3395954
vt 0.4230086 0.346459
vt 0.4230087 0.3395955
vt 0.4262581 0.3464591
vt 0.4262582 0.3395956
vt 0.4295075 0.3464591
vt 0.4295076 0.3395958
vt 0.4327569 0.3464591
vt 0.432757 0.3395958
vt 0.4360063 0.3464592
vt 0.4360065 0.3395959
vt 0.3951395 0.3495126
vt 0.3998614 0.3551399
vt 0.3979966 0.35191
vt 0.3951395 0.3681131
vt 0.3998614 0.3624859
vt 0.400509 0.3588129
vt 0.3979966 0.3657158
vt 0.3815434 0.3657158
vt 0.3879052 0.3693888
vt 0.3916348 0.3693888
vt 0.3844005 0.3681132
vt 0.3815434 0.35191
vt 0.3879052 0.348237
vt 0.3916348 0.348237
vt 0.3844005 0.3495126
vt 0.379031 0.3588129
vt 0.3796786 0.3624859
vt 0.3796786 0.3551399
vt 0.4081025 0.3360845
vt 0.3786107 0.3158747
vt 0.3786123 0.3360868
vt 0.4081009 0.3158723
vt 0.3786103 0.3106095
vt 0.4081005 0.3106071
vt 0.3786081 0.284711
vt 0.4080984 0.2847086
vt 0.4375928 0.3360845
vt 0.4081009 0.3158747
vt 0.4081025 0.3360868
vt 0.4375912 0.3158723
vt 0.4081005 0.3106095
vt 0.4375986 0.3360862
vt 0.4375907 0.3106071
vt 0.4080984 0.284711
vt 0.4375887 0.2847086
vt 0.4375969 0.3158743
vt 0.4670773 0.336085
vt 0.4375964 0.3106092
vt 0.4375943 0.284711
vt 0.4670757 0.3158726
vt 0.4670831 0.3360868
vt 0.4670753 0.3106074
vt 0.4670733 0.2847085
vt 0.4670814 0.3158747
vt 0.4965733 0.3360845
vt 0.4965717 0.3158723
vt 0.467081 0.3106095
vt 0.4670789 0.2847109
vt 0.4965713 0.3106072
vt 0.4965693 0.2847086
vt 0.4081025 0.3360868
vt 0.4081009 0.3158723
vt 0.4081025 0.3360845
vt 0.4081009 0.3158747
vt 0.4081005 0.3106071
vt 0.4081005 0.3106095
vt 0.4080984 0.2847086
vt 0.4080984 0.284711
vt 0.3786081 0.2847086
vt 0.3786103 0.3106095
vt 0.3786081 0.284711
vt 0.3786103 0.3106072
vt 0.3786107 0.3158747
vt 0.3786107 0.3158723
vt 0.3786123 0.3360868
vt 0.3786123 0.3360845
vt 0.4670736 0.3663289
vt 0.4674625 0.3659405
vt 0.4669913 0.3658588
vt 0.4376026 0.366329
vt 0.4669898 0.3365549
vt 0.4674591 0.3364731
vt 0.4670773 0.336085
vt 0.4376861 0.336555
vt 0.4375986 0.3360862
vt 0.4372168 0.3364733
vt 0.4376848 0.3658588
vt 0.4372137 0.3659405
vt 0.4670632 0.2544647
vt 0.4669815 0.2549341
vt 0.4674509 0.2548523
vt 0.4674563 0.2843212
vt 0.4376771 0.2549372
vt 0.4375955 0.2544672
vt 0.4372067 0.2548545
vt 0.4376817 0.2842416
vt 0.4372122 0.2843234
vt 0.4375943 0.284711
vt 0.4669861 0.2842385
vt 0.4670733 0.2847085
vn -0.7970922 0 0.6038575
vn -0.4105956 0.6569526 0.6323167
vn -0.5407578 0 0.8411784
vn -0.6039661 0.6529361 0.4570551
vn -0.9567222 0 0.2910028
vn -0.7215783 0.6559801 0.2213931
vn -0.9988315 0 -0.04833071
vn -0.7540921 0.655732 -0.03688513
vn -0.9209114 0 -0.3897719
vn -0.6962757 0.6553181 -0.2928455
vn -0.7364891 0 -0.6764494
vn -0.5559304 0.6540356 -0.5130095
vn -0.4576199 0 -0.8891479
vn -0.347582 0.6542718 -0.6716511
vn -0.124529 0 -0.9922161
vn -0.09412518 0.6547838 -0.7499324
vn 0.2250064 0 -0.9743574
vn 0.1678286 0.6549406 -0.7368083
vn 0.5407069 0 -0.8412111
vn 0.409264 0.6548223 -0.6353824
vn 0.7964912 0 -0.6046501
vn 0.6032304 0.6543517 -0.4560013
vn 0.9548188 0 -0.2971885
vn 0.7223138 0.6552529 -0.2211478
vn 0.9986357 0 0.05221639
vn 0.7550736 0.6543633 0.04089772
vn 0.9209534 0 0.3896729
vn 0.6963841 0.654458 0.2945061
vn 0.7361918 0 0.676773
vn 0.5546404 0.6537203 0.5148045
vn 0.4568045 0 0.8895671
vn 0.3442158 0.6556497 0.6720408
vn 0.1279712 0 0.9917779
vn 0.09390863 0.653279 0.7512707
vn -0.2198929 0 0.975524
vn -0.1678287 0.6549407 0.7368081
vn -0.5407578 0 0.8411784
vn -0.4105956 0.6569526 0.6323167
vn -0.6039661 0.6529361 0.4570551
vn -0.1678287 0.6549407 0.7368081
vn -0.4105956 0.6569526 0.6323167
vn 0.6963841 0.654458 0.2945061
vn 0.3442158 0.6556497 0.6720408
vn 0.09390863 0.653279 0.7512707
vn 0.5546404 0.6537203 0.5148045
vn 0.409264 0.6548223 -0.6353824
vn 0.7223138 0.6552529 -0.2211478
vn 0.7550736 0.6543633 0.04089772
vn 0.6032304 0.6543517 -0.4560013
vn -0.5559304 0.6540356 -0.5130095
vn -0.7540921 0.655732 -0.03688513
vn -0.7215783 0.6559801 0.2213931
vn -0.6962757 0.6553181 -0.2928455
vn -0.09412518 0.6547838 -0.7499324
vn 0.1678286 0.6549406 -0.7368083
vn -0.347582 0.6542718 -0.6716511
vn 0.3826833 0 0.9238796
vn -0.3826836 0 0.9238794
vn -0.3826832 0 0.9238796
vn 0.382684 2.902091E-07 0.9238793
vn -0.3826838 0 0.9238794
vn 0.3826833 3.943059E-07 0.9238795
vn -0.3826844 0 0.9238791
vn 0.3826836 2.695096E-07 0.9238794
vn 0.9238795 0 -0.3826833
vn 0.9238798 3.101219E-07 0.3826827
vn 0.9238796 0 0.3826832
vn 0.9238799 0 -0.3826825
vn 0.9238794 3.922783E-07 0.3826838
vn 0.3826837 0 -0.9238794
vn 0.9238799 0 -0.3826824
vn 0.9238794 2.654386E-07 0.3826835
vn 0.9238799 0 -0.3826825
vn 0.3826845 0 -0.9238791
vn -0.3826833 -2.57548E-07 -0.9238796
vn 0.3826846 0 -0.923879
vn 0.3826844 0 -0.9238791
vn -0.3826825 0 -0.9238799
vn -0.9238794 0 -0.3826838
vn -0.3826824 0 -0.92388
vn -0.3826833 0 -0.9238796
vn -0.9238791 0 -0.3826844
vn -0.9238795 0 0.3826833
vn -0.9238796 0 0.3826832
vn -0.9238791 0 -0.3826843
vn -0.9238795 0 -0.3826835
vn -0.9238795 0 0.3826834
vn -0.9238796 0 0.3826831
vn 0.9238796 0 0.3826832
vn 0.382684 2.902091E-07 0.9238793
vn 0.3826833 0 0.9238796
vn 0.9238798 3.101219E-07 0.3826827
vn 0.3826833 3.943059E-07 0.9238795
vn 0.9238794 3.922783E-07 0.3826838
vn 0.3826836 2.695096E-07 0.9238794
vn 0.9238794 2.654386E-07 0.3826835
vn -0.9238796 0 0.3826831
vn -0.3826838 0 0.9238794
vn -0.3826844 0 0.9238791
vn -0.9238795 0 0.3826834
vn -0.3826836 0 0.9238794
vn -0.9238796 0 0.3826832
vn -0.3826832 0 0.9238796
vn -0.9238795 0 0.3826833
vn -0.340162 0.3239637 0.8828009
vn -0.882801 0.3239635 0.3401616
vn -0.3312947 0.8834522 0.3312944
vn 0.3401617 0.3239639 0.882801
vn -0.3407547 0.8762261 -0.3407548
vn -0.882801 0.3239635 -0.340162
vn -0.3401617 0.3239634 -0.882801
vn 0.3407545 0.8762263 -0.3407547
vn 0.3401619 0.3239636 -0.882801
vn 0.882801 0.3239638 -0.3401617
vn 0.3312944 0.8834522 0.3312945
vn 0.8828009 0.3239638 0.3401619
vn -0.3478961 -0.3398053 0.8737853
vn -0.3469321 -0.8713645 0.3469322
vn -0.8756786 -0.3374175 0.3454511
vn -0.8737852 -0.3398056 -0.3478961
vn 0.3469323 -0.8713644 0.3469324
vn 0.3478959 -0.3398052 0.8737854
vn 0.8762263 -0.3407545 0.3407548
vn 0.3407548 -0.8762263 -0.3407545
vn 0.8708583 -0.351539 -0.3435494
vn 0.3459541 -0.3539995 -0.8689075
vn -0.3398052 -0.8737854 -0.3478959
vn -0.3407545 -0.3407548 -0.8762263
g juice_0
f 3/3/3 2/2/2 1/1/1
f 4/4/4 1/1/1 2/2/2
f 1/1/1 4/4/4 5/5/5
f 6/6/6 5/5/5 4/4/4
f 5/5/5 6/6/6 7/7/7
f 8/8/8 7/7/7 6/6/6
f 7/7/7 8/8/8 9/9/9
f 10/10/10 9/9/9 8/8/8
f 9/9/9 10/10/10 11/11/11
f 12/12/12 11/11/11 10/10/10
f 11/11/11 12/12/12 13/13/13
f 14/14/14 13/13/13 12/12/12
f 13/13/13 14/14/14 15/15/15
f 16/16/16 15/15/15 14/14/14
f 15/15/15 16/16/16 17/17/17
f 18/18/18 17/17/17 16/16/16
f 17/17/17 18/18/18 19/19/19
f 20/20/20 19/19/19 18/18/18
f 19/19/19 20/20/20 21/21/21
f 22/22/22 21/21/21 20/20/20
f 21/21/21 22/22/22 23/23/23
f 24/24/24 23/23/23 22/22/22
f 23/23/23 24/24/24 25/25/25
f 26/26/26 25/25/25 24/24/24
f 25/25/25 26/26/26 27/27/27
f 28/28/28 27/27/27 26/26/26
f 27/27/27 28/28/28 29/29/29
f 30/30/30 29/29/29 28/28/28
f 29/29/29 30/30/30 31/31/31
f 32/32/32 31/31/31 30/30/30
f 31/31/31 32/32/32 33/33/33
f 34/34/34 33/33/33 32/32/32
f 33/33/33 34/34/34 35/35/35
f 36/36/36 35/35/35 34/34/34
f 35/35/35 36/36/36 37/37/37
f 38/38/38 37/37/37 36/36/36
f 41/41/41 40/40/40 39/39/39
f 40/40/40 42/42/42 39/39/39
f 43/43/43 42/42/42 40/40/40
f 44/44/44 43/43/43 40/40/40
f 45/45/45 42/42/42 43/43/43
f 42/42/42 46/46/46 39/39/39
f 47/47/47 46/46/46 42/42/42
f 48/48/48 47/47/47 42/42/42
f 49/49/49 46/46/46 47/47/47
f 46/46/46 50/50/50 39/39/39
f 50/50/50 51/51/51 39/39/39
f 51/51/51 52/52/52 39/39/39
f 53/53/53 51/51/51 50/50/50
f 54/54/54 50/50/50 46/46/46
f 55/55/55 54/54/54 46/46/46
f 56/56/56 50/50/50 54/54/54
f 59/59/59 58/58/58 57/57/57
f 60/60/60 57/57/57 58/58/58
f 58/58/58 61/61/61 60/60/60
f 62/62/62 60/60/60 61/61/61
f 61/61/61 63/63/63 62/62/62
f 64/64/64 62/62/62 63/63/63
f 67/67/67 66/66/66 65/65/65
f 68/68/68 65/65/65 66/66/66
f 66/66/66 69/69/69 68/68/68
f 65/65/65 68/68/68 70/70/70
f 71/71/71 68/68/68 69/69/69
f 69/69/69 72/72/72 71/71/71
f 73/73/73 71/71/71 72/72/72
f 74/74/74 70/70/70 68/68/68
f 68/68/68 71/71/71 74/74/74
f 70/70/70 74/74/74 75/75/75
f 71/71/71 73/73/73 76/76/76
f 76/76/76 74/74/74 71/71/71
f 77/77/77 76/76/76 73/73/73
f 78/78/78 75/75/75 74/74/74
f 74/74/74 76/76/76 78/78/78
f 75/75/75 78/78/78 79/79/79
f 76/76/76 77/77/77 80/80/80
f 80/80/80 78/78/78 76/76/76
f 81/81/81 80/80/80 77/77/77
f 82/82/82 79/79/79 78/78/78
f 78/78/78 80/80/80 82/82/82
f 79/79/79 82/82/82 83/83/83
f 84/84/84 83/83/83 82/82/82
f 80/80/80 81/81/81 85/85/85
f 85/85/85 82/82/82 80/80/80
f 82/82/82 85/85/85 84/84/84
f 86/86/86 85/85/85 81/81/81
f 87/87/87 84/84/84 85/85/85
f 85/85/85 86/86/86 87/87/87
f 88/88/88 87/87/87 86/86/86
f 91/91/91 90/90/90 89/89/89
f 92/92/92 89/89/89 90/90/90
f 90/90/90 93/93/93 92/92/92
f 94/94/94 92/92/92 93/93/93
f 93/93/93 95/95/95 94/94/94
f 96/96/96 94/94/94 95/95/95
f 99/99/99 98/98/98 97/97/97
f 100/100/100 97/97/97 98/98/98
f 98/98/98 101/101/101 100/100/100
f 102/102/102 100/100/100 101/101/101
f 101/101/101 103/103/103 102/102/102
f 104/104/104 102/102/102 103/103/103
f 107/107/107 106/106/106 105/105/105
f 105/105/105 108/108/108 107/107/107
f 107/107/107 109/109/109 106/106/106
f 110/110/110 106/106/106 109/109/109
f 109/109/109 111/111/111 110/110/110
f 109/109/109 112/112/112 111/111/111
f 109/109/109 107/107/107 112/112/112
f 113/113/113 111/111/111 112/112/112
f 112/112/112 114/114/114 113/113/113
f 115/115/115 107/107/107 108/108/108
f 115/115/115 112/112/112 107/107/107
f 112/112/112 115/115/115 114/114/114
f 115/115/115 108/108/108 116/116/116
f 116/116/116 114/114/114 115/115/115
f 119/119/119 118/118/118 117/117/117
f 119/119/119 120/120/120 118/118/118
f 118/118/118 121/121/121 117/117/117
f 122/122/122 117/117/117 121/121/121
f 123/123/123 122/122/122 121/121/121
f 121/121/121 124/124/124 123/123/123
f 121/121/121 118/118/118 124/124/124
f 125/125/125 123/123/123 124/124/124
f 126/126/126 125/125/125 124/124/124
f 127/127/127 118/118/118 120/120/120
f 127/127/127 124/124/124 118/118/118
f 124/124/124 127/127/127 126/126/126
f 128/128/128 127/127/127 120/120/120
f 128/128/128 126/126/126 127/127/127
