g magnet
v -0.3800343 -0.0109467 0.07185585
v -0.2918977 0.3261313 -0.07191373
v -0.2918977 0.3261313 0.0720442
v -0.3800343 -0.01094669 -0.0721021
v -0.3913687 -0.09703979 0.07185582
v -0.3913686 -0.09703978 -0.07210211
v -0.3800343 -0.1831329 0.07185585
v -0.3800343 -0.1831329 -0.0721021
v -0.3468036 -0.263359 0.07185584
v -0.3468035 -0.263359 -0.0721021
v -0.2939412 -0.3322506 0.07185587
v -0.2939411 -0.3322506 -0.07210207
v -0.2250494 -0.385113 0.07185587
v -0.2250494 -0.385113 -0.07210207
v -0.1448234 -0.4183438 0.07185589
v -0.1448234 -0.4183438 -0.07210206
v -0.05873024 -0.4296781 0.07185589
v -0.05873024 -0.4296781 -0.07210205
v 1.561983E-07 -0.4296781 0.0718559
v 1.624308E-07 -0.4296781 -0.07210203
v 0.05873057 -0.4296781 -0.07210203
v 0.05873056 -0.4296781 0.07185591
v 0.1448237 -0.4183437 -0.072102
v 0.1448237 -0.4183437 0.07185593
v 0.2250497 -0.3851129 -0.072102
v 0.2250497 -0.3851129 0.07185593
v 0.2939414 -0.3322504 -0.072102
v 0.2939413 -0.3322504 0.07185595
v 0.3468037 -0.2633587 -0.07210198
v 0.3468037 -0.2633587 0.07185595
v 0.3800344 -0.1831326 -0.07210198
v 0.3800344 -0.1831326 0.07185597
v 0.3913687 -0.09703951 -0.07210197
v 0.3913687 -0.09703953 0.07185595
v 0.3800343 -0.01094639 -0.07210198
v 0.3800342 -0.0109464 0.07185596
v 0.2918974 0.3261315 -0.07191365
v 0.2918974 0.3261315 0.07204429
v -0.3800343 -0.01094669 -0.0721021
v -0.1467912 0.2881008 -0.07191373
v -0.2918977 0.3261313 -0.07191373
v -0.2351375 -0.04977162 -0.07210208
v -0.3913686 -0.09703978 -0.07210211
v -0.2413605 -0.0970398 -0.07210208
v -0.3800343 -0.1831329 -0.0721021
v -0.2351375 -0.144308 -0.07210208
v -0.3468035 -0.263359 -0.0721021
v -0.2168927 -0.1883549 -0.07210206
v -0.2939411 -0.3322506 -0.07210207
v -0.1878694 -0.2261789 -0.07210206
v -0.2250494 -0.385113 -0.07210207
v -0.1500454 -0.2552023 -0.07210206
v -0.1448234 -0.4183438 -0.07210206
v -0.1059984 -0.273447 -0.07210205
v -0.05873024 -0.4296781 -0.07210205
v -0.05873021 -0.2796701 -0.07210205
v 9.834328E-08 -0.27967 -0.07210204
v 1.624308E-07 -0.4296781 -0.07210203
v 0.05873043 -0.27967 -0.07210203
v 0.05873057 -0.4296781 -0.07210203
v 0.1059986 -0.273447 -0.07210202
v 0.1448237 -0.4183437 -0.072102
v 0.1500455 -0.2552021 -0.07210202
v 0.2250497 -0.3851129 -0.072102
v 0.1878695 -0.2261787 -0.072102
v 0.2939414 -0.3322504 -0.072102
v 0.2168928 -0.1883548 -0.072102
v 0.3468037 -0.2633587 -0.07210198
v 0.2351377 -0.1443079 -0.072102
v 0.3800344 -0.1831326 -0.07210198
v 0.2413606 -0.09703966 -0.072102
v 0.3913687 -0.09703951 -0.07210197
v 0.2351376 -0.04977148 -0.072102
v 0.3800343 -0.01094639 -0.07210198
v 0.1467909 0.288101 -0.07191366
v 0.2918974 0.3261315 -0.07191365
v -0.2351375 -0.04977163 0.07185586
v -0.2918977 0.3261313 0.0720442
v -0.1467911 0.2881008 0.07204421
v -0.3800343 -0.0109467 0.07185585
v -0.2413605 -0.0970398 0.07185585
v -0.3913687 -0.09703979 0.07185582
v -0.2351376 -0.144308 0.07185587
v -0.3800343 -0.1831329 0.07185585
v -0.2168927 -0.1883549 0.07185587
v -0.3468036 -0.263359 0.07185584
v -0.1878694 -0.2261789 0.07185587
v -0.2939412 -0.3322506 0.07185587
v -0.1500454 -0.2552023 0.07185587
v -0.2250494 -0.385113 0.07185587
v -0.1059984 -0.2734471 0.07185587
v -0.1448234 -0.4183438 0.07185589
v -0.05873021 -0.27967 0.0718559
v -0.05873024 -0.4296781 0.07185589
v 1.561983E-07 -0.4296781 0.0718559
v 9.211074E-08 -0.27967 0.0718559
v 0.05873056 -0.4296781 0.07185591
v 0.05873041 -0.27967 0.07185592
v 0.1448237 -0.4183437 0.07185593
v 0.1059986 -0.273447 0.07185593
v 0.2250497 -0.3851129 0.07185593
v 0.1500455 -0.2552021 0.07185592
v 0.2939413 -0.3322504 0.07185595
v 0.1878695 -0.2261787 0.07185593
v 0.3468037 -0.2633587 0.07185595
v 0.2168928 -0.1883548 0.07185593
v 0.3800344 -0.1831326 0.07185597
v 0.2351376 -0.1443079 0.07185593
v 0.3913687 -0.09703953 0.07185595
v 0.2413605 -0.09703966 0.07185593
v 0.3800342 -0.0109464 0.07185596
v 0.2351375 -0.04977149 0.07185594
v 0.2918974 0.3261315 0.07204429
v 0.1467909 0.2881009 0.07204428
v -0.2351375 -0.04977162 -0.07210208
v -0.1467911 0.2881008 0.07204421
v -0.1467912 0.2881008 -0.07191373
v -0.2351375 -0.04977163 0.07185586
v -0.2413605 -0.0970398 -0.07210208
v -0.2413605 -0.0970398 0.07185585
v -0.2351375 -0.144308 -0.07210208
v -0.2351376 -0.144308 0.07185587
v -0.2168927 -0.1883549 -0.07210206
v -0.2168927 -0.1883549 0.07185587
v -0.1878694 -0.2261789 -0.07210206
v -0.1878694 -0.2261789 0.07185587
v -0.1500454 -0.2552023 -0.07210206
v -0.1500454 -0.2552023 0.07185587
v -0.1059984 -0.273447 -0.07210205
v -0.1059984 -0.2734471 0.07185587
v -0.05873021 -0.2796701 -0.07210205
v -0.05873021 -0.27967 0.0718559
v 9.211074E-08 -0.27967 0.0718559
v 9.834328E-08 -0.27967 -0.07210204
v 0.05873041 -0.27967 0.07185592
v 0.05873043 -0.27967 -0.07210203
v 0.1059986 -0.273447 0.07185593
v 0.1059986 -0.273447 -0.07210202
v 0.1500455 -0.2552021 0.07185592
v 0.1500455 -0.2552021 -0.07210202
v 0.1878695 -0.2261787 0.07185593
v 0.1878695 -0.2261787 -0.072102
v 0.2168928 -0.1883548 0.07185593
v 0.2168928 -0.1883548 -0.072102
v 0.2351376 -0.1443079 0.07185593
v 0.2351377 -0.1443079 -0.072102
v 0.2413605 -0.09703966 0.07185593
v 0.2413606 -0.09703966 -0.072102
v 0.2351375 -0.04977149 0.07185594
v 0.2351376 -0.04977148 -0.072102
v 0.1467909 0.2881009 0.07204428
v 0.1467909 0.288101 -0.07191366
v -0.1196521 0.3918917 0.07210204
v -0.264823 0.4296781 -0.07185596
v -0.119652 0.3918917 -0.07185589
v -0.2648231 0.4296781 0.07210198
v 0.1196518 0.3918918 -0.07185575
v 0.2648226 0.4296783 0.07210226
v 0.1196517 0.3918917 0.07210217
v 0.2648227 0.4296783 -0.07185569
v -0.2648231 0.4296781 0.07210198
v -0.2918977 0.3261313 -0.07191383
v -0.264823 0.4296781 -0.07185596
v -0.2918977 0.3261313 0.07204412
v -0.264823 0.4296781 -0.07185596
v -0.1467911 0.2881008 -0.07191376
v -0.119652 0.3918917 -0.07185589
v -0.2918977 0.3261313 -0.07191383
v -0.1196521 0.3918917 0.07210204
v -0.2918977 0.3261313 0.07204412
v -0.2648231 0.4296781 0.07210198
v -0.1467912 0.2881008 0.07204416
v -0.119652 0.3918917 -0.07185589
v -0.1467912 0.2881008 0.07204416
v -0.1196521 0.3918917 0.07210204
v -0.1467911 0.2881008 -0.07191376
v 0.2648227 0.4296783 -0.07185569
v 0.2918974 0.3261315 0.07204439
v 0.2648226 0.4296783 0.07210226
v 0.2918974 0.3261315 -0.07191355
v 0.1196518 0.3918918 -0.07185575
v 0.2918974 0.3261315 -0.07191355
v 0.2648227 0.4296783 -0.07185569
v 0.1467909 0.288101 -0.07191361
v 0.2648226 0.4296783 0.07210226
v 0.1467909 0.2881009 0.07204432
v 0.1196517 0.3918917 0.07210217
v 0.2918974 0.3261315 0.07204439
v 0.1196517 0.3918917 0.07210217
v 0.1467909 0.288101 -0.07191361
v 0.1196518 0.3918918 -0.07185575
v 0.1467909 0.2881009 0.07204432
vt 0.2268806 0.6730674
vt 0.2474819 0.6815693
vt 0.2474822 0.673057
vt 0.2268802 0.6815795
vt 0.2217461 0.6730675
vt 0.2217457 0.6815791
vt 0.216612 0.6730675
vt 0.2166116 0.6815786
vt 0.2114781 0.6730677
vt 0.211478 0.6815781
vt 0.2063448 0.6730679
vt 0.2063446 0.6815776
vt 0.2012119 0.6730682
vt 0.2012118 0.6815771
vt 0.1960794 0.6730685
vt 0.1960794 0.6815768
vt 0.1909474 0.6730689
vt 0.1909475 0.6815764
vt 0.1874767 0.6730692
vt 0.1874768 0.6815762
vt 0.1840065 0.681576
vt 0.1840062 0.6730697
vt 0.1788757 0.6815758
vt 0.1788753 0.6730701
vt 0.1737453 0.6815758
vt 0.1737448 0.6730707
vt 0.1686152 0.6815759
vt 0.1686146 0.6730713
vt 0.1634854 0.6815761
vt 0.1634847 0.6730719
vt 0.1583559 0.6815763
vt 0.1583551 0.6730726
vt 0.1532266 0.6815766
vt 0.1532257 0.6730733
vt 0.1480975 0.681577
vt 0.1480966 0.6730741
vt 0.1275189 0.6815683
vt 0.1275178 0.6730655
vt 0.2142409 0.6895368
vt 0.2344416 0.7052878
vt 0.2370089 0.6954865
vt 0.21162 0.6993239
vt 0.2084259 0.6887721
vt 0.2084273 0.698904
vt 0.2026111 0.6895386
vt 0.2052346 0.6993247
vt 0.1971929 0.6917838
vt 0.2022598 0.7005574
vt 0.1925405 0.6953548
vt 0.1997054 0.7025179
vt 0.1889708 0.7000082
vt 0.1977453 0.7050728
vt 0.1867273 0.7054266
vt 0.1965133 0.7080477
vt 0.1859625 0.711241
vt 0.1960931 0.71124
vt 0.1960934 0.7152063
vt 0.185963 0.7152072
vt 0.1960936 0.7191724
vt 0.1859635 0.7191734
vt 0.196514 0.7223643
vt 0.1867296 0.7249871
vt 0.1977463 0.7253386
vt 0.1889743 0.7304044
vt 0.1997062 0.7278925
vt 0.1925445 0.735056
vt 0.2022605 0.729852
vt 0.197197 0.7386249
vt 0.2052348 0.7310836
vt 0.2026145 0.740868
vt 0.2084266 0.7315033
vt 0.208428 0.7416325
vt 0.2116182 0.7310826
vt 0.2142413 0.7408662
vt 0.2344317 0.7251138
vt 0.2370012 0.7349116
vt 0.1546043 0.6993224
vt 0.1799906 0.6954865
vt 0.1774232 0.7052866
vt 0.1572254 0.6895366
vt 0.151412 0.6989025
vt 0.151411 0.6887717
vt 0.1482198 0.6993231
vt 0.1455969 0.6895377
vt 0.1452451 0.7005556
vt 0.140179 0.6917824
vt 0.1426907 0.702516
vt 0.1355266 0.6953527
vt 0.1407306 0.7050706
vt 0.1319568 0.7000055
vt 0.1394985 0.7080454
vt 0.1297128 0.7054237
vt 0.1390783 0.7112376
vt 0.1289476 0.711238
vt 0.1289478 0.7152043
vt 0.1390784 0.7152039
vt 0.1289479 0.7191706
vt 0.1390785 0.7191703
vt 0.1297136 0.7249846
vt 0.1394988 0.7223625
vt 0.1319579 0.7304024
vt 0.140731 0.7253371
vt 0.1355279 0.7350547
vt 0.142691 0.7278915
vt 0.1401802 0.7386245
vt 0.1452453 0.7298515
vt 0.1455978 0.7408686
vt 0.1482199 0.7310837
vt 0.1514116 0.7416341
vt 0.1514119 0.7315041
vt 0.1572253 0.7408689
vt 0.1546039 0.7310839
vt 0.1799883 0.7349181
vt 0.1774206 0.7251189
vt 0.2080871 0.6552556
vt 0.2287239 0.6637676
vt 0.2287217 0.6552617
vt 0.2080892 0.6637616
vt 0.2052702 0.6552563
vt 0.2052721 0.6637623
vt 0.2024533 0.6552568
vt 0.202455 0.663763
vt 0.1996362 0.6552574
vt 0.1996379 0.6637636
vt 0.1968193 0.6552578
vt 0.1968207 0.6637642
vt 0.1940023 0.6552582
vt 0.1940035 0.6637648
vt 0.1911851 0.6552585
vt 0.1911861 0.6637653
vt 0.188368 0.6552586
vt 0.1883687 0.6637656
vt 0.1848979 0.6637659
vt 0.1848975 0.6552587
vt 0.181427 0.6637661
vt 0.181427 0.6552587
vt 0.1786094 0.6637662
vt 0.1786096 0.6552585
vt 0.1757916 0.6637662
vt 0.1757922 0.6552583
vt 0.1729738 0.663766
vt 0.1729746 0.6552579
vt 0.1701558 0.6637658
vt 0.1701571 0.6552575
vt 0.1673379 0.6637654
vt 0.1673394 0.6552569
vt 0.1645198 0.663765
vt 0.1645216 0.6552562
vt 0.1617017 0.6637644
vt 0.1617038 0.6552555
vt 0.1410596 0.6637701
vt 0.1410618 0.6552612
vt 0.24001 0.6466867
vt 0.2311444 0.638181
vt 0.24001 0.638181
vt 0.2311444 0.6466867
vt 0.24001 0.638181
vt 0.2311444 0.6466867
vt 0.24001 0.6466867
vt 0.2311444 0.638181
vt 0.2226411 0.638181
vt 0.2311444 0.631848
vt 0.2311444 0.638181
vt 0.2226411 0.631848
vt 0.2311444 0.638181
vt 0.24001 0.631848
vt 0.24001 0.638181
vt 0.2311444 0.631848
vt 0.2137755 0.638181
vt 0.2226411 0.631848
vt 0.2226411 0.638181
vt 0.2137755 0.631848
vt 0.2052675 0.638181
vt 0.2137755 0.631848
vt 0.2137755 0.638181
vt 0.2052675 0.631848
vt 0.2311444 0.638181
vt 0.2226411 0.631848
vt 0.2226411 0.638181
vt 0.2311444 0.631848
vt 0.24001 0.638181
vt 0.2311444 0.631848
vt 0.2311444 0.638181
vt 0.24001 0.631848
vt 0.2226411 0.638181
vt 0.2137755 0.631848
vt 0.2137755 0.638181
vt 0.2226411 0.631848
vt 0.2137755 0.638181
vt 0.2052675 0.631848
vt 0.2052675 0.638181
vt 0.2137755 0.631848
vn -0.9813691 0.1921317 0
vn -0.9674746 0.2529679 -2.577365E-07
vn -0.9674746 0.2529679 -2.99997E-07
vn -0.9813733 0.1921105 0
vn -1 0 -2.630679E-07
vn -1 0 -3.15638E-07
vn -0.9659258 -0.2588189 -2.993199E-07
vn -0.9659258 -0.2588189 -3.063219E-07
vn -0.8660253 -0.5000001 -2.834172E-07
vn -0.8660253 -0.5000001 -2.60235E-07
vn -0.7071066 -0.7071069 0
vn -0.7071065 -0.707107 0
vn -0.4999998 -0.8660255 0
vn -0.4999997 -0.8660256 0
vn -0.258819 -0.9659258 0
vn -0.2588191 -0.9659257 0
vn -0.06540313 -0.9978589 0
vn -0.06540332 -0.9978589 0
vn 0 -1 0
vn 0 -1 0
vn 0.0654036 -0.9978588 0
vn 0.06540345 -0.9978589 0
vn 0.25882 -0.9659256 0
vn 0.2588199 -0.9659256 0
vn 0.5000008 -0.866025 0
vn 0.500001 -0.8660249 0
vn 0.7071072 -0.7071063 0
vn 0.7071071 -0.7071064 0
vn 0.8660257 -0.4999995 0
vn 0.8660258 -0.4999994 0
vn 0.9659259 -0.2588183 2.591363E-07
vn 0.9659259 -0.2588184 2.605737E-07
vn 1 6.628961E-07 0
vn 1 6.533279E-07 0
vn 0.9813731 0.1921114 2.710797E-07
vn 0.981369 0.1921326 3.242801E-07
vn 0.9674745 0.2529686 3.194185E-07
vn 0.9674745 0.2529687 3.177597E-07
vn 7.276974E-05 0.0002726245 -1
vn 0.0001377925 0.0005224217 -0.9999999
vn 0.0001371183 0.0005229476 -0.9999999
vn 6.704537E-05 0.000249557 -1
vn 0 0 -1
vn 0 0 -1
vn 0 0 -1
vn 0 0 -1
vn 0 0 -1
vn 0 0 -1
vn 0 0 -1
vn 0 0 -1
vn 0 0 -1
vn 0 0 -1
vn 0 0 -1
vn 0 0 -1
vn 0 0 -1
vn 0 0 -1
vn 0 0 -1
vn 0 0 -1
vn 0 0 -1
vn 0 0 -1
vn 0 0 -1
vn 0 0 -1
vn 0 0 -1
vn 0 0 -1
vn 0 0 -1
vn 0 0 -1
vn 0 0 -1
vn 0 0 -1
vn 0 0 -1
vn 0 0 -1
vn 0 0 -1
vn 0 0 -1
vn -6.672386E-05 0.000249591 -1
vn -7.250264E-05 0.0002725346 -1
vn -0.0001376203 0.0005224016 -0.9999999
vn -0.0001369729 0.0005229067 -0.9999999
vn -6.674395E-05 -0.0002501442 1
vn -0.0001376217 -0.0005218095 0.9999999
vn -0.000136787 -0.0005216835 0.9999999
vn -7.32734E-05 -0.0002730314 1
vn 0 0 1
vn 0 0 1
vn 0 0 1
vn 0 0 1
vn 0 0 1
vn 0 0 1
vn 0 0 1
vn 0 0 1
vn 0 0 1
vn 0 0 1
vn 0 0 1
vn 0 0 1
vn 0 0 1
vn 0 0 1
vn 0 0 1
vn 0 0 1
vn 0 0 1
vn 0 0 1
vn 0 0 1
vn 0 0 1
vn 0 0 1
vn 0 0 1
vn 0 0 1
vn 0 0 1
vn 0 0 1
vn 0 0 1
vn 0 0 1
vn 0 0 1
vn 0 0 1
vn 0 0 1
vn 7.298073E-05 -0.0002729741 1
vn 6.649811E-05 -0.0002501388 1
vn 0.000137456 -0.0005218138 0.9999999
vn 0.000136655 -0.0005216928 0.9999999
vn 0.9813727 -0.1921134 0
vn 0.9674732 -0.2529734 0
vn 0.9674732 -0.2529734 0
vn 0.9813685 -0.1921345 0
vn 1 0 0
vn 1 0 0
vn 0.9659258 0.2588187 0
vn 0.9659258 0.2588189 0
vn 0.8660256 0.4999997 0
vn 0.8660255 0.4999999 0
vn 0.7071069 0.7071066 0
vn 0.7071067 0.7071068 0
vn 0.4999995 0.8660257 0
vn 0.4999998 0.8660256 0
vn 0.258819 0.9659258 0
vn 0.2588189 0.9659258 0
vn 0.06540335 0.9978589 0
vn 0.06540293 0.9978589 0
vn 0 1 0
vn 0 1 0
vn -0.0654038 0.9978588 0
vn -0.06540422 0.9978588 0
vn -0.2588198 0.9659256 0
vn -0.2588201 0.9659256 0
vn -0.5000005 0.8660251 0
vn -0.5000003 0.8660253 0
vn -0.7071074 0.7071061 0
vn -0.7071072 0.7071063 0
vn -0.8660255 0.4999999 0
vn -0.8660254 0.5 0
vn -0.9659259 0.2588183 0
vn -0.9659261 0.2588182 0
vn -1 -1.146092E-06 0
vn -1 -1.174796E-06 0
vn -0.9813685 -0.1921352 0
vn -0.9813726 -0.1921142 0
vn -0.967473 -0.2529742 0
vn -0.967473 -0.2529742 0
vn 0.2518961 0.9677542 0
vn 0.2518961 0.9677542 0
vn 0.251896 0.9677544 2.984312E-07
vn 0.2518962 0.9677542 0
vn -0.2518968 0.9677541 0
vn -0.2518967 0.9677541 0
vn -0.251897 0.967754 2.580441E-07
vn -0.2518965 0.9677541 0
vn -0.9674746 0.2529677 -3.835811E-07
vn -0.9674746 0.2529678 -4.217727E-07
vn -0.9674746 0.252968 -5.053569E-07
vn -0.9674748 0.2529676 -2.99997E-07
vn 0.0001370999 0.0005225748 -0.9999999
vn 0.0001368698 0.000522383 -0.9999999
vn 0.000136438 0.0005220229 -0.9999999
vn 0.0001375324 0.0005229353 -0.9999999
vn -0.0001369065 -0.000522315 0.9999999
vn -0.0001367996 -0.0005225947 0.9999999
vn -0.0001365988 -0.0005231209 0.9999999
vn -0.000137107 -0.0005217897 0.9999999
vn 0.9674732 -0.2529735 2.906144E-07
vn 0.9674732 -0.2529735 3.056409E-07
vn 0.9674732 -0.2529734 3.388261E-07
vn 0.9674732 -0.2529736 2.574293E-07
vn 0.9674745 0.2529691 3.666896E-07
vn 0.9674745 0.2529691 3.890573E-07
vn 0.9674743 0.2529691 4.379871E-07
vn 0.9674745 0.252969 3.177597E-07
vn -0.0001360931 0.0005223657 -0.9999999
vn -0.0001359654 0.0005227003 -0.9999999
vn -0.0001357254 0.000523329 -0.9999999
vn -0.0001363328 0.0005217381 -0.9999999
vn 0.0001361284 -0.0005226575 0.9999999
vn 0.0001358535 -0.0005224283 0.9999999
vn 0.0001353376 -0.0005219983 0.9999999
vn 0.0001366451 -0.0005230883 0.9999999
vn -0.967473 -0.2529742 -4.360816E-07
vn -0.967473 -0.2529742 -4.511024E-07
vn -0.967473 -0.2529742 -4.842904E-07
vn -0.967473 -0.2529743 -4.028937E-07
g magnet_0
f 3/3/3 2/2/2 1/1/1
f 4/4/4 1/1/1 2/2/2
f 1/1/1 4/4/4 5/5/5
f 6/6/6 5/5/5 4/4/4
f 5/5/5 6/6/6 7/7/7
f 8/8/8 7/7/7 6/6/6
f 7/7/7 8/8/8 9/9/9
f 10/10/10 9/9/9 8/8/8
f 9/9/9 10/10/10 11/11/11
f 12/12/12 11/11/11 10/10/10
f 11/11/11 12/12/12 13/13/13
f 14/14/14 13/13/13 12/12/12
f 13/13/13 14/14/14 15/15/15
f 16/16/16 15/15/15 14/14/14
f 15/15/15 16/16/16 17/17/17
f 18/18/18 17/17/17 16/16/16
f 17/17/17 18/18/18 19/19/19
f 20/20/20 19/19/19 18/18/18
f 20/20/20 21/21/21 19/19/19
f 22/22/22 19/19/19 21/21/21
f 21/21/21 23/23/23 22/22/22
f 24/24/24 22/22/22 23/23/23
f 23/23/23 25/25/25 24/24/24
f 26/26/26 24/24/24 25/25/25
f 25/25/25 27/27/27 26/26/26
f 28/28/28 26/26/26 27/27/27
f 27/27/27 29/29/29 28/28/28
f 30/30/30 28/28/28 29/29/29
f 29/29/29 31/31/31 30/30/30
f 32/32/32 30/30/30 31/31/31
f 31/31/31 33/33/33 32/32/32
f 34/34/34 32/32/32 33/33/33
f 33/33/33 35/35/35 34/34/34
f 36/36/36 34/34/34 35/35/35
f 35/35/35 37/37/37 36/36/36
f 38/38/38 36/36/36 37/37/37
f 41/41/41 40/40/40 39/39/39
f 42/42/42 39/39/39 40/40/40
f 39/39/39 42/42/42 43/43/43
f 44/44/44 43/43/43 42/42/42
f 43/43/43 44/44/44 45/45/45
f 46/46/46 45/45/45 44/44/44
f 45/45/45 46/46/46 47/47/47
f 48/48/48 47/47/47 46/46/46
f 47/47/47 48/48/48 49/49/49
f 50/50/50 49/49/49 48/48/48
f 49/49/49 50/50/50 51/51/51
f 52/52/52 51/51/51 50/50/50
f 51/51/51 52/52/52 53/53/53
f 54/54/54 53/53/53 52/52/52
f 53/53/53 54/54/54 55/55/55
f 56/56/56 55/55/55 54/54/54
f 56/56/56 57/57/57 55/55/55
f 58/58/58 55/55/55 57/57/57
f 57/57/57 59/59/59 58/58/58
f 60/60/60 58/58/58 59/59/59
f 59/59/59 61/61/61 60/60/60
f 62/62/62 60/60/60 61/61/61
f 61/61/61 63/63/63 62/62/62
f 64/64/64 62/62/62 63/63/63
f 63/63/63 65/65/65 64/64/64
f 66/66/66 64/64/64 65/65/65
f 65/65/65 67/67/67 66/66/66
f 68/68/68 66/66/66 67/67/67
f 67/67/67 69/69/69 68/68/68
f 70/70/70 68/68/68 69/69/69
f 69/69/69 71/71/71 70/70/70
f 72/72/72 70/70/70 71/71/71
f 71/71/71 73/73/73 72/72/72
f 74/74/74 72/72/72 73/73/73
f 73/73/73 75/75/75 74/74/74
f 76/76/76 74/74/74 75/75/75
f 79/79/79 78/78/78 77/77/77
f 80/80/80 77/77/77 78/78/78
f 77/77/77 80/80/80 81/81/81
f 82/82/82 81/81/81 80/80/80
f 81/81/81 82/82/82 83/83/83
f 84/84/84 83/83/83 82/82/82
f 83/83/83 84/84/84 85/85/85
f 86/86/86 85/85/85 84/84/84
f 85/85/85 86/86/86 87/87/87
f 88/88/88 87/87/87 86/86/86
f 87/87/87 88/88/88 89/89/89
f 90/90/90 89/89/89 88/88/88
f 89/89/89 90/90/90 91/91/91
f 92/92/92 91/91/91 90/90/90
f 91/91/91 92/92/92 93/93/93
f 94/94/94 93/93/93 92/92/92
f 94/94/94 95/95/95 93/93/93
f 96/96/96 93/93/93 95/95/95
f 95/95/95 97/97/97 96/96/96
f 98/98/98 96/96/96 97/97/97
f 97/97/97 99/99/99 98/98/98
f 100/100/100 98/98/98 99/99/99
f 99/99/99 101/101/101 100/100/100
f 102/102/102 100/100/100 101/101/101
f 101/101/101 103/103/103 102/102/102
f 104/104/104 102/102/102 103/103/103
f 103/103/103 105/105/105 104/104/104
f 106/106/106 104/104/104 105/105/105
f 105/105/105 107/107/107 106/106/106
f 108/108/108 106/106/106 107/107/107
f 107/107/107 109/109/109 108/108/108
f 110/110/110 108/108/108 109/109/109
f 109/109/109 111/111/111 110/110/110
f 112/112/112 110/110/110 111/111/111
f 111/111/111 113/113/113 112/112/112
f 114/114/114 112/112/112 113/113/113
f 117/117/117 116/116/116 115/115/115
f 118/118/118 115/115/115 116/116/116
f 115/115/115 118/118/118 119/119/119
f 120/120/120 119/119/119 118/118/118
f 119/119/119 120/120/120 121/121/121
f 122/122/122 121/121/121 120/120/120
f 121/121/121 122/122/122 123/123/123
f 124/124/124 123/123/123 122/122/122
f 123/123/123 124/124/124 125/125/125
f 126/126/126 125/125/125 124/124/124
f 125/125/125 126/126/126 127/127/127
f 128/128/128 127/127/127 126/126/126
f 127/127/127 128/128/128 129/129/129
f 130/130/130 129/129/129 128/128/128
f 129/129/129 130/130/130 131/131/131
f 132/132/132 131/131/131 130/130/130
f 132/132/132 133/133/133 131/131/131
f 134/134/134 131/131/131 133/133/133
f 133/133/133 135/135/135 134/134/134
f 136/136/136 134/134/134 135/135/135
f 135/135/135 137/137/137 136/136/136
f 138/138/138 136/136/136 137/137/137
f 137/137/137 139/139/139 138/138/138
f 140/140/140 138/138/138 139/139/139
f 139/139/139 141/141/141 140/140/140
f 142/142/142 140/140/140 141/141/141
f 141/141/141 143/143/143 142/142/142
f 144/144/144 142/142/142 143/143/143
f 143/143/143 145/145/145 144/144/144
f 146/146/146 144/144/144 145/145/145
f 145/145/145 147/147/147 146/146/146
f 148/148/148 146/146/146 147/147/147
f 147/147/147 149/149/149 148/148/148
f 150/150/150 148/148/148 149/149/149
f 149/149/149 151/151/151 150/150/150
f 152/152/152 150/150/150 151/151/151
f 155/155/155 154/154/154 153/153/153
f 156/156/156 153/153/153 154/154/154
f 159/159/159 158/158/158 157/157/157
f 160/160/160 157/157/157 158/158/158
f 163/163/163 162/162/162 161/161/161
f 164/164/164 161/161/161 162/162/162
f 167/167/167 166/166/166 165/165/165
f 168/168/168 165/165/165 166/166/166
f 171/171/171 170/170/170 169/169/169
f 172/172/172 169/169/169 170/170/170
f 175/175/175 174/174/174 173/173/173
f 176/176/176 173/173/173 174/174/174
f 179/179/179 178/178/178 177/177/177
f 180/180/180 177/177/177 178/178/178
f 183/183/183 182/182/182 181/181/181
f 184/184/184 181/181/181 182/182/182
f 187/187/187 186/186/186 185/185/185
f 188/188/188 185/185/185 186/186/186
f 191/191/191 190/190/190 189/189/189
f 192/192/192 189/189/189 190/190/190
