g magnet
v -0.3800343 -0.01094665 0.0718559
v -0.2918976 0.3261313 -0.07191364
v -0.2918976 0.3261313 0.07204428
v -0.3800343 -0.01094662 -0.07210203
v -0.3913686 -0.09703974 0.07185587
v -0.3913686 -0.09703971 -0.07210206
v -0.3800343 -0.1831329 0.07185588
v -0.3800343 -0.1831329 -0.07210206
v -0.3468036 -0.2633589 0.07185585
v -0.3468035 -0.2633589 -0.07210208
v -0.2939412 -0.3322505 0.07185587
v -0.2939412 -0.3322505 -0.07210207
v -0.2250495 -0.385113 0.07185584
v -0.2250494 -0.385113 -0.07210209
v -0.1448234 -0.4183437 0.07185584
v -0.1448234 -0.4183437 -0.07210209
v -0.0587303 -0.4296781 0.07185584
v -0.05873032 -0.4296781 -0.07210209
v 1.021686E-07 -0.4296781 0.07185584
v 8.666412E-08 -0.4296781 -0.07210209
v -0.3800343 -0.01094662 -0.07210203
v -0.1467911 0.2881008 -0.07191367
v -0.2918976 0.3261313 -0.07191364
v -0.2351375 -0.04977157 -0.07210205
v -0.3913686 -0.09703971 -0.07210206
v -0.2413605 -0.09703975 -0.07210205
v -0.3800343 -0.1831329 -0.07210206
v -0.2351375 -0.1443079 -0.07210206
v -0.3468035 -0.2633589 -0.07210208
v -0.2168927 -0.1883548 -0.07210206
v -0.2939412 -0.3322505 -0.07210207
v -0.1878694 -0.2261788 -0.07210206
v -0.2250494 -0.385113 -0.07210209
v -0.1500454 -0.2552022 -0.07210208
v -0.1448234 -0.4183437 -0.07210209
v -0.1059985 -0.273447 -0.07210207
v -0.05873032 -0.4296781 -0.07210209
v -0.05873026 -0.27967 -0.07210208
v 4.522717E-08 -0.27967 -0.07210208
v 8.666412E-08 -0.4296781 -0.07210209
v -0.2351375 -0.0497716 0.07185589
v -0.2918976 0.3261313 0.07204428
v -0.1467911 0.2881008 0.07204427
v -0.3800343 -0.01094665 0.0718559
v -0.2413605 -0.09703977 0.07185587
v -0.3913686 -0.09703974 0.07185587
v -0.2351375 -0.1443079 0.07185588
v -0.3800343 -0.1831329 0.07185588
v -0.2168927 -0.1883548 0.07185587
v -0.3468036 -0.2633589 0.07185585
v -0.1878694 -0.2261788 0.07185587
v -0.2939412 -0.3322505 0.07185587
v -0.1500454 -0.2552022 0.07185586
v -0.2250495 -0.385113 0.07185584
v -0.1059984 -0.273447 0.07185585
v -0.1448234 -0.4183437 0.07185584
v -0.05873024 -0.27967 0.07185587
v -0.0587303 -0.4296781 0.07185584
v 1.021686E-07 -0.4296781 0.07185584
v 6.073168E-08 -0.27967 0.07185587
v -0.2351375 -0.04977157 -0.07210205
v -0.1467911 0.2881008 0.07204427
v -0.1467911 0.2881008 -0.07191367
v -0.2351375 -0.0497716 0.07185589
v -0.2413605 -0.09703975 -0.07210205
v -0.2413605 -0.09703977 0.07185587
v -0.2351375 -0.1443079 -0.07210206
v -0.2351375 -0.1443079 0.07185588
v -0.2168927 -0.1883548 -0.07210206
v -0.2168927 -0.1883548 0.07185587
v -0.1878694 -0.2261788 -0.07210206
v -0.1878694 -0.2261788 0.07185587
v -0.1500454 -0.2552022 -0.07210208
v -0.1500454 -0.2552022 0.07185586
v -0.1059985 -0.273447 -0.07210207
v -0.1059984 -0.273447 0.07185585
v -0.05873026 -0.27967 -0.07210208
v -0.05873024 -0.27967 0.07185587
v 6.073168E-08 -0.27967 0.07185587
v 4.522717E-08 -0.27967 -0.07210208
v 0.2918974 0.3261315 -0.07191364
v 0.3800342 -0.01094647 0.0718559
v 0.2918974 0.3261315 0.07204428
v 0.3800342 -0.01094644 -0.07210203
v 0.3913687 -0.09703959 0.07185588
v 0.3913687 -0.09703956 -0.07210205
v 0.3800343 -0.1831327 0.07185588
v 0.3800343 -0.1831327 -0.07210206
v 0.3468036 -0.2633588 0.07185587
v 0.3468036 -0.2633587 -0.07210206
v 0.2939413 -0.3322504 0.07185587
v 0.2939413 -0.3322504 -0.07210208
v 0.2250496 -0.3851129 0.07185584
v 0.2250496 -0.3851129 -0.07210209
v 0.1448236 -0.4183437 0.07185585
v 0.1448236 -0.4183437 -0.07210208
v 0.0587305 -0.4296781 0.07185584
v 0.05873049 -0.4296781 -0.07210209
v 1.021686E-07 -0.4296781 0.07185584
v 8.666412E-08 -0.4296781 -0.07210209
v 0.1467909 0.2881009 -0.07191364
v 0.3800342 -0.01094644 -0.07210203
v 0.2918974 0.3261315 -0.07191364
v 0.2351375 -0.04977151 -0.07210203
v 0.3913687 -0.09703956 -0.07210205
v 0.2413605 -0.09703968 -0.07210205
v 0.3800343 -0.1831327 -0.07210206
v 0.2351376 -0.1443079 -0.07210205
v 0.3468036 -0.2633587 -0.07210206
v 0.2168928 -0.1883548 -0.07210206
v 0.2939413 -0.3322504 -0.07210208
v 0.1878694 -0.2261787 -0.07210206
v 0.2250496 -0.3851129 -0.07210209
v 0.1500455 -0.2552021 -0.07210207
v 0.1448236 -0.4183437 -0.07210208
v 0.1059985 -0.2734469 -0.07210207
v 0.05873049 -0.4296781 -0.07210209
v 0.05873037 -0.27967 -0.07210207
v 8.666412E-08 -0.4296781 -0.07210209
v 4.522717E-08 -0.27967 -0.07210208
v 0.2918974 0.3261315 0.07204428
v 0.2351375 -0.04977153 0.0718559
v 0.146791 0.2881008 0.07204429
v 0.3800342 -0.01094647 0.0718559
v 0.2413605 -0.09703971 0.07185588
v 0.3913687 -0.09703959 0.07185588
v 0.2351376 -0.1443079 0.07185587
v 0.3800343 -0.1831327 0.07185588
v 0.2168928 -0.1883548 0.07185587
v 0.3468036 -0.2633588 0.07185587
v 0.1878695 -0.2261787 0.07185587
v 0.2939413 -0.3322504 0.07185587
v 0.1500455 -0.2552021 0.07185587
v 0.2250496 -0.3851129 0.07185584
v 0.1059985 -0.273447 0.07185587
v 0.1448236 -0.4183437 0.07185585
v 0.05873038 -0.27967 0.07185587
v 0.0587305 -0.4296781 0.07185584
v 6.073168E-08 -0.27967 0.07185587
v 1.021686E-07 -0.4296781 0.07185584
v 0.146791 0.2881008 0.07204429
v 0.2351375 -0.04977151 -0.07210203
v 0.1467909 0.2881009 -0.07191364
v 0.2351375 -0.04977153 0.0718559
v 0.2413605 -0.09703968 -0.07210205
v 0.2413605 -0.09703971 0.07185588
v 0.2351376 -0.1443079 -0.07210205
v 0.2351376 -0.1443079 0.07185587
v 0.2168928 -0.1883548 -0.07210206
v 0.2168928 -0.1883548 0.07185587
v 0.1878694 -0.2261787 -0.07210206
v 0.1878695 -0.2261787 0.07185587
v 0.1500455 -0.2552021 -0.07210207
v 0.1500455 -0.2552021 0.07185587
v 0.1059985 -0.2734469 -0.07210207
v 0.1059985 -0.273447 0.07185587
v 0.05873037 -0.27967 -0.07210207
v 0.05873038 -0.27967 0.07185587
v 4.522717E-08 -0.27967 -0.07210208
v 6.073168E-08 -0.27967 0.07185587
v -0.119652 0.3918917 0.07210211
v -0.264823 0.4296781 -0.07185587
v -0.119652 0.3918917 -0.07185581
v -0.264823 0.4296781 0.07210208
v 0.1196518 0.3918918 -0.07185572
v 0.2648227 0.4296782 0.07210227
v 0.1196518 0.3918917 0.0721022
v 0.2648227 0.4296782 -0.07185566
v -0.264823 0.4296781 0.07210208
v -0.2918976 0.3261313 -0.07191375
v -0.264823 0.4296781 -0.07185587
v -0.2918976 0.3261313 0.0720442
v -0.264823 0.4296781 -0.07185587
v -0.1467911 0.2881008 -0.0719137
v -0.119652 0.3918917 -0.07185581
v -0.2918976 0.3261313 -0.07191375
v -0.119652 0.3918917 0.07210211
v -0.2918976 0.3261313 0.0720442
v -0.264823 0.4296781 0.07210208
v -0.1467911 0.2881008 0.07204422
v -0.119652 0.3918917 -0.07185581
v -0.1467911 0.2881008 0.07204422
v -0.119652 0.3918917 0.07210211
v -0.1467911 0.2881008 -0.0719137
v 0.2648227 0.4296782 -0.07185566
v 0.2918974 0.3261315 0.07204439
v 0.2648227 0.4296782 0.07210227
v 0.2918974 0.3261315 -0.07191354
v 0.1196518 0.3918918 -0.07185572
v 0.2918974 0.3261315 -0.07191354
v 0.2648227 0.4296782 -0.07185566
v 0.146791 0.2881009 -0.07191359
v 0.2648227 0.4296782 0.07210227
v 0.146791 0.2881008 0.07204434
v 0.1196518 0.3918917 0.0721022
v 0.2918974 0.3261315 0.07204439
v 0.1196518 0.3918917 0.0721022
v 0.146791 0.2881009 -0.07191359
v 0.1196518 0.3918918 -0.07185572
v 0.146791 0.2881008 0.07204434
vt 0.3692507 0.5377757
vt 0.3732046 0.5394074
vt 0.3732047 0.5377737
vt 0.3692506 0.5394094
vt 0.3682653 0.5377757
vt 0.3682652 0.5394093
vt 0.3672799 0.5377758
vt 0.3672799 0.5394092
vt 0.3662946 0.5377758
vt 0.3662946 0.5394091
vt 0.3653094 0.5377758
vt 0.3653093 0.539409
vt 0.3643242 0.5377759
vt 0.3643242 0.5394089
vt 0.3633392 0.5377759
vt 0.3633392 0.5394089
vt 0.3623542 0.537776
vt 0.3623542 0.5394088
vt 0.3616881 0.5377761
vt 0.3616882 0.5394087
vt 0.3668248 0.5409366
vt 0.3707019 0.5439596
vt 0.3711946 0.5420785
vt 0.3663218 0.542815
vt 0.3657088 0.5407898
vt 0.365709 0.5427344
vt 0.3645928 0.5409369
vt 0.3650963 0.5428151
vt 0.3635529 0.5413679
vt 0.3645253 0.5430517
vt 0.36266 0.5420532
vt 0.3640351 0.543428
vt 0.3619749 0.5429463
vt 0.3636589 0.5439184
vt 0.3615443 0.5439863
vt 0.3634225 0.5444893
vt 0.3613975 0.5451022
vt 0.3633418 0.545102
vt 0.3633418 0.5458632
vt 0.3613976 0.5458634
vt 0.3553791 0.5428147
vt 0.3602513 0.5420785
vt 0.3597586 0.5439594
vt 0.3558821 0.5409366
vt 0.3547664 0.5427341
vt 0.3547662 0.5407898
vt 0.3541537 0.5428149
vt 0.3536503 0.5409368
vt 0.3535828 0.5430514
vt 0.3526105 0.5413676
vt 0.3530925 0.5434276
vt 0.3517176 0.5420528
vt 0.3527164 0.543918
vt 0.3510324 0.5429458
vt 0.3524798 0.5444888
vt 0.3506018 0.5439857
vt 0.3523992 0.5451015
vt 0.3504549 0.5451016
vt 0.3504549 0.5458629
vt 0.3523993 0.5458628
vt 0.3656438 0.5343572
vt 0.3696045 0.5359908
vt 0.3696041 0.5343583
vt 0.3656442 0.5359897
vt 0.3651032 0.5343573
vt 0.3651035 0.5359898
vt 0.3645625 0.5343574
vt 0.3645628 0.5359899
vt 0.3640218 0.5343575
vt 0.3640222 0.5359901
vt 0.3634812 0.5343576
vt 0.3634815 0.5359902
vt 0.3629405 0.5343577
vt 0.3629408 0.5359903
vt 0.3623998 0.5343577
vt 0.3624 0.5359904
vt 0.3618592 0.5343577
vt 0.3618593 0.5359905
vt 0.3611932 0.5359905
vt 0.3611931 0.5343578
vt 0.2673405 0.7210671
vt 0.2712899 0.7194368
vt 0.2673403 0.7194351
vt 0.2712901 0.7210687
vt 0.2722743 0.7194366
vt 0.2722745 0.7210686
vt 0.2732587 0.7194365
vt 0.2732589 0.7210686
vt 0.2742432 0.7194364
vt 0.2742434 0.7210685
vt 0.2752278 0.7194363
vt 0.2752279 0.7210685
vt 0.2762125 0.7194362
vt 0.2762125 0.7210685
vt 0.2771971 0.719436
vt 0.2771972 0.7210685
vt 0.2781819 0.7194359
vt 0.2781819 0.7210685
vt 0.2788479 0.7194358
vt 0.278848 0.7210685
vt 0.2878598 0.7294245
vt 0.2839847 0.7324479
vt 0.288353 0.731305
vt 0.2834813 0.7305701
vt 0.282869 0.7325948
vt 0.2828687 0.7306508
vt 0.2817532 0.7324482
vt 0.2822562 0.7305703
vt 0.2807135 0.7320176
vt 0.2816853 0.7303339
vt 0.2798206 0.7313327
vt 0.2811951 0.7299578
vt 0.2791353 0.7304399
vt 0.2808189 0.7294676
vt 0.2787045 0.7294003
vt 0.2805824 0.7288969
vt 0.2785575 0.7282844
vt 0.2805017 0.7282842
vt 0.2785574 0.7275232
vt 0.2805017 0.727523
vt 0.2774107 0.7313062
vt 0.2725388 0.7305703
vt 0.2769179 0.7294255
vt 0.2730419 0.7324483
vt 0.2719262 0.730651
vt 0.2719261 0.7325952
vt 0.2713135 0.7305703
vt 0.2708103 0.7324482
vt 0.2707427 0.7303338
vt 0.2697705 0.7320175
vt 0.2702524 0.7299576
vt 0.2688776 0.7313324
vt 0.2698762 0.7294674
vt 0.2681925 0.7304395
vt 0.2696397 0.7288965
vt 0.2677617 0.7293997
vt 0.2695591 0.7282838
vt 0.2676148 0.7282839
vt 0.2695591 0.7275226
vt 0.2676147 0.7275226
vt 0.2699393 0.7176511
vt 0.2739015 0.7160169
vt 0.2699397 0.7160181
vt 0.273901 0.7176501
vt 0.2744423 0.7160171
vt 0.2744419 0.7176502
vt 0.274983 0.7160172
vt 0.2749828 0.7176502
vt 0.2755238 0.7160174
vt 0.2755236 0.7176503
vt 0.2760646 0.7160174
vt 0.2760645 0.7176503
vt 0.2766054 0.7160175
vt 0.2766052 0.7176504
vt 0.2771461 0.7160175
vt 0.277146 0.7176504
vt 0.2776868 0.7160176
vt 0.2776868 0.7176503
vt 0.2783529 0.7160176
vt 0.278353 0.7176503
vt 0.3629602 0.7955281
vt 0.3612587 0.7938956
vt 0.3629602 0.7938956
vt 0.3612587 0.7955281
vt 0.3629602 0.7938956
vt 0.3612587 0.7955281
vt 0.3629602 0.7955281
vt 0.3612587 0.7938956
vt 0.3596267 0.7938956
vt 0.3612587 0.7926801
vt 0.3612587 0.7938956
vt 0.3596267 0.7926801
vt 0.3612587 0.7938956
vt 0.3629602 0.7926801
vt 0.3629602 0.7938956
vt 0.3612587 0.7926801
vt 0.3579252 0.7938956
vt 0.3596267 0.7926801
vt 0.3596267 0.7938956
vt 0.3579252 0.7926801
vt 0.3562922 0.7938956
vt 0.3579252 0.7926801
vt 0.3579252 0.7938956
vt 0.3562922 0.7926801
vt 0.3612587 0.7938956
vt 0.3596267 0.7926801
vt 0.3596267 0.7938956
vt 0.3612587 0.7926801
vt 0.3629602 0.7938956
vt 0.3612587 0.7926801
vt 0.3612587 0.7938956
vt 0.3629602 0.7926801
vt 0.3596267 0.7938956
vt 0.3579252 0.7926801
vt 0.3579252 0.7938956
vt 0.3596267 0.7926801
vt 0.3579252 0.7938956
vt 0.3562922 0.7926801
vt 0.3562922 0.7938956
vt 0.3579252 0.7926801
vn -0.9813706 0.1921239 -9.662471E-08
vn -0.9674746 0.2529682 8.039353E-08
vn -0.9674746 0.2529682 8.039353E-08
vn -0.9813733 0.1921108 3.198081E-08
vn -1 2.392058E-08 -6.840052E-09
vn -1 2.48774E-07 3.140809E-09
vn -0.9659258 -0.2588188 -1.330781E-08
vn -0.9659259 -0.2588186 -1.118048E-07
vn -0.8660253 -0.5000001 -2.948757E-07
vn -0.8660255 -0.4999997 -3.172351E-07
vn -0.7071066 -0.7071069 -3.334536E-07
vn -0.7071069 -0.7071066 -2.474457E-07
vn -0.4999999 -0.8660254 -4.845787E-07
vn -0.5000001 -0.8660253 -2.206834E-07
vn -0.2588193 -0.9659257 -2.673329E-07
vn -0.2588195 -0.9659257 -1.529145E-07
vn -0.06540337 -0.9978589 -1.813763E-07
vn -0.06540351 -0.9978589 -2.551104E-07
vn 0 -1 -1.263113E-07
vn 0 -1 3.110334E-07
vn 6.255583E-05 0.0002337503 -1
vn 0.0001369631 0.0005230915 -0.9999999
vn 0.0001369631 0.0005230915 -0.9999999
vn 6.689171E-05 0.0002497003 -1
vn -6.095374E-09 1.259796E-07 -1
vn 9.123348E-08 1.330457E-07 -1
vn -4.86831E-08 1.058354E-07 -1
vn 7.067538E-08 1.210286E-07 -1
vn 1.005231E-07 6.603422E-08 -1
vn 1.571872E-07 2.826008E-08 -1
vn -9.385396E-09 1.136315E-07 -1
vn -6.289395E-08 1.368663E-07 -1
vn -1.222017E-07 1.657874E-07 -1
vn -4.641729E-08 1.734183E-07 -1
vn 1.070639E-07 1.262451E-07 -1
vn 7.190248E-08 1.111158E-07 -1
vn 3.168092E-08 1.230182E-07 -1
vn -1.478552E-07 1.033473E-07 -1
vn 1.144222E-07 1.033473E-07 -1
vn 2.718298E-08 1.230461E-07 -1
vn -5.660571E-05 -0.0002118125 1
vn -0.0001366793 -0.0005218048 0.9999999
vn -0.0001366793 -0.0005218048 0.9999999
vn -7.316376E-05 -0.0002731684 1
vn 2.728384E-08 -8.806376E-08 1
vn -7.345269E-08 -9.141118E-08 1
vn 2.795803E-08 0 1
vn 4.986724E-08 -7.713289E-08 1
vn -9.274574E-08 -2.326277E-07 1
vn -1.308172E-08 -1.593893E-07 1
vn 2.09327E-08 -1.170713E-07 1
vn 1.308137E-08 -3.482578E-08 1
vn 2.634045E-07 -1.637461E-07 1
vn 4.493463E-08 -1.462297E-07 1
vn -7.190243E-08 -5.129656E-08 1
vn -4.493469E-08 -1.029479E-07 1
vn -9.917267E-08 -1.037626E-07 1
vn -4.473505E-08 -2.066946E-07 1
vn -8.723914E-08 -1.747197E-07 1
vn 0 -1.550209E-07 1
vn 0.9813744 -0.1921048 -1.74623E-08
vn 0.9674732 -0.2529736 -2.177823E-07
vn 0.9674732 -0.2529736 -2.177823E-07
vn 0.9813685 -0.1921351 -1.013226E-08
vn 1 -9.08982E-08 -3.686926E-09
vn 1 -1.028585E-06 0
vn 0.9659258 0.2588189 9.258979E-09
vn 0.9659261 0.2588179 9.25898E-09
vn 0.8660255 0.4999999 0
vn 0.866026 0.4999991 -5.644133E-08
vn 0.7071068 0.7071067 5.644123E-08
vn 0.7071071 0.7071064 -1.566642E-07
vn 0.4999997 0.8660256 8.520509E-09
vn 0.5 0.8660254 -1.78834E-07
vn 0.258819 0.9659258 1.788338E-07
vn 0.2588188 0.9659258 -6.26821E-08
vn 0.0654033 0.9978589 2.14641E-07
vn 0.06540303 0.9978589 -1.748728E-07
vn 0 1 -6.042657E-08
vn 0 1 1.192311E-07
vn 0.9674746 0.2529683 2.411806E-07
vn 0.981369 0.1921326 2.47071E-07
vn 0.9674746 0.2529683 2.411806E-07
vn 0.9813731 0.1921115 1.710464E-07
vn 1 4.257863E-07 6.635291E-08
vn 1 5.262527E-07 7.633381E-08
vn 0.9659259 -0.2588187 1.473404E-07
vn 0.9659259 -0.2588185 1.273787E-07
vn 0.8660256 -0.4999996 6.579444E-08
vn 0.8660258 -0.4999994 -4.066806E-08
vn 0.7071071 -0.7071064 0
vn 0.707107 -0.7071065 0
vn 0.5000008 -0.8660249 0
vn 0.5000005 -0.8660251 -1.064625E-07
vn 0.2588199 -0.9659256 -3.815541E-07
vn 0.25882 -0.9659256 -6.216648E-08
vn 0.0654034 -0.9978589 -3.388332E-07
vn 0.06540351 -0.9978589 4.443652E-07
vn 0 -1 -1.263113E-07
vn 0 -1 3.110334E-07
vn -0.0001377521 0.0005225401 -0.9999999
vn -7.264128E-05 0.0002726728 -1
vn -0.0001370981 0.0005230519 -0.9999999
vn -6.68857E-05 0.0002497461 -1
vn 3.90278E-08 1.554003E-07 -1
vn -1.119538E-08 1.979672E-07 -1
vn -1.52153E-08 7.962414E-08 -1
vn -2.434679E-08 5.448259E-08 -1
vn 9.327097E-08 1.393867E-07 -1
vn 0 1.412501E-07 -1
vn -6.617928E-09 1.966625E-07 -1
vn -1.680179E-07 1.476213E-07 -1
vn -1.120349E-07 1.454455E-07 -1
vn -4.211779E-08 1.516848E-07 -1
vn -6.771878E-08 1.127246E-07 -1
vn 2.120692E-08 1.210312E-07 -1
vn -3.342816E-08 1.442208E-07 -1
vn 8.374961E-08 1.361101E-07 -1
vn 2.718298E-08 1.230461E-07 -1
vn 1.144222E-07 1.033473E-07 -1
vn 0.0001376339 -0.0005219306 0.9999999
vn 6.66679E-05 -0.0002502986 1
vn 0.0001368525 -0.0005218084 0.9999999
vn 7.309101E-05 -0.000273095 1
vn -2.434679E-08 -2.180748E-07 1
vn -7.734442E-08 -1.040586E-07 1
vn -7.222241E-08 -1.233412E-07 1
vn -7.734444E-08 -7.278742E-08 1
vn -3.668022E-08 -7.208331E-08 1
vn -3.902781E-08 -7.797331E-08 1
vn -1.777107E-08 0 1
vn -1.915827E-08 -1.03117E-07 1
vn -8.942446E-08 -1.145261E-07 1
vn 1.257888E-08 -1.733411E-07 1
vn -7.318967E-08 -1.122369E-07 1
vn 7.277509E-08 -1.087393E-07 1
vn -2.118004E-08 -1.369237E-07 1
vn 2.799823E-08 -1.550209E-07 1
vn 0 -1.550209E-07 1
vn -8.723914E-08 -1.747197E-07 1
vn -0.967473 -0.2529741 -4.010217E-08
vn -0.9813726 -0.1921143 -3.388566E-08
vn -0.967473 -0.2529741 -4.010217E-08
vn -0.9813685 -0.1921349 -3.388783E-08
vn -1 -1.090778E-06 -4.629488E-09
vn -1 -7.51106E-07 -1.200335E-08
vn -0.9659259 0.2588185 7.373866E-09
vn -0.9659261 0.2588181 0
vn -0.8660254 0.5 0
vn -0.8660254 0.5 5.899092E-08
vn -0.7071072 0.7071064 1.632243E-07
vn -0.707107 0.7071065 1.042336E-07
vn -0.5000001 0.8660253 1.179816E-07
vn -0.5000004 0.8660251 2.359636E-07
vn -0.2588198 0.9659256 3.566109E-07
vn -0.2588197 0.9659256 3.566109E-07
vn -0.06540394 0.9978588 2.34447E-07
vn -0.06540341 0.9978589 0
vn 0 1 1.192311E-07
vn 0 1 -6.042657E-08
vn 0.2518963 0.9677542 5.748453E-07
vn 0.2518963 0.9677542 5.454913E-07
vn 0.2518961 0.9677544 1.120337E-06
vn 0.2518965 0.9677541 0
vn -0.2518965 0.9677542 2.013996E-07
vn -0.2518965 0.9677542 1.720459E-07
vn -0.2518967 0.9677541 7.468911E-07
vn -0.2518963 0.9677542 -3.734455E-07
vn -0.9674746 0.2529681 -5.325897E-08
vn -0.9674745 0.2529683 -7.759429E-08
vn -0.9674745 0.2529688 -1.308532E-07
vn -0.9674748 0.2529676 0
vn 0.0001369042 0.0005226751 -0.9999999
vn 0.0001367176 0.0005224764 -0.9999999
vn 0.0001363676 0.0005221039 -0.9999999
vn 0.0001372548 0.0005230483 -0.9999999
vn -0.0001367503 -0.0005224376 0.9999999
vn -0.0001366201 -0.0005227099 0.9999999
vn -0.0001363753 -0.0005232216 0.9999999
vn -0.0001369946 -0.0005219267 0.9999999
vn 0.9674731 -0.2529738 5.322288E-08
vn 0.9674731 -0.2529737 7.732253E-08
vn 0.9674732 -0.2529736 1.305454E-07
vn 0.9674731 -0.252974 0
vn 0.9674743 0.2529691 2.373621E-07
vn 0.9674745 0.2529689 2.860511E-07
vn 0.9674745 0.2529686 3.925599E-07
vn 0.9674743 0.2529695 1.308533E-07
vn -0.0001362239 0.0005225138 -0.9999999
vn -0.0001360803 0.0005228384 -0.9999999
vn -0.0001358103 0.0005234487 -0.9999999
vn -0.0001364935 0.0005219045 -0.9999999
vn 0.0001362159 -0.0005227646 0.9999999
vn 0.0001359638 -0.0005225302 0.9999999
vn 0.0001354907 -0.0005220904 0.9999999
vn 0.0001366898 -0.0005232052 0.9999999
vn -0.967473 -0.2529743 -3.143181E-07
vn -0.967473 -0.2529741 -3.384088E-07
vn -0.9674731 -0.2529737 -3.916362E-07
vn -0.967473 -0.2529747 -2.610908E-07
g magnet_0
f 3/3/3 2/2/2 1/1/1
f 4/4/4 1/1/1 2/2/2
f 1/1/1 4/4/4 5/5/5
f 6/6/6 5/5/5 4/4/4
f 5/5/5 6/6/6 7/7/7
f 8/8/8 7/7/7 6/6/6
f 7/7/7 8/8/8 9/9/9
f 10/10/10 9/9/9 8/8/8
f 9/9/9 10/10/10 11/11/11
f 12/12/12 11/11/11 10/10/10
f 11/11/11 12/12/12 13/13/13
f 14/14/14 13/13/13 12/12/12
f 13/13/13 14/14/14 15/15/15
f 16/16/16 15/15/15 14/14/14
f 15/15/15 16/16/16 17/17/17
f 18/18/18 17/17/17 16/16/16
f 17/17/17 18/18/18 19/19/19
f 20/20/20 19/19/19 18/18/18
f 23/23/23 22/22/22 21/21/21
f 24/24/24 21/21/21 22/22/22
f 21/21/21 24/24/24 25/25/25
f 26/26/26 25/25/25 24/24/24
f 25/25/25 26/26/26 27/27/27
f 28/28/28 27/27/27 26/26/26
f 27/27/27 28/28/28 29/29/29
f 30/30/30 29/29/29 28/28/28
f 29/29/29 30/30/30 31/31/31
f 32/32/32 31/31/31 30/30/30
f 31/31/31 32/32/32 33/33/33
f 34/34/34 33/33/33 32/32/32
f 33/33/33 34/34/34 35/35/35
f 36/36/36 35/35/35 34/34/34
f 35/35/35 36/36/36 37/37/37
f 38/38/38 37/37/37 36/36/36
f 38/38/38 39/39/39 37/37/37
f 40/40/40 37/37/37 39/39/39
f 43/43/43 42/42/42 41/41/41
f 44/44/44 41/41/41 42/42/42
f 41/41/41 44/44/44 45/45/45
f 46/46/46 45/45/45 44/44/44
f 45/45/45 46/46/46 47/47/47
f 48/48/48 47/47/47 46/46/46
f 47/47/47 48/48/48 49/49/49
f 50/50/50 49/49/49 48/48/48
f 49/49/49 50/50/50 51/51/51
f 52/52/52 51/51/51 50/50/50
f 51/51/51 52/52/52 53/53/53
f 54/54/54 53/53/53 52/52/52
f 53/53/53 54/54/54 55/55/55
f 56/56/56 55/55/55 54/54/54
f 55/55/55 56/56/56 57/57/57
f 58/58/58 57/57/57 56/56/56
f 58/58/58 59/59/59 57/57/57
f 60/60/60 57/57/57 59/59/59
f 63/63/63 62/62/62 61/61/61
f 64/64/64 61/61/61 62/62/62
f 61/61/61 64/64/64 65/65/65
f 66/66/66 65/65/65 64/64/64
f 65/65/65 66/66/66 67/67/67
f 68/68/68 67/67/67 66/66/66
f 67/67/67 68/68/68 69/69/69
f 70/70/70 69/69/69 68/68/68
f 69/69/69 70/70/70 71/71/71
f 72/72/72 71/71/71 70/70/70
f 71/71/71 72/72/72 73/73/73
f 74/74/74 73/73/73 72/72/72
f 73/73/73 74/74/74 75/75/75
f 76/76/76 75/75/75 74/74/74
f 75/75/75 76/76/76 77/77/77
f 78/78/78 77/77/77 76/76/76
f 78/78/78 79/79/79 77/77/77
f 80/80/80 77/77/77 79/79/79
f 83/83/83 82/82/82 81/81/81
f 84/84/84 81/81/81 82/82/82
f 82/82/82 85/85/85 84/84/84
f 86/86/86 84/84/84 85/85/85
f 85/85/85 87/87/87 86/86/86
f 88/88/88 86/86/86 87/87/87
f 87/87/87 89/89/89 88/88/88
f 90/90/90 88/88/88 89/89/89
f 89/89/89 91/91/91 90/90/90
f 92/92/92 90/90/90 91/91/91
f 91/91/91 93/93/93 92/92/92
f 94/94/94 92/92/92 93/93/93
f 93/93/93 95/95/95 94/94/94
f 96/96/96 94/94/94 95/95/95
f 95/95/95 97/97/97 96/96/96
f 98/98/98 96/96/96 97/97/97
f 97/97/97 99/99/99 98/98/98
f 100/100/100 98/98/98 99/99/99
f 103/103/103 102/102/102 101/101/101
f 104/104/104 101/101/101 102/102/102
f 102/102/102 105/105/105 104/104/104
f 106/106/106 104/104/104 105/105/105
f 105/105/105 107/107/107 106/106/106
f 108/108/108 106/106/106 107/107/107
f 107/107/107 109/109/109 108/108/108
f 110/110/110 108/108/108 109/109/109
f 109/109/109 111/111/111 110/110/110
f 112/112/112 110/110/110 111/111/111
f 111/111/111 113/113/113 112/112/112
f 114/114/114 112/112/112 113/113/113
f 113/113/113 115/115/115 114/114/114
f 116/116/116 114/114/114 115/115/115
f 115/115/115 117/117/117 116/116/116
f 118/118/118 116/116/116 117/117/117
f 117/117/117 119/119/119 118/118/118
f 120/120/120 118/118/118 119/119/119
f 123/123/123 122/122/122 121/121/121
f 124/124/124 121/121/121 122/122/122
f 122/122/122 125/125/125 124/124/124
f 126/126/126 124/124/124 125/125/125
f 125/125/125 127/127/127 126/126/126
f 128/128/128 126/126/126 127/127/127
f 127/127/127 129/129/129 128/128/128
f 130/130/130 128/128/128 129/129/129
f 129/129/129 131/131/131 130/130/130
f 132/132/132 130/130/130 131/131/131
f 131/131/131 133/133/133 132/132/132
f 134/134/134 132/132/132 133/133/133
f 133/133/133 135/135/135 134/134/134
f 136/136/136 134/134/134 135/135/135
f 135/135/135 137/137/137 136/136/136
f 138/138/138 136/136/136 137/137/137
f 137/137/137 139/139/139 138/138/138
f 140/140/140 138/138/138 139/139/139
f 143/143/143 142/142/142 141/141/141
f 144/144/144 141/141/141 142/142/142
f 142/142/142 145/145/145 144/144/144
f 146/146/146 144/144/144 145/145/145
f 145/145/145 147/147/147 146/146/146
f 148/148/148 146/146/146 147/147/147
f 147/147/147 149/149/149 148/148/148
f 150/150/150 148/148/148 149/149/149
f 149/149/149 151/151/151 150/150/150
f 152/152/152 150/150/150 151/151/151
f 151/151/151 153/153/153 152/152/152
f 154/154/154 152/152/152 153/153/153
f 153/153/153 155/155/155 154/154/154
f 156/156/156 154/154/154 155/155/155
f 155/155/155 157/157/157 156/156/156
f 158/158/158 156/156/156 157/157/157
f 157/157/157 159/159/159 158/158/158
f 160/160/160 158/158/158 159/159/159
f 163/163/163 162/162/162 161/161/161
f 164/164/164 161/161/161 162/162/162
f 167/167/167 166/166/166 165/165/165
f 168/168/168 165/165/165 166/166/166
f 171/171/171 170/170/170 169/169/169
f 172/172/172 169/169/169 170/170/170
f 175/175/175 174/174/174 173/173/173
f 176/176/176 173/173/173 174/174/174
f 179/179/179 178/178/178 177/177/177
f 180/180/180 177/177/177 178/178/178
f 183/183/183 182/182/182 181/181/181
f 184/184/184 181/181/181 182/182/182
f 187/187/187 186/186/186 185/185/185
f 188/188/188 185/185/185 186/186/186
f 191/191/191 190/190/190 189/189/189
f 192/192/192 189/189/189 190/190/190
f 195/195/195 194/194/194 193/193/193
f 196/196/196 193/193/193 194/194/194
f 199/199/199 198/198/198 197/197/197
f 200/200/200 197/197/197 198/198/198
