g mushroom
v -0.08726521 -0.4985781 -0.1834546
v -0.1828545 -0.4376602 -0.04879626
v -0.1456266 -0.4985781 -0.0482459
v -0.1132001 -0.4376602 -0.2101678
v -0.2161781 -0.3089647 -0.04928884
v 0.04960958 -0.4985781 -0.2377938
v -0.1364151 -0.3089647 -0.2340795
v -0.2161781 -0.2121381 -0.04928885
v 0.05015993 -0.4376602 -0.2750218
v 0.1848183 -0.4985781 -0.1794324
v -0.1364151 -0.2121381 -0.2340796
v -0.1842283 -0.04057253 -0.03654309
v 0.2115316 -0.4376602 -0.2053673
v 0.2391576 -0.498578 -0.04255757
v 0.05065257 -0.3089647 -0.3083453
v -0.1180758 -0.04837262 -0.1899918
v -0.1574821 0.1021325 -0.0261355
v 0.2763855 -0.4376601 -0.04200722
v 0.1807961 -0.498578 0.09265122
v 0.2354432 -0.3089647 -0.2285824
v 0.05065256 -0.2121381 -0.3083453
v -0.1028478 0.08924975 -0.1533349
v -0.1436922 0.210985 -0.010085
v 0.2067311 -0.4376601 0.1193644
v 0.04392131 -0.498578 0.1469904
v 0.309709 -0.3089647 -0.04151462
v 0.2354432 -0.2121381 -0.2285824
v 0.03726124 -0.05617269 -0.2515794
v -0.09870742 0.2286825 -0.115722
v -0.1481903 0.2518108 -0.008591295
v 0.04337099 -0.4376601 0.1842183
v -0.09128744 -0.498578 0.08862897
v 0.2299461 -0.3089646 0.1432761
v 0.309709 -0.212138 -0.04151464
v 0.1907886 -0.05940354 -0.1852288
v 0.02591094 0.07636707 -0.2041853
v -0.1023414 0.2698482 -0.1162574
v -0.1746836 0.2761936 -0.005937879
v -0.1218978 0.2969599 -0.129894
v 0.008213196 0.2463798 -0.1575646
v 0.006632957 0.2878855 -0.1589036
v 0.153369 0.07103089 -0.1488995
v 0.252572 -0.05617262 -0.0298072
v 0.114437 0.2537104 -0.1111018
v 0.2299461 -0.212138 0.1432761
v 0.2048631 0.07636712 -0.01986282
v 0.1148971 0.2953568 -0.1115485
v 0.003564393 0.3177263 -0.1789926
v 0.1282089 0.3263281 -0.1244725
v 0.1577396 0.2463799 -0.003550955
v 0.1590313 0.2878855 -0.001931825
v 0.1790207 0.3177263 0.001729143
v 0.1864195 -0.04837253 0.1236415
v 0.04287836 -0.3089646 0.2175419
v 0.1502288 0.08924982 0.1073365
v 0.1127547 0.2286825 0.102086
v 0.1131824 0.2698482 0.1057342
v 0.1262349 0.2969599 0.1256852
v 0.04287834 -0.212138 0.2175418
v -0.1180007 -0.4376601 0.1145638
v -0.1456266 -0.4985781 -0.0482459
v -0.1828545 -0.4376602 -0.04879626
v -0.1419124 -0.3089646 0.1377789
v -0.2161781 -0.3089647 -0.04928884
v -0.1419124 -0.212138 0.1377788
v -0.2161781 -0.2121381 -0.04928885
v 0.03108248 -0.04057247 0.1852291
v -0.1224449 -0.03734159 0.1188785
v -0.1842283 -0.04057253 -0.03654309
v 0.02147002 0.1021325 0.158187
v -0.105988 0.1074687 0.102901
v -0.1574821 0.1021325 -0.0261355
v 0.005834135 0.2109851 0.1439286
v -0.1003897 0.2036546 0.09746578
v -0.1436922 0.210985 -0.010085
v 0.004208161 0.2518108 0.1483805
v 0.0007727045 0.2761936 0.1747838
v -0.1040561 0.2443396 0.1010253
v -0.1481903 0.2518108 -0.008591295
v -0.1238719 0.2675918 0.1202638
v -0.1746836 0.2761936 -0.005937879
v 0.2391576 -0.498578 -0.04255757
v 0.04392131 -0.498578 0.1469904
v 0.1807961 -0.498578 0.09265122
v 0.04960958 -0.4985781 -0.2377938
v 0.1848183 -0.4985781 -0.1794324
v -0.1456266 -0.4985781 -0.0482459
v -0.09128744 -0.498578 0.08862897
v -0.08726521 -0.4985781 -0.1834546
v -0.1033752 0.265705 -0.1262597
v -0.0007580612 0.25846 -0.1494207
v -0.003207913 0.2822846 -0.1654594
v -0.08776166 0.2440593 -0.1153725
v -0.001614239 0.2417216 0.3733377
v -0.1049512 0.2422578 0.07346269
v -0.2656042 0.2235035 0.2578672
v -0.005436739 0.2491254 0.1169908
v -0.1455187 0.2491254 -0.027295
v 0.2641076 0.2857036 0.2693495
v 0.09473053 0.265705 0.07779102
v -0.3732207 0.2417215 -0.009420685
v -0.1033752 0.265705 -0.1262597
v 0.3759049 0.3296855 0.00681762
v 0.136874 0.2822846 -0.02117363
v -0.2614233 0.2857034 -0.2719525
v -0.003207913 0.2822846 -0.1654594
v 0.2682884 0.3479035 -0.2604703
v 0.09630662 0.2891521 -0.1219312
v 0.004298485 0.3296854 -0.3759407
v -0.001210448 0.2185298 0.4803393
v -0.3414598 0.195049 0.3315127
v 0.3412711 0.2752171 0.3463118
v -0.4801637 0.2185297 -0.01298729
v 0.4853636 0.3319043 0.007941889
v -0.336071 0.2752169 -0.3513572
v 0.3466597 0.3553849 -0.3365581
v 0.006410291 0.3319041 -0.4853847
v -0.003400435 0.2347068 0.4937438
v -0.3414598 0.195049 0.3315127
v -0.3516583 0.2106735 0.3414142
v -0.001210448 0.2185298 0.4803393
v -0.4801637 0.2185297 -0.01298729
v 0.3471421 0.2927285 0.3565617
v 0.3412711 0.2752171 0.3463118
v -0.4936269 0.2347067 -0.01119438
v -0.336071 0.2752169 -0.3513572
v 0.4946261 0.3507498 0.01022736
v 0.4853636 0.3319043 0.007941889
v -0.346143 0.2927282 -0.3575287
v 0.006410291 0.3319041 -0.4853847
v 0.3526576 0.3747832 -0.3423813
v 0.3466597 0.3553849 -0.3365581
v 0.004399656 0.3507497 -0.4947107
v -0.005670697 0.2539661 0.4941536
v 0.3435892 0.3117755 0.3574735
v -0.3526545 0.2300207 0.3423813
v 0.4905336 0.3695846 0.01240624
v -0.4941037 0.253966 -0.008937208
v -0.3471593 0.3117754 -0.3540043
v 0.3490845 0.3935299 -0.3389123
v 0.002100665 0.3695845 -0.4906845
v -0.0129282 0.3593971 0.3839634
v 0.2525374 0.4033368 0.2800756
v -0.2766637 0.3411965 0.2686042
v 0.3642269 0.4472763 0.01779697
v -0.3841763 0.359397 0.00157412
v -0.2724869 0.4033366 -0.2607044
v 0.2567142 0.4654766 -0.2492334
v -0.007021337 0.4472762 -0.3645924
v -0.01783806 0.4447641 0.2057364
v 0.1168328 0.4670551 0.1530341
v -0.01824572 0.4978651 0.01771561
v -0.151631 0.4355312 0.1472147
v 0.1734929 0.4893454 0.01998002
v -0.2061725 0.444764 0.01175016
v 0.1189516 0.4985786 -0.1154847
v -0.1495122 0.467055 -0.1213039
v -0.01484139 0.4893453 -0.1740062
vt 0.4824384 0.753474
vt 0.4977599 0.7595526
vt 0.4964292 0.7535176
vt 0.4821392 0.7591951
vt 0.4983003 0.7707231
vt 0.467995 0.7524731
vt 0.4813018 0.7688665
vt 0.4962834 0.7789003
vt 0.4674696 0.758098
vt 0.4534211 0.7516949
vt 0.4802185 0.7753882
vt 0.4902595 0.7951382
vt 0.4530791 0.7572967
vt 0.4387771 0.7515147
vt 0.4665926 0.7671664
vt 0.4772348 0.7904395
vt 0.4818784 0.8145629
vt 0.438724 0.757142
vt 0.4240675 0.7519507
vt 0.4526211 0.7661763
vt 0.4658741 0.7732047
vt 0.4715762 0.809811
vt 0.4770684 0.8241931
vt 0.4242616 0.7576396
vt 0.4092894 0.7527909
vt 0.438802 0.7660481
vt 0.4523293 0.7720659
vt 0.4642965 0.7871273
vt 0.4682759 0.8203202
vt 0.4753985 0.8266636
vt 0.4095694 0.7585714
vt 0.3944826 0.7535741
vt 0.4247925 0.766718
vt 0.4389571 0.7719769
vt 0.4514158 0.7854837
vt 0.4609104 0.8061906
vt 0.4666191 0.8231301
vt 0.4749656 0.8290799
vt 0.4655741 0.8253679
vt 0.4587688 0.8172312
vt 0.4576169 0.8201932
vt 0.4498346 0.8043576
vt 0.4385819 0.7855822
vt 0.4487712 0.8156122
vt 0.4253205 0.7728202
vt 0.4386294 0.804582
vt 0.448487 0.8187135
vt 0.4569069 0.8223393
vt 0.4482633 0.8208863
vt 0.4385933 0.8157508
vt 0.4391707 0.8188518
vt 0.4394115 0.8210876
vt 0.4257749 0.7871362
vt 0.4103124 0.7679625
vt 0.4275891 0.8065131
vt 0.4285732 0.8173709
vt 0.4296961 0.8203939
vt 0.4302928 0.8227061
vt 0.4110764 0.7743446
vt 0.3944586 0.7594847
vt 0.3799076 0.7531903
vt 0.3783088 0.7593582
vt 0.3949395 0.7694699
vt 0.3773159 0.7707231
vt 0.3958401 0.77634
vt 0.3789398 0.7791171
vt 0.4128418 0.7895919
vt 0.3995443 0.7924569
vt 0.3857588 0.7956805
vt 0.4166889 0.8093657
vt 0.4056886 0.8123972
vt 0.3944314 0.8153869
vt 0.4188069 0.8198274
vt 0.4091627 0.8224938
vt 0.3996745 0.8250737
vt 0.4200524 0.8228445
vt 0.4208464 0.8252501
vt 0.4101922 0.8256118
vt 0.4004425 0.8280391
vt 0.4109827 0.828155
vt 0.4004573 0.8306535
vt 0.3809637 0.8460084
vt 0.4034224 0.8460084
vt 0.392193 0.841357
vt 0.3809637 0.8684671
vt 0.3763123 0.8572377
vt 0.4034224 0.8684671
vt 0.4080737 0.8572377
vt 0.392193 0.8731184
vt 0.4655741 0.8253679
vt 0.4576169 0.8201932
vt 0.4569069 0.8223393
vt 0.4666191 0.8231301
vt 0.4897199 0.8644989
vt 0.4788485 0.8649755
vt 0.47885 0.8690006
vt 0.4868727 0.8616537
vt 0.4708253 0.8616508
vt 0.494223 0.8536296
vt 0.4901978 0.8536311
vt 0.4679803 0.8644983
vt 0.4675027 0.8536271
vt 0.4897205 0.8427597
vt 0.4868753 0.8456072
vt 0.4634776 0.8536288
vt 0.4708277 0.8456044
vt 0.4788504 0.8382572
vt 0.478852 0.8422824
vt 0.4679805 0.8427593
vt 0.4928769 0.8676555
vt 0.4788504 0.8734649
vt 0.4986876 0.8536292
vt 0.4648238 0.8676555
vt 0.492877 0.8396024
vt 0.459013 0.8536292
vt 0.47885 0.8337927
vt 0.4648232 0.8396026
vt 0.4496361 0.8336216
vt 0.4334822 0.8262028
vt 0.4334813 0.8270198
vt 0.4502158 0.8330357
vt 0.4167484 0.8330356
vt 0.4566389 0.8498431
vt 0.4575514 0.8498441
vt 0.417327 0.8336228
vt 0.4094128 0.8498441
vt 0.4496373 0.8660651
vt 0.4502158 0.8666524
vt 0.4103253 0.8498449
vt 0.4167485 0.8666525
vt 0.4334831 0.8726681
vt 0.4334822 0.8734853
vt 0.4173283 0.8660666
vt 0.4490662 0.8342009
vt 0.455736 0.8498435
vt 0.4334817 0.8278254
vt 0.4490668 0.8654865
vt 0.4178976 0.8342015
vt 0.4112281 0.8498445
vt 0.4334826 0.8718625
vt 0.4178982 0.8654873
vt 0.4455432 0.8377917
vt 0.4506053 0.8498646
vt 0.4335006 0.8328301
vt 0.4455155 0.8619219
vt 0.4214489 0.8377661
vt 0.416359 0.8498235
vt 0.4334638 0.8668579
vt 0.4214212 0.8618964
vt 0.4373744 0.8460122
vt 0.4389545 0.8498882
vt 0.4334821 0.849844
vt 0.4335144 0.8443919
vt 0.4373212 0.8537235
vt 0.4296431 0.8459644
vt 0.4334498 0.8552961
vt 0.4280099 0.8497999
vt 0.42959 0.8536758
vn -0.5943583 -0.5214941 -0.6121945
vn -0.9257123 -0.3779809 -0.01368501
vn -0.8531618 -0.521494 -0.01261228
vn -0.6449009 -0.3779808 -0.6642541
vn -0.9923398 -0.1226637 -0.01466983
vn 0.01261231 -0.5214944 -0.8531615
vn -0.6913171 -0.1226636 -0.7120634
vn -0.9956192 0.09070003 -0.02271322
vn 0.01368495 -0.3779808 -0.9257123
vn 0.6121944 -0.5214946 -0.5943579
vn -0.6823545 0.1280921 -0.7197116
vn -0.9824367 0.1858237 -0.01696173
vn 0.6642541 -0.3779811 -0.6449007
vn 0.8531615 -0.5214943 0.01261227
vn 0.01466983 -0.1226634 -0.9923398
vn -0.6678103 0.2620148 -0.6966905
vn -0.9863142 0.162412 -0.02840225
vn 0.9257123 -0.3779807 0.01368497
vn 0.5943581 -0.5214939 0.612195
vn 0.7120632 -0.1226637 -0.6913173
vn 0.0234996 0.1663381 -0.9857888
vn -0.6617465 0.2452928 -0.7084652
vn -0.9999855 0.005392054 -0.0001762505
vn 0.6449009 -0.3779808 0.6642541
vn -0.01261242 -0.5214937 0.8531619
vn 0.9923398 -0.1226634 0.01466985
vn 0.7058784 0.1831242 -0.6842523
vn 0.02117386 0.3405791 -0.9399773
vn -0.7075768 0.06280199 -0.7038403
vn -0.8769107 -0.4752088 -0.07213992
vn -0.01368493 -0.3779805 0.9257123
vn -0.6121948 -0.5214937 0.5943584
vn 0.6913171 -0.1226634 0.7120634
vn 0.985633 0.168785 0.00627528
vn 0.6672035 0.3727237 -0.644916
vn 0.02853975 0.312415 -0.949517
vn -0.6995048 -0.3173793 -0.6402839
vn -0.6793011 -0.7282141 -0.09085192
vn -0.6454891 -0.6594305 -0.3853509
vn 0.003147807 0.114384 -0.9934316
vn 0.1831683 -0.2216128 -0.9577771
vn 0.676105 0.3339463 -0.6567814
vn 0.940455 0.3398094 0.008603866
vn 0.7087378 0.1381676 -0.6918095
vn 0.6994275 0.1309908 0.702597
vn 0.953382 0.301766 -0.0002262559
vn 0.6838778 -0.302453 -0.6639529
vn 0.377484 -0.4901084 -0.7856842
vn 0.615491 -0.5139021 -0.5975581
vn 0.9919139 0.1246585 0.02381254
vn 0.94278 -0.3310359 -0.0397634
vn 0.832698 -0.5506732 -0.05807734
vn 0.6776337 0.2616533 0.6872773
vn -0.01466984 -0.1226633 0.9923398
vn 0.6893538 0.2305823 0.6867482
vn 0.6795016 0.07568453 0.7297599
vn 0.6927242 -0.4017656 0.5989304
vn 0.6070518 -0.6394444 0.471804
vn -0.005945508 0.09219076 0.9957236
vn -0.6642543 -0.3779806 0.6449006
vn -0.8531618 -0.521494 -0.01261228
vn -0.9257123 -0.3779809 -0.01368501
vn -0.7120634 -0.1226636 0.6913171
vn -0.9923398 -0.1226637 -0.01466983
vn -0.7152356 0.07581441 0.6947591
vn -0.9956192 0.09070003 -0.02271322
vn -0.01042168 0.1856114 0.982568
vn -0.7084178 0.1553926 0.6884746
vn -0.9824367 0.1858237 -0.01696173
vn -0.004641376 0.1529997 0.9882153
vn -0.7133317 0.1176348 0.6908835
vn -0.9863142 0.162412 -0.02840225
vn -0.03470955 0.01263401 0.9993175
vn -0.7185489 -0.01993659 0.6951906
vn -0.9999855 0.005392054 -0.0001762505
vn 0.04618725 -0.4752094 0.8786596
vn 0.07073189 -0.7282147 0.6816893
vn -0.6186376 -0.5065082 0.6006137
vn -0.8769107 -0.4752088 -0.07213992
vn -0.4620912 -0.7649864 0.4486285
vn -0.6793011 -0.7282141 -0.09085192
vn 0 -1 0
vn 0 -1 0
vn -2.761487E-07 -1 0
vn 0 -1 2.879045E-07
vn 0 -1 0
vn 0 -1 2.879044E-07
vn 0 -1 0
vn 3.226616E-07 -1 5.65566E-07
vn -0.1924345 -0.8906543 -0.4119514
vn 0.06771565 -0.3311382 -0.9411494
vn 0.1100527 -0.8405572 -0.5304264
vn -0.5782953 -0.401679 -0.7100905
vn 0.1182451 -0.9869633 -0.1091857
vn -0.1972195 -0.9614934 0.1914023
vn 0.1142489 -0.987231 -0.1110061
vn 0.1035698 -0.9407107 0.3230119
vn -0.3198575 -0.9406906 -0.113104
vn 0.122264 -0.9863128 -0.1106286
vn 0.4059812 -0.8907361 0.2043736
vn 0.112522 -0.9869496 -0.1151917
vn -0.1924345 -0.8906543 -0.4119514
vn 0.1239658 -0.9856221 -0.1148111
vn 0.5334556 -0.8405213 -0.09459899
vn 0.1142485 -0.9862743 -0.1192072
vn 0.1100527 -0.8405572 -0.5304264
vn 0.1222667 -0.9853806 -0.1186423
vn 0.4108654 -0.819823 -0.3988481
vn 0.1182466 -0.9856414 -0.120535
vn 0.09651586 -0.8987794 0.4276452
vn -0.2735499 -0.9244234 0.2657289
vn 0.4687368 -0.8371456 0.2819098
vn -0.4246044 -0.8988037 -0.1089169
vn 0.6254219 -0.7755306 -0.08602153
vn -0.2679844 -0.8371422 -0.4768409
vn 0.4745482 -0.749969 -0.460815
vn 0.1045256 -0.7755482 -0.6225747
vn 0.01831111 -0.3311274 0.9434084
vn -0.2735499 -0.9244234 0.2657289
vn -0.6642208 -0.3782739 0.6447632
vn 0.09651586 -0.8987794 0.4276452
vn -0.4246044 -0.8988037 -0.1089169
vn 0.7055123 -0.2174326 0.6745186
vn 0.4687368 -0.8371456 0.2819098
vn -0.9424691 -0.3310658 -0.04634166
vn -0.2679844 -0.8371422 -0.4768409
vn 0.9945937 -0.1037504 -0.004386347
vn 0.6254219 -0.7755306 -0.08602153
vn -0.6533138 -0.2173901 -0.7252052
vn 0.1045256 -0.7755482 -0.6225747
vn 0.7163838 -0.05664694 -0.6954032
vn 0.4745482 -0.749969 -0.460815
vn 0.03375753 -0.1037516 -0.9940302
vn -0.06065017 0.3429204 0.9374045
vn 0.5673302 0.4468837 0.6916873
vn -0.6845735 0.299763 0.6644555
vn 0.8315701 0.5508201 0.07133199
vn -0.938746 0.3430619 0.03262696
vn -0.6744664 0.4469102 -0.5876787
vn 0.5771913 0.593786 -0.5605966
vn -0.04691206 0.5507403 -0.8333572
vn -0.1092976 0.8291724 0.5482036
vn 0.2067367 0.8814928 0.4245354
vn -0.4233605 0.8074358 0.4108691
vn 0.3397712 0.9337753 0.1123352
vn -0.5515105 0.8289819 0.09287172
vn -0.4182471 0.8815036 -0.2191364
vn 0.2117292 0.9554523 -0.2056255
vn -0.1024102 0.9337054 -0.3430835
vn -0.1178672 0.952854 0.2796003
vn 0 0.9723881 0.2333692
vn -0.1182373 0.9863265 0.1148043
vn -0.235192 0.9447731 0.2282294
vn 0.04969002 0.9918963 0.1169292
vn -0.2830244 0.9528229 0.1096622
vn 0.001812129 0.9999969 -0.001717029
vn -0.2332738 0.9723868 -0.006866765
vn -0.1152148 0.9919139 -0.05322014
g mushroom_0
f 3/3/3 2/2/2 1/1/1
f 4/4/4 1/1/1 2/2/2
f 2/2/2 5/5/5 4/4/4
f 1/1/1 4/4/4 6/6/6
f 7/7/7 4/4/4 5/5/5
f 5/5/5 8/8/8 7/7/7
f 9/9/9 6/6/6 4/4/4
f 4/4/4 7/7/7 9/9/9
f 6/6/6 9/9/9 10/10/10
f 11/11/11 7/7/7 8/8/8
f 8/8/8 12/12/12 11/11/11
f 13/13/13 10/10/10 9/9/9
f 10/10/10 13/13/13 14/14/14
f 15/15/15 9/9/9 7/7/7
f 7/7/7 11/11/11 15/15/15
f 9/9/9 15/15/15 13/13/13
f 16/16/16 11/11/11 12/12/12
f 12/12/12 17/17/17 16/16/16
f 18/18/18 14/14/14 13/13/13
f 14/14/14 18/18/18 19/19/19
f 20/20/20 13/13/13 15/15/15
f 13/13/13 20/20/20 18/18/18
f 21/21/21 15/15/15 11/11/11
f 11/11/11 16/16/16 21/21/21
f 15/15/15 21/21/21 20/20/20
f 22/22/22 16/16/16 17/17/17
f 17/17/17 23/23/23 22/22/22
f 24/24/24 19/19/19 18/18/18
f 19/19/19 24/24/24 25/25/25
f 26/26/26 18/18/18 20/20/20
f 18/18/18 26/26/26 24/24/24
f 27/27/27 20/20/20 21/21/21
f 20/20/20 27/27/27 26/26/26
f 28/28/28 21/21/21 16/16/16
f 16/16/16 22/22/22 28/28/28
f 21/21/21 28/28/28 27/27/27
f 29/29/29 22/22/22 23/23/23
f 23/23/23 30/30/30 29/29/29
f 31/31/31 25/25/25 24/24/24
f 25/25/25 31/31/31 32/32/32
f 33/33/33 24/24/24 26/26/26
f 24/24/24 33/33/33 31/31/31
f 34/34/34 26/26/26 27/27/27
f 26/26/26 34/34/34 33/33/33
f 35/35/35 27/27/27 28/28/28
f 27/27/27 35/35/35 34/34/34
f 36/36/36 28/28/28 22/22/22
f 22/22/22 29/29/29 36/36/36
f 28/28/28 36/36/36 35/35/35
f 37/37/37 29/29/29 30/30/30
f 30/30/30 38/38/38 37/37/37
f 39/39/39 37/37/37 38/38/38
f 29/29/29 37/37/37 40/40/40
f 40/40/40 36/36/36 29/29/29
f 41/41/41 40/40/40 37/37/37
f 42/42/42 35/35/35 36/36/36
f 36/36/36 40/40/40 42/42/42
f 43/43/43 34/34/34 35/35/35
f 35/35/35 42/42/42 43/43/43
f 40/40/40 41/41/41 44/44/44
f 44/44/44 42/42/42 40/40/40
f 34/34/34 43/43/43 45/45/45
f 45/45/45 33/33/33 34/34/34
f 46/46/46 43/43/43 42/42/42
f 42/42/42 44/44/44 46/46/46
f 47/47/47 44/44/44 41/41/41
f 41/41/41 48/48/48 47/47/47
f 49/49/49 47/47/47 48/48/48
f 44/44/44 47/47/47 50/50/50
f 50/50/50 46/46/46 44/44/44
f 47/47/47 49/49/49 51/51/51
f 51/51/51 50/50/50 47/47/47
f 52/52/52 51/51/51 49/49/49
f 43/43/43 46/46/46 53/53/53
f 53/53/53 45/45/45 43/43/43
f 33/33/33 45/45/45 54/54/54
f 54/54/54 31/31/31 33/33/33
f 46/46/46 50/50/50 55/55/55
f 55/55/55 53/53/53 46/46/46
f 50/50/50 51/51/51 56/56/56
f 56/56/56 55/55/55 50/50/50
f 51/51/51 52/52/52 57/57/57
f 57/57/57 56/56/56 51/51/51
f 58/58/58 57/57/57 52/52/52
f 45/45/45 53/53/53 59/59/59
f 59/59/59 54/54/54 45/45/45
f 31/31/31 54/54/54 60/60/60
f 60/60/60 32/32/32 31/31/31
f 32/32/32 60/60/60 61/61/61
f 62/62/62 61/61/61 60/60/60
f 63/63/63 60/60/60 54/54/54
f 60/60/60 63/63/63 62/62/62
f 54/54/54 59/59/59 63/63/63
f 64/64/64 62/62/62 63/63/63
f 63/63/63 65/65/65 64/64/64
f 65/65/65 63/63/63 59/59/59
f 66/66/66 64/64/64 65/65/65
f 67/67/67 59/59/59 53/53/53
f 59/59/59 67/67/67 65/65/65
f 53/53/53 55/55/55 67/67/67
f 65/65/65 68/68/68 66/66/66
f 68/68/68 65/65/65 67/67/67
f 69/69/69 66/66/66 68/68/68
f 70/70/70 67/67/67 55/55/55
f 67/67/67 70/70/70 68/68/68
f 55/55/55 56/56/56 70/70/70
f 68/68/68 71/71/71 69/69/69
f 71/71/71 68/68/68 70/70/70
f 72/72/72 69/69/69 71/71/71
f 73/73/73 70/70/70 56/56/56
f 70/70/70 73/73/73 71/71/71
f 56/56/56 57/57/57 73/73/73
f 71/71/71 74/74/74 72/72/72
f 74/74/74 71/71/71 73/73/73
f 75/75/75 72/72/72 74/74/74
f 76/76/76 73/73/73 57/57/57
f 73/73/73 76/76/76 74/74/74
f 57/57/57 58/58/58 76/76/76
f 77/77/77 76/76/76 58/58/58
f 74/74/74 78/78/78 75/75/75
f 78/78/78 74/74/74 76/76/76
f 76/76/76 77/77/77 78/78/78
f 79/79/79 75/75/75 78/78/78
f 80/80/80 78/78/78 77/77/77
f 78/78/78 80/80/80 79/79/79
f 81/81/81 79/79/79 80/80/80
f 84/84/84 83/83/83 82/82/82
f 83/83/83 85/85/85 82/82/82
f 85/85/85 86/86/86 82/82/82
f 87/87/87 85/85/85 83/83/83
f 88/88/88 87/87/87 83/83/83
f 89/89/89 85/85/85 87/87/87
f 92/92/92 91/91/91 90/90/90
f 93/93/93 90/90/90 91/91/91
f 96/96/96 95/95/95 94/94/94
f 97/97/97 94/94/94 95/95/95
f 95/95/95 96/96/96 98/98/98
f 94/94/94 97/97/97 99/99/99
f 100/100/100 99/99/99 97/97/97
f 101/101/101 98/98/98 96/96/96
f 98/98/98 101/101/101 102/102/102
f 99/99/99 100/100/100 103/103/103
f 104/104/104 103/103/103 100/100/100
f 105/105/105 102/102/102 101/101/101
f 102/102/102 105/105/105 106/106/106
f 103/103/103 104/104/104 107/107/107
f 108/108/108 107/107/107 104/104/104
f 106/106/106 109/109/109 108/108/108
f 109/109/109 106/106/106 105/105/105
f 107/107/107 108/108/108 109/109/109
f 94/94/94 110/110/110 96/96/96
f 111/111/111 96/96/96 110/110/110
f 96/96/96 111/111/111 101/101/101
f 110/110/110 94/94/94 112/112/112
f 99/99/99 112/112/112 94/94/94
f 113/113/113 101/101/101 111/111/111
f 101/101/101 113/113/113 105/105/105
f 112/112/112 99/99/99 114/114/114
f 103/103/103 114/114/114 99/99/99
f 115/115/115 105/105/105 113/113/113
f 105/105/105 115/115/115 109/109/109
f 114/114/114 103/103/103 116/116/116
f 107/107/107 116/116/116 103/103/103
f 117/117/117 109/109/109 115/115/115
f 116/116/116 107/107/107 117/117/117
f 109/109/109 117/117/117 107/107/107
f 120/120/120 119/119/119 118/118/118
f 121/121/121 118/118/118 119/119/119
f 119/119/119 120/120/120 122/122/122
f 118/118/118 121/121/121 123/123/123
f 124/124/124 123/123/123 121/121/121
f 125/125/125 122/122/122 120/120/120
f 122/122/122 125/125/125 126/126/126
f 123/123/123 124/124/124 127/127/127
f 128/128/128 127/127/127 124/124/124
f 129/129/129 126/126/126 125/125/125
f 126/126/126 129/129/129 130/130/130
f 127/127/127 128/128/128 131/131/131
f 132/132/132 131/131/131 128/128/128
f 130/130/130 133/133/133 132/132/132
f 133/133/133 130/130/130 129/129/129
f 131/131/131 132/132/132 133/133/133
f 118/118/118 134/134/134 120/120/120
f 123/123/123 135/135/135 118/118/118
f 134/134/134 118/118/118 135/135/135
f 120/120/120 136/136/136 125/125/125
f 136/136/136 120/120/120 134/134/134
f 127/127/127 137/137/137 123/123/123
f 135/135/135 123/123/123 137/137/137
f 125/125/125 138/138/138 129/129/129
f 138/138/138 125/125/125 136/136/136
f 129/129/129 139/139/139 133/133/133
f 139/139/139 129/129/129 138/138/138
f 131/131/131 140/140/140 127/127/127
f 137/137/137 127/127/127 140/140/140
f 133/133/133 141/141/141 131/131/131
f 141/141/141 133/133/133 139/139/139
f 140/140/140 131/131/131 141/141/141
f 134/134/134 142/142/142 136/136/136
f 135/135/135 143/143/143 134/134/134
f 142/142/142 134/134/134 143/143/143
f 136/136/136 144/144/144 138/138/138
f 144/144/144 136/136/136 142/142/142
f 137/137/137 145/145/145 135/135/135
f 143/143/143 135/135/135 145/145/145
f 138/138/138 146/146/146 139/139/139
f 146/146/146 138/138/138 144/144/144
f 139/139/139 147/147/147 141/141/141
f 147/147/147 139/139/139 146/146/146
f 140/140/140 148/148/148 137/137/137
f 145/145/145 137/137/137 148/148/148
f 141/141/141 149/149/149 140/140/140
f 149/149/149 141/141/141 147/147/147
f 148/148/148 140/140/140 149/149/149
f 142/142/142 150/150/150 144/144/144
f 143/143/143 151/151/151 142/142/142
f 150/150/150 142/142/142 151/151/151
f 151/151/151 152/152/152 150/150/150
f 153/153/153 144/144/144 150/150/150
f 144/144/144 153/153/153 146/146/146
f 150/150/150 152/152/152 153/153/153
f 151/151/151 143/143/143 154/154/154
f 145/145/145 154/154/154 143/143/143
f 154/154/154 152/152/152 151/151/151
f 155/155/155 146/146/146 153/153/153
f 146/146/146 155/155/155 147/147/147
f 153/153/153 152/152/152 155/155/155
f 154/154/154 145/145/145 156/156/156
f 148/148/148 156/156/156 145/145/145
f 156/156/156 152/152/152 154/154/154
f 157/157/157 147/147/147 155/155/155
f 155/155/155 152/152/152 157/157/157
f 147/147/147 157/157/157 149/149/149
f 156/156/156 148/148/148 158/158/158
f 158/158/158 152/152/152 156/156/156
f 149/149/149 158/158/158 148/148/148
f 158/158/158 149/149/149 157/157/157
f 157/157/157 152/152/152 158/158/158
