g number_1
v 0.2187219 -1.216471 0.2307062
v 0.4286192 -1.180054 0.2307062
v 0.3279532 -1.216471 0.2307062
v 0.118056 -1.180054 0.2307062
v 0.4876737 -1.120287 0.2307062
v 0.05900066 -1.120287 0.2307062
v 0.5198322 -1.045462 0.2307062
v 0.02684294 -1.045462 0.2307062
v 0.5390093 -0.9413573 0.2307062
v 0.007665036 -0.9413573 0.2307062
v 0.5465283 -0.7160493 0.2307062
v 0.0001461151 -0.7160493 0.2307062
v 0.5617444 0.4886593 0.2307062
v -0.009442447 0.4886593 0.2307062
v 0.5413643 0.9467949 0.2307062
v 0.1226627 1.181836 0.2307062
v 0.5264636 1.032639 0.2307062
v -0.1232557 1.07031 0.2307062
v 0.223155 1.210436 0.2307062
v -0.3967955 0.917685 0.2307062
v 0.5008931 1.10755 0.2307062
v -0.1410747 0.4197821 0.2307062
v 0.3272261 1.216471 0.2307062
v 0.4534355 1.164873 0.2307062
v 0.4081677 1.19149 0.2307062
v -0.4684129 0.8614148 0.2307062
v -0.227778 0.3915327 0.2307062
v -0.5267954 0.7897855 0.2307062
v -0.3232667 0.3863869 0.2307062
v -0.5617452 0.6946607 0.2307062
v -0.4324748 0.4190903 0.2307062
v -0.5555549 0.5869986 0.2307062
v -0.5200981 0.506633 0.2307062
v 0.0001461151 -0.7160493 0.2307062
v -0.009442447 0.4886593 -0.2307069
v -0.009442447 0.4886593 0.2307062
v 0.0001461151 -0.7160493 -0.2307069
v 0.007665036 -0.9413573 0.2307062
v 0.007665036 -0.9413573 -0.2307069
v 0.02684294 -1.045462 0.2307062
v 0.02684294 -1.045462 -0.2307069
v 0.05900066 -1.120287 0.2307062
v 0.05900066 -1.120287 -0.2307069
v 0.118056 -1.180054 0.2307062
v 0.118056 -1.180054 -0.2307069
v 0.5465283 -0.7160493 0.2307062
v 0.5617444 0.4886593 -0.2307069
v 0.5465283 -0.7160493 -0.2307069
v 0.5617444 0.4886593 0.2307062
v 0.5413643 0.9467949 -0.2307069
v 0.5413643 0.9467949 0.2307062
v 0.5264636 1.032639 -0.2307069
v 0.5264636 1.032639 0.2307062
v 0.5008931 1.10755 -0.2307069
v 0.5008931 1.10755 0.2307062
v 0.4534355 1.164873 -0.2307069
v 0.4534355 1.164873 0.2307062
v 0.4534355 1.164873 0.2307062
v 0.4081677 1.19149 -0.2307069
v 0.4534355 1.164873 -0.2307069
v 0.4081677 1.19149 0.2307062
v 0.3272261 1.216471 -0.2307069
v 0.3272261 1.216471 0.2307062
v 0.223155 1.210436 -0.2307069
v 0.223155 1.210436 0.2307062
v 0.1226627 1.181836 -0.2307069
v 0.1226627 1.181836 0.2307062
v -0.1232557 1.07031 -0.2307069
v -0.1232557 1.07031 0.2307062
v -0.3967955 0.917685 -0.2307069
v -0.3967955 0.917685 0.2307062
v -0.4684129 0.8614148 -0.2307069
v -0.4684129 0.8614148 0.2307062
v -0.009442447 0.4886593 -0.2307069
v -0.1410747 0.4197821 0.2307062
v -0.009442447 0.4886593 0.2307062
v -0.1410747 0.4197821 -0.2307069
v -0.227778 0.3915327 0.2307062
v -0.227778 0.3915327 -0.2307069
v -0.3232667 0.3863869 0.2307062
v -0.3232667 0.3863869 -0.2307069
v -0.4324748 0.4190903 0.2307062
v -0.4324748 0.4190903 -0.2307069
v -0.5200981 0.506633 0.2307062
v -0.5200981 0.506633 -0.2307069
v -0.4684129 0.8614148 0.2307062
v -0.5267954 0.7897855 -0.2307069
v -0.4684129 0.8614148 -0.2307069
v -0.5267954 0.7897855 0.2307062
v -0.5617452 0.6946607 -0.2307069
v -0.5617452 0.6946607 0.2307062
v -0.5555549 0.5869986 -0.2307069
v -0.5555549 0.5869986 0.2307062
v -0.5200981 0.506633 -0.2307069
v -0.5200981 0.506633 0.2307062
v 0.4286192 -1.180054 -0.2307069
v 0.2187219 -1.216471 -0.2307069
v 0.3279532 -1.216471 -0.2307069
v 0.118056 -1.180054 -0.2307069
v 0.4876737 -1.120287 -0.2307069
v 0.05900066 -1.120287 -0.2307069
v 0.5198322 -1.045462 -0.2307069
v 0.02684294 -1.045462 -0.2307069
v 0.5390093 -0.9413573 -0.2307069
v 0.007665036 -0.9413573 -0.2307069
v 0.5465283 -0.7160493 -0.2307069
v 0.0001461151 -0.7160493 -0.2307069
v 0.5617444 0.4886593 -0.2307069
v -0.009442447 0.4886593 -0.2307069
v 0.5413643 0.9467949 -0.2307069
v 0.1226627 1.181836 -0.2307069
v 0.5264636 1.032639 -0.2307069
v -0.1232557 1.07031 -0.2307069
v 0.223155 1.210436 -0.2307069
v -0.3967955 0.917685 -0.2307069
v 0.5008931 1.10755 -0.2307069
v -0.1410747 0.4197821 -0.2307069
v 0.3272261 1.216471 -0.2307069
v 0.4534355 1.164873 -0.2307069
v 0.4081677 1.19149 -0.2307069
v -0.4684129 0.8614148 -0.2307069
v -0.227778 0.3915327 -0.2307069
v -0.5267954 0.7897855 -0.2307069
v -0.3232667 0.3863869 -0.2307069
v -0.5617452 0.6946607 -0.2307069
v -0.4324748 0.4190903 -0.2307069
v -0.5555549 0.5869986 -0.2307069
v -0.5200981 0.506633 -0.2307069
v 0.5390093 -0.9413573 -0.2307069
v 0.5465283 -0.7160493 0.2307062
v 0.5465283 -0.7160493 -0.2307069
v 0.5390093 -0.9413573 0.2307062
v 0.5198322 -1.045462 -0.2307069
v 0.5198322 -1.045462 0.2307062
v 0.4876737 -1.120287 -0.2307069
v 0.4876737 -1.120287 0.2307062
v 0.4286192 -1.180054 -0.2307069
v 0.4286192 -1.180054 0.2307062
v 0.2187219 -1.216471 0.2307062
v 0.118056 -1.180054 -0.2307069
v 0.118056 -1.180054 0.2307062
v 0.2187219 -1.216471 -0.2307069
v 0.3279532 -1.216471 0.2307062
v 0.3279532 -1.216471 -0.2307069
v 0.4286192 -1.180054 0.2307062
v 0.3279532 -1.216471 -0.2307069
v 0.3279532 -1.216471 0.2307062
v 0.4286192 -1.180054 -0.2307069
vt 0.2947488 0.3802582
vt 0.3048569 0.3816252
vt 0.2999752 0.3800628
vt 0.2899975 0.3821807
vt 0.3077894 0.3843792
vt 0.2872787 0.385146
vt 0.3094619 0.3879018
vt 0.2858739 0.3887836
vt 0.3105657 0.3928486
vt 0.2851425 0.393799
vt 0.3113284 0.4036154
vt 0.2851858 0.4045927
vt 0.3142112 0.4612297
vt 0.2868818 0.4622514
vt 0.3140556 0.4831865
vt 0.2944424 0.4951813
vt 0.3134962 0.4873205
vt 0.2824765 0.490285
vt 0.2993019 0.4963701
vt 0.2691156 0.4834718
vt 0.3124067 0.4909505
vt 0.2804604 0.4591912
vt 0.3042921 0.4964726
vt 0.3102385 0.4937781
vt 0.3081203 0.4951327
vt 0.2655882 0.4809074
vt 0.2762614 0.4579947
vt 0.2626667 0.4775846
vt 0.2716833 0.4579192
vt 0.2608243 0.4730958
vt 0.2665166 0.4596794
vt 0.2609279 0.4679334
vt 0.2624807 0.4640247
vt 0.3641757 0.4084798
vt 0.334742 0.4853283
vt 0.3641757 0.4853283
vt 0.334742 0.4084798
vt 0.3641757 0.3941073
vt 0.334742 0.3941073
vt 0.3641757 0.3874664
vt 0.334742 0.3874664
vt 0.3641757 0.3826933
vt 0.334742 0.3826933
vt 0.3641757 0.3788808
vt 0.334742 0.3788808
vt 0.348033 0.4376649
vt 0.3335258 0.399788
vt 0.3335258 0.4376649
vt 0.348033 0.399788
vt 0.3335258 0.3853839
vt 0.348033 0.3853839
vt 0.3335258 0.3826849
vt 0.348033 0.3826849
vt 0.3335258 0.3803296
vt 0.348033 0.3803296
vt 0.3335258 0.3785273
vt 0.348033 0.3785273
vt 0.3633582 0.4243843
vt 0.348851 0.4229611
vt 0.348851 0.4243843
vt 0.3633582 0.4229611
vt 0.348851 0.4204162
vt 0.3633582 0.4204162
vt 0.348851 0.4171441
vt 0.3633582 0.4171441
vt 0.348851 0.4139846
vt 0.3633582 0.4139846
vt 0.348851 0.4062528
vt 0.3633582 0.4062528
vt 0.348851 0.3976525
vt 0.3633582 0.3976525
vt 0.348851 0.3954008
vt 0.3633582 0.3954008
vt 0.3633582 0.3945827
vt 0.348851 0.3904441
vt 0.348851 0.3945827
vt 0.3633582 0.3904441
vt 0.348851 0.3877181
vt 0.3633582 0.3877181
vt 0.348851 0.3847159
vt 0.3633582 0.3847159
vt 0.348851 0.3812823
vt 0.3633582 0.3812823
vt 0.348851 0.3785273
vt 0.3633582 0.3785273
vt 0.3418325 0.3973879
vt 0.3440846 0.3828808
vt 0.3418325 0.3828808
vt 0.3440846 0.3973879
vt 0.3470753 0.3828808
vt 0.3470753 0.3973879
vt 0.3504603 0.3828808
vt 0.3504603 0.3973879
vt 0.3529871 0.3828808
vt 0.3529871 0.3973879
vt 0.3047078 0.3815921
vt 0.2945973 0.3802438
vt 0.2998233 0.3800387
vt 0.2898494 0.3821751
vt 0.3076454 0.3843407
vt 0.2871362 0.3851453
vt 0.3093244 0.3878602
vt 0.2857381 0.3887856
vt 0.3104373 0.392805
vt 0.285016 0.3938023
vt 0.31122 0.4035704
vt 0.2850792 0.4045959
vt 0.3142093 0.4611792
vt 0.2868817 0.4622514
vt 0.3140942 0.4831362
vt 0.2945033 0.4951673
vt 0.3135425 0.4872713
vt 0.2825284 0.4902931
vt 0.2993649 0.4963471
vt 0.2691548 0.4835045
vt 0.3124597 0.4909033
vt 0.2804548 0.4592031
vt 0.3043553 0.4964404
vt 0.3102968 0.4937349
vt 0.308181 0.4950933
vt 0.2656227 0.4809468
vt 0.2762535 0.4580144
vt 0.2626951 0.4776294
vt 0.2716753 0.4579474
vt 0.2608444 0.4731439
vt 0.2665119 0.459717
vt 0.2609385 0.4679813
vt 0.262484 0.4640698
vt 0.3538349 0.4036619
vt 0.3458552 0.3873201
vt 0.3458552 0.4036619
vt 0.3538349 0.3873201
vt 0.357522 0.4036619
vt 0.357522 0.3873201
vt 0.360172 0.4036619
vt 0.360172 0.3873201
vt 0.3622887 0.4036619
vt 0.3622887 0.3873201
vt 0.3639004 0.39123
vt 0.3344668 0.3976516
vt 0.3639004 0.3976516
vt 0.3344668 0.39123
vt 0.3639004 0.3842622
vt 0.3344668 0.3842622
vt 0.3458552 0.4079503
vt 0.362197 0.404385
vt 0.3458552 0.404385
vt 0.362197 0.4079503
vn 0 0 1
vn 0 0 1
vn 0 0 1
vn 0 0 1
vn 0 0 1
vn 0 0 1
vn 0 0 1
vn 0 0 1
vn 0 0 1
vn 0 0 1
vn 0 0 1
vn 0 0 1
vn 0 0 1
vn 0 0 1
vn 0 0 1
vn 0 0 1
vn 0 0 1
vn 0 0 1
vn 0 0 1
vn 0 0 1
vn 0 0 1
vn 0 0 1
vn 0 0 1
vn 0 0 1
vn 0 0 1
vn 0 0 1
vn 0 0 1
vn 0 0 1
vn 0 0 1
vn 0 0 1
vn 2.580605E-07 0 1
vn 0 0 1
vn 0 0 1
vn -0.9997867 -0.02065775 0
vn -0.5144616 -0.8575134 0
vn -0.5144617 -0.8575134 0
vn -0.9997867 -0.02065775 0
vn -0.9941988 -0.1075582 0
vn -0.9941988 -0.1075582 0
vn -0.9570808 -0.2898215 0
vn -0.9570808 -0.2898214 0
vn -0.8294571 -0.5585705 0
vn -0.8294571 -0.5585704 0
vn -0.5389984 -0.8423067 0
vn -0.5389984 -0.8423067 0
vn 0.9997357 -0.0229926 0
vn 0.9998734 0.01591223 0
vn 0.9997357 -0.02299259 0
vn 0.9998734 0.01591223 0
vn 0.9941564 0.1079496 0
vn 0.9941564 0.1079496 0
vn 0.968812 0.2477967 0
vn 0.968812 0.2477968 0
vn 0.8726317 0.4883789 0
vn 0.8726317 0.4883789 0
vn 0.6483467 0.7613453 0
vn 0.6483467 0.7613453 0
vn 0.6483467 0.7613453 0
vn 0.4035964 0.9149372 0
vn 0.6483467 0.7613453 0
vn 0.4035964 0.9149372 0
vn 0.1204207 0.9927229 0
vn 0.1204207 0.9927229 0
vn -0.166813 0.9859886 0
vn -0.1668131 0.9859886 0
vn -0.3443254 0.9388503 0
vn -0.3443254 0.9388505 0
vn -0.450523 0.8927649 0
vn -0.450523 0.8927647 0
vn -0.5542403 0.8323568 0
vn -0.5542403 0.8323568 0
vn -0.7007519 0.713405 0
vn -0.7007519 0.713405 0
vn -0.5144616 -0.8575134 0
vn 0.3880589 -0.9216346 0
vn -0.5144617 -0.8575134 0
vn 0.3880589 -0.9216346 0
vn 0.1833608 -0.9830457 0
vn 0.1833608 -0.9830457 0
vn -0.1182844 -0.9929798 0
vn -0.1182845 -0.9929798 0
vn -0.5123762 -0.858761 0
vn -0.5123762 -0.858761 0
vn -0.8249502 -0.5652054 0
vn -0.8249502 -0.5652053 0
vn -0.7007519 0.713405 0
vn -0.8688215 0.4951256 0
vn -0.7007519 0.713405 0
vn -0.8688215 0.4951256 0
vn -0.9891662 0.1468002 0
vn -0.9891662 0.1468002 0
vn -0.9721709 -0.2342725 0
vn -0.972171 -0.2342725 0
vn -0.8249502 -0.5652053 0
vn -0.8249502 -0.5652054 0
vn 0 0 -1
vn 0 0 -1
vn 0 0 -1
vn 0 0 -1
vn 0 0 -1
vn 0 0 -1
vn 0 0 -1
vn 0 0 -1
vn 0 0 -1
vn 0 0 -1
vn 0 0 -1
vn 0 0 -1
vn 0 0 -1
vn 0 0 -1
vn 0 0 -1
vn 0 0 -1
vn 0 0 -1
vn 0 0 -1
vn 0 0 -1
vn 0 0 -1
vn 0 0 -1
vn 0 0 -1
vn 0 0 -1
vn 0 0 -1
vn 0 0 -1
vn 0 0 -1
vn 0 0 -1
vn 0 0 -1
vn 0 0 -1
vn 0 0 -1
vn 0 0 -1
vn 0 0 -1
vn 0 0 -1
vn 0.9941992 -0.1075546 0
vn 0.9997357 -0.0229926 0
vn 0.9997357 -0.02299259 0
vn 0.9941992 -0.1075546 0
vn 0.9570805 -0.2898223 0
vn 0.9570805 -0.2898223 0
vn 0.8294564 -0.5585715 0
vn 0.8294564 -0.5585715 0
vn 0.5390013 -0.842305 0
vn 0.5390012 -0.842305 0
vn -0.1726874 -0.9849766 0
vn -0.5389984 -0.8423067 0
vn -0.5389984 -0.8423067 0
vn -0.1726874 -0.9849766 0
vn 0.1726874 -0.9849766 0
vn 0.1726874 -0.9849766 0
vn 0.5390012 -0.842305 0
vn 0.1726874 -0.9849766 0
vn 0.1726874 -0.9849766 0
vn 0.5390013 -0.842305 0
g number_1_0
f 3/3/3 2/2/2 1/1/1
f 4/4/4 1/1/1 2/2/2
f 2/2/2 5/5/5 4/4/4
f 6/6/6 4/4/4 5/5/5
f 5/5/5 7/7/7 6/6/6
f 8/8/8 6/6/6 7/7/7
f 7/7/7 9/9/9 8/8/8
f 10/10/10 8/8/8 9/9/9
f 9/9/9 11/11/11 10/10/10
f 12/12/12 10/10/10 11/11/11
f 11/11/11 13/13/13 12/12/12
f 14/14/14 12/12/12 13/13/13
f 15/15/15 14/14/14 13/13/13
f 15/15/15 16/16/16 14/14/14
f 15/15/15 17/17/17 16/16/16
f 18/18/18 14/14/14 16/16/16
f 19/19/19 16/16/16 17/17/17
f 18/18/18 20/20/20 14/14/14
f 17/17/17 21/21/21 19/19/19
f 22/22/22 14/14/14 20/20/20
f 23/23/23 19/19/19 21/21/21
f 21/21/21 24/24/24 23/23/23
f 25/25/25 23/23/23 24/24/24
f 20/20/20 26/26/26 22/22/22
f 27/27/27 22/22/22 26/26/26
f 26/26/26 28/28/28 27/27/27
f 29/29/29 27/27/27 28/28/28
f 28/28/28 30/30/30 29/29/29
f 31/31/31 29/29/29 30/30/30
f 30/30/30 32/32/32 31/31/31
f 33/33/33 31/31/31 32/32/32
f 36/36/36 35/35/35 34/34/34
f 37/37/37 34/34/34 35/35/35
f 34/34/34 37/37/37 38/38/38
f 39/39/39 38/38/38 37/37/37
f 38/38/38 39/39/39 40/40/40
f 41/41/41 40/40/40 39/39/39
f 40/40/40 41/41/41 42/42/42
f 43/43/43 42/42/42 41/41/41
f 42/42/42 43/43/43 44/44/44
f 45/45/45 44/44/44 43/43/43
f 48/48/48 47/47/47 46/46/46
f 49/49/49 46/46/46 47/47/47
f 47/47/47 50/50/50 49/49/49
f 51/51/51 49/49/49 50/50/50
f 50/50/50 52/52/52 51/51/51
f 53/53/53 51/51/51 52/52/52
f 52/52/52 54/54/54 53/53/53
f 55/55/55 53/53/53 54/54/54
f 54/54/54 56/56/56 55/55/55
f 57/57/57 55/55/55 56/56/56
f 60/60/60 59/59/59 58/58/58
f 61/61/61 58/58/58 59/59/59
f 59/59/59 62/62/62 61/61/61
f 63/63/63 61/61/61 62/62/62
f 62/62/62 64/64/64 63/63/63
f 65/65/65 63/63/63 64/64/64
f 64/64/64 66/66/66 65/65/65
f 67/67/67 65/65/65 66/66/66
f 66/66/66 68/68/68 67/67/67
f 69/69/69 67/67/67 68/68/68
f 68/68/68 70/70/70 69/69/69
f 71/71/71 69/69/69 70/70/70
f 70/70/70 72/72/72 71/71/71
f 73/73/73 71/71/71 72/72/72
f 76/76/76 75/75/75 74/74/74
f 77/77/77 74/74/74 75/75/75
f 75/75/75 78/78/78 77/77/77
f 79/79/79 77/77/77 78/78/78
f 78/78/78 80/80/80 79/79/79
f 81/81/81 79/79/79 80/80/80
f 80/80/80 82/82/82 81/81/81
f 83/83/83 81/81/81 82/82/82
f 82/82/82 84/84/84 83/83/83
f 85/85/85 83/83/83 84/84/84
f 88/88/88 87/87/87 86/86/86
f 89/89/89 86/86/86 87/87/87
f 87/87/87 90/90/90 89/89/89
f 91/91/91 89/89/89 90/90/90
f 90/90/90 92/92/92 91/91/91
f 93/93/93 91/91/91 92/92/92
f 92/92/92 94/94/94 93/93/93
f 95/95/95 93/93/93 94/94/94
f 98/98/98 97/97/97 96/96/96
f 99/99/99 96/96/96 97/97/97
f 96/96/96 99/99/99 100/100/100
f 101/101/101 100/100/100 99/99/99
f 100/100/100 101/101/101 102/102/102
f 103/103/103 102/102/102 101/101/101
f 102/102/102 103/103/103 104/104/104
f 105/105/105 104/104/104 103/103/103
f 104/104/104 105/105/105 106/106/106
f 107/107/107 106/106/106 105/105/105
f 106/106/106 107/107/107 108/108/108
f 109/109/109 108/108/108 107/107/107
f 109/109/109 110/110/110 108/108/108
f 110/110/110 109/109/109 111/111/111
f 110/110/110 111/111/111 112/112/112
f 113/113/113 111/111/111 109/109/109
f 114/114/114 112/112/112 111/111/111
f 113/113/113 109/109/109 115/115/115
f 112/112/112 114/114/114 116/116/116
f 117/117/117 115/115/115 109/109/109
f 118/118/118 116/116/116 114/114/114
f 116/116/116 118/118/118 119/119/119
f 120/120/120 119/119/119 118/118/118
f 115/115/115 117/117/117 121/121/121
f 122/122/122 121/121/121 117/117/117
f 121/121/121 122/122/122 123/123/123
f 124/124/124 123/123/123 122/122/122
f 123/123/123 124/124/124 125/125/125
f 126/126/126 125/125/125 124/124/124
f 125/125/125 126/126/126 127/127/127
f 128/128/128 127/127/127 126/126/126
f 131/131/131 130/130/130 129/129/129
f 132/132/132 129/129/129 130/130/130
f 129/129/129 132/132/132 133/133/133
f 134/134/134 133/133/133 132/132/132
f 133/133/133 134/134/134 135/135/135
f 136/136/136 135/135/135 134/134/134
f 135/135/135 136/136/136 137/137/137
f 138/138/138 137/137/137 136/136/136
f 141/141/141 140/140/140 139/139/139
f 142/142/142 139/139/139 140/140/140
f 139/139/139 142/142/142 143/143/143
f 144/144/144 143/143/143 142/142/142
f 147/147/147 146/146/146 145/145/145
f 148/148/148 145/145/145 146/146/146
