g sauce
v -0.287559 0.005072572 -0.45451
v -0.1880733 -0.1825051 -0.5245174
v -0.2657708 0.005072572 -0.5245174
v -0.20348 -0.1979119 -0.4545106
v -0.0004955903 -0.2602023 -0.5245174
v -0.0004955812 -0.2819906 -0.4545106
v 0.1870822 -0.182505 -0.5245174
v -0.1999827 -0.1944146 -0.3169736
v -0.1858643 -0.1802959 0.2382541
v -0.0004955835 -0.2770096 -0.3159968
v 0.2024888 -0.1979118 -0.4545106
v 0.2647793 0.005072697 -0.5245174
v 0.2865676 0.005072763 -0.45451
v 0.1989418 -0.1943647 -0.3150202
v 0.2569158 0.005072946 0.3700456
v 0.1849129 -0.1803357 0.2366846
v -0.1825131 -0.1769447 0.3700455
v -0.2579072 0.005072789 0.3700456
v -0.0004955925 -0.2571063 0.2374694
v -0.0004955946 -0.2523386 0.3700454
v 0.1815218 -0.1769445 0.3700455
v 0.2272642 0.005072946 0.4003803
v 0.1605549 -0.1559776 0.4003802
v -0.0004956071 -0.2226869 0.40038
v -0.1615461 -0.1559778 0.4003802
v -0.2282555 0.005072822 0.4003803
v -0.2282555 0.005072822 0.4003803
v -0.0004957019 0.005072888 0.4003801
v -0.1615461 -0.1559778 0.4003802
v -0.0004956071 -0.2226869 0.40038
v 0.1605549 -0.1559776 0.4003802
v 0.2272642 0.005072946 0.4003803
v -0.1322478 -0.1266793 0.4926771
v -0.1868214 0.005072822 0.3905186
v -0.1868214 0.005072855 0.4926771
v -0.1322478 -0.1266794 0.3905186
v -0.0004956244 -0.1812527 0.4926771
v -0.0004956243 -0.1812528 0.3905186
v 0.1312565 -0.1266792 0.4926771
v 0.1312565 -0.1266793 0.3905186
v 0.1858299 0.00507298 0.4926771
v 0.1858299 0.005072946 0.3905186
v -0.08695129 -0.08138275 0.5106893
v -0.1868214 0.005072855 0.4926771
v -0.1227625 0.005072888 0.5106893
v -0.1322478 -0.1266793 0.4926771
v -0.0004956512 -0.1171938 0.5106893
v -0.0004956244 -0.1812527 0.4926771
v 0.08595999 -0.08138268 0.5106893
v 0.1312565 -0.1266792 0.4926771
v 0.121771 0.005072946 0.5106893
v 0.1858299 0.00507298 0.4926771
v -0.025773 -0.0202044 0.7496288
v -0.1227625 0.005072888 0.5106893
v -0.03624323 0.00507298 0.7496288
v -0.08695129 -0.08138275 0.5106893
v -0.0004956877 -0.03067457 0.7496288
v -0.0004956512 -0.1171938 0.5106893
v 0.02478163 -0.02020434 0.7496288
v 0.08595999 -0.08138268 0.5106893
v 0.03525183 0.00507298 0.7496288
v 0.121771 0.005072946 0.5106893
v -0.1880735 0.1926504 -0.5245173
v -0.287559 0.005072572 -0.45451
v -0.2657708 0.005072572 -0.5245174
v -0.2034801 0.2080571 -0.4545106
v -0.0004958056 0.2703477 -0.5245174
v -0.1825132 0.1870903 0.3700454
v -0.2579072 0.005072789 0.3700456
v -0.0004958143 0.2921359 -0.4545106
v 0.187082 0.1926505 -0.5245174
v -0.1615462 0.1661234 0.4003799
v -0.2282555 0.005072822 0.4003803
v -0.0004957919 0.2328327 0.4003799
v -0.0004958035 0.2624845 0.3700452
v 0.1605548 0.1661236 0.4003799
v 0.1815216 0.1870905 0.3700454
v 0.2272642 0.005072946 0.4003803
v 0.2569158 0.005072946 0.3700456
v 0.2024887 0.2080572 -0.4545106
v 0.2647793 0.005072697 -0.5245174
v 0.2865676 0.005072763 -0.45451
v -0.2282555 0.005072822 0.4003803
v -0.1615462 0.1661234 0.4003799
v -0.0004957019 0.005072888 0.4003801
v -0.0004957919 0.2328327 0.4003799
v 0.1605548 0.1661236 0.4003799
v 0.2272642 0.005072946 0.4003803
v -0.1868214 0.005072822 0.3905186
v -0.1322479 0.136825 0.4926771
v -0.1868214 0.005072855 0.4926771
v -0.1322479 0.1368251 0.3905185
v -0.0004957757 0.1913986 0.4926771
v -0.0004957755 0.1913986 0.3905185
v 0.1312564 0.1368251 0.4926771
v 0.1312564 0.1368252 0.3905185
v 0.1858299 0.00507298 0.4926771
v 0.1858299 0.005072946 0.3905186
v -0.1868214 0.005072855 0.4926771
v -0.08695136 0.09152851 0.5106893
v -0.1227625 0.005072888 0.5106893
v -0.1322479 0.136825 0.4926771
v -0.0004957504 0.1273396 0.510689
v -0.0004957757 0.1913986 0.4926771
v 0.08595992 0.09152861 0.5106892
v 0.1312564 0.1368251 0.4926771
v 0.121771 0.005072946 0.5106893
v 0.1858299 0.00507298 0.4926771
v -0.1227625 0.005072888 0.5106893
v -0.02577302 0.0303503 0.7496288
v -0.03624323 0.00507298 0.7496288
v -0.08695136 0.09152851 0.5106893
v -0.0004957166 0.04082051 0.7496288
v -0.0004957504 0.1273396 0.510689
v 0.02478161 0.03035032 0.7496288
v 0.08595992 0.09152861 0.5106892
v 0.03525183 0.00507298 0.7496288
v 0.121771 0.005072946 0.5106893
v -0.1389352 -0.1333669 -0.5776768
v -0.0004956981 0.005072645 -0.5776768
v -0.1962788 0.005072599 -0.5776768
v -0.0004956165 -0.1907104 -0.5776768
v 0.1379439 -0.1333668 -0.5776768
v 0.1952874 0.00507269 -0.5776768
v -0.1389353 0.1435122 -0.5776767
v -0.1962788 0.005072599 -0.5776768
v -0.0004956981 0.005072645 -0.5776768
v -0.0004957755 0.2008557 -0.5776768
v 0.1379438 0.1435123 -0.5776768
v 0.1952874 0.00507269 -0.5776768
v -0.02216619 0.00507298 0.6645737
v -0.003153678 0.00507298 0.6645739
v -0.01659755 -0.008370934 0.6645737
v -0.003153671 -0.01393955 0.6645737
v 0.0102902 -0.008370894 0.6645737
v 0.01585884 0.00507298 0.6645737
v -0.02216619 0.00507298 0.6645737
v -0.01659756 0.01851685 0.6645737
v -0.003153678 0.00507298 0.6645739
v -0.003153686 0.02408549 0.6645734
v 0.0102902 0.01851687 0.6645737
v 0.01585884 0.00507298 0.6645737
v -0.0004955925 -0.2571063 0.2374694
v -0.1999827 -0.1944146 -0.3169736
v -0.1858643 -0.1802959 0.2382541
v -0.0004955835 -0.2770096 -0.3159968
v 0.1989418 -0.1943647 -0.3150202
v 0.1849129 -0.1803357 0.2366846
v -0.2657708 0.005072572 -0.5245174
v -0.1389353 0.1435122 -0.5776767
v -0.1880735 0.1926504 -0.5245173
v -0.1962788 0.005072599 -0.5776768
v -0.0004957755 0.2008557 -0.5776768
v -0.1880733 -0.1825051 -0.5245174
v -0.0004958056 0.2703477 -0.5245174
v -0.1389352 -0.1333669 -0.5776768
v 0.1379438 0.1435123 -0.5776768
v -0.0004955903 -0.2602023 -0.5245174
v 0.187082 0.1926505 -0.5245174
v -0.0004956165 -0.1907104 -0.5776768
v 0.1952874 0.00507269 -0.5776768
v 0.1870822 -0.182505 -0.5245174
v 0.2647793 0.005072697 -0.5245174
v 0.1379439 -0.1333668 -0.5776768
v -0.02577302 0.0303503 0.7496288
v -0.01393958 0.01851685 0.7496289
v -0.01950822 0.00507298 0.7496289
v -0.03624323 0.00507298 0.7496288
v -0.0004957166 0.04082051 0.7496288
v -0.01393957 -0.008370934 0.7496289
v -0.0004957086 0.02408549 0.7496288
v -0.025773 -0.0202044 0.7496288
v 0.02478161 0.03035032 0.7496288
v -0.0004956931 -0.01393955 0.7496289
v 0.01294817 0.01851687 0.7496289
v -0.0004956877 -0.03067457 0.7496288
v 0.03525183 0.00507298 0.7496288
v 0.01294818 -0.008370894 0.7496289
v 0.01851681 0.00507298 0.7496289
v 0.02478163 -0.02020434 0.7496288
v -0.01950822 0.00507298 0.7496289
v -0.02216619 0.00507298 0.6645737
v -0.01659755 -0.008370934 0.6645737
v -0.01393957 -0.008370934 0.7496289
v -0.01393958 0.01851685 0.7496289
v -0.003153671 -0.01393955 0.6645737
v -0.01659756 0.01851685 0.6645737
v -0.0004956931 -0.01393955 0.7496289
v -0.0004957086 0.02408549 0.7496288
v 0.0102902 -0.008370894 0.6645737
v -0.003153686 0.02408549 0.6645734
v 0.01294818 -0.008370894 0.7496289
v 0.01294817 0.01851687 0.7496289
v 0.01585884 0.00507298 0.6645737
v 0.0102902 0.01851687 0.6645737
v 0.01851681 0.00507298 0.7496289
vt 0.2838963 0.6055708
vt 0.2853323 0.6094891
vt 0.2852588 0.6057
vt 0.2840046 0.6095104
vt 0.2854058 0.6134111
vt 0.2840547 0.6134178
vt 0.2853328 0.6173344
vt 0.2815429 0.6095772
vt 0.2716051 0.6098469
vt 0.2815748 0.6134176
vt 0.2840033 0.6173248
vt 0.2852568 0.621136
vt 0.2838941 0.6212651
vt 0.2815068 0.6172565
vt 0.2690612 0.6204488
vt 0.271633 0.6169868
vt 0.2692462 0.609911
vt 0.2690617 0.6063848
vt 0.2716658 0.6134166
vt 0.2692922 0.6134163
vt 0.2692462 0.6169215
vt 0.2683008 0.6201894
vt 0.2684911 0.6168836
vt 0.2685134 0.6134111
vt 0.2684918 0.6099392
vt 0.2683015 0.6066439
vt 0.2688605 0.6046976
vt 0.273109 0.6046717
vt 0.2700807 0.6017721
vt 0.2730607 0.6005548
vt 0.2760192 0.6016687
vt 0.2773592 0.6044551
vt 0.3123247 0.6175639
vt 0.308928 0.6164087
vt 0.309527 0.6185521
vt 0.3119201 0.6155724
vt 0.3148844 0.6172695
vt 0.3149858 0.6152378
vt 0.317435 0.6175699
vt 0.3178433 0.6155959
vt 0.3201853 0.6185521
vt 0.3207905 0.6164408
vt 0.3126253 0.6188544
vt 0.309527 0.6185521
vt 0.310586 0.6196937
vt 0.3123247 0.6175639
vt 0.3148386 0.6185597
vt 0.3148844 0.6172695
vt 0.317057 0.6188273
vt 0.317435 0.6175699
vt 0.319128 0.6196622
vt 0.3201853 0.6185521
vt 0.2871092 0.6049137
vt 0.2834864 0.5999183
vt 0.286507 0.6051626
vt 0.2855257 0.599079
vt 0.2877609 0.6048321
vt 0.287739 0.5987843
vt 0.2884151 0.6049171
vt 0.2899573 0.599052
vt 0.2890229 0.6051645
vt 0.2920284 0.5998868
vt 0.2853323 0.6094891
vt 0.2838963 0.6055708
vt 0.2852588 0.6057
vt 0.2840046 0.6095104
vt 0.2854058 0.6134111
vt 0.2692462 0.609911
vt 0.2690617 0.6063848
vt 0.2840547 0.6134178
vt 0.2853328 0.6173344
vt 0.2684918 0.6099392
vt 0.2683015 0.6066439
vt 0.2685134 0.6134111
vt 0.2692922 0.6134163
vt 0.2684911 0.6168836
vt 0.2692462 0.6169215
vt 0.2683008 0.6201894
vt 0.2690612 0.6204488
vt 0.2840033 0.6173248
vt 0.2852568 0.621136
vt 0.2838941 0.6212651
vt 0.2688605 0.6046976
vt 0.2700807 0.6017721
vt 0.273109 0.6046717
vt 0.2730607 0.6005548
vt 0.2760192 0.6016687
vt 0.2773592 0.6044551
vt 0.308928 0.6164087
vt 0.3123247 0.6175639
vt 0.309527 0.6185521
vt 0.3119201 0.6155724
vt 0.3148844 0.6172695
vt 0.3149858 0.6152378
vt 0.317435 0.6175699
vt 0.3178433 0.6155959
vt 0.3201853 0.6185521
vt 0.3207905 0.6164408
vt 0.309527 0.6185521
vt 0.3126253 0.6188544
vt 0.310586 0.6196937
vt 0.3123247 0.6175639
vt 0.3148386 0.6185597
vt 0.3148844 0.6172695
vt 0.317057 0.6188273
vt 0.317435 0.6175699
vt 0.319128 0.6196622
vt 0.3201853 0.6185521
vt 0.2834864 0.5999183
vt 0.2871092 0.6049137
vt 0.286507 0.6051626
vt 0.2855257 0.599079
vt 0.2877609 0.6048321
vt 0.287739 0.5987843
vt 0.2884151 0.6049171
vt 0.2899573 0.599052
vt 0.2890229 0.6051645
vt 0.2920284 0.5998868
vt 0.2901622 0.613179
vt 0.2871664 0.6160966
vt 0.2873729 0.6118467
vt 0.2912831 0.6161335
vt 0.2900729 0.6191169
vt 0.2871496 0.6203443
vt 0.2901622 0.613179
vt 0.2873729 0.6118467
vt 0.2871664 0.6160966
vt 0.2912831 0.6161335
vt 0.2900729 0.6191169
vt 0.2871496 0.6203443
vt 0.2688802 0.6002054
vt 0.2730557 0.6001197
vt 0.2700427 0.5972309
vt 0.2729697 0.5959489
vt 0.2759451 0.5971071
vt 0.2772312 0.6000275
vt 0.2688802 0.6002054
vt 0.2700427 0.5972309
vt 0.2730557 0.6001197
vt 0.2729697 0.5959489
vt 0.2759451 0.5971071
vt 0.2772312 0.6000275
vt 0.3115834 0.5479208
vt 0.3214605 0.5440814
vt 0.3115227 0.5443512
vt 0.3214924 0.5479218
vt 0.3214244 0.5517607
vt 0.3115505 0.551491
vt 0.2852588 0.6057
vt 0.2853323 0.6094891
vt 0.2853323 0.6094891
vt 0.2852588 0.6057
vt 0.2854058 0.6134111
vt 0.2853323 0.6094891
vt 0.2854058 0.6134111
vt 0.2853323 0.6094891
vt 0.2853328 0.6173344
vt 0.2854058 0.6134111
vt 0.2853328 0.6173344
vt 0.2854058 0.6134111
vt 0.2852568 0.621136
vt 0.2853328 0.6173344
vt 0.2852568 0.621136
vt 0.2853328 0.6173344
vt 0.2871092 0.6049137
vt 0.2871092 0.6049137
vt 0.286507 0.6051626
vt 0.286507 0.6051626
vt 0.2877609 0.6048321
vt 0.2871092 0.6049137
vt 0.2877609 0.6048321
vt 0.2871092 0.6049137
vt 0.2884151 0.6049171
vt 0.2877609 0.6048321
vt 0.2884151 0.6049171
vt 0.2877609 0.6048321
vt 0.2890229 0.6051645
vt 0.2884151 0.6049171
vt 0.2890229 0.6051645
vt 0.2884151 0.6049171
vt 0.286507 0.6051626
vt 0.286507 0.6051626
vt 0.2871092 0.6049137
vt 0.2871092 0.6049137
vt 0.2871092 0.6049137
vt 0.2877609 0.6048321
vt 0.2871092 0.6049137
vt 0.2877609 0.6048321
vt 0.2877609 0.6048321
vt 0.2884151 0.6049171
vt 0.2877609 0.6048321
vt 0.2884151 0.6049171
vt 0.2884151 0.6049171
vt 0.2890229 0.6051645
vt 0.2884151 0.6049171
vt 0.2890229 0.6051645
vn -0.9918487 0 -0.1274208
vn -0.6751627 -0.6751624 -0.2971717
vn -0.9548254 0 -0.2971676
vn -0.7013425 -0.7013431 -0.1274228
vn 0 -0.9548241 -0.2971715
vn 0 -0.9918486 -0.1274225
vn 0.6751629 -0.6751623 -0.2971719
vn -0.7066336 -0.7066664 0.03593785
vn -0.7066497 -0.7066503 0.03593789
vn 0 -0.9993541 0.03593789
vn 0.7013428 -0.7013428 -0.1274226
vn 0.954825 0 -0.2971689
vn 0.9918487 0 -0.1274207
vn 0.7066342 -0.7066658 0.03593785
vn 0.9308951 0 0.3652866
vn 0.7066343 -0.7066658 0.03593795
vn -0.6582417 -0.6582424 0.3652874
vn -0.9308949 0 0.3652873
vn 0 -0.9993541 0.03593802
vn 0 -0.9308949 0.3652872
vn 0.6582423 -0.6582421 0.3652867
vn 0.7151111 0 0.6990108
vn 0.5056595 -0.5056598 0.6990112
vn 0 -0.7151098 0.6990122
vn -0.505658 -0.50566 0.6990122
vn -0.7151102 0 0.6990118
vn 0 0 1
vn 0 0 1
vn 0 0 1
vn 0 0 1
vn 0 0 1
vn 0 0 1
vn -0.7071065 -0.707107 0
vn -1 0 0
vn -1 0 0
vn -0.7071064 -0.7071072 0
vn 0 -1 0
vn 0 -1 0
vn 0.7071071 -0.7071065 0
vn 0.7071068 -0.7071068 0
vn 1 0 0
vn 1 0 0
vn -0.1914031 -0.1914034 0.962668
vn -0.2706854 0 0.9626679
vn -0.2706857 0 0.9626678
vn -0.1914032 -0.1914034 0.962668
vn 0 -0.2706853 0.9626679
vn 0 -0.2706853 0.9626679
vn 0.1914033 -0.1914032 0.962668
vn 0.1914034 -0.1914032 0.9626679
vn 0.2706847 0 0.9626681
vn 0.2706849 0 0.962668
vn -0.6648619 -0.6648629 0.3404643
vn -0.9402574 0 0.3404644
vn -0.9402574 0 0.3404643
vn -0.6648619 -0.664863 0.3404643
vn 0 -0.9402575 0.3404641
vn 0 -0.9402574 0.3404643
vn 0.6648628 -0.664862 0.3404644
vn 0.6648628 -0.6648621 0.3404643
vn 0.9402574 0 0.3404643
vn 0.9402575 0 0.3404641
vn -0.6751633 0.6751623 -0.2971708
vn -0.9918487 0 -0.1274208
vn -0.9548254 0 -0.2971676
vn -0.701343 0.7013426 -0.1274226
vn 0 0.9548243 -0.2971708
vn -0.6582422 0.6582419 0.3652873
vn -0.9308949 0 0.3652873
vn 0 0.9918486 -0.1274224
vn 0.6751622 0.6751633 -0.2971708
vn -0.5056582 0.5056591 0.6990127
vn -0.7151102 0 0.6990118
vn 0 0.7151104 0.6990115
vn 0 0.9308951 0.3652864
vn 0.505659 0.5056599 0.6990114
vn 0.6582419 0.6582426 0.3652865
vn 0.7151111 0 0.6990108
vn 0.9308951 0 0.3652866
vn 0.7013425 0.7013432 -0.1274222
vn 0.954825 0 -0.2971689
vn 0.9918487 0 -0.1274207
vn 0 0 1
vn 0 0 1
vn 0 0 1
vn 0 0 1
vn 0 0 1
vn 0 0 1
vn -1 0 0
vn -0.7071071 0.7071064 0
vn -1 0 0
vn -0.7071069 0.7071065 0
vn 0 1 0
vn 0 1 0
vn 0.7071065 0.707107 0
vn 0.7071063 0.7071072 0
vn 1 0 0
vn 1 0 0
vn -0.2706854 0 0.9626679
vn -0.1914025 0.1914043 0.9626679
vn -0.2706857 0 0.9626678
vn -0.1914025 0.191403 0.9626682
vn 0 0.2706816 0.9626689
vn 0 0.2706815 0.962669
vn 0.1914015 0.1914024 0.9626684
vn 0.1914022 0.1914029 0.9626683
vn 0.2706847 0 0.9626681
vn 0.2706849 0 0.962668
vn -0.9402574 0 0.3404644
vn -0.6648624 0.6648626 0.3404639
vn -0.9402574 0 0.3404643
vn -0.664862 0.664863 0.340464
vn 0 0.9402576 0.3404636
vn 0 0.9402577 0.3404636
vn 0.6648623 0.6648628 0.3404638
vn 0.6648617 0.6648633 0.340464
vn 0.9402574 0 0.3404643
vn 0.9402575 0 0.3404641
vn 0 0 -1
vn 0 0 -1
vn 0 0 -1
vn 0 0 -1
vn 0 0 -1
vn 0 0 -1
vn 0 0 -1
vn 0 0 -1
vn 0 0 -1
vn 0 0 -1
vn 0 0 -1
vn 0 0 -1
vn -9.327719E-06 0 1
vn 0 0 1
vn 0 0 1
vn 0 -1.003206E-05 1
vn 0 0 1
vn 1.399159E-05 0 1
vn -9.327719E-06 0 1
vn 0 1.46178E-05 1
vn 0 0 1
vn 0 2.508018E-05 1
vn 0 1.46178E-05 1
vn 1.399159E-05 0 1
vn 0 -0.9993541 0.03593802
vn -0.7066336 -0.7066664 0.03593785
vn -0.7066497 -0.7066503 0.03593789
vn 0 -0.9993541 0.03593789
vn 0.7066342 -0.7066658 0.03593785
vn 0.7066343 -0.7066658 0.03593795
vn -0.6075837 0 -0.7942557
vn -0.4296267 0.4296267 -0.7942555
vn -0.4296267 0.4296267 -0.7942555
vn -0.6075836 0 -0.7942557
vn 0 0.6075838 -0.7942556
vn -0.4296264 -0.4296268 -0.7942556
vn 0 0.6075838 -0.7942556
vn -0.4296263 -0.4296269 -0.7942556
vn 0.4296266 0.4296267 -0.7942555
vn 0 -0.6075838 -0.7942556
vn 0.4296267 0.4296267 -0.7942555
vn 0 -0.6075839 -0.7942555
vn 0.6075839 0 -0.7942555
vn 0.4296266 -0.4296266 -0.7942556
vn 0.6075839 0 -0.7942555
vn 0.4296266 -0.4296267 -0.7942555
vn 0 0 1
vn 0 0 1
vn 0 0 1
vn 0 0 1
vn 0 0 1
vn 0 0 1
vn 0 0 1
vn 0 0 1
vn 0 0 1
vn 0 0 1
vn 0 0 1
vn 0 0 1
vn 0 0 1
vn 0 0 1
vn 0 0 1
vn 0 0 1
vn 0.9995121 0 -0.03123477
vn 0.9995121 0 -0.03123477
vn 0.7106964 0.7031482 -0.02220928
vn 0.7030911 0.7107601 -0.02197162
vn 0.703092 -0.7107594 -0.02197163
vn 0.0076091 0.999971 -0.0002377805
vn 0.7106947 -0.7031499 -0.02220922
vn -0.007611668 0.999971 0.0002378691
vn -0.007609642 -0.999971 0.0002377929
vn -0.7030919 0.7107595 0.02197165
vn 0.007611105 -0.999971 -0.0002378547
vn -0.7106971 0.7031475 0.02220931
vn -0.7106968 -0.7031479 0.02220929
vn -0.9995121 0 0.03123479
vn -0.7030891 -0.7107623 0.02197154
vn -0.9995121 0 0.03123479
g sauce_0
f 3/3/3 2/2/2 1/1/1
f 4/4/4 1/1/1 2/2/2
f 2/2/2 5/5/5 4/4/4
f 6/6/6 4/4/4 5/5/5
f 5/5/5 7/7/7 6/6/6
f 1/1/1 4/4/4 8/8/8
f 4/4/4 6/6/6 8/8/8
f 8/8/8 9/9/9 1/1/1
f 6/6/6 10/10/10 8/8/8
f 11/11/11 6/6/6 7/7/7
f 6/6/6 11/11/11 10/10/10
f 7/7/7 12/12/12 11/11/11
f 13/13/13 11/11/11 12/12/12
f 11/11/11 14/14/14 10/10/10
f 13/13/13 15/15/15 11/11/11
f 14/14/14 11/11/11 15/15/15
f 15/15/15 16/16/16 14/14/14
f 9/9/9 17/17/17 1/1/1
f 18/18/18 1/1/1 17/17/17
f 17/17/17 9/9/9 19/19/19
f 20/20/20 19/19/19 16/16/16
f 20/20/20 17/17/17 19/19/19
f 15/15/15 21/21/21 16/16/16
f 21/21/21 20/20/20 16/16/16
f 15/15/15 22/22/22 21/21/21
f 23/23/23 21/21/21 22/22/22
f 21/21/21 23/23/23 20/20/20
f 24/24/24 20/20/20 23/23/23
f 20/20/20 24/24/24 17/17/17
f 25/25/25 17/17/17 24/24/24
f 17/17/17 25/25/25 18/18/18
f 26/26/26 18/18/18 25/25/25
f 29/29/29 28/28/28 27/27/27
f 30/30/30 28/28/28 29/29/29
f 31/31/31 28/28/28 30/30/30
f 32/32/32 28/28/28 31/31/31
f 35/35/35 34/34/34 33/33/33
f 36/36/36 33/33/33 34/34/34
f 33/33/33 36/36/36 37/37/37
f 38/38/38 37/37/37 36/36/36
f 37/37/37 38/38/38 39/39/39
f 40/40/40 39/39/39 38/38/38
f 39/39/39 40/40/40 41/41/41
f 42/42/42 41/41/41 40/40/40
f 45/45/45 44/44/44 43/43/43
f 46/46/46 43/43/43 44/44/44
f 43/43/43 46/46/46 47/47/47
f 48/48/48 47/47/47 46/46/46
f 47/47/47 48/48/48 49/49/49
f 50/50/50 49/49/49 48/48/48
f 49/49/49 50/50/50 51/51/51
f 52/52/52 51/51/51 50/50/50
f 55/55/55 54/54/54 53/53/53
f 56/56/56 53/53/53 54/54/54
f 53/53/53 56/56/56 57/57/57
f 58/58/58 57/57/57 56/56/56
f 57/57/57 58/58/58 59/59/59
f 60/60/60 59/59/59 58/58/58
f 59/59/59 60/60/60 61/61/61
f 62/62/62 61/61/61 60/60/60
f 65/65/65 64/64/64 63/63/63
f 66/66/66 63/63/63 64/64/64
f 63/63/63 66/66/66 67/67/67
f 66/66/66 64/64/64 68/68/68
f 69/69/69 68/68/68 64/64/64
f 70/70/70 67/67/67 66/66/66
f 67/67/67 70/70/70 71/71/71
f 68/68/68 69/69/69 72/72/72
f 73/73/73 72/72/72 69/69/69
f 72/72/72 74/74/74 68/68/68
f 68/68/68 75/75/75 66/66/66
f 75/75/75 68/68/68 74/74/74
f 70/70/70 66/66/66 75/75/75
f 74/74/74 76/76/76 75/75/75
f 77/77/77 75/75/75 76/76/76
f 75/75/75 77/77/77 70/70/70
f 76/76/76 78/78/78 77/77/77
f 79/79/79 77/77/77 78/78/78
f 80/80/80 71/71/71 70/70/70
f 80/80/80 70/70/70 77/77/77
f 77/77/77 79/79/79 80/80/80
f 71/71/71 80/80/80 81/81/81
f 82/82/82 80/80/80 79/79/79
f 82/82/82 81/81/81 80/80/80
f 85/85/85 84/84/84 83/83/83
f 85/85/85 86/86/86 84/84/84
f 85/85/85 87/87/87 86/86/86
f 85/85/85 88/88/88 87/87/87
f 91/91/91 90/90/90 89/89/89
f 92/92/92 89/89/89 90/90/90
f 90/90/90 93/93/93 92/92/92
f 94/94/94 92/92/92 93/93/93
f 93/93/93 95/95/95 94/94/94
f 96/96/96 94/94/94 95/95/95
f 95/95/95 97/97/97 96/96/96
f 98/98/98 96/96/96 97/97/97
f 101/101/101 100/100/100 99/99/99
f 102/102/102 99/99/99 100/100/100
f 100/100/100 103/103/103 102/102/102
f 104/104/104 102/102/102 103/103/103
f 103/103/103 105/105/105 104/104/104
f 106/106/106 104/104/104 105/105/105
f 105/105/105 107/107/107 106/106/106
f 108/108/108 106/106/106 107/107/107
f 111/111/111 110/110/110 109/109/109
f 112/112/112 109/109/109 110/110/110
f 110/110/110 113/113/113 112/112/112
f 114/114/114 112/112/112 113/113/113
f 113/113/113 115/115/115 114/114/114
f 116/116/116 114/114/114 115/115/115
f 115/115/115 117/117/117 116/116/116
f 118/118/118 116/116/116 117/117/117
f 121/121/121 120/120/120 119/119/119
f 119/119/119 120/120/120 122/122/122
f 122/122/122 120/120/120 123/123/123
f 123/123/123 120/120/120 124/124/124
f 127/127/127 126/126/126 125/125/125
f 127/127/127 125/125/125 128/128/128
f 127/127/127 128/128/128 129/129/129
f 127/127/127 129/129/129 130/130/130
f 133/133/133 132/132/132 131/131/131
f 134/134/134 132/132/132 133/133/133
f 135/135/135 132/132/132 134/134/134
f 136/136/136 132/132/132 135/135/135
f 139/139/139 138/138/138 137/137/137
f 139/139/139 140/140/140 138/138/138
f 139/139/139 141/141/141 140/140/140
f 139/139/139 142/142/142 141/141/141
f 145/145/145 144/144/144 143/143/143
f 144/144/144 146/146/146 143/143/143
f 143/143/143 146/146/146 147/147/147
f 148/148/148 143/143/143 147/147/147
f 151/151/151 150/150/150 149/149/149
f 150/150/150 152/152/152 149/149/149
f 153/153/153 150/150/150 151/151/151
f 149/149/149 152/152/152 154/154/154
f 155/155/155 153/153/153 151/151/151
f 152/152/152 156/156/156 154/154/154
f 157/157/157 153/153/153 155/155/155
f 154/154/154 156/156/156 158/158/158
f 159/159/159 157/157/157 155/155/155
f 156/156/156 160/160/160 158/158/158
f 161/161/161 157/157/157 159/159/159
f 158/158/158 160/160/160 162/162/162
f 163/163/163 161/161/161 159/159/159
f 160/160/160 164/164/164 162/162/162
f 164/164/164 161/161/161 163/163/163
f 162/162/162 164/164/164 163/163/163
f 167/167/167 166/166/166 165/165/165
f 168/168/168 167/167/167 165/165/165
f 165/165/165 166/166/166 169/169/169
f 170/170/170 167/167/167 168/168/168
f 166/166/166 171/171/171 169/169/169
f 172/172/172 170/170/170 168/168/168
f 169/169/169 171/171/171 173/173/173
f 174/174/174 170/170/170 172/172/172
f 171/171/171 175/175/175 173/173/173
f 176/176/176 174/174/174 172/172/172
f 173/173/173 175/175/175 177/177/177
f 178/178/178 174/174/174 176/176/176
f 175/175/175 179/179/179 177/177/177
f 180/180/180 178/178/178 176/176/176
f 177/177/177 179/179/179 180/180/180
f 179/179/179 178/178/178 180/180/180
f 183/183/183 182/182/182 181/181/181
f 184/184/184 183/183/183 181/181/181
f 181/181/181 182/182/182 185/185/185
f 186/186/186 183/183/183 184/184/184
f 182/182/182 187/187/187 185/185/185
f 188/188/188 186/186/186 184/184/184
f 185/185/185 187/187/187 189/189/189
f 190/190/190 186/186/186 188/188/188
f 187/187/187 191/191/191 189/189/189
f 192/192/192 190/190/190 188/188/188
f 189/189/189 191/191/191 193/193/193
f 194/194/194 190/190/190 192/192/192
f 191/191/191 195/195/195 193/193/193
f 196/196/196 194/194/194 192/192/192
f 193/193/193 195/195/195 196/196/196
f 195/195/195 194/194/194 196/196/196
