g table
v -0.4440025 0.3563874 -0.4328235
v -0.4684826 0.1891582 0.003400071
v -0.461675 0.1891582 0.003400072
v -0.4684826 0.1891582 0.003400071
v -0.4440025 0.3563874 -0.4328235
v -0.4469545 0.3594011 -0.4328235
v 0.009833159 0.3587524 -0.6120939
v 0.01172628 0.1891582 -0.6176033
v 0.2912487 0.3594302 -0.6093613
v -0.2715824 0.3594302 -0.6093614
v 0.00983307 0.3587525 0.6176032
v 0.01172622 0.1891583 0.6175759
v -0.2715825 0.3594303 0.6148705
v 0.2912487 0.3594304 0.6148706
v -0.4488162 0.3587524 0.002481094
v -0.4684826 0.1891582 0.003400071
v -0.4469545 0.3594011 -0.4328235
v -0.4469546 0.3594013 0.4377858
v 0.4684824 0.3587525 0.002481133
v 0.452804 0.1891583 0.003400082
v 0.4666208 0.3594014 0.4377857
v 0.4666209 0.3594013 -0.4328236
v 0.01172626 0.1891582 -0.608245
v 0.009833158 0.3563875 -0.6054766
v 0.2912487 0.3563875 -0.6054765
v -0.2715824 0.3563874 -0.6054766
v 0.01172624 0.1891583 0.6082175
v 0.009833071 0.3563876 0.6109858
v -0.2715825 0.3563876 0.6109858
v 0.2912487 0.3563876 0.6109859
v -0.461675 0.1891582 0.003400072
v -0.4440025 0.3563874 0.002481095
v -0.4440025 0.3563874 -0.4328235
v -0.4440026 0.3563876 0.4377858
v 0.4459966 0.1891583 0.003400082
v 0.4636688 0.3563876 0.002481133
v 0.4636688 0.3563877 0.4377857
v 0.4636689 0.3563876 -0.4328236
v -0.2715824 0.3563874 -0.6054766
v -0.4469545 0.3594011 -0.4328235
v -0.4440025 0.3563874 -0.4328235
v -0.2715824 0.3594302 -0.6093614
v 0.4636689 0.3563876 -0.4328236
v 0.2912487 0.3594302 -0.6093613
v 0.2912487 0.3563875 -0.6054765
v 0.4666209 0.3594013 -0.4328236
v 0.4666208 0.3594014 0.4377857
v 0.2912487 0.3563876 0.6109859
v 0.2912487 0.3594304 0.6148706
v 0.4636688 0.3563877 0.4377857
v 0.452804 0.1891583 0.003400082
v 0.4459966 0.1891583 0.003400082
v -0.4440026 0.3563876 0.4377858
v -0.2715825 0.3594303 0.6148705
v -0.2715825 0.3563876 0.6109858
v -0.4469546 0.3594013 0.4377858
v 0.2912487 0.3563875 -0.6054765
v 0.01172628 0.1891582 -0.6176033
v 0.01172626 0.1891582 -0.608245
v 0.2912487 0.3594302 -0.6093613
v -0.2715825 0.3563876 0.6109858
v 0.01172622 0.1891583 0.6175759
v 0.01172624 0.1891583 0.6082175
v -0.2715825 0.3594303 0.6148705
v -0.461675 0.1891582 0.003400072
v -0.4469546 0.3594013 0.4377858
v -0.4440026 0.3563876 0.4377858
v -0.4684826 0.1891582 0.003400071
v 0.4459966 0.1891583 0.003400082
v 0.4666209 0.3594013 -0.4328236
v 0.4636689 0.3563876 -0.4328236
v 0.452804 0.1891583 0.003400082
v 0.01172626 0.1891582 -0.608245
v -0.2715824 0.3594302 -0.6093614
v -0.2715824 0.3563874 -0.6054766
v 0.01172628 0.1891582 -0.6176033
v 0.01172624 0.1891583 0.6082175
v 0.2912487 0.3594304 0.6148706
v 0.2912487 0.3563876 0.6109859
v 0.01172622 0.1891583 0.6175759
v 0.4508678 0.2771876 -0.6038168
v -0.4312015 0.2771876 0.6087791
v 0.4508677 0.2771878 0.6087792
v -0.4312014 0.2771875 -0.603817
v -0.4312014 0.3550325 -0.603817
v 0.4508677 0.3550328 0.6087791
v -0.4312015 0.3550327 0.6087791
v 0.4508678 0.3550326 -0.6038169
v 0.4508678 0.2771876 -0.6038168
v 0.4508677 0.3550328 0.6087791
v 0.4508678 0.3550326 -0.6038169
v 0.4508677 0.2771878 0.6087792
v -0.4312014 0.3550325 -0.603817
v 0.4508678 0.2771876 -0.6038168
v 0.4508678 0.3550326 -0.6038169
v -0.4312014 0.2771875 -0.603817
v -0.4312015 0.2771876 0.6087791
v -0.4312014 0.3550325 -0.603817
v -0.4312015 0.3550327 0.6087791
v -0.4312014 0.2771875 -0.603817
v 0.4508677 0.3550328 0.6087791
v -0.4312015 0.2771876 0.6087791
v -0.4312015 0.3550327 0.6087791
v 0.4508677 0.2771878 0.6087792
v 0.43254 -0.3597318 0.580147
v 0.3135647 -0.3597319 0.4611717
v 0.3135647 -0.3597319 0.580147
v 0.43254 -0.3597319 0.4611717
v 0.43254 -0.3597318 0.580147
v 0.4118569 0.3152592 0.465192
v 0.43254 -0.3597319 0.4611717
v 0.4118568 0.3152593 0.5841671
v 0.43254 -0.3597319 0.4611717
v 0.2928816 0.3152593 0.4651918
v 0.3135647 -0.3597319 0.4611717
v 0.4118569 0.3152592 0.465192
v 0.3135647 -0.3597319 0.4611717
v 0.2928815 0.3152593 0.5841671
v 0.3135647 -0.3597319 0.580147
v 0.2928816 0.3152593 0.4651918
v 0.3135647 -0.3597319 0.580147
v 0.4118568 0.3152593 0.5841671
v 0.43254 -0.3597318 0.580147
v 0.2928815 0.3152593 0.5841671
v 0.4325401 -0.359732 -0.4607083
v 0.3135648 -0.359732 -0.5796836
v 0.3135648 -0.359732 -0.4607083
v 0.4325401 -0.359732 -0.5796836
v 0.4325401 -0.359732 -0.4607083
v 0.411857 0.3152592 -0.5756633
v 0.4325401 -0.359732 -0.5796836
v 0.4118569 0.3152592 -0.456688
v 0.4325401 -0.359732 -0.5796836
v 0.2928817 0.3152591 -0.5756633
v 0.3135648 -0.359732 -0.5796836
v 0.411857 0.3152592 -0.5756633
v 0.3135648 -0.359732 -0.5796836
v 0.2928817 0.3152592 -0.456688
v 0.3135648 -0.359732 -0.4607083
v 0.2928817 0.3152591 -0.5756633
v 0.3135648 -0.359732 -0.4607083
v 0.4118569 0.3152592 -0.456688
v 0.4325401 -0.359732 -0.4607083
v 0.2928817 0.3152592 -0.456688
v -0.2614759 -0.3597321 -0.4607084
v -0.3804512 -0.3597321 -0.5796837
v -0.3804512 -0.3597321 -0.4607084
v -0.2614759 -0.3597321 -0.5796837
v -0.2614759 -0.3597321 -0.4607084
v -0.282159 0.315259 -0.5756634
v -0.2614759 -0.3597321 -0.5796837
v -0.282159 0.3152591 -0.4566881
v -0.2614759 -0.3597321 -0.5796837
v -0.4011343 0.315259 -0.5756634
v -0.3804512 -0.3597321 -0.5796837
v -0.282159 0.315259 -0.5756634
v -0.3804512 -0.3597321 -0.5796837
v -0.4011343 0.315259 -0.4566881
v -0.3804512 -0.3597321 -0.4607084
v -0.4011343 0.315259 -0.5756634
v -0.3804512 -0.3597321 -0.4607084
v -0.282159 0.3152591 -0.4566881
v -0.2614759 -0.3597321 -0.4607084
v -0.4011343 0.315259 -0.4566881
v -0.261476 -0.3597319 0.5801468
v -0.3804513 -0.359732 0.4611716
v -0.3804513 -0.3597319 0.5801468
v -0.261476 -0.3597319 0.4611716
v -0.261476 -0.3597319 0.5801468
v -0.2821591 0.3152592 0.4651918
v -0.261476 -0.3597319 0.4611716
v -0.2821591 0.3152592 0.5841671
v -0.261476 -0.3597319 0.4611716
v -0.4011345 0.3152592 0.4651918
v -0.3804513 -0.359732 0.4611716
v -0.2821591 0.3152592 0.4651918
v -0.3804513 -0.359732 0.4611716
v -0.4011344 0.3152592 0.5841671
v -0.3804513 -0.3597319 0.5801468
v -0.4011345 0.3152592 0.4651918
v -0.3804513 -0.3597319 0.5801468
v -0.2821591 0.3152592 0.5841671
v -0.261476 -0.3597319 0.5801468
v -0.4011344 0.3152592 0.5841671
v -0.2715825 0.3597321 0.4377857
v 0.00983307 0.3587525 0.6176032
v -0.2715825 0.3594303 0.6148705
v -0.4469546 0.3594013 0.4377858
v 0.00983309 0.3597321 0.4377857
v 0.2912487 0.3594304 0.6148706
v -0.2715824 0.359732 0.002481099
v -0.4488162 0.3587524 0.002481094
v -0.4469545 0.3594011 -0.4328235
v 0.009833114 0.359732 0.002481114
v 0.2912487 0.3597321 0.4377857
v 0.4666208 0.3594014 0.4377857
v -0.2715825 0.3597319 -0.4328235
v -0.2715824 0.3594302 -0.6093614
v 0.2912486 0.3597321 0.002481129
v 0.4684824 0.3587525 0.002481133
v 0.4666209 0.3594013 -0.4328236
v 0.009833139 0.359732 -0.4328235
v 0.009833159 0.3587524 -0.6120939
v 0.2912487 0.359732 -0.4328235
v 0.2912487 0.3594302 -0.6093613
v 0.009833071 0.3563876 0.6109858
v -0.2715825 0.3563876 0.4377857
v -0.2715825 0.3563876 0.6109858
v -0.4440026 0.3563876 0.4377858
v 0.00983309 0.3563876 0.4377857
v 0.2912487 0.3563876 0.6109859
v -0.2715824 0.3563875 0.002481099
v -0.4440025 0.3563874 0.002481095
v -0.4440025 0.3563874 -0.4328235
v 0.2912487 0.3563877 0.4377857
v 0.4636688 0.3563877 0.4377857
v 0.009833114 0.3563875 0.002481114
v -0.2715825 0.3563875 -0.4328235
v -0.2715824 0.3563874 -0.6054766
v 0.2912486 0.3563876 0.002481129
v 0.4636688 0.3563876 0.002481133
v 0.4636689 0.3563876 -0.4328236
v 0.009833139 0.3563875 -0.4328235
v 0.009833158 0.3563875 -0.6054766
v 0.2912487 0.3563876 -0.4328235
v 0.2912487 0.3563875 -0.6054765
vt 0.8255928 0.03060004
vt 0.8420372 0.02410132
vt 0.8419303 0.02386737
vt 0.8420372 0.02410132
vt 0.8255928 0.03060004
vt 0.8255597 0.03061309
vt 0.8188106 0.04786843
vt 0.8124066 0.04794052
vt 0.8188888 0.0584895
vt 0.8188877 0.03724742
vt 0.8652135 0.04786837
vt 0.8716136 0.04794052
vt 0.8651377 0.03724805
vt 0.8651363 0.05848873
vt 0.8420024 0.0305503
vt 0.8420372 0.02410132
vt 0.8255597 0.03061309
vt 0.858445 0.03061342
vt 0.8420024 0.06518114
vt 0.8420372 0.07161343
vt 0.8584425 0.06512254
vt 0.8255622 0.0651229
vt 0.7575098 0.02636808
vt 0.7638166 0.02643946
vt 0.7638166 0.01582778
vt 0.7638166 0.03705111
vt 0.815994 0.02636808
vt 0.8096873 0.02643946
vt 0.8096873 0.03705114
vt 0.8096873 0.01582778
vt 0.7867763 0.0498938
vt 0.7867416 0.04355279
vt 0.7703271 0.04355279
vt 0.8031561 0.04355279
vt 0.7867763 0.00298506
vt 0.7867416 0.0093261
vt 0.8031562 0.0093261
vt 0.770327 0.0093261
vt 0.8188524 0.03706419
vt 0.8255597 0.03061309
vt 0.8254061 0.03057015
vt 0.8188877 0.03724742
vt 0.8254086 0.06516588
vt 0.8188888 0.0584895
vt 0.8188536 0.05867279
vt 0.8255622 0.0651229
vt 0.8584425 0.06512254
vt 0.865171 0.05867204
vt 0.8651363 0.05848873
vt 0.858596 0.06516594
vt 0.8420372 0.07161343
vt 0.8421263 0.07185483
vt 0.8585986 0.03057012
vt 0.8651377 0.03724805
vt 0.8651724 0.03706473
vt 0.858445 0.03061342
vt 0.8187078 0.05853483
vt 0.8124066 0.04794052
vt 0.8121094 0.04813263
vt 0.8188888 0.0584895
vt 0.8653195 0.03720585
vt 0.8716136 0.04794052
vt 0.8719152 0.04775545
vt 0.8651377 0.03724805
vt 0.8421431 0.02386677
vt 0.858445 0.03061342
vt 0.858445 0.03061342
vt 0.8420372 0.02410132
vt 0.8419499 0.07185555
vt 0.8255622 0.0651229
vt 0.8255622 0.0651229
vt 0.8420372 0.07161343
vt 0.8121086 0.04774961
vt 0.8188877 0.03724742
vt 0.8187068 0.03720176
vt 0.8124066 0.04794052
vt 0.8719136 0.04812822
vt 0.8651363 0.05848873
vt 0.8653176 0.05853236
vt 0.8716136 0.04794052
vt 0.8088863 0.1184013
vt 0.7525962 0.07745457
vt 0.7525963 0.1184013
vt 0.8088863 0.07745457
vt 0.8125 0.07745457
vt 0.8687901 0.1184013
vt 0.8687901 0.07745457
vt 0.8125 0.1184013
vt 0.8125 0.1220149
vt 0.8687901 0.1184013
vt 0.8125 0.1184013
vt 0.8687901 0.1220149
vt 0.8125 0.07745457
vt 0.8088863 0.1184013
vt 0.8125 0.1184013
vt 0.8088863 0.07745457
vt 0.8687901 0.07384092
vt 0.8125 0.07745457
vt 0.8687901 0.07745457
vt 0.8125 0.07384092
vt 0.8687901 0.1184013
vt 0.8724038 0.07745457
vt 0.8687901 0.07745457
vt 0.8724038 0.1184013
vt 0.7913288 0.07522011
vt 0.7967077 0.06982493
vt 0.7913288 0.06982493
vt 0.7967077 0.07522011
vt 0.7913288 0.05363396
vt 0.7550102 0.05902913
vt 0.7913288 0.05902913
vt 0.7550102 0.05363396
vt 0.7913288 0.05902913
vt 0.7550102 0.06442428
vt 0.7913288 0.06442428
vt 0.7550102 0.05902913
vt 0.7913288 0.06442428
vt 0.7550102 0.06982493
vt 0.7913288 0.06982493
vt 0.7550102 0.06442428
vt 0.7913288 0.06982493
vt 0.7550102 0.07522011
vt 0.7913288 0.07522011
vt 0.7550102 0.06982493
vt 0.7913288 0.07522011
vt 0.7967077 0.06982493
vt 0.7913288 0.06982493
vt 0.7967077 0.07522011
vt 0.7913288 0.05363396
vt 0.7550102 0.05902913
vt 0.7913288 0.05902913
vt 0.7550102 0.05363396
vt 0.7913288 0.05902913
vt 0.7550102 0.06442428
vt 0.7913288 0.06442428
vt 0.7550102 0.05902913
vt 0.7913288 0.06442428
vt 0.7550102 0.06982493
vt 0.7913288 0.06982493
vt 0.7550102 0.06442428
vt 0.7913288 0.06982493
vt 0.7550102 0.07522011
vt 0.7913288 0.07522011
vt 0.7550102 0.06982493
vt 0.7913288 0.07522011
vt 0.7967077 0.06982493
vt 0.7913288 0.06982493
vt 0.7967077 0.07522011
vt 0.7913288 0.05363396
vt 0.7550102 0.05902913
vt 0.7913288 0.05902913
vt 0.7550102 0.05363396
vt 0.7913288 0.05902913
vt 0.7550102 0.06442428
vt 0.7913288 0.06442428
vt 0.7550102 0.05902913
vt 0.7913288 0.06442428
vt 0.7550102 0.06982493
vt 0.7913288 0.06982493
vt 0.7550102 0.06442428
vt 0.7913288 0.06982493
vt 0.7550102 0.07522011
vt 0.7913288 0.07522011
vt 0.7550102 0.06982493
vt 0.7913288 0.07522011
vt 0.7967077 0.06982493
vt 0.7913288 0.06982493
vt 0.7967077 0.07522011
vt 0.7913288 0.05363396
vt 0.7550102 0.05902913
vt 0.7913288 0.05902913
vt 0.7550102 0.05363396
vt 0.7913288 0.05902913
vt 0.7550102 0.06442428
vt 0.7913288 0.06442428
vt 0.7550102 0.05902913
vt 0.7913288 0.06442428
vt 0.7550102 0.06982493
vt 0.7913288 0.06982493
vt 0.7550102 0.06442428
vt 0.7913288 0.06982493
vt 0.7550102 0.07522011
vt 0.7913288 0.07522011
vt 0.7550102 0.06982493
vt 0.8584436 0.03724146
vt 0.8652135 0.04786837
vt 0.8651377 0.03724805
vt 0.858445 0.03061342
vt 0.8584355 0.04786801
vt 0.8651363 0.05848873
vt 0.8420023 0.03724152
vt 0.8420024 0.0305503
vt 0.8255597 0.03061309
vt 0.8420022 0.04786703
vt 0.8584421 0.05849442
vt 0.8584425 0.06512254
vt 0.825561 0.03724113
vt 0.8188877 0.03724742
vt 0.8420023 0.05849174
vt 0.8420024 0.06518114
vt 0.8255622 0.0651229
vt 0.8255687 0.04786795
vt 0.8188106 0.04786843
vt 0.8255622 0.05849472
vt 0.8188888 0.0584895
vt 0.8096873 0.02643946
vt 0.8031561 0.03705114
vt 0.8096873 0.03705114
vt 0.8031561 0.04355279
vt 0.8031561 0.02643946
vt 0.8096873 0.01582778
vt 0.7867416 0.03705114
vt 0.7867416 0.04355279
vt 0.7703271 0.04355279
vt 0.8031562 0.01582778
vt 0.8031562 0.0093261
vt 0.7867416 0.02643946
vt 0.7703271 0.03705114
vt 0.7638166 0.03705111
vt 0.7867416 0.01582778
vt 0.7867416 0.0093261
vt 0.770327 0.0093261
vt 0.7703271 0.02643946
vt 0.7638166 0.02643946
vt 0.770327 0.01582778
vt 0.7638166 0.01582778
vn -0.634554 -0.6251042 -0.4545174
vn -0.002106821 -0.9999913 0.003597251
vn -0.002008571 -0.9999908 0.003797437
vn -0.002106821 -0.9999913 0.003597251
vn -0.634554 -0.6251042 -0.4545174
vn -0.6459122 -0.6337655 -0.425604
vn -6.839688E-05 0.03246777 -0.9994728
vn 7.654222E-05 0.03246939 -0.9994728
vn 0.009626221 0.03257437 -0.9994229
vn -0.009626515 0.03235969 -0.9994299
vn -6.930947E-05 -0.0001614669 1
vn 7.698005E-05 -0.0001598339 1
vn -0.009710656 -0.000269084 0.9999528
vn 0.009709831 -5.229652E-05 0.9999529
vn -0.9933436 0.1151891 -1.41588E-05
vn -0.9933436 0.1151892 1.569114E-05
vn -0.9933379 0.1151664 -0.004076596
vn -0.9933328 0.11521 0.004076179
vn 0.995754 -0.09205428 -1.49504E-05
vn 0.995754 -0.09205411 1.731524E-05
vn 0.9957466 -0.09202971 0.004395709
vn 0.9957421 -0.09207691 -0.004395435
vn 0 -0.01655233 0.999863
vn 0 -0.01655233 0.999863
vn 0 -0.01655233 0.999863
vn 0 -0.01655233 0.999863
vn 0 0.01655203 -0.999863
vn 0 0.01655204 -0.999863
vn 0 0.01655204 -0.999863
vn 0 0.01655204 -0.999863
vn 0.9944624 -0.105093 0
vn 0.9944624 -0.105093 0
vn 0.9944624 -0.105093 0
vn 0.9944624 -0.105093 2.865272E-07
vn -0.9944625 0.1050913 0
vn -0.9944625 0.1050913 0
vn -0.9944625 0.1050913 0
vn -0.9944625 0.1050913 -2.631348E-07
vn -0.4811155 -0.6899201 -0.5408679
vn -0.6459122 -0.6337655 -0.425604
vn -0.634554 -0.6251042 -0.4545174
vn -0.4727968 -0.6978082 -0.5380769
vn 0.6468602 -0.6342878 -0.4233802
vn 0.4812927 -0.6896557 -0.5410476
vn 0.4896873 -0.6887208 -0.534668
vn 0.6527403 -0.6452585 -0.3969528
vn 0.6536533 -0.6413627 0.4017353
vn 0.479579 -0.6905792 0.5413911
vn 0.4714228 -0.6984401 0.5384626
vn 0.6433749 -0.633726 0.4294885
vn 0.002021469 -0.9999952 -0.002327606
vn 0.002096274 -0.9999954 -0.002228309
vn -0.6383001 -0.6259 0.4481321
vn -0.4745249 -0.6925584 0.543313
vn -0.4841117 -0.6911493 0.5366084
vn -0.6451563 -0.6376866 0.4208674
vn 0.4896873 -0.6887208 -0.534668
vn 0.5135602 -0.858038 -0.005154222
vn 0.5134023 -0.858148 1.354579E-06
vn 0.4812927 -0.6896557 -0.5410476
vn -0.4841117 -0.6911493 0.5366084
vn -0.5084038 -0.8611039 0.005071058
vn -0.5083228 -0.8611665 -1.11335E-06
vn -0.4745249 -0.6925584 0.543313
vn -0.002008571 -0.9999908 0.003797437
vn -0.6451563 -0.6376866 0.4208674
vn -0.6383001 -0.6259 0.4481321
vn -0.002106821 -0.9999913 0.003597251
vn 0.002096274 -0.9999954 -0.002228309
vn 0.6527403 -0.6452585 -0.3969528
vn 0.6468602 -0.6342878 -0.4233802
vn 0.002021469 -0.9999952 -0.002327606
vn -0.5151126 -0.8571079 -0.005022801
vn -0.4727968 -0.6978082 -0.5380769
vn -0.4811155 -0.6899201 -0.5408679
vn -0.5151336 -0.8571098 -1.130362E-06
vn 0.5201368 -0.8540676 0.005105398
vn 0.4714228 -0.6984401 0.5384626
vn 0.479579 -0.6905792 0.5413911
vn 0.5202323 -0.8540249 1.370512E-06
vn 0 -1 0
vn 0 -1 0
vn 0 -1 0
vn 0 -1 0
vn 0 1 0
vn 0 1 0
vn 0 1 0
vn 0 1 0
vn 1 0 0
vn 1 0 0
vn 1 0 0
vn 1 0 0
vn 0 0 -1
vn 0 0 -1
vn 0 0 -1
vn 0 0 -1
vn -1 0 0
vn -1 0 0
vn -1 0 0
vn -1 0 0
vn 0 0 1
vn 0 0 1
vn 0 0 1
vn 0 0 1
vn 0 -1 0
vn 0 -1 0
vn 0 -1 0
vn 0 -1 0
vn 0.9995309 0.03062766 0
vn 0.9995309 0.03062771 0
vn 0.9995309 0.03062765 -2.601616E-07
vn 0.9995309 0.03062772 0
vn 0 0.005955855 -0.9999822
vn 8.760245E-07 0.005955985 -0.9999822
vn 0 0.005955836 -0.9999822
vn 9.681161E-07 0.005956004 -0.9999822
vn -0.9995309 -0.03062772 0
vn -0.9995309 -0.03062772 0
vn -0.9995309 -0.03062772 0
vn -0.9995309 -0.03062772 0
vn 0 -0.005955836 0.9999822
vn 0 -0.005955836 0.9999822
vn 0 -0.005955835 0.9999822
vn 0 -0.005955835 0.9999822
vn 0 -1 0
vn 0 -1 0
vn 0 -1 0
vn 0 -1 0
vn 0.9995309 0.03062766 0
vn 0.9995309 0.03062772 0
vn 0.9995309 0.03062765 -2.601614E-07
vn 0.9995309 0.03062772 0
vn 0 0.005955979 -0.9999822
vn 0 0.005955979 -0.9999822
vn 0 0.00595598 -0.9999822
vn 0 0.005955979 -0.9999822
vn -0.9995309 -0.03062768 0
vn -0.9995309 -0.03062769 0
vn -0.9995309 -0.03062768 0
vn -0.9995309 -0.03062769 0
vn 0 -0.005955973 0.9999822
vn -5.138098E-07 -0.005955927 0.9999822
vn 0 -0.005955979 0.9999822
vn -5.584987E-07 -0.00595592 0.9999822
vn 0 -1 0
vn 0 -1 0
vn 0 -1 0
vn 0 -1 0
vn 0.9995309 0.03062772 0
vn 0.9995309 0.03062769 0
vn 0.9995309 0.03062772 0
vn 0.9995309 0.03062768 0
vn 0 0.00595605 -0.9999822
vn 0 0.005956051 -0.9999822
vn 0 0.00595605 -0.9999822
vn 0 0.005956051 -0.9999822
vn -0.9995309 -0.03062762 0
vn -0.9995309 -0.03062768 0
vn -0.9995309 -0.03062761 0
vn -0.9995309 -0.03062768 2.601616E-07
vn 0 -0.005955979 0.9999822
vn 0 -0.005955979 0.9999822
vn 0 -0.005955979 0.9999822
vn 0 -0.005955979 0.9999822
vn 0 -1 0
vn 0 -1 0
vn 0 -1 0
vn 0 -1 0
vn 0.9995309 0.03062772 0
vn 0.9995309 0.03062772 0
vn 0.9995309 0.03062772 0
vn 0.9995309 0.03062772 0
vn 0 0.005955979 -0.9999822
vn 0 0.005955979 -0.9999822
vn 0 0.005955979 -0.9999822
vn 0 0.005955979 -0.9999822
vn -0.9995309 -0.03062769 0
vn -0.9995309 -0.03062774 0
vn -0.9995309 -0.03062768 0
vn -0.9995309 -0.03062776 2.601618E-07
vn 0 -0.005955841 0.9999822
vn 0 -0.005955889 0.9999822
vn 0 -0.005955835 0.9999822
vn 2.570983E-07 -0.005955894 0.9999822
vn -0.0005617084 0.9999992 0.00119061
vn -0.0007498265 0.9999883 0.004777369
vn 0.0009775946 0.9999981 0.00170385
vn -0.002482451 0.9999969 0.0003289907
vn -0.0003785074 0.9999971 0.002389009
vn 5.332422E-05 0.9999967 0.002609818
vn -0.002319786 0.9999974 0
vn -0.005527042 0.9999847 0
vn -0.002482843 0.9999969 -0.0003301191
vn 0 1 0
vn 0.0009429668 0.9999992 0.0008518297
vn 0.002482151 0.9999969 0.0003289909
vn -0.0009432687 0.9999992 -0.000854736
vn -5.625473E-05 0.9999967 -0.002615299
vn 0.002319484 0.9999974 0
vn 0.005526741 0.9999847 0
vn 0.00248254 0.9999969 -0.0003301188
vn 0.0003787022 0.9999971 -0.002397406
vn 0.0007505119 0.9999882 -0.00479389
vn 0.0005608885 0.9999992 -0.001193717
vn -0.0009759864 0.9999981 -0.001709396
vn 0 -1 0
vn 0 -1 0
vn 0 -1 0
vn 0 -1 0
vn 0 -1 0
vn 0 -1 0
vn 0 -1 0
vn 0 -1 0
vn 0 -1 0
vn 0 -1 0
vn 0 -1 0
vn 0 -1 0
vn 0 -1 0
vn 0 -1 0
vn 0 -1 0
vn 0 -1 0
vn 0 -1 0
vn 0 -1 0
vn 0 -1 0
vn 0 -1 0
vn 0 -1 4.137594E-07
g table_0
f 3/3/3 2/2/2 1/1/1
f 6/6/6 5/5/5 4/4/4
f 9/9/9 8/8/8 7/7/7
f 7/7/7 8/8/8 10/10/10
f 13/13/13 12/12/12 11/11/11
f 11/11/11 12/12/12 14/14/14
f 17/17/17 16/16/16 15/15/15
f 15/15/15 16/16/16 18/18/18
f 21/21/21 20/20/20 19/19/19
f 19/19/19 20/20/20 22/22/22
f 25/25/25 24/24/24 23/23/23
f 24/24/24 26/26/26 23/23/23
f 29/29/29 28/28/28 27/27/27
f 28/28/28 30/30/30 27/27/27
f 33/33/33 32/32/32 31/31/31
f 32/32/32 34/34/34 31/31/31
f 37/37/37 36/36/36 35/35/35
f 36/36/36 38/38/38 35/35/35
f 41/41/41 40/40/40 39/39/39
f 42/42/42 39/39/39 40/40/40
f 45/45/45 44/44/44 43/43/43
f 46/46/46 43/43/43 44/44/44
f 49/49/49 48/48/48 47/47/47
f 50/50/50 47/47/47 48/48/48
f 47/47/47 50/50/50 51/51/51
f 52/52/52 51/51/51 50/50/50
f 55/55/55 54/54/54 53/53/53
f 56/56/56 53/53/53 54/54/54
f 59/59/59 58/58/58 57/57/57
f 60/60/60 57/57/57 58/58/58
f 63/63/63 62/62/62 61/61/61
f 64/64/64 61/61/61 62/62/62
f 67/67/67 66/66/66 65/65/65
f 68/68/68 65/65/65 66/66/66
f 71/71/71 70/70/70 69/69/69
f 72/72/72 69/69/69 70/70/70
f 75/75/75 74/74/74 73/73/73
f 76/76/76 73/73/73 74/74/74
f 79/79/79 78/78/78 77/77/77
f 80/80/80 77/77/77 78/78/78
f 83/83/83 82/82/82 81/81/81
f 84/84/84 81/81/81 82/82/82
f 87/87/87 86/86/86 85/85/85
f 88/88/88 85/85/85 86/86/86
f 91/91/91 90/90/90 89/89/89
f 92/92/92 89/89/89 90/90/90
f 95/95/95 94/94/94 93/93/93
f 96/96/96 93/93/93 94/94/94
f 99/99/99 98/98/98 97/97/97
f 100/100/100 97/97/97 98/98/98
f 103/103/103 102/102/102 101/101/101
f 104/104/104 101/101/101 102/102/102
f 107/107/107 106/106/106 105/105/105
f 108/108/108 105/105/105 106/106/106
f 111/111/111 110/110/110 109/109/109
f 112/112/112 109/109/109 110/110/110
f 115/115/115 114/114/114 113/113/113
f 116/116/116 113/113/113 114/114/114
f 119/119/119 118/118/118 117/117/117
f 120/120/120 117/117/117 118/118/118
f 123/123/123 122/122/122 121/121/121
f 124/124/124 121/121/121 122/122/122
f 127/127/127 126/126/126 125/125/125
f 128/128/128 125/125/125 126/126/126
f 131/131/131 130/130/130 129/129/129
f 132/132/132 129/129/129 130/130/130
f 135/135/135 134/134/134 133/133/133
f 136/136/136 133/133/133 134/134/134
f 139/139/139 138/138/138 137/137/137
f 140/140/140 137/137/137 138/138/138
f 143/143/143 142/142/142 141/141/141
f 144/144/144 141/141/141 142/142/142
f 147/147/147 146/146/146 145/145/145
f 148/148/148 145/145/145 146/146/146
f 151/151/151 150/150/150 149/149/149
f 152/152/152 149/149/149 150/150/150
f 155/155/155 154/154/154 153/153/153
f 156/156/156 153/153/153 154/154/154
f 159/159/159 158/158/158 157/157/157
f 160/160/160 157/157/157 158/158/158
f 163/163/163 162/162/162 161/161/161
f 164/164/164 161/161/161 162/162/162
f 167/167/167 166/166/166 165/165/165
f 168/168/168 165/165/165 166/166/166
f 171/171/171 170/170/170 169/169/169
f 172/172/172 169/169/169 170/170/170
f 175/175/175 174/174/174 173/173/173
f 176/176/176 173/173/173 174/174/174
f 179/179/179 178/178/178 177/177/177
f 180/180/180 177/177/177 178/178/178
f 183/183/183 182/182/182 181/181/181
f 184/184/184 181/181/181 182/182/182
f 187/187/187 186/186/186 185/185/185
f 188/188/188 187/187/187 185/185/185
f 189/189/189 185/185/185 186/186/186
f 186/186/186 190/190/190 189/189/189
f 185/185/185 191/191/191 188/188/188
f 192/192/192 188/188/188 191/191/191
f 192/192/192 191/191/191 193/193/193
f 189/189/189 194/194/194 185/185/185
f 191/191/191 185/185/185 194/194/194
f 195/195/195 189/189/189 190/190/190
f 189/189/189 195/195/195 194/194/194
f 196/196/196 195/195/195 190/190/190
f 197/197/197 193/193/193 191/191/191
f 191/191/191 194/194/194 197/197/197
f 193/193/193 197/197/197 198/198/198
f 195/195/195 196/196/196 199/199/199
f 199/199/199 194/194/194 195/195/195
f 200/200/200 199/199/199 196/196/196
f 200/200/200 201/201/201 199/199/199
f 197/197/197 202/202/202 198/198/198
f 202/202/202 197/197/197 194/194/194
f 194/194/194 199/199/199 202/202/202
f 203/203/203 198/198/198 202/202/202
f 204/204/204 199/199/199 201/201/201
f 204/204/204 202/202/202 199/199/199
f 202/202/202 204/204/204 203/203/203
f 201/201/201 205/205/205 204/204/204
f 205/205/205 203/203/203 204/204/204
f 208/208/208 207/207/207 206/206/206
f 209/209/209 207/207/207 208/208/208
f 210/210/210 206/206/206 207/207/207
f 206/206/206 210/210/210 211/211/211
f 207/207/207 209/209/209 212/212/212
f 213/213/213 212/212/212 209/209/209
f 213/213/213 214/214/214 212/212/212
f 215/215/215 211/211/211 210/210/210
f 216/216/216 211/211/211 215/215/215
f 210/210/210 207/207/207 217/217/217
f 212/212/212 217/217/217 207/207/207
f 210/210/210 217/217/217 215/215/215
f 218/218/218 212/212/212 214/214/214
f 212/212/212 218/218/218 217/217/217
f 214/214/214 219/219/219 218/218/218
f 215/215/215 220/220/220 216/216/216
f 220/220/220 215/215/215 217/217/217
f 221/221/221 216/216/216 220/220/220
f 221/221/221 220/220/220 222/222/222
f 223/223/223 217/217/217 218/218/218
f 218/218/218 219/219/219 223/223/223
f 217/217/217 223/223/223 220/220/220
f 224/224/224 223/223/223 219/219/219
f 225/225/225 222/222/222 220/220/220
f 225/225/225 220/220/220 223/223/223
f 223/223/223 224/224/224 225/225/225
f 222/222/222 225/225/225 226/226/226
f 226/226/226 225/225/225 224/224/224
