g Text_D
v -0.9596507 0.801551 0.2300024
v -0.9799642 4.451599E-14 0.2300024
v -0.9799642 0.6606054 0.2300024
v -0.4085572 4.836806E-14 0.2300024
v -0.9799642 -0.6606054 0.2300024
v -0.9080213 0.9424967 0.2300024
v -0.9697741 -0.8280393 0.2300024
v -0.7662742 1.108645 0.2300024
v -0.9181447 -0.9689851 0.2300024
v -0.7763976 -1.135133 0.2300024
v -0.6081559 1.189183 0.2300024
v -0.6081559 -1.208625 0.2300024
v -0.4085572 0.6235449 0.2300024
v -0.4085572 -0.6598954 0.2300024
v -0.4085572 1.239469 0.2300024
v -0.4085572 -1.239469 0.2300024
v -0.3438317 0.6735488 0.2300024
v -0.3331068 -0.6900083 0.2300024
v -0.2866693 1.254536 0.2300024
v -0.2866693 -1.254536 0.2300024
v -0.2227267 0.6938084 0.2300024
v -0.2227267 -0.7008848 0.2300024
v -0.1016225 1.255664 0.2300024
v -0.1016225 0.693615 0.2300024
v 0.0518449 0.6696739 0.2300024
v 0.2053123 1.216942 0.2300024
v -0.1016225 -1.255664 0.2300024
v -0.1016225 -0.693615 0.2300024
v 0.0518449 -0.6696739 0.2300024
v 0.1779031 -1.214749 0.2300024
v 0.2053123 0.6069497 0.2300024
v 0.3974509 1.153211 0.2300024
v 0.5535918 1.071236 0.2300024
v 0.1969996 -0.599658 0.2300024
v 0.3700418 -1.128742 0.2300024
v 0.5261826 -1.046767 0.2300024
v 0.2980981 0.5242348 0.2300024
v 0.701268 0.9523126 0.2300024
v 0.820484 0.7818787 0.2300024
v 0.3520645 0.4248217 0.2300024
v 0.8974499 0.6028993 0.2300024
v 0.3849315 0.3234801 0.2300024
v 0.2871158 -0.4969985 0.2300024
v 0.6738589 -0.9278436 0.2300024
v 0.7930748 -0.7574096 0.2300024
v 0.3410823 -0.4060221 0.2300024
v 0.8822818 -0.5784302 0.2300024
v 0.3739493 -0.3046804 0.2300024
v 0.952355 0.3982059 0.2300024
v 0.4012042 0.1643326 0.2300024
v 0.9410875 -0.3982059 0.2300024
v 0.4012042 -0.1643326 0.2300024
v 0.4058427 5.3867E-14 0.2300024
v 0.9799642 5.774163E-14 0.2300024
v -0.4085572 0.6235449 -0.2300026
v -0.4085572 4.836806E-14 0.2300024
v -0.4085572 0.6235449 0.2300024
v -0.4085572 4.839626E-14 -0.2300026
v -0.4085572 -0.6598954 0.2300024
v -0.4085572 -0.6598954 -0.2300026
v -0.7662742 1.108645 -0.2300026
v -0.6081559 1.189183 0.2300024
v -0.7662742 1.108645 0.2300024
v -0.6081559 1.189183 -0.2300026
v -0.4085572 1.239469 0.2300024
v -0.4085572 1.239469 -0.2300026
v -0.2866693 1.254536 0.2300024
v -0.2866693 1.254536 -0.2300026
v -0.1016225 1.255664 0.2300024
v -0.1016225 1.255664 -0.2300026
v 0.2053123 1.216942 0.2300024
v 0.2053123 1.216942 -0.2300026
v 0.3974509 1.153211 0.2300024
v 0.3974509 1.153211 -0.2300026
v 0.5535918 1.071236 0.2300024
v 0.5535918 1.071236 -0.2300026
v 0.701268 0.9523126 0.2300024
v 0.701268 0.9523126 -0.2300026
v -0.7662742 1.108645 0.2300024
v -0.9080213 0.9424967 -0.2300026
v -0.7662742 1.108645 -0.2300026
v -0.9080213 0.9424967 0.2300024
v -0.9596507 0.801551 -0.2300026
v -0.9596507 0.801551 0.2300024
v -0.9799642 0.6606054 -0.2300026
v -0.9799642 0.6606054 0.2300024
v -0.9799642 4.454419E-14 -0.2300026
v -0.9799642 4.451599E-14 0.2300024
v -0.9799642 -0.6606054 -0.2300026
v -0.9799642 -0.6606054 0.2300024
v -0.9697741 -0.8280393 0.2300024
v -0.9697741 -0.8280393 -0.2300026
v -0.9181447 -0.9689851 0.2300024
v -0.9181447 -0.9689851 -0.2300026
v -0.7763976 -1.135133 0.2300024
v -0.7763976 -1.135133 -0.2300026
v -0.4085572 0.6235449 0.2300024
v -0.3438317 0.6735488 -0.2300026
v -0.4085572 0.6235449 -0.2300026
v -0.3438317 0.6735488 0.2300024
v -0.2227267 0.6938084 -0.2300026
v -0.2227267 0.6938084 0.2300024
v -0.1016225 0.693615 -0.2300026
v -0.1016225 0.693615 0.2300024
v 0.0518449 0.6696739 -0.2300026
v 0.0518449 0.6696739 0.2300024
v 0.2053123 0.6069497 -0.2300026
v 0.2053123 0.6069497 0.2300024
v 0.2980981 0.5242348 -0.2300026
v 0.2980981 0.5242348 0.2300024
v 0.701268 0.9523126 -0.2300026
v 0.820484 0.7818787 0.2300024
v 0.701268 0.9523126 0.2300024
v 0.820484 0.7818787 -0.2300026
v 0.8974499 0.6028993 0.2300024
v 0.8974499 0.6028993 -0.2300026
v 0.952355 0.3982059 0.2300024
v 0.952355 0.3982059 -0.2300026
v 0.9799642 5.774163E-14 0.2300024
v 0.9799642 5.776984E-14 -0.2300026
v 0.9410875 -0.3982059 0.2300024
v 0.9410875 -0.3982059 -0.2300026
v 0.8822818 -0.5784302 0.2300024
v 0.8822818 -0.5784302 -0.2300026
v 0.7930748 -0.7574096 0.2300024
v 0.7930748 -0.7574096 -0.2300026
v 0.6738589 -0.9278436 -0.2300026
v 0.6738589 -0.9278436 0.2300024
v 0.2980981 0.5242348 0.2300024
v 0.3520645 0.4248217 -0.2300026
v 0.2980981 0.5242348 -0.2300026
v 0.3520645 0.4248217 0.2300024
v 0.3849315 0.3234801 -0.2300026
v 0.3849315 0.3234801 0.2300024
v 0.4012042 0.1643326 -0.2300026
v 0.4012042 0.1643326 0.2300024
v 0.4058427 5.38952E-14 -0.2300026
v 0.4058427 5.3867E-14 0.2300024
v 0.4012042 -0.1643326 -0.2300026
v 0.4012042 -0.1643326 0.2300024
v 0.3739493 -0.3046804 0.2300024
v 0.3739493 -0.3046804 -0.2300026
v 0.3410823 -0.4060221 0.2300024
v 0.3410823 -0.4060221 -0.2300026
v 0.2871158 -0.4969985 0.2300024
v 0.2871158 -0.4969985 -0.2300026
v 0.1969996 -0.599658 0.2300024
v 0.1969996 -0.599658 -0.2300026
v -0.9799642 4.454419E-14 -0.2300026
v -0.9596507 0.801551 -0.2300026
v -0.9799642 0.6606054 -0.2300026
v -0.4085572 4.839626E-14 -0.2300026
v -0.9080213 0.9424967 -0.2300026
v -0.9799642 -0.6606054 -0.2300026
v -0.7662742 1.108645 -0.2300026
v -0.9697741 -0.8280393 -0.2300026
v -0.9181447 -0.9689851 -0.2300026
v -0.7763976 -1.135133 -0.2300026
v -0.6081559 1.189183 -0.2300026
v -0.6081559 -1.208625 -0.2300026
v -0.4085572 0.6235449 -0.2300026
v -0.4085572 -0.6598954 -0.2300026
v -0.4085572 1.239469 -0.2300026
v -0.4085572 -1.239469 -0.2300026
v -0.3438317 0.6735488 -0.2300026
v -0.3331068 -0.6900083 -0.2300026
v -0.2866693 1.254536 -0.2300026
v -0.2866693 -1.254536 -0.2300026
v -0.2227267 0.6938084 -0.2300026
v -0.2227267 -0.7008848 -0.2300026
v -0.1016225 1.255664 -0.2300026
v -0.1016225 0.693615 -0.2300026
v 0.0518449 0.6696739 -0.2300026
v 0.2053123 1.216942 -0.2300026
v -0.1016225 -1.255664 -0.2300026
v -0.1016225 -0.693615 -0.2300026
v 0.0518449 -0.6696739 -0.2300026
v 0.1779031 -1.214749 -0.2300026
v 0.2053123 0.6069497 -0.2300026
v 0.3974509 1.153211 -0.2300026
v 0.5535918 1.071236 -0.2300026
v 0.1969996 -0.599658 -0.2300026
v 0.3700418 -1.128742 -0.2300026
v 0.5261826 -1.046767 -0.2300026
v 0.2980981 0.5242348 -0.2300026
v 0.701268 0.9523126 -0.2300026
v 0.820484 0.7818787 -0.2300026
v 0.3520645 0.4248217 -0.2300026
v 0.8974499 0.6028993 -0.2300026
v 0.3849315 0.3234801 -0.2300026
v 0.2871158 -0.4969985 -0.2300026
v 0.6738589 -0.9278436 -0.2300026
v 0.7930748 -0.7574096 -0.2300026
v 0.3410823 -0.4060221 -0.2300026
v 0.8822818 -0.5784302 -0.2300026
v 0.3739493 -0.3046804 -0.2300026
v 0.952355 0.3982059 -0.2300026
v 0.4012042 0.1643326 -0.2300026
v 0.9410875 -0.3982059 -0.2300026
v 0.4012042 -0.1643326 -0.2300026
v 0.4058427 5.38952E-14 -0.2300026
v 0.9799642 5.776984E-14 -0.2300026
v -0.6081559 -1.208625 0.2300024
v -0.7763976 -1.135133 -0.2300026
v -0.7763976 -1.135133 0.2300024
v -0.6081559 -1.208625 -0.2300026
v -0.4085572 -1.239469 0.2300024
v -0.4085572 -1.239469 -0.2300026
v -0.2866693 -1.254536 0.2300024
v -0.2866693 -1.254536 -0.2300026
v -0.1016225 -1.255664 0.2300024
v -0.1016225 -1.255664 -0.2300026
v 0.1779031 -1.214749 0.2300024
v 0.1779031 -1.214749 -0.2300026
v 0.3700418 -1.128742 0.2300024
v 0.3700418 -1.128742 -0.2300026
v 0.5261826 -1.046767 0.2300024
v 0.5261826 -1.046767 -0.2300026
v 0.6738589 -0.9278436 0.2300024
v 0.6738589 -0.9278436 -0.2300026
v -0.3331068 -0.6900083 -0.2300026
v -0.4085572 -0.6598954 0.2300024
v -0.4085572 -0.6598954 -0.2300026
v -0.3331068 -0.6900083 0.2300024
v -0.2227267 -0.7008848 -0.2300026
v -0.2227267 -0.7008848 0.2300024
v -0.1016225 -0.693615 -0.2300026
v -0.1016225 -0.693615 0.2300024
v 0.0518449 -0.6696739 -0.2300026
v 0.0518449 -0.6696739 0.2300024
v 0.1969996 -0.599658 -0.2300026
v 0.1969996 -0.599658 0.2300024
vt 0.003231734 0.7190261
vt 0.002519041 0.690904
vt 0.002519041 0.7140811
vt 0.02256665 0.690904
vt 0.002519041 0.6677269
vt 0.005043119 0.7239711
vt 0.00287655 0.6618525
vt 0.01001629 0.7298004
vt 0.004687935 0.6569074
vt 0.009661108 0.6510782
vt 0.01556382 0.7326261
vt 0.01556382 0.6484998
vt 0.02256665 0.7127808
vt 0.02256665 0.6677518
vt 0.02256665 0.7343903
vt 0.02256665 0.6474177
vt 0.02483752 0.7145352
vt 0.02521381 0.6666952
vt 0.02684304 0.734919
vt 0.02684304 0.646889
vt 0.02908644 0.715246
vt 0.02908644 0.6663136
vt 0.03333536 0.7349585
vt 0.03333536 0.7152392
vt 0.03871974 0.7143992
vt 0.04410407 0.7336
vt 0.03333536 0.6468494
vt 0.03333536 0.6665688
vt 0.03871974 0.6674087
vt 0.04314241 0.6482849
vt 0.04410407 0.7121986
vt 0.05084518 0.731364
vt 0.05632332 0.7284879
vt 0.04381242 0.6698652
vt 0.04988357 0.6513025
vt 0.05536172 0.6541785
vt 0.04735944 0.7092966
vt 0.06150451 0.7243155
vt 0.06568718 0.7183359
vt 0.04925284 0.7058087
vt 0.06838751 0.7120565
vt 0.05040595 0.7022532
vt 0.04697409 0.6734669
vt 0.06054285 0.6583509
vt 0.06472552 0.6643305
vt 0.04886749 0.6766589
vt 0.06785536 0.67061
vt 0.05002066 0.6802144
vt 0.07031381 0.7048749
vt 0.05097684 0.6966695
vt 0.06991851 0.6769331
vt 0.05097684 0.6851385
vt 0.05113962 0.690904
vt 0.07128251 0.690904
vt 0.1204418 0.7356992
vt 0.1083206 0.7192686
vt 0.1083206 0.7356992
vt 0.1204418 0.7192686
vt 0.1083206 0.7018802
vt 0.1204418 0.7018802
vt 0.1212362 0.6747988
vt 0.109115 0.6706324
vt 0.109115 0.6747988
vt 0.1212362 0.6706324
vt 0.109115 0.6653728
vt 0.1212362 0.6653728
vt 0.109115 0.6621611
vt 0.1212362 0.6621611
vt 0.109115 0.657285
vt 0.1212362 0.657285
vt 0.109115 0.6491972
vt 0.1212362 0.6491972
vt 0.109115 0.6441343
vt 0.1212362 0.6441343
vt 0.109115 0.64002
vt 0.1212362 0.64002
vt 0.109115 0.6361287
vt 0.1212362 0.6361287
vt 0.1214938 0.6929289
vt 0.1093726 0.6885509
vt 0.1093726 0.6929289
vt 0.1214938 0.6885509
vt 0.1093726 0.6848369
vt 0.1214938 0.6848369
vt 0.1093726 0.681123
vt 0.1214938 0.681123
vt 0.1093726 0.6637158
vt 0.1214938 0.6637158
vt 0.1093726 0.6463087
vt 0.1214938 0.6463087
vt 0.1214938 0.6418967
vt 0.1093726 0.6418967
vt 0.1214938 0.6381828
vt 0.1093726 0.6381828
vt 0.1214938 0.6338047
vt 0.1093726 0.6338047
vt 0.122481 0.674993
vt 0.1103597 0.6732875
vt 0.1103597 0.674993
vt 0.122481 0.6732875
vt 0.1103597 0.6700964
vt 0.122481 0.6700964
vt 0.1103597 0.6669053
vt 0.122481 0.6669053
vt 0.1103597 0.6628613
vt 0.122481 0.6628613
vt 0.1103597 0.6588174
vt 0.122481 0.6588174
vt 0.1103597 0.6563725
vt 0.122481 0.6563725
vt 0.1199266 0.6888074
vt 0.1078054 0.6843164
vt 0.1078054 0.6888074
vt 0.1199266 0.6843164
vt 0.1078054 0.6796002
vt 0.1199266 0.6796002
vt 0.1078054 0.6742065
vt 0.1199266 0.6742065
vt 0.1078054 0.6637136
vt 0.1199266 0.6637136
vt 0.1078054 0.6532208
vt 0.1199266 0.6532208
vt 0.1078054 0.6484718
vt 0.1199266 0.6484718
vt 0.1078054 0.6437557
vt 0.1199266 0.6437557
vt 0.1199266 0.6392647
vt 0.1078054 0.6392647
vt 0.1199483 0.6834544
vt 0.1078269 0.6808348
vt 0.1078269 0.6834544
vt 0.1199483 0.6808348
vt 0.1078269 0.6781644
vt 0.1199483 0.6781644
vt 0.1078269 0.6739708
vt 0.1199483 0.6739708
vt 0.1078269 0.6696406
vt 0.1199483 0.6696406
vt 0.1078269 0.6653104
vt 0.1199483 0.6653104
vt 0.1199483 0.6616122
vt 0.1078269 0.6616122
vt 0.1199483 0.6589418
vt 0.1078269 0.6589418
vt 0.1199483 0.6565446
vt 0.1078269 0.6565446
vt 0.1199483 0.6538395
vt 0.1078269 0.6538395
vt 0.002519041 0.690904
vt 0.003231734 0.7190261
vt 0.002519041 0.7140811
vt 0.02256665 0.690904
vt 0.005043119 0.7239711
vt 0.002519041 0.6677269
vt 0.01001629 0.7298004
vt 0.00287655 0.6618525
vt 0.004687935 0.6569074
vt 0.009661108 0.6510782
vt 0.01556382 0.7326261
vt 0.01556382 0.6484998
vt 0.02256665 0.7127808
vt 0.02256665 0.6677518
vt 0.02256665 0.7343903
vt 0.02256665 0.6474177
vt 0.02483752 0.7145352
vt 0.02521381 0.6666952
vt 0.02684304 0.734919
vt 0.02684304 0.646889
vt 0.02908644 0.715246
vt 0.02908644 0.6663136
vt 0.03333536 0.7349585
vt 0.03333536 0.7152392
vt 0.03871974 0.7143992
vt 0.04410407 0.7336
vt 0.03333536 0.6468494
vt 0.03333536 0.6665688
vt 0.03871974 0.6674087
vt 0.04314241 0.6482849
vt 0.04410407 0.7121986
vt 0.05084518 0.731364
vt 0.05632332 0.7284879
vt 0.04381242 0.6698652
vt 0.04988357 0.6513025
vt 0.05536172 0.6541785
vt 0.04735944 0.7092966
vt 0.06150451 0.7243155
vt 0.06568718 0.7183359
vt 0.04925284 0.7058087
vt 0.06838751 0.7120565
vt 0.05040595 0.7022532
vt 0.04697409 0.6734669
vt 0.06054285 0.6583509
vt 0.06472552 0.6643305
vt 0.04886749 0.6766589
vt 0.06785536 0.67061
vt 0.05002066 0.6802144
vt 0.07031381 0.7048749
vt 0.0509769 0.6966695
vt 0.06991851 0.6769331
vt 0.0509769 0.6851385
vt 0.05113962 0.690904
vt 0.07128251 0.690904
vt 0.1196474 0.6830862
vt 0.1075261 0.6875194
vt 0.1196474 0.6875194
vt 0.1075261 0.6830862
vt 0.1196474 0.6778266
vt 0.1075261 0.6778266
vt 0.1196474 0.6746149
vt 0.1075261 0.6746149
vt 0.1196474 0.6697388
vt 0.1075261 0.6697388
vt 0.1196474 0.6623733
vt 0.1075261 0.6623733
vt 0.1196474 0.6573104
vt 0.1075261 0.6573104
vt 0.1196474 0.653196
vt 0.1075261 0.653196
vt 0.1196474 0.6493047
vt 0.1075261 0.6493047
vt 0.1212362 0.6633847
vt 0.109115 0.6653728
vt 0.1212362 0.6653728
vt 0.109115 0.6633847
vt 0.1212362 0.6604761
vt 0.109115 0.6604761
vt 0.1212362 0.657285
vt 0.109115 0.657285
vt 0.1212362 0.6532412
vt 0.109115 0.6532412
vt 0.1212362 0.6494162
vt 0.109115 0.6494162
vn 0 0 1
vn 0 0 1
vn 2.544244E-07 0 1
vn 0 0 1
vn 0 0 1
vn 0 0 1
vn 0 0 1
vn 0 0 1
vn 0 0 1
vn 0 0 1
vn 0 0 1
vn 0 0 1
vn 0 0 1
vn 0 0 1
vn 0 0 1
vn 0 0 1
vn 0 0 1
vn 0 0 1
vn 0 0 1
vn 0 0 1
vn 0 0 1
vn 0 0 1
vn 0 0 1
vn 0 0 1
vn 0 0 1
vn 0 0 1
vn 0 0 1
vn 0 0 1
vn 0 0 1
vn 0 0 1
vn 0 0 1
vn 0 0 1
vn 0 0 1
vn 0 0 1
vn 0 0 1
vn 0 0 1
vn 0 0 1
vn 0 0 1
vn 0 0 1
vn 0 0 1
vn 0 0 1
vn 0 0 1
vn 0 0 1
vn 0 0 1
vn 0 0 1
vn 0 0 1
vn 0 0 1
vn 0 0 1
vn 0 0 1
vn 0 0 1
vn 0 0 1
vn 0 0 1
vn 0 0 1
vn 0 0 1
vn 0.8975973 -0.4408166 0
vn 1 0 0
vn 0.8975973 -0.4408165 0
vn 1 0 0
vn 0.8278516 0.5609471 0
vn 0.8278516 0.5609471 0
vn -0.6192544 0.7851905 0
vn -0.3512912 0.9362663 0
vn -0.6192544 0.7851905 0
vn -0.3512911 0.9362663 0
vn -0.1838434 0.9829556 0
vn -0.1838434 0.9829556 0
vn -0.06450072 0.9979177 0
vn -0.06450073 0.9979177 0
vn 0.05966282 0.9982186 0
vn 0.05966284 0.9982186 0
vn 0.2210441 0.9752638 0
vn 0.221044 0.9752638 0
vn 0.391134 0.9203338 0
vn 0.391134 0.9203338 0
vn 0.5486154 0.8360748 0
vn 0.5486155 0.8360748 0
vn 0.7305924 0.6828139 0
vn 0.7305925 0.6828138 0
vn -0.6192544 0.7851905 0
vn -0.8634533 0.5044287 0
vn -0.6192544 0.7851905 0
vn -0.8634533 0.5044287 0
vn -0.9696178 0.2446246 0
vn -0.9696178 0.2446246 0
vn -0.9974401 0.07150752 0
vn -0.9974401 0.07150753 0
vn -1 0 0
vn -1 0 0
vn -0.9995382 -0.03038797 0
vn -0.9995382 -0.03038797 0
vn -0.9788658 -0.2045035 0
vn -0.9788658 -0.2045035 0
vn -0.8634534 -0.5044286 0
vn -0.8634533 -0.5044287 0
vn -0.5957209 -0.8031915 0
vn -0.5957208 -0.8031915 0
vn 0.8975973 -0.4408165 0
vn 0.4002296 -0.916415 0
vn 0.8975973 -0.4408166 0
vn 0.4002295 -0.916415 0
vn 0.08198678 -0.9966335 0
vn 0.08198678 -0.9966335 0
vn -0.07809606 -0.9969458 0
vn -0.07809606 -0.9969458 0
vn -0.2680559 -0.9634033 0
vn -0.268056 -0.9634033 0
vn -0.5295212 -0.8482968 0
vn -0.5295212 -0.8482968 0
vn -0.7838041 -0.6210082 0
vn -0.783804 -0.6210083 0
vn 0.7305925 0.6828138 0
vn 0.8735974 0.4866493 0
vn 0.7305924 0.6828139 0
vn 0.8735974 0.4866495 0
vn 0.9447086 0.327911 0
vn 0.9447086 0.327911 0
vn 0.9863126 0.1648865 0
vn 0.9863126 0.1648865 0
vn 0.9999013 -0.01404858 0
vn 0.9999013 -0.01404858 0
vn 0.9787831 -0.204899 0
vn 0.9787831 -0.204899 0
vn 0.9253299 -0.3791628 0
vn 0.9253299 -0.3791628 0
vn 0.8595635 -0.511029 0
vn 0.8595634 -0.5110291 0
vn 0.7305924 -0.6828139 0
vn 0.7305924 -0.6828139 0
vn -0.783804 -0.6210083 0
vn -0.9189145 -0.3944567 0
vn -0.7838041 -0.6210082 0
vn -0.9189145 -0.3944567 0
vn -0.9784964 -0.2062638 0
vn -0.9784964 -0.2062638 0
vn -0.9978846 -0.06501083 0
vn -0.9978846 -0.06501083 0
vn -1 0 0
vn -1 0 0
vn -0.9939546 0.1097916 0
vn -0.9939546 0.1097916 0
vn -0.9682379 0.2500305 0
vn -0.9682379 0.2500306 0
vn -0.9112419 0.4118716 0
vn -0.9112419 0.4118716 0
vn -0.8092566 0.5874554 0
vn -0.8092566 0.5874554 0
vn -0.6051084 0.7961431 0
vn -0.6051084 0.7961431 0
vn 0 0 -1
vn 0 0 -1
vn 0 0 -1
vn 0 0 -1
vn 0 0 -1
vn 0 0 -1
vn 0 0 -1
vn 0 0 -1
vn 0 0 -1
vn 0 0 -1
vn 0 0 -1
vn 0 0 -1
vn 0 0 -1
vn 0 0 -1
vn 0 0 -1
vn 0 0 -1
vn 0 0 -1
vn 0 0 -1
vn 0 0 -1
vn 0 0 -1
vn 0 0 -1
vn 0 0 -1
vn 0 0 -1
vn 0 0 -1
vn 0 0 -1
vn 0 0 -1
vn 0 0 -1
vn 0 0 -1
vn 0 0 -1
vn 0 0 -1
vn 0 0 -1
vn 0 0 -1
vn 0 0 -1
vn 0 0 -1
vn 0 0 -1
vn 0 0 -1
vn 0 0 -1
vn 0 0 -1
vn 0 0 -1
vn 0 0 -1
vn 0 0 -1
vn 0 0 -1
vn 0 0 -1
vn 0 0 -1
vn 0 0 -1
vn 0 0 -1
vn 0 0 -1
vn 0 0 -1
vn 0 0 -1
vn 0 0 -1
vn 0 0 -1
vn 0 0 -1
vn 0 0 -1
vn 0 0 -1
vn -0.2788327 -0.9603397 0
vn -0.5957208 -0.8031915 0
vn -0.5957209 -0.8031915 0
vn -0.2788327 -0.9603397 0
vn -0.1377143 -0.990472 0
vn -0.1377143 -0.990472 0
vn -0.06450073 -0.9979177 0
vn -0.06450073 -0.9979177 0
vn 0.0695653 -0.9975774 0
vn 0.0695653 -0.9975774 0
vn 0.2793455 -0.9601907 0
vn 0.2793455 -0.9601907 0
vn 0.4369163 -0.8995022 0
vn 0.4369163 -0.8995022 0
vn 0.5486154 -0.8360748 0
vn 0.5486155 -0.8360748 0
vn 0.7305924 -0.6828139 0
vn 0.7305924 -0.6828139 0
vn 0.2367102 0.9715803 0
vn 0.8278516 0.5609471 0
vn 0.8278516 0.5609471 0
vn 0.2367103 0.9715803 0
vn 0.01913024 0.9998171 0
vn 0.01913026 0.9998171 0
vn -0.1071494 0.994243 0
vn -0.1071494 0.994243 0
vn -0.2975188 0.954716 0
vn -0.2975188 0.954716 0
vn -0.6051084 0.7961431 0
vn -0.6051084 0.7961431 0
g Text_D_0
f 3/3/3 2/2/2 1/1/1
f 4/4/4 1/1/1 2/2/2
f 4/4/4 2/2/2 5/5/5
f 6/6/6 1/1/1 4/4/4
f 7/7/7 4/4/4 5/5/5
f 8/8/8 6/6/6 4/4/4
f 7/7/7 9/9/9 4/4/4
f 9/9/9 10/10/10 4/4/4
f 11/11/11 8/8/8 4/4/4
f 10/10/10 12/12/12 4/4/4
f 13/13/13 11/11/11 4/4/4
f 12/12/12 14/14/14 4/4/4
f 15/15/15 11/11/11 13/13/13
f 12/12/12 16/16/16 14/14/14
f 13/13/13 17/17/17 15/15/15
f 14/14/14 16/16/16 18/18/18
f 19/19/19 15/15/15 17/17/17
f 20/20/20 18/18/18 16/16/16
f 17/17/17 21/21/21 19/19/19
f 18/18/18 20/20/20 22/22/22
f 23/23/23 19/19/19 21/21/21
f 24/24/24 23/23/23 21/21/21
f 24/24/24 25/25/25 23/23/23
f 26/26/26 23/23/23 25/25/25
f 27/27/27 22/22/22 20/20/20
f 27/27/27 28/28/28 22/22/22
f 28/28/28 27/27/27 29/29/29
f 30/30/30 29/29/29 27/27/27
f 31/31/31 26/26/26 25/25/25
f 31/31/31 32/32/32 26/26/26
f 32/32/32 31/31/31 33/33/33
f 30/30/30 34/34/34 29/29/29
f 35/35/35 34/34/34 30/30/30
f 35/35/35 36/36/36 34/34/34
f 37/37/37 33/33/33 31/31/31
f 38/38/38 33/33/33 37/37/37
f 38/38/38 37/37/37 39/39/39
f 40/40/40 39/39/39 37/37/37
f 39/39/39 40/40/40 41/41/41
f 42/42/42 41/41/41 40/40/40
f 43/43/43 34/34/34 36/36/36
f 36/36/36 44/44/44 43/43/43
f 44/44/44 45/45/45 43/43/43
f 46/46/46 43/43/43 45/45/45
f 45/45/45 47/47/47 46/46/46
f 48/48/48 46/46/46 47/47/47
f 41/41/41 42/42/42 49/49/49
f 50/50/50 49/49/49 42/42/42
f 47/47/47 51/51/51 48/48/48
f 52/52/52 48/48/48 51/51/51
f 50/50/50 53/53/53 49/49/49
f 52/52/52 51/51/51 53/53/53
f 54/54/54 49/49/49 53/53/53
f 54/54/54 53/53/53 51/51/51
f 57/57/57 56/56/56 55/55/55
f 58/58/58 55/55/55 56/56/56
f 56/56/56 59/59/59 58/58/58
f 60/60/60 58/58/58 59/59/59
f 63/63/63 62/62/62 61/61/61
f 64/64/64 61/61/61 62/62/62
f 62/62/62 65/65/65 64/64/64
f 66/66/66 64/64/64 65/65/65
f 65/65/65 67/67/67 66/66/66
f 68/68/68 66/66/66 67/67/67
f 67/67/67 69/69/69 68/68/68
f 70/70/70 68/68/68 69/69/69
f 69/69/69 71/71/71 70/70/70
f 72/72/72 70/70/70 71/71/71
f 71/71/71 73/73/73 72/72/72
f 74/74/74 72/72/72 73/73/73
f 73/73/73 75/75/75 74/74/74
f 76/76/76 74/74/74 75/75/75
f 75/75/75 77/77/77 76/76/76
f 78/78/78 76/76/76 77/77/77
f 81/81/81 80/80/80 79/79/79
f 82/82/82 79/79/79 80/80/80
f 80/80/80 83/83/83 82/82/82
f 84/84/84 82/82/82 83/83/83
f 83/83/83 85/85/85 84/84/84
f 86/86/86 84/84/84 85/85/85
f 85/85/85 87/87/87 86/86/86
f 88/88/88 86/86/86 87/87/87
f 87/87/87 89/89/89 88/88/88
f 90/90/90 88/88/88 89/89/89
f 90/90/90 89/89/89 91/91/91
f 92/92/92 91/91/91 89/89/89
f 91/91/91 92/92/92 93/93/93
f 94/94/94 93/93/93 92/92/92
f 93/93/93 94/94/94 95/95/95
f 96/96/96 95/95/95 94/94/94
f 99/99/99 98/98/98 97/97/97
f 100/100/100 97/97/97 98/98/98
f 98/98/98 101/101/101 100/100/100
f 102/102/102 100/100/100 101/101/101
f 101/101/101 103/103/103 102/102/102
f 104/104/104 102/102/102 103/103/103
f 103/103/103 105/105/105 104/104/104
f 106/106/106 104/104/104 105/105/105
f 105/105/105 107/107/107 106/106/106
f 108/108/108 106/106/106 107/107/107
f 107/107/107 109/109/109 108/108/108
f 110/110/110 108/108/108 109/109/109
f 113/113/113 112/112/112 111/111/111
f 114/114/114 111/111/111 112/112/112
f 112/112/112 115/115/115 114/114/114
f 116/116/116 114/114/114 115/115/115
f 115/115/115 117/117/117 116/116/116
f 118/118/118 116/116/116 117/117/117
f 117/117/117 119/119/119 118/118/118
f 120/120/120 118/118/118 119/119/119
f 119/119/119 121/121/121 120/120/120
f 122/122/122 120/120/120 121/121/121
f 121/121/121 123/123/123 122/122/122
f 124/124/124 122/122/122 123/123/123
f 123/123/123 125/125/125 124/124/124
f 126/126/126 124/124/124 125/125/125
f 126/126/126 125/125/125 127/127/127
f 128/128/128 127/127/127 125/125/125
f 131/131/131 130/130/130 129/129/129
f 132/132/132 129/129/129 130/130/130
f 130/130/130 133/133/133 132/132/132
f 134/134/134 132/132/132 133/133/133
f 133/133/133 135/135/135 134/134/134
f 136/136/136 134/134/134 135/135/135
f 135/135/135 137/137/137 136/136/136
f 138/138/138 136/136/136 137/137/137
f 137/137/137 139/139/139 138/138/138
f 140/140/140 138/138/138 139/139/139
f 140/140/140 139/139/139 141/141/141
f 142/142/142 141/141/141 139/139/139
f 141/141/141 142/142/142 143/143/143
f 144/144/144 143/143/143 142/142/142
f 143/143/143 144/144/144 145/145/145
f 146/146/146 145/145/145 144/144/144
f 145/145/145 146/146/146 147/147/147
f 148/148/148 147/147/147 146/146/146
f 151/151/151 150/150/150 149/149/149
f 152/152/152 149/149/149 150/150/150
f 150/150/150 153/153/153 152/152/152
f 149/149/149 152/152/152 154/154/154
f 153/153/153 155/155/155 152/152/152
f 152/152/152 156/156/156 154/154/154
f 157/157/157 156/156/156 152/152/152
f 158/158/158 157/157/157 152/152/152
f 155/155/155 159/159/159 152/152/152
f 160/160/160 158/158/158 152/152/152
f 159/159/159 161/161/161 152/152/152
f 162/162/162 160/160/160 152/152/152
f 159/159/159 163/163/163 161/161/161
f 164/164/164 160/160/160 162/162/162
f 161/161/161 163/163/163 165/165/165
f 162/162/162 166/166/166 164/164/164
f 167/167/167 165/165/165 163/163/163
f 168/168/168 164/164/164 166/166/166
f 165/165/165 167/167/167 169/169/169
f 166/166/166 170/170/170 168/168/168
f 171/171/171 169/169/169 167/167/167
f 171/171/171 172/172/172 169/169/169
f 172/172/172 171/171/171 173/173/173
f 174/174/174 173/173/173 171/171/171
f 175/175/175 168/168/168 170/170/170
f 176/176/176 175/175/175 170/170/170
f 176/176/176 177/177/177 175/175/175
f 178/178/178 175/175/175 177/177/177
f 174/174/174 179/179/179 173/173/173
f 180/180/180 179/179/179 174/174/174
f 180/180/180 181/181/181 179/179/179
f 182/182/182 178/178/178 177/177/177
f 182/182/182 183/183/183 178/178/178
f 183/183/183 182/182/182 184/184/184
f 185/185/185 179/179/179 181/181/181
f 181/181/181 186/186/186 185/185/185
f 186/186/186 187/187/187 185/185/185
f 188/188/188 185/185/185 187/187/187
f 187/187/187 189/189/189 188/188/188
f 190/190/190 188/188/188 189/189/189
f 191/191/191 184/184/184 182/182/182
f 192/192/192 184/184/184 191/191/191
f 192/192/192 191/191/191 193/193/193
f 194/194/194 193/193/193 191/191/191
f 193/193/193 194/194/194 195/195/195
f 196/196/196 195/195/195 194/194/194
f 189/189/189 197/197/197 190/190/190
f 198/198/198 190/190/190 197/197/197
f 195/195/195 196/196/196 199/199/199
f 200/200/200 199/199/199 196/196/196
f 198/198/198 197/197/197 201/201/201
f 200/200/200 201/201/201 199/199/199
f 202/202/202 201/201/201 197/197/197
f 202/202/202 199/199/199 201/201/201
f 205/205/205 204/204/204 203/203/203
f 206/206/206 203/203/203 204/204/204
f 203/203/203 206/206/206 207/207/207
f 208/208/208 207/207/207 206/206/206
f 207/207/207 208/208/208 209/209/209
f 210/210/210 209/209/209 208/208/208
f 209/209/209 210/210/210 211/211/211
f 212/212/212 211/211/211 210/210/210
f 211/211/211 212/212/212 213/213/213
f 214/214/214 213/213/213 212/212/212
f 213/213/213 214/214/214 215/215/215
f 216/216/216 215/215/215 214/214/214
f 215/215/215 216/216/216 217/217/217
f 218/218/218 217/217/217 216/216/216
f 217/217/217 218/218/218 219/219/219
f 220/220/220 219/219/219 218/218/218
f 223/223/223 222/222/222 221/221/221
f 224/224/224 221/221/221 222/222/222
f 221/221/221 224/224/224 225/225/225
f 226/226/226 225/225/225 224/224/224
f 225/225/225 226/226/226 227/227/227
f 228/228/228 227/227/227 226/226/226
f 227/227/227 228/228/228 229/229/229
f 230/230/230 229/229/229 228/228/228
f 229/229/229 230/230/230 231/231/231
f 232/232/232 231/231/231 230/230/230
