g Text_E
v 0.8657239 0.8339196 0.2300111
v 0.8657239 1.097303 0.2300111
v 0.8900108 0.9656114 0.2300111
v 0.7809957 1.178885 0.2300111
v 0.7809957 0.7523386 0.2300111
v 0.6842784 1.211789 0.2300111
v 0.6842784 0.7194344 0.2300111
v 0.5156522 1.225243 0.2300111
v 0.5156522 0.7069219 0.2300111
v 0.3470261 1.231314 0.2300111
v 0.3470253 0.7017916 0.2300111
v -0.3120802 0.6934521 0.2300111
v -0.3120802 1.237771 0.2300111
v -0.5585411 1.204786 0.2300111
v -0.7063352 1.1333 0.2300111
v -0.8246489 0.9639524 0.2300111
v -0.8772736 0.6934521 0.2300111
v -0.3120802 0.2884953 0.2300111
v -0.8958461 0.3547525 0.2300111
v -0.8910277 -0.3226467 0.2300111
v -0.3120802 -0.2563895 0.2300111
v -0.8772736 -0.6770461 0.2300111
v -0.002772699 -0.2583873 0.2300111
v -0.002772699 0.2904931 0.2300111
v 0.1518807 -0.2586088 0.2300111
v 0.1518807 0.2907146 0.2300111
v -0.3120802 -0.6770461 0.2300111
v 0.306534 -0.2420003 0.2300111
v 0.306534 0.274106 0.2300111
v 0.4474409 0.2280102 0.2300111
v 0.4474409 -0.1959044 0.2300111
v 0.5209202 0.1290934 0.2300111
v 0.5209202 -0.09698759 0.2300111
v -0.8257713 -0.9225556 0.2300111
v -0.7241139 -1.089713 0.2300111
v -0.5585411 -1.196312 0.2300111
v -0.3255832 -1.237772 0.2300111
v 0.3470261 -1.234761 0.2300111
v 0.3470253 -0.6853856 0.2300111
v 0.5156522 -0.6905159 0.2300111
v 0.5156522 -1.228693 0.2300111
v 0.6842784 -0.7004324 0.2300111
v 0.6842784 -1.211729 0.2300111
v 0.7809957 -0.7309607 0.2300111
v 0.7809957 -1.182372 0.2300111
v 0.8657239 -0.8148216 0.2300111
v 0.8657239 -1.099685 0.2300111
v 0.8958461 -0.9601737 0.2300111
v -0.7063352 1.1333 0.2300111
v -0.8246489 0.9639524 -0.2300107
v -0.7063352 1.1333 -0.2300107
v -0.8246489 0.9639524 0.2300111
v -0.8772736 0.6934521 -0.2300107
v -0.8772736 0.6934521 0.2300111
v -0.8958461 0.3547525 0.2300111
v -0.8958461 0.3547525 -0.2300107
v -0.8910277 -0.3226467 -0.2300107
v -0.8910277 -0.3226467 0.2300111
v -0.8772736 -0.6770461 0.2300111
v -0.8772736 -0.6770461 -0.2300107
v -0.8257713 -0.9225556 0.2300111
v -0.8257713 -0.9225556 -0.2300107
v -0.7241139 -1.089713 0.2300111
v -0.7241139 -1.089713 -0.2300107
v -0.7063352 1.1333 -0.2300107
v -0.5585411 1.204786 0.2300111
v -0.7063352 1.1333 0.2300111
v -0.5585411 1.204786 -0.2300107
v -0.3120802 1.237771 0.2300111
v -0.3120802 1.237771 -0.2300107
v 0.3470261 1.231314 0.2300111
v 0.3470261 1.231314 -0.2300107
v 0.5156522 1.225243 0.2300111
v 0.5156522 1.225243 -0.2300107
v 0.6842784 1.211789 0.2300111
v 0.6842784 1.211789 -0.2300107
v 0.7809957 1.178885 0.2300111
v 0.7809957 1.178885 -0.2300107
v 0.8657239 1.097303 0.2300111
v 0.8657239 1.097303 -0.2300107
v 0.8657239 1.097303 -0.2300107
v 0.8900108 0.9656114 0.2300111
v 0.8657239 1.097303 0.2300111
v 0.8900108 0.9656114 -0.2300107
v 0.8657239 0.8339196 0.2300111
v 0.8657239 0.8339196 -0.2300107
v -0.3120802 0.6934521 0.2300111
v 0.3470253 0.7017916 -0.2300107
v -0.3120802 0.6934521 -0.2300107
v 0.3470253 0.7017916 0.2300111
v 0.5156522 0.7069219 -0.2300107
v 0.5156522 0.7069219 0.2300111
v 0.6842784 0.7194344 -0.2300107
v 0.6842784 0.7194344 0.2300111
v 0.7809957 0.7523386 -0.2300107
v 0.7809957 0.7523386 0.2300111
v 0.8657239 0.8339196 0.2300111
v 0.8657239 0.8339196 -0.2300107
v -0.3120802 0.2884953 0.2300111
v -0.3120802 0.6934521 -0.2300107
v -0.3120802 0.2884953 -0.2300107
v -0.3120802 0.6934521 0.2300111
v 0.4474409 0.2280102 -0.2300107
v 0.5209202 0.1290934 0.2300111
v 0.4474409 0.2280102 0.2300111
v 0.5209202 0.1290934 -0.2300107
v 0.5209202 -0.09698759 0.2300111
v 0.5209202 -0.09698759 -0.2300107
v 0.4474409 -0.1959044 0.2300111
v 0.4474409 -0.1959044 -0.2300107
v 0.4474409 0.2280102 0.2300111
v 0.306534 0.274106 -0.2300107
v 0.4474409 0.2280102 -0.2300107
v 0.306534 0.274106 0.2300111
v 0.1518807 0.2907146 -0.2300107
v 0.1518807 0.2907146 0.2300111
v -0.002772699 0.2904931 -0.2300107
v -0.002772699 0.2904931 0.2300111
v -0.3120802 0.2884953 -0.2300107
v -0.3120802 0.2884953 0.2300111
v 0.8657239 0.8339196 -0.2300107
v 0.8900108 0.9656114 -0.2300107
v 0.8657239 1.097303 -0.2300107
v 0.7809957 1.178885 -0.2300107
v 0.7809957 0.7523386 -0.2300107
v 0.6842784 1.211789 -0.2300107
v 0.6842784 0.7194344 -0.2300107
v 0.5156522 1.225243 -0.2300107
v 0.5156522 0.7069219 -0.2300107
v 0.3470261 1.231314 -0.2300107
v 0.3470253 0.7017916 -0.2300107
v -0.3120802 0.6934521 -0.2300107
v -0.3120802 1.237771 -0.2300107
v -0.5585411 1.204786 -0.2300107
v -0.7063352 1.1333 -0.2300107
v -0.8246489 0.9639524 -0.2300107
v -0.8772736 0.6934521 -0.2300107
v -0.3120802 0.2884953 -0.2300107
v -0.8958461 0.3547525 -0.2300107
v -0.8910277 -0.3226467 -0.2300107
v -0.3120802 -0.2563895 -0.2300107
v -0.8772736 -0.6770461 -0.2300107
v -0.002772699 -0.2583873 -0.2300107
v -0.002772699 0.2904931 -0.2300107
v 0.1518807 -0.2586088 -0.2300107
v 0.1518807 0.2907146 -0.2300107
v -0.3120802 -0.6770461 -0.2300107
v 0.306534 -0.2420003 -0.2300107
v 0.306534 0.274106 -0.2300107
v 0.4474409 0.2280102 -0.2300107
v 0.4474409 -0.1959044 -0.2300107
v 0.5209202 0.1290934 -0.2300107
v 0.5209202 -0.09698759 -0.2300107
v -0.8257713 -0.9225556 -0.2300107
v -0.7241139 -1.089713 -0.2300107
v -0.5585411 -1.196312 -0.2300107
v -0.3255832 -1.237772 -0.2300107
v 0.3470261 -1.234761 -0.2300107
v 0.3470253 -0.6853856 -0.2300107
v 0.5156522 -0.6905159 -0.2300107
v 0.5156522 -1.228693 -0.2300107
v 0.6842784 -0.7004324 -0.2300107
v 0.6842784 -1.211729 -0.2300107
v 0.7809957 -0.7309607 -0.2300107
v 0.7809957 -1.182372 -0.2300107
v 0.8657239 -0.8148216 -0.2300107
v 0.8657239 -1.099685 -0.2300107
v 0.8958461 -0.9601737 -0.2300107
v -0.5585411 -1.196312 0.2300111
v -0.7241139 -1.089713 -0.2300107
v -0.7241139 -1.089713 0.2300111
v -0.5585411 -1.196312 -0.2300107
v -0.3255832 -1.237772 0.2300111
v -0.3255832 -1.237772 -0.2300107
v 0.3470261 -1.234761 0.2300111
v 0.3470261 -1.234761 -0.2300107
v 0.5156522 -1.228693 0.2300111
v 0.5156522 -1.228693 -0.2300107
v 0.6842784 -1.211729 0.2300111
v 0.6842784 -1.211729 -0.2300107
v 0.7809957 -1.182372 0.2300111
v 0.7809957 -1.182372 -0.2300107
v 0.8657239 -1.099685 0.2300111
v 0.8657239 -1.099685 -0.2300107
v -0.3120802 -0.2563895 0.2300111
v -0.3120802 -0.6770461 -0.2300107
v -0.3120802 -0.6770461 0.2300111
v -0.3120802 -0.2563895 -0.2300107
v 0.3470253 -0.6853856 -0.2300107
v -0.3120802 -0.6770461 0.2300111
v -0.3120802 -0.6770461 -0.2300107
v 0.3470253 -0.6853856 0.2300111
v 0.5156522 -0.6905159 -0.2300107
v 0.5156522 -0.6905159 0.2300111
v 0.6842784 -0.7004324 -0.2300107
v 0.6842784 -0.7004324 0.2300111
v 0.7809957 -0.7309607 -0.2300107
v 0.7809957 -0.7309607 0.2300111
v 0.8657239 -0.8148216 -0.2300107
v 0.8657239 -0.8148216 0.2300111
v 0.8958461 -0.9601737 -0.2300107
v 0.8657239 -0.8148216 0.2300111
v 0.8657239 -0.8148216 -0.2300107
v 0.8958461 -0.9601737 0.2300111
v 0.8657239 -1.099685 -0.2300107
v 0.8657239 -1.099685 0.2300111
v -0.002772699 -0.2583873 0.2300111
v -0.3120802 -0.2563895 -0.2300107
v -0.3120802 -0.2563895 0.2300111
v -0.002772699 -0.2583873 -0.2300107
v 0.1518807 -0.2586088 0.2300111
v 0.1518807 -0.2586088 -0.2300107
v 0.306534 -0.2420003 0.2300111
v 0.306534 -0.2420003 -0.2300107
v 0.4474409 -0.1959044 0.2300111
v 0.4474409 -0.1959044 -0.2300107
vt 0.9451958 0.8431954
vt 0.9451958 0.8531624
vt 0.9461149 0.848179
vt 0.9419895 0.8562497
vt 0.9419895 0.8401083
vt 0.9383296 0.8574948
vt 0.9383296 0.8388631
vt 0.9319483 0.858004
vt 0.9319483 0.8383896
vt 0.9255672 0.8582337
vt 0.9255672 0.8381954
vt 0.9006251 0.8378799
vt 0.9006251 0.8584781
vt 0.8912985 0.8572298
vt 0.8857057 0.8545246
vt 0.8812284 0.8481162
vt 0.8792371 0.8378799
vt 0.9006251 0.8225554
vt 0.8785342 0.8250628
vt 0.8787165 0.7994285
vt 0.9006251 0.8019358
vt 0.8792371 0.7860172
vt 0.91233 0.8018602
vt 0.91233 0.822631
vt 0.9181825 0.8018517
vt 0.9181825 0.8226393
vt 0.9006251 0.7860172
vt 0.9240348 0.8024803
vt 0.9240348 0.8220109
vt 0.9293671 0.8202665
vt 0.9293671 0.8042247
vt 0.9321477 0.8165233
vt 0.9321477 0.8079679
vt 0.881186 0.7767266
vt 0.8850329 0.770401
vt 0.8912985 0.7663671
vt 0.9001142 0.7647982
vt 0.9255672 0.7649121
vt 0.9255672 0.7857016
vt 0.9319483 0.7855075
vt 0.9319483 0.7651417
vt 0.9383296 0.7851322
vt 0.9383296 0.7657837
vt 0.9419895 0.783977
vt 0.9419895 0.7668946
vt 0.9451958 0.7808035
vt 0.9451958 0.7700236
vt 0.9463357 0.7753031
vt 0.9945419 0.8388865
vt 0.9768455 0.832372
vt 0.9768455 0.8388865
vt 0.9945419 0.832372
vt 0.9768455 0.8219662
vt 0.9945419 0.8219662
vt 0.9945419 0.8089368
vt 0.9768455 0.8089368
vt 0.9768455 0.7828782
vt 0.9945419 0.7828782
vt 0.9945419 0.7692449
vt 0.9768455 0.7692449
vt 0.9945419 0.7598004
vt 0.9768455 0.7598004
vt 0.9945419 0.7533702
vt 0.9768455 0.7533702
vt 0.9953724 0.8159426
vt 0.9776759 0.8102572
vt 0.9776759 0.8159426
vt 0.9953724 0.8102572
vt 0.9776759 0.8007762
vt 0.9953724 0.8007762
vt 0.9776759 0.7754213
vt 0.9953724 0.7754213
vt 0.9776759 0.7689344
vt 0.9953724 0.7689344
vt 0.9776759 0.7624476
vt 0.9953724 0.7624476
vt 0.9776759 0.758727
vt 0.9953724 0.758727
vt 0.9776759 0.7554677
vt 0.9953724 0.7554677
vt 0.9960506 0.818124
vt 0.9783541 0.813058
vt 0.9783541 0.818124
vt 0.9960506 0.813058
vt 0.9783541 0.807992
vt 0.9960506 0.807992
vt 0.9953433 0.8197141
vt 0.9776468 0.7943592
vt 0.9776468 0.8197141
vt 0.9953433 0.7943592
vt 0.9776468 0.7878723
vt 0.9953433 0.7878723
vt 0.9776468 0.7813855
vt 0.9953433 0.7813855
vt 0.9776468 0.7776649
vt 0.9953433 0.7776649
vt 0.9953433 0.7744055
vt 0.9776468 0.7744055
vt 0.9778584 0.8531573
vt 0.9955549 0.8687354
vt 0.9955549 0.8531573
vt 0.9778584 0.8687354
vt 0.9964658 0.770565
vt 0.9787693 0.7667598
vt 0.9787693 0.770565
vt 0.9964658 0.7667598
vt 0.9787693 0.7580627
vt 0.9964658 0.7580627
vt 0.9787693 0.7542576
vt 0.9964658 0.7542576
vt 0.9776759 0.7715584
vt 0.9953724 0.7769789
vt 0.9953724 0.7715584
vt 0.9776759 0.7769789
vt 0.9953724 0.7829282
vt 0.9776759 0.7829282
vt 0.9953724 0.7888775
vt 0.9776759 0.7888775
vt 0.9953724 0.8007762
vt 0.9776759 0.8007762
vt 0.9451958 0.8431954
vt 0.9461149 0.848179
vt 0.9451958 0.8531624
vt 0.9419895 0.8562497
vt 0.9419895 0.8401083
vt 0.9383296 0.8574948
vt 0.9383296 0.8388631
vt 0.9319483 0.858004
vt 0.9319483 0.8383896
vt 0.9255672 0.8582337
vt 0.9255672 0.8381954
vt 0.9006251 0.8378799
vt 0.9006251 0.8584781
vt 0.8912985 0.8572298
vt 0.8857057 0.8545246
vt 0.8812284 0.8481162
vt 0.8792371 0.8378799
vt 0.9006251 0.8225554
vt 0.8785342 0.8250628
vt 0.8787165 0.7994285
vt 0.9006251 0.8019358
vt 0.8792371 0.7860172
vt 0.91233 0.8018602
vt 0.91233 0.822631
vt 0.9181825 0.8018517
vt 0.9181825 0.8226393
vt 0.9006251 0.7860172
vt 0.9240348 0.8024803
vt 0.9240348 0.8220109
vt 0.9293671 0.8202665
vt 0.9293671 0.8042247
vt 0.9321477 0.8165233
vt 0.9321477 0.8079679
vt 0.881186 0.7767266
vt 0.8850329 0.770401
vt 0.8912985 0.7663671
vt 0.9001142 0.7647982
vt 0.9255672 0.7649121
vt 0.9255672 0.7857016
vt 0.9319483 0.7855075
vt 0.9319483 0.7651417
vt 0.9383296 0.7851322
vt 0.9383296 0.7657837
vt 0.9419895 0.783977
vt 0.9419895 0.7668946
vt 0.9451958 0.7808035
vt 0.9451958 0.7700236
vt 0.9463357 0.7753031
vt 0.9953433 0.8254579
vt 0.9776468 0.8318273
vt 0.9953433 0.8318273
vt 0.9776468 0.8254579
vt 0.9953433 0.8164963
vt 0.9776468 0.8164963
vt 0.9953433 0.7906219
vt 0.9776468 0.7906219
vt 0.9953433 0.7841351
vt 0.9776468 0.7841351
vt 0.9953433 0.7776483
vt 0.9776468 0.7776483
vt 0.9953433 0.7739277
vt 0.9776468 0.7739277
vt 0.9953433 0.7706683
vt 0.9776468 0.7706683
vt 0.9778584 0.8687382
vt 0.9955549 0.8525562
vt 0.9778584 0.8525562
vt 0.9955549 0.8687382
vt 0.9953724 0.7754213
vt 0.9776759 0.8007762
vt 0.9953724 0.8007762
vt 0.9776759 0.7754213
vt 0.9953724 0.7689344
vt 0.9776759 0.7689344
vt 0.9953724 0.7624476
vt 0.9776759 0.7624476
vt 0.9953724 0.758727
vt 0.9776759 0.758727
vt 0.9953724 0.7554677
vt 0.9776759 0.7554677
vt 0.9964658 0.7755176
vt 0.9787693 0.7811091
vt 0.9964658 0.7811091
vt 0.9787693 0.7755176
vt 0.9964658 0.7701508
vt 0.9787693 0.7701508
vt 0.9957585 0.810307
vt 0.9780622 0.8222056
vt 0.9957585 0.8222056
vt 0.9780622 0.810307
vt 0.9957585 0.8043576
vt 0.9780622 0.8043576
vt 0.9957585 0.7984084
vt 0.9780622 0.7984084
vt 0.9957585 0.7929878
vt 0.9780622 0.7929878
vn 0 0 1
vn 0 0 1
vn 0 0 1
vn 0 0 1
vn 0 0 1
vn 0 0 1
vn 0 0 1
vn 0 0 1
vn 0 0 1
vn 0 0 1
vn 0 0 1
vn 0 0 1
vn 0 0 1
vn 0 0 1
vn 0 0 1
vn 0 0 1
vn 0 0 1
vn 0 0 1
vn 0 0 1
vn 0 0 1
vn 0 0 1
vn 0 0 1
vn 0 0 1
vn 0 0 1
vn 0 0 1
vn 0 0 1
vn 0 0 1
vn 0 0 1
vn 0 0 1
vn 0 0 1
vn 0 0 1
vn 0 0 1
vn 0 0 1
vn 0 0 1
vn 0 0 1
vn 0 0 1
vn 0 0 1
vn 0 0 1
vn 0 0 1
vn 0 0 1
vn 0 0 1
vn 0 0 1
vn 0 0 1
vn 0 0 1
vn 0 0 1
vn 0 0 1
vn 0 0 1
vn 0 0 1
vn -0.6486018 0.7611279 0
vn -0.9206787 0.3903216 0
vn -0.6486018 0.7611279 0
vn -0.9206787 0.3903216 0
vn -0.9923881 0.1231493 0
vn -0.9923881 0.1231493 0
vn -0.999716 0.02383127 0
vn -0.999716 0.02383127 0
vn -0.9997366 -0.02294961 0
vn -0.9997366 -0.02294961 0
vn -0.9924715 -0.1224763 0
vn -0.9924715 -0.1224763 0
vn -0.9299253 -0.3677484 0
vn -0.9299253 -0.3677483 0
vn -0.7161083 -0.6979892 0
vn -0.7161083 -0.6979892 0
vn -0.6486018 0.7611279 0
vn -0.2876557 0.9577339 0
vn -0.6486018 0.7611279 0
vn -0.2876557 0.9577339 0
vn -0.06158557 0.9981019 0
vn -0.06158558 0.9981019 0
vn 0.02289155 0.9997379 0
vn 0.02289155 0.9997379 0
vn 0.05777227 0.9983298 0
vn 0.05777227 0.9983298 0
vn 0.2023638 0.9793105 0
vn 0.2023638 0.9793105 0
vn 0.5203 0.8539836 0
vn 0.5203 0.8539836 0
vn 0.8807538 0.4735745 0
vn 0.8807538 0.4735745 0
vn 0.8807538 0.4735745 0
vn 1 0 0
vn 0.8807538 0.4735745 0
vn 1 0 0
vn 0.8807532 -0.4735755 0
vn 0.8807532 -0.4735755 0
vn 0.7115659 -0.7026194 0
vn 0.02153177 -0.9997682 0
vn 0.7115659 -0.7026194 0
vn 0.02153177 -0.9997682 0
vn 0.05221673 -0.9986357 0
vn 0.05221673 -0.9986357 0
vn 0.1996458 -0.9798681 0
vn 0.1996458 -0.9798681 0
vn 0.5202997 -0.8539838 0
vn 0.5202998 -0.8539838 0
vn 0.8807532 -0.4735755 0
vn 0.8807532 -0.4735755 0
vn 0.7048195 0.7093866 0
vn 0.7115659 -0.7026194 0
vn 0.7048195 0.7093866 0
vn 0.7115659 -0.7026194 0
vn 0.5843093 0.8115309 0
vn 0.9494079 0.3140453 0
vn 0.5843093 0.8115309 0
vn 0.9494079 0.3140453 0
vn 0.9494079 -0.3140453 0
vn 0.9494079 -0.3140453 0
vn 0.5843093 -0.8115309 0
vn 0.5843093 -0.811531 0
vn 0.5843093 0.8115309 0
vn 0.2099979 0.9777019 0
vn 0.5843093 0.8115309 0
vn 0.2099979 0.9777019 0
vn 0.05275054 0.9986078 0
vn 0.05275054 0.9986078 0
vn -0.003945599 0.9999923 0
vn -0.003945598 0.9999923 0
vn 0.7048195 0.7093866 0
vn 0.7048195 0.7093866 0
vn 0 0 -1
vn 0 0 -1
vn 0 0 -1
vn 0 0 -1
vn 0 0 -1
vn 0 0 -1
vn 0 0 -1
vn 0 0 -1
vn 0 0 -1
vn 0 0 -1
vn 0 0 -1
vn 0 0 -1
vn 0 0 -1
vn 0 0 -1
vn 0 0 -1
vn 0 0 -1
vn 0 0 -1
vn 0 0 -1
vn 0 0 -1
vn 0 0 -1
vn 0 0 -1
vn 0 0 -1
vn 0 0 -1
vn 0 0 -1
vn 0 0 -1
vn 0 0 -1
vn 0 0 -1
vn 0 0 -1
vn 0 0 -1
vn 0 0 -1
vn 0 0 -1
vn 0 0 -1
vn 0 0 -1
vn 0 0 -1
vn 0 0 -1
vn 0 0 -1
vn 0 0 -1
vn 0 0 -1
vn 0 0 -1
vn 0 0 -1
vn 0 0 -1
vn 0 0 -1
vn 0 0 -1
vn 0 0 -1
vn 0 0 -1
vn 0 0 -1
vn 0 0 -1
vn 0 0 -1
vn -0.3654101 -0.9308466 0
vn -0.7161083 -0.6979892 0
vn -0.7161083 -0.6979892 0
vn -0.3654101 -0.9308466 0
vn -0.08572001 -0.9963193 0
vn -0.08572001 -0.9963193 0
vn 0.02021897 -0.9997956 0
vn 0.02021897 -0.9997956 0
vn 0.06806291 -0.997681 0
vn 0.06806291 -0.997681 0
vn 0.1962001 -0.9805638 0
vn 0.1962001 -0.9805638 0
vn 0.5089378 -0.8608034 0
vn 0.5089376 -0.8608034 0
vn 0.8751167 -0.4839118 0
vn 0.8751167 -0.4839118 0
vn 0.7048194 -0.7093867 0
vn 0.7115657 0.7026195 0
vn 0.7115657 0.7026195 0
vn 0.7048195 -0.7093866 0
vn 0.0215317 0.9997682 0
vn 0.7115657 0.7026195 0
vn 0.7115657 0.7026195 0
vn 0.0215317 0.9997682 0
vn 0.04456267 0.9990066 0
vn 0.04456267 0.9990066 0
vn 0.1812366 0.9834395 0
vn 0.1812366 0.9834395 0
vn 0.5167071 0.8561622 0
vn 0.5167071 0.8561623 0
vn 0.8788055 0.4771801 0
vn 0.8788055 0.4771801 0
vn 0.9999914 -0.004152148 0
vn 0.8788055 0.4771801 0
vn 0.8788055 0.4771801 0
vn 0.9999914 -0.004152143 0
vn 0.8751167 -0.4839118 0
vn 0.8751167 -0.4839118 0
vn -0.003945598 -0.9999923 0
vn 0.7048195 -0.7093866 0
vn 0.7048194 -0.7093867 0
vn -0.003945599 -0.9999923 0
vn 0.05275054 -0.9986078 0
vn 0.05275054 -0.9986078 0
vn 0.2099979 -0.9777019 0
vn 0.2099979 -0.9777019 0
vn 0.5843093 -0.8115309 0
vn 0.5843093 -0.811531 0
g Text_E_0
f 3/3/3 2/2/2 1/1/1
f 2/2/2 4/4/4 1/1/1
f 5/5/5 1/1/1 4/4/4
f 4/4/4 6/6/6 5/5/5
f 7/7/7 5/5/5 6/6/6
f 6/6/6 8/8/8 7/7/7
f 9/9/9 7/7/7 8/8/8
f 8/8/8 10/10/10 9/9/9
f 11/11/11 9/9/9 10/10/10
f 11/11/11 10/10/10 12/12/12
f 13/13/13 12/12/12 10/10/10
f 13/13/13 14/14/14 12/12/12
f 12/12/12 14/14/14 15/15/15
f 16/16/16 12/12/12 15/15/15
f 17/17/17 12/12/12 16/16/16
f 12/12/12 17/17/17 18/18/18
f 19/19/19 18/18/18 17/17/17
f 19/19/19 20/20/20 18/18/18
f 21/21/21 18/18/18 20/20/20
f 20/20/20 22/22/22 21/21/21
f 21/21/21 23/23/23 18/18/18
f 24/24/24 18/18/18 23/23/23
f 23/23/23 25/25/25 24/24/24
f 26/26/26 24/24/24 25/25/25
f 27/27/27 21/21/21 22/22/22
f 25/25/25 28/28/28 26/26/26
f 29/29/29 26/26/26 28/28/28
f 29/29/29 28/28/28 30/30/30
f 31/31/31 30/30/30 28/28/28
f 30/30/30 31/31/31 32/32/32
f 33/33/33 32/32/32 31/31/31
f 27/27/27 22/22/22 34/34/34
f 27/27/27 34/34/34 35/35/35
f 36/36/36 27/27/27 35/35/35
f 36/36/36 37/37/37 27/27/27
f 37/37/37 38/38/38 27/27/27
f 39/39/39 27/27/27 38/38/38
f 39/39/39 38/38/38 40/40/40
f 41/41/41 40/40/40 38/38/38
f 40/40/40 41/41/41 42/42/42
f 43/43/43 42/42/42 41/41/41
f 42/42/42 43/43/43 44/44/44
f 45/45/45 44/44/44 43/43/43
f 44/44/44 45/45/45 46/46/46
f 47/47/47 46/46/46 45/45/45
f 47/47/47 48/48/48 46/46/46
f 51/51/51 50/50/50 49/49/49
f 52/52/52 49/49/49 50/50/50
f 50/50/50 53/53/53 52/52/52
f 54/54/54 52/52/52 53/53/53
f 54/54/54 53/53/53 55/55/55
f 56/56/56 55/55/55 53/53/53
f 56/56/56 57/57/57 55/55/55
f 58/58/58 55/55/55 57/57/57
f 58/58/58 57/57/57 59/59/59
f 60/60/60 59/59/59 57/57/57
f 59/59/59 60/60/60 61/61/61
f 62/62/62 61/61/61 60/60/60
f 61/61/61 62/62/62 63/63/63
f 64/64/64 63/63/63 62/62/62
f 67/67/67 66/66/66 65/65/65
f 68/68/68 65/65/65 66/66/66
f 66/66/66 69/69/69 68/68/68
f 70/70/70 68/68/68 69/69/69
f 69/69/69 71/71/71 70/70/70
f 72/72/72 70/70/70 71/71/71
f 71/71/71 73/73/73 72/72/72
f 74/74/74 72/72/72 73/73/73
f 73/73/73 75/75/75 74/74/74
f 76/76/76 74/74/74 75/75/75
f 75/75/75 77/77/77 76/76/76
f 78/78/78 76/76/76 77/77/77
f 77/77/77 79/79/79 78/78/78
f 80/80/80 78/78/78 79/79/79
f 83/83/83 82/82/82 81/81/81
f 84/84/84 81/81/81 82/82/82
f 82/82/82 85/85/85 84/84/84
f 86/86/86 84/84/84 85/85/85
f 89/89/89 88/88/88 87/87/87
f 90/90/90 87/87/87 88/88/88
f 88/88/88 91/91/91 90/90/90
f 92/92/92 90/90/90 91/91/91
f 91/91/91 93/93/93 92/92/92
f 94/94/94 92/92/92 93/93/93
f 93/93/93 95/95/95 94/94/94
f 96/96/96 94/94/94 95/95/95
f 96/96/96 95/95/95 97/97/97
f 98/98/98 97/97/97 95/95/95
f 101/101/101 100/100/100 99/99/99
f 102/102/102 99/99/99 100/100/100
f 105/105/105 104/104/104 103/103/103
f 106/106/106 103/103/103 104/104/104
f 104/104/104 107/107/107 106/106/106
f 108/108/108 106/106/106 107/107/107
f 107/107/107 109/109/109 108/108/108
f 110/110/110 108/108/108 109/109/109
f 113/113/113 112/112/112 111/111/111
f 114/114/114 111/111/111 112/112/112
f 112/112/112 115/115/115 114/114/114
f 116/116/116 114/114/114 115/115/115
f 115/115/115 117/117/117 116/116/116
f 118/118/118 116/116/116 117/117/117
f 117/117/117 119/119/119 118/118/118
f 120/120/120 118/118/118 119/119/119
f 123/123/123 122/122/122 121/121/121
f 123/123/123 121/121/121 124/124/124
f 125/125/125 124/124/124 121/121/121
f 124/124/124 125/125/125 126/126/126
f 127/127/127 126/126/126 125/125/125
f 126/126/126 127/127/127 128/128/128
f 129/129/129 128/128/128 127/127/127
f 128/128/128 129/129/129 130/130/130
f 131/131/131 130/130/130 129/129/129
f 131/131/131 132/132/132 130/130/130
f 133/133/133 130/130/130 132/132/132
f 134/134/134 133/133/133 132/132/132
f 134/134/134 132/132/132 135/135/135
f 132/132/132 136/136/136 135/135/135
f 132/132/132 137/137/137 136/136/136
f 132/132/132 138/138/138 137/137/137
f 139/139/139 137/137/137 138/138/138
f 139/139/139 138/138/138 140/140/140
f 141/141/141 140/140/140 138/138/138
f 140/140/140 141/141/141 142/142/142
f 141/141/141 138/138/138 143/143/143
f 144/144/144 143/143/143 138/138/138
f 143/143/143 144/144/144 145/145/145
f 146/146/146 145/145/145 144/144/144
f 147/147/147 142/142/142 141/141/141
f 145/145/145 146/146/146 148/148/148
f 149/149/149 148/148/148 146/146/146
f 149/149/149 150/150/150 148/148/148
f 151/151/151 148/148/148 150/150/150
f 150/150/150 152/152/152 151/151/151
f 153/153/153 151/151/151 152/152/152
f 142/142/142 147/147/147 154/154/154
f 154/154/154 147/147/147 155/155/155
f 147/147/147 156/156/156 155/155/155
f 157/157/157 156/156/156 147/147/147
f 157/157/157 147/147/147 158/158/158
f 159/159/159 158/158/158 147/147/147
f 159/159/159 160/160/160 158/158/158
f 161/161/161 158/158/158 160/160/160
f 160/160/160 162/162/162 161/161/161
f 163/163/163 161/161/161 162/162/162
f 162/162/162 164/164/164 163/163/163
f 165/165/165 163/163/163 164/164/164
f 164/164/164 166/166/166 165/165/165
f 167/167/167 165/165/165 166/166/166
f 168/168/168 167/167/167 166/166/166
f 171/171/171 170/170/170 169/169/169
f 172/172/172 169/169/169 170/170/170
f 169/169/169 172/172/172 173/173/173
f 174/174/174 173/173/173 172/172/172
f 173/173/173 174/174/174 175/175/175
f 176/176/176 175/175/175 174/174/174
f 175/175/175 176/176/176 177/177/177
f 178/178/178 177/177/177 176/176/176
f 177/177/177 178/178/178 179/179/179
f 180/180/180 179/179/179 178/178/178
f 179/179/179 180/180/180 181/181/181
f 182/182/182 181/181/181 180/180/180
f 181/181/181 182/182/182 183/183/183
f 184/184/184 183/183/183 182/182/182
f 187/187/187 186/186/186 185/185/185
f 188/188/188 185/185/185 186/186/186
f 191/191/191 190/190/190 189/189/189
f 192/192/192 189/189/189 190/190/190
f 189/189/189 192/192/192 193/193/193
f 194/194/194 193/193/193 192/192/192
f 193/193/193 194/194/194 195/195/195
f 196/196/196 195/195/195 194/194/194
f 195/195/195 196/196/196 197/197/197
f 198/198/198 197/197/197 196/196/196
f 197/197/197 198/198/198 199/199/199
f 200/200/200 199/199/199 198/198/198
f 203/203/203 202/202/202 201/201/201
f 204/204/204 201/201/201 202/202/202
f 201/201/201 204/204/204 205/205/205
f 206/206/206 205/205/205 204/204/204
f 209/209/209 208/208/208 207/207/207
f 210/210/210 207/207/207 208/208/208
f 207/207/207 210/210/210 211/211/211
f 212/212/212 211/211/211 210/210/210
f 211/211/211 212/212/212 213/213/213
f 214/214/214 213/213/213 212/212/212
f 213/213/213 214/214/214 215/215/215
f 216/216/216 215/215/215 214/214/214
