g Text_V
v 0.9054428 1.191626 0.230785
v 0.7099904 1.234977 0.230785
v 0.8260663 1.228105 0.230785
v 0.9700055 1.115485 0.230785
v 0.6222651 1.211211 0.230785
v 0.9931948 1.040746 0.230785
v 0.5421173 1.147127 0.230785
v 0.9916825 0.9204589 0.230785
v 0.4889519 1.064461 0.230785
v 0.9751781 0.8237505 0.230785
v 0.2730108 0.5409627 0.230785
v 0.8008019 0.2812828 0.230785
v 0.1345333 0.1497606 0.230785
v 0.6121362 -0.2462826 0.230785
v -3.875732E-07 -0.2414411 0.230785
v 0.4057973 -0.7738473 0.230785
v 0.3065584 -0.9857197 0.230785
v 0.2073199 -1.140228 0.230785
v 0.1036065 -1.213307 0.230785
v -3.875732E-07 -1.234977 0.230785
v -0.1036072 -1.213307 0.230785
v -0.2073207 -1.140228 0.230785
v -0.3065592 -0.9857197 0.230785
v -0.4057981 -0.7738473 0.230785
v -0.612137 -0.2462826 0.230785
v -0.134534 0.1497606 0.230785
v -0.8008026 0.2812828 0.230785
v -0.2730116 0.5409627 0.230785
v -0.9751788 0.8237505 0.230785
v -0.4889527 1.064461 0.230785
v -0.9916832 0.9204589 0.230785
v -0.5421181 1.147127 0.230785
v -0.993196 1.040746 0.230785
v -0.6222659 1.211211 0.230785
v -0.9700066 1.115485 0.230785
v -0.7099912 1.234977 0.230785
v -0.9054435 1.191626 0.230785
v -0.826067 1.228105 0.230785
v -3.875732E-07 -0.2414411 -0.2307853
v 0.1345333 0.1497606 0.230785
v -3.875732E-07 -0.2414411 0.230785
v 0.1345333 0.1497606 -0.2307853
v 0.2730108 0.5409627 0.230785
v 0.2730108 0.5409627 -0.2307853
v 0.4889519 1.064461 0.230785
v 0.4889519 1.064461 -0.2307853
v 0.5421173 1.147127 0.230785
v 0.5421173 1.147127 -0.2307853
v 0.5421173 1.147127 -0.2307853
v 0.6222651 1.211211 0.230785
v 0.5421173 1.147127 0.230785
v 0.6222651 1.211211 -0.2307853
v 0.7099904 1.234977 0.230785
v 0.7099904 1.234977 -0.2307853
v 0.8260663 1.228105 0.230785
v 0.8260663 1.228105 -0.2307853
v 0.9054428 1.191626 -0.2307853
v 0.9054428 1.191626 0.230785
v -3.875732E-07 -0.2414411 0.230785
v -0.134534 0.1497606 -0.2307853
v -3.875732E-07 -0.2414411 -0.2307853
v -0.134534 0.1497606 0.230785
v -0.2730116 0.5409627 -0.2307853
v -0.2730116 0.5409627 0.230785
v -0.4889527 1.064461 -0.2307853
v -0.4889527 1.064461 0.230785
v -0.5421181 1.147127 -0.2307853
v -0.5421181 1.147127 0.230785
v -0.5421181 1.147127 0.230785
v -0.6222659 1.211211 -0.2307853
v -0.5421181 1.147127 -0.2307853
v -0.6222659 1.211211 0.230785
v -0.7099912 1.234977 -0.2307853
v -0.7099912 1.234977 0.230785
v -0.826067 1.228105 -0.2307853
v -0.826067 1.228105 0.230785
v -0.9054435 1.191626 -0.2307853
v -0.9054435 1.191626 0.230785
v -0.9700066 1.115485 0.230785
v -0.9054435 1.191626 -0.2307853
v -0.9054435 1.191626 0.230785
v -0.9700066 1.115485 -0.2307853
v -0.993196 1.040746 0.230785
v -0.993196 1.040746 -0.2307853
v -0.9916832 0.9204589 0.230785
v -0.9916832 0.9204589 -0.2307853
v -0.9751788 0.8237505 0.230785
v -0.9751788 0.8237505 -0.2307853
v -0.8008026 0.2812828 0.230785
v -0.8008026 0.2812828 -0.2307853
v -0.612137 -0.2462826 0.230785
v -0.612137 -0.2462826 -0.2307853
v -0.4057981 -0.7738473 0.230785
v -0.4057981 -0.7738473 -0.2307853
v -0.3065592 -0.9857197 0.230785
v -0.3065592 -0.9857197 -0.2307853
v -0.2073207 -1.140228 0.230785
v -0.2073207 -1.140228 -0.2307853
v 0.7099904 1.234977 -0.2307853
v 0.9054428 1.191626 -0.2307853
v 0.8260663 1.228105 -0.2307853
v 0.9700055 1.115485 -0.2307853
v 0.6222651 1.211211 -0.2307853
v 0.9931948 1.040746 -0.2307853
v 0.5421173 1.147127 -0.2307853
v 0.9916825 0.9204589 -0.2307853
v 0.4889519 1.064461 -0.2307853
v 0.9751781 0.8237505 -0.2307853
v 0.2730108 0.5409627 -0.2307853
v 0.8008019 0.2812828 -0.2307853
v 0.1345333 0.1497606 -0.2307853
v 0.6121362 -0.2462826 -0.2307853
v -3.875732E-07 -0.2414411 -0.2307853
v 0.4057973 -0.7738473 -0.2307853
v 0.3065584 -0.9857197 -0.2307853
v 0.2073199 -1.140228 -0.2307853
v 0.1036065 -1.213307 -0.2307853
v -3.875732E-07 -1.234977 -0.2307853
v -0.1036072 -1.213307 -0.2307853
v -0.2073207 -1.140228 -0.2307853
v -0.3065592 -0.9857197 -0.2307853
v -0.4057981 -0.7738473 -0.2307853
v -0.612137 -0.2462826 -0.2307853
v -0.134534 0.1497606 -0.2307853
v -0.8008026 0.2812828 -0.2307853
v -0.2730116 0.5409627 -0.2307853
v -0.9751788 0.8237505 -0.2307853
v -0.4889527 1.064461 -0.2307853
v -0.9916832 0.9204589 -0.2307853
v -0.5421181 1.147127 -0.2307853
v -0.993196 1.040746 -0.2307853
v -0.6222659 1.211211 -0.2307853
v -0.9700066 1.115485 -0.2307853
v -0.7099912 1.234977 -0.2307853
v -0.9054435 1.191626 -0.2307853
v -0.826067 1.228105 -0.2307853
v 0.1036065 -1.213307 -0.2307853
v 0.2073199 -1.140228 0.230785
v 0.2073199 -1.140228 -0.2307853
v 0.1036065 -1.213307 0.230785
v -3.875732E-07 -1.234977 -0.2307853
v -3.875732E-07 -1.234977 0.230785
v -0.1036072 -1.213307 -0.2307853
v -0.1036072 -1.213307 0.230785
v -0.2073207 -1.140228 -0.2307853
v -0.2073207 -1.140228 0.230785
v 0.3065584 -0.9857197 0.230785
v 0.2073199 -1.140228 -0.2307853
v 0.2073199 -1.140228 0.230785
v 0.3065584 -0.9857197 -0.2307853
v 0.4057973 -0.7738473 0.230785
v 0.4057973 -0.7738473 -0.2307853
v 0.6121362 -0.2462826 0.230785
v 0.6121362 -0.2462826 -0.2307853
v 0.8008019 0.2812828 0.230785
v 0.8008019 0.2812828 -0.2307853
v 0.9751781 0.8237505 0.230785
v 0.9751781 0.8237505 -0.2307853
v 0.9916825 0.9204589 0.230785
v 0.9916825 0.9204589 -0.2307853
v 0.9931948 1.040746 -0.2307853
v 0.9931948 1.040746 0.230785
v 0.9700055 1.115485 0.230785
v 0.9700055 1.115485 -0.2307853
v 0.9054428 1.191626 0.230785
v 0.9054428 1.191626 -0.2307853
vt 0.3265979 0.1056464
vt 0.3189737 0.1073375
vt 0.3235016 0.1070694
vt 0.3291165 0.1026763
vt 0.3155516 0.1064104
vt 0.330021 0.09976077
vt 0.3124251 0.1039106
vt 0.329962 0.09506857
vt 0.3103512 0.1006858
vt 0.3293183 0.09129608
vt 0.3019277 0.08026493
vt 0.3225161 0.07013512
vt 0.2965258 0.06500471
vt 0.3151565 0.04955557
vt 0.2912779 0.0497444
vt 0.3071075 0.02897599
vt 0.3032363 0.02071115
vt 0.2993651 0.01468399
vt 0.2953194 0.01183328
vt 0.2912779 0.01098791
vt 0.2872363 0.01183328
vt 0.2831906 0.01468399
vt 0.2793194 0.02071115
vt 0.2754482 0.02897599
vt 0.2673992 0.04955557
vt 0.2860299 0.06500471
vt 0.2600397 0.07013512
vt 0.2806281 0.08026493
vt 0.2532375 0.09129608
vt 0.2722045 0.1006858
vt 0.2525937 0.09506857
vt 0.2701306 0.1039106
vt 0.2525347 0.09976077
vt 0.2670042 0.1064104
vt 0.2534392 0.1026763
vt 0.2635821 0.1073375
vt 0.2559578 0.1056464
vt 0.2590542 0.1070694
vt 0.3497385 0.04988459
vt 0.3717946 0.06857812
vt 0.3717946 0.04988459
vt 0.3497385 0.06857812
vt 0.3717946 0.08727169
vt 0.3497385 0.08727169
vt 0.3717946 0.112287
vt 0.3497385 0.112287
vt 0.3717946 0.1162372
vt 0.3497385 0.1162372
vt 0.3720829 0.03930137
vt 0.3500268 0.03547147
vt 0.3500268 0.03930137
vt 0.3720829 0.03547147
vt 0.3500268 0.03127953
vt 0.3720829 0.03127953
vt 0.3500268 0.02573285
vt 0.3720829 0.02573285
vt 0.3720829 0.02193984
vt 0.3500268 0.02193984
vt 0.3504093 0.04958484
vt 0.3724654 0.06827843
vt 0.3724654 0.04958484
vt 0.3504093 0.06827843
vt 0.3724654 0.08697188
vt 0.3504093 0.08697188
vt 0.3724654 0.1119872
vt 0.3504093 0.1119872
vt 0.3724654 0.1159375
vt 0.3504093 0.1159375
vt 0.3500268 0.04075906
vt 0.3720829 0.04458889
vt 0.3720829 0.04075906
vt 0.3500268 0.04458889
vt 0.3720829 0.04878083
vt 0.3500268 0.04878083
vt 0.3720829 0.05432752
vt 0.3500268 0.05432752
vt 0.3720829 0.05812052
vt 0.3500268 0.05812052
vt 0.3717946 0.1147251
vt 0.3497385 0.1183636
vt 0.3717946 0.1183636
vt 0.3497385 0.1147251
vt 0.3717946 0.1111537
vt 0.3497385 0.1111537
vt 0.3717946 0.1054058
vt 0.3497385 0.1054058
vt 0.3717946 0.1007847
vt 0.3497385 0.1007847
vt 0.3717946 0.07486284
vt 0.3497385 0.07486284
vt 0.3717946 0.0496532
vt 0.3497385 0.0496532
vt 0.3717946 0.02444354
vt 0.3497385 0.02444354
vt 0.3717946 0.01431927
vt 0.3497385 0.01431927
vt 0.3717946 0.006936073
vt 0.3497385 0.006936073
vt 0.2635821 0.1073375
vt 0.2559578 0.1056464
vt 0.2590542 0.1070694
vt 0.2534393 0.1026763
vt 0.2670042 0.1064104
vt 0.2525347 0.09976077
vt 0.2701306 0.1039106
vt 0.2525937 0.09506857
vt 0.2722045 0.1006858
vt 0.2532375 0.09129608
vt 0.2806281 0.08026493
vt 0.2600397 0.07013512
vt 0.2860299 0.06500471
vt 0.2673992 0.04955557
vt 0.2912779 0.0497444
vt 0.2754482 0.02897599
vt 0.2793194 0.02071115
vt 0.2831906 0.01468399
vt 0.2872363 0.01183328
vt 0.2912779 0.01098791
vt 0.2953194 0.01183328
vt 0.2993651 0.01468399
vt 0.3032363 0.02071115
vt 0.3071075 0.02897599
vt 0.3151565 0.04955557
vt 0.2965258 0.06500471
vt 0.3225161 0.07013512
vt 0.3019277 0.08026493
vt 0.3293183 0.09129608
vt 0.3103512 0.1006858
vt 0.329962 0.09506857
vt 0.3124251 0.1039106
vt 0.330021 0.09976077
vt 0.3155516 0.1064104
vt 0.3291165 0.1026763
vt 0.3189737 0.1073375
vt 0.3265979 0.1056464
vt 0.3235016 0.1070694
vt 0.3673534 0.06363833
vt 0.3723094 0.08569443
vt 0.3723094 0.06363833
vt 0.3673534 0.08569443
vt 0.3624027 0.06363833
vt 0.3624027 0.08569443
vt 0.3574518 0.06363833
vt 0.3574518 0.08569443
vt 0.3524959 0.06363833
vt 0.3524959 0.08569443
vt 0.3504093 0.01401952
vt 0.3724654 0.006636381
vt 0.3504093 0.006636381
vt 0.3724654 0.01401952
vt 0.3504093 0.02414384
vt 0.3724654 0.02414384
vt 0.3504093 0.04935351
vt 0.3724654 0.04935351
vt 0.3504093 0.07456315
vt 0.3724654 0.07456315
vt 0.3504093 0.100485
vt 0.3724654 0.100485
vt 0.3504093 0.1051061
vt 0.3724654 0.1051061
vt 0.3724654 0.110854
vt 0.3504093 0.110854
vt 0.3504093 0.1144254
vt 0.3724654 0.1144254
vt 0.3504093 0.1180638
vt 0.3724654 0.1180638
vn 0 0 1
vn 0 0 1
vn 0 0 1
vn 0 0 1
vn 0 0 1
vn 0 0 1
vn 0 0 1
vn 0 0 1
vn 0 0 1
vn 0 0 1
vn 0 0 1
vn 0 0 1
vn 0 0 1
vn 0 0 1
vn 0 0 1
vn 0 0 1
vn 0 0 1
vn 0 0 1
vn 0 0 1
vn 0 0 1
vn 0 0 1
vn 0 0 1
vn 0 0 1
vn 0 0 1
vn 0 0 1
vn 0 0 1
vn 0 0 1
vn 0 0 1
vn 0 0 1
vn 0 0 1
vn 0 0 1
vn 0 0 1
vn 0 0 1
vn 0 0 1
vn 0 0 1
vn 0 0 1
vn 0 0 1
vn 0 0 1
vn 0 1 0
vn -0.9441726 0.3294512 0
vn 0 1 0
vn -0.9441726 0.3294512 0
vn -0.9338651 0.3576255 0
vn -0.9338651 0.3576255 0
vn -0.8863553 0.4630057 0
vn -0.8863553 0.4630057 0
vn -0.7425492 0.6697915 0
vn -0.7425494 0.6697915 0
vn -0.7425494 0.6697915 0
vn -0.4524612 0.8917841 0
vn -0.7425492 0.6697915 0
vn -0.4524612 0.8917841 0
vn -0.1025366 0.9947292 0
vn -0.1025366 0.9947292 0
vn 0.2425146 0.9701477 0
vn 0.2425146 0.9701477 0
vn 0.604503 0.7966028 0
vn 0.604503 0.7966028 0
vn 0 1 0
vn 0.9441726 0.3294512 0
vn 0 1 0
vn 0.9441726 0.3294512 0
vn 0.9338651 0.3576255 0
vn 0.9338651 0.3576255 0
vn 0.8863553 0.4630057 0
vn 0.8863553 0.4630056 0
vn 0.7425494 0.6697915 0
vn 0.7425494 0.6697915 0
vn 0.7425494 0.6697915 0
vn 0.4524612 0.8917841 0
vn 0.7425494 0.6697915 0
vn 0.4524612 0.8917841 0
vn 0.1025366 0.9947292 0
vn 0.1025366 0.9947292 0
vn -0.2425147 0.9701477 0
vn -0.2425146 0.9701477 0
vn -0.6045018 0.7966037 0
vn -0.6045018 0.7966037 0
vn -0.8765871 0.4812433 0
vn -0.6045018 0.7966037 0
vn -0.6045018 0.7966037 0
vn -0.8765871 0.4812433 0
vn -0.98963 0.1436402 0
vn -0.98963 0.1436402 0
vn -0.9958801 -0.09067937 0
vn -0.9958801 -0.09067937 0
vn -0.9713319 -0.2377273 0
vn -0.9713319 -0.2377273 0
vn -0.9469361 -0.3214216 0
vn -0.9469361 -0.3214216 0
vn -0.9365527 -0.350527 0
vn -0.9365527 -0.350527 0
vn -0.9189317 -0.3944165 0
vn -0.9189317 -0.3944166 0
vn -0.8754225 -0.4833586 0
vn -0.8754224 -0.4833586 0
vn -0.7221057 -0.6917827 0
vn -0.7221057 -0.6917827 0
vn 0 0 -1
vn 0 0 -1
vn 0 0 -1
vn 0 0 -1
vn 0 0 -1
vn 0 0 -1
vn 0 0 -1
vn 0 0 -1
vn 0 0 -1
vn 0 0 -1
vn 0 0 -1
vn 0 0 -1
vn 0 0 -1
vn 0 0 -1
vn 0 0 -1
vn 0 0 -1
vn 0 0 -1
vn 0 0 -1
vn 0 0 -1
vn 0 0 -1
vn 0 0 -1
vn 0 0 -1
vn 0 0 -1
vn 0 0 -1
vn 0 0 -1
vn 0 0 -1
vn 0 0 -1
vn 0 0 -1
vn 0 0 -1
vn 0 0 -1
vn 0 0 -1
vn 0 0 -1
vn 0 0 -1
vn 0 0 -1
vn 0 0 -1
vn 0 0 -1
vn 0 0 -1
vn 0 0 -1
vn 0.398614 -0.9171187 0
vn 0.7221057 -0.6917827 0
vn 0.7221057 -0.6917827 0
vn 0.398614 -0.9171187 0
vn 0 -1 0
vn 0 -1 0
vn -0.398614 -0.9171187 0
vn -0.3986141 -0.9171187 0
vn -0.7221057 -0.6917827 0
vn -0.7221057 -0.6917827 0
vn 0.8754224 -0.4833586 0
vn 0.7221057 -0.6917827 0
vn 0.7221057 -0.6917827 0
vn 0.8754225 -0.4833586 0
vn 0.9189317 -0.3944166 0
vn 0.9189317 -0.3944165 0
vn 0.9365527 -0.350527 0
vn 0.9365527 -0.350527 0
vn 0.9469361 -0.3214216 0
vn 0.9469361 -0.3214216 0
vn 0.9713319 -0.2377273 0
vn 0.9713319 -0.2377272 0
vn 0.9958802 -0.09067775 0
vn 0.9958802 -0.09067776 0
vn 0.9896298 0.1436418 0
vn 0.9896298 0.1436418 0
vn 0.8765878 0.481242 0
vn 0.8765878 0.4812419 0
vn 0.604503 0.7966028 0
vn 0.604503 0.7966028 0
g Text_V_0
f 3/3/3 2/2/2 1/1/1
f 4/4/4 1/1/1 2/2/2
f 2/2/2 5/5/5 4/4/4
f 6/6/6 4/4/4 5/5/5
f 5/5/5 7/7/7 6/6/6
f 8/8/8 6/6/6 7/7/7
f 7/7/7 9/9/9 8/8/8
f 10/10/10 8/8/8 9/9/9
f 9/9/9 11/11/11 10/10/10
f 12/12/12 10/10/10 11/11/11
f 11/11/11 13/13/13 12/12/12
f 14/14/14 12/12/12 13/13/13
f 13/13/13 15/15/15 14/14/14
f 16/16/16 14/14/14 15/15/15
f 16/16/16 15/15/15 17/17/17
f 17/17/17 15/15/15 18/18/18
f 18/18/18 15/15/15 19/19/19
f 19/19/19 15/15/15 20/20/20
f 15/15/15 21/21/21 20/20/20
f 15/15/15 22/22/22 21/21/21
f 15/15/15 23/23/23 22/22/22
f 15/15/15 24/24/24 23/23/23
f 24/24/24 15/15/15 25/25/25
f 26/26/26 25/25/25 15/15/15
f 25/25/25 26/26/26 27/27/27
f 28/28/28 27/27/27 26/26/26
f 27/27/27 28/28/28 29/29/29
f 30/30/30 29/29/29 28/28/28
f 29/29/29 30/30/30 31/31/31
f 32/32/32 31/31/31 30/30/30
f 31/31/31 32/32/32 33/33/33
f 34/34/34 33/33/33 32/32/32
f 33/33/33 34/34/34 35/35/35
f 36/36/36 35/35/35 34/34/34
f 35/35/35 36/36/36 37/37/37
f 38/38/38 37/37/37 36/36/36
f 41/41/41 40/40/40 39/39/39
f 42/42/42 39/39/39 40/40/40
f 40/40/40 43/43/43 42/42/42
f 44/44/44 42/42/42 43/43/43
f 43/43/43 45/45/45 44/44/44
f 46/46/46 44/44/44 45/45/45
f 45/45/45 47/47/47 46/46/46
f 48/48/48 46/46/46 47/47/47
f 51/51/51 50/50/50 49/49/49
f 52/52/52 49/49/49 50/50/50
f 50/50/50 53/53/53 52/52/52
f 54/54/54 52/52/52 53/53/53
f 53/53/53 55/55/55 54/54/54
f 56/56/56 54/54/54 55/55/55
f 56/56/56 55/55/55 57/57/57
f 58/58/58 57/57/57 55/55/55
f 61/61/61 60/60/60 59/59/59
f 62/62/62 59/59/59 60/60/60
f 60/60/60 63/63/63 62/62/62
f 64/64/64 62/62/62 63/63/63
f 63/63/63 65/65/65 64/64/64
f 66/66/66 64/64/64 65/65/65
f 65/65/65 67/67/67 66/66/66
f 68/68/68 66/66/66 67/67/67
f 71/71/71 70/70/70 69/69/69
f 72/72/72 69/69/69 70/70/70
f 70/70/70 73/73/73 72/72/72
f 74/74/74 72/72/72 73/73/73
f 73/73/73 75/75/75 74/74/74
f 76/76/76 74/74/74 75/75/75
f 75/75/75 77/77/77 76/76/76
f 78/78/78 76/76/76 77/77/77
f 81/81/81 80/80/80 79/79/79
f 82/82/82 79/79/79 80/80/80
f 79/79/79 82/82/82 83/83/83
f 84/84/84 83/83/83 82/82/82
f 83/83/83 84/84/84 85/85/85
f 86/86/86 85/85/85 84/84/84
f 85/85/85 86/86/86 87/87/87
f 88/88/88 87/87/87 86/86/86
f 87/87/87 88/88/88 89/89/89
f 90/90/90 89/89/89 88/88/88
f 89/89/89 90/90/90 91/91/91
f 92/92/92 91/91/91 90/90/90
f 91/91/91 92/92/92 93/93/93
f 94/94/94 93/93/93 92/92/92
f 93/93/93 94/94/94 95/95/95
f 96/96/96 95/95/95 94/94/94
f 95/95/95 96/96/96 97/97/97
f 98/98/98 97/97/97 96/96/96
f 101/101/101 100/100/100 99/99/99
f 102/102/102 99/99/99 100/100/100
f 99/99/99 102/102/102 103/103/103
f 104/104/104 103/103/103 102/102/102
f 103/103/103 104/104/104 105/105/105
f 106/106/106 105/105/105 104/104/104
f 105/105/105 106/106/106 107/107/107
f 108/108/108 107/107/107 106/106/106
f 107/107/107 108/108/108 109/109/109
f 110/110/110 109/109/109 108/108/108
f 109/109/109 110/110/110 111/111/111
f 112/112/112 111/111/111 110/110/110
f 111/111/111 112/112/112 113/113/113
f 114/114/114 113/113/113 112/112/112
f 113/113/113 114/114/114 115/115/115
f 113/113/113 115/115/115 116/116/116
f 113/113/113 116/116/116 117/117/117
f 113/113/113 117/117/117 118/118/118
f 119/119/119 113/113/113 118/118/118
f 120/120/120 113/113/113 119/119/119
f 121/121/121 113/113/113 120/120/120
f 122/122/122 113/113/113 121/121/121
f 122/122/122 123/123/123 113/113/113
f 124/124/124 113/113/113 123/123/123
f 123/123/123 125/125/125 124/124/124
f 126/126/126 124/124/124 125/125/125
f 125/125/125 127/127/127 126/126/126
f 128/128/128 126/126/126 127/127/127
f 127/127/127 129/129/129 128/128/128
f 130/130/130 128/128/128 129/129/129
f 129/129/129 131/131/131 130/130/130
f 132/132/132 130/130/130 131/131/131
f 131/131/131 133/133/133 132/132/132
f 134/134/134 132/132/132 133/133/133
f 133/133/133 135/135/135 134/134/134
f 136/136/136 134/134/134 135/135/135
f 139/139/139 138/138/138 137/137/137
f 140/140/140 137/137/137 138/138/138
f 137/137/137 140/140/140 141/141/141
f 142/142/142 141/141/141 140/140/140
f 141/141/141 142/142/142 143/143/143
f 144/144/144 143/143/143 142/142/142
f 143/143/143 144/144/144 145/145/145
f 146/146/146 145/145/145 144/144/144
f 149/149/149 148/148/148 147/147/147
f 150/150/150 147/147/147 148/148/148
f 147/147/147 150/150/150 151/151/151
f 152/152/152 151/151/151 150/150/150
f 151/151/151 152/152/152 153/153/153
f 154/154/154 153/153/153 152/152/152
f 153/153/153 154/154/154 155/155/155
f 156/156/156 155/155/155 154/154/154
f 155/155/155 156/156/156 157/157/157
f 158/158/158 157/157/157 156/156/156
f 157/157/157 158/158/158 159/159/159
f 160/160/160 159/159/159 158/158/158
f 160/160/160 161/161/161 159/159/159
f 162/162/162 159/159/159 161/161/161
f 162/162/162 161/161/161 163/163/163
f 164/164/164 163/163/163 161/161/161
f 163/163/163 164/164/164 165/165/165
f 166/166/166 165/165/165 164/164/164
