g Text_U
v 0.7882759 1.240295 0.2304703
v 0.4876485 1.224085 0.2304703
v 0.5980542 1.262572 0.2304703
v 0.8681524 1.178233 0.2304703
v 0.4286385 1.164007 0.2304703
v 0.9077132 1.102098 0.2304703
v 0.3881813 1.079881 0.2304703
v 0.9301843 1.017972 0.2304703
v 0.3667884 0.9536642 0.2304703
v 0.9407627 0.8917556 0.2304703
v 0.3637344 -0.10049 0.2304703
v 0.9173781 -0.1623994 0.2304703
v 0.34461 -0.2776854 0.2304703
v 0.8842243 -0.4577217 0.2304703
v 0.3104694 -0.45488 0.2304703
v 0.8236179 -0.6980039 0.2304703
v 0.7633813 -0.8648077 0.2304703
v 0.2711199 -0.5521593 0.2304703
v 0.6864995 -0.9873211 0.2304703
v 0.5830737 -1.102051 0.2304703
v 0.2211074 -0.6311785 0.2304703
v 0.4220425 -1.197814 0.2304703
v 0.133274 -0.6945251 0.2304703
v 0.2198269 -1.252018 0.2304703
v 4.764615E-14 -0.7131014 0.2304703
v 5.125571E-14 -1.262572 0.2304703
v -0.2198269 -1.252018 0.2304703
v -0.133274 -0.6945251 0.2304703
v -0.4220425 -1.197814 0.2304703
v -0.2211074 -0.6311785 0.2304703
v -0.5830737 -1.102051 0.2304703
v -0.2711199 -0.5521593 0.2304703
v -0.6864992 -0.9873211 0.2304703
v -0.7633813 -0.8648077 0.2304703
v -0.3104694 -0.45488 0.2304703
v -0.8236179 -0.6980039 0.2304703
v -0.8842243 -0.4577217 0.2304703
v -0.34461 -0.2776854 0.2304703
v -0.9173781 -0.1623994 0.2304703
v -0.3637344 -0.10049 0.2304703
v -0.9407627 0.8917556 0.2304703
v -0.3667884 0.9536642 0.2304703
v -0.9301843 1.017972 0.2304703
v -0.3881813 1.079881 0.2304703
v -0.9077136 1.102098 0.2304703
v -0.4286385 1.164007 0.2304703
v -0.8681524 1.178233 0.2304703
v -0.4876485 1.224085 0.2304703
v -0.7882759 1.240295 0.2304703
v -0.5980542 1.262572 0.2304703
v 0.2211074 -0.6311785 0.2304703
v 0.133274 -0.6945251 -0.2304693
v 0.2211074 -0.6311785 -0.2304693
v 0.133274 -0.6945251 0.2304703
v 5.486527E-14 -0.7131014 -0.2304693
v 4.764615E-14 -0.7131014 0.2304703
v -0.133274 -0.6945251 -0.2304693
v -0.133274 -0.6945251 0.2304703
v -0.2211074 -0.6311785 -0.2304693
v -0.2211074 -0.6311785 0.2304703
v -0.2711199 -0.5521593 -0.2304693
v -0.2711199 -0.5521593 0.2304703
v -0.3104694 -0.45488 -0.2304693
v -0.3104694 -0.45488 0.2304703
v -0.34461 -0.2776854 -0.2304693
v -0.34461 -0.2776854 0.2304703
v -0.3637344 -0.10049 -0.2304693
v -0.3637344 -0.10049 0.2304703
v -0.3667884 0.9536642 -0.2304693
v -0.3667884 0.9536642 0.2304703
v -0.3881813 1.079881 -0.2304693
v -0.3881813 1.079881 0.2304703
v -0.4286385 1.164007 -0.2304693
v -0.4286385 1.164007 0.2304703
v -0.4876485 1.224085 -0.2304693
v -0.4876485 1.224085 0.2304703
v 0.2211074 -0.6311785 -0.2304693
v 0.2711199 -0.5521593 0.2304703
v 0.2211074 -0.6311785 0.2304703
v 0.2711199 -0.5521593 -0.2304693
v 0.3104694 -0.45488 0.2304703
v 0.3104694 -0.45488 -0.2304693
v 0.34461 -0.2776854 0.2304703
v 0.34461 -0.2776854 -0.2304693
v 0.3637344 -0.10049 0.2304703
v 0.3637344 -0.10049 -0.2304693
v 0.3667884 0.9536642 0.2304703
v 0.3667884 0.9536642 -0.2304693
v 0.3881813 1.079881 0.2304703
v 0.3881813 1.079881 -0.2304693
v 0.4286385 1.164007 0.2304703
v 0.4286385 1.164007 -0.2304693
v 0.4876485 1.224085 0.2304703
v 0.4876485 1.224085 -0.2304693
v 0.4876485 1.224085 -0.2304693
v 0.5980542 1.262572 0.2304703
v 0.4876485 1.224085 0.2304703
v 0.5980542 1.262572 -0.2304693
v 0.7882759 1.240295 0.2304703
v 0.7882759 1.240295 -0.2304693
v 0.8681524 1.178233 -0.2304693
v 0.8681524 1.178233 0.2304703
v -0.4876485 1.224085 0.2304703
v -0.5980542 1.262572 -0.2304693
v -0.4876485 1.224085 -0.2304693
v -0.5980542 1.262572 0.2304703
v -0.7882759 1.240295 0.2304703
v -0.7882759 1.240295 -0.2304693
v -0.8681524 1.178233 0.2304703
v -0.8681524 1.178233 -0.2304693
v 0.4876485 1.224085 -0.2304693
v 0.7882759 1.240295 -0.2304693
v 0.5980542 1.262572 -0.2304693
v 0.8681524 1.178233 -0.2304693
v 0.4286385 1.164007 -0.2304693
v 0.9077132 1.102098 -0.2304693
v 0.3881813 1.079881 -0.2304693
v 0.9301843 1.017972 -0.2304693
v 0.3667884 0.9536642 -0.2304693
v 0.9407627 0.8917556 -0.2304693
v 0.3637344 -0.10049 -0.2304693
v 0.9173781 -0.1623994 -0.2304693
v 0.34461 -0.2776854 -0.2304693
v 0.8842243 -0.4577217 -0.2304693
v 0.3104694 -0.45488 -0.2304693
v 0.8236179 -0.6980039 -0.2304693
v 0.7633813 -0.8648077 -0.2304693
v 0.2711199 -0.5521593 -0.2304693
v 0.6864995 -0.9873211 -0.2304693
v 0.5830737 -1.102051 -0.2304693
v 0.2211074 -0.6311785 -0.2304693
v 0.4220425 -1.197814 -0.2304693
v 0.133274 -0.6945251 -0.2304693
v 0.2198269 -1.252018 -0.2304693
v 5.486527E-14 -0.7131014 -0.2304693
v 5.847482E-14 -1.262572 -0.2304693
v -0.2198269 -1.252018 -0.2304693
v -0.133274 -0.6945251 -0.2304693
v -0.4220425 -1.197814 -0.2304693
v -0.2211074 -0.6311785 -0.2304693
v -0.5830737 -1.102051 -0.2304693
v -0.2711199 -0.5521593 -0.2304693
v -0.6864992 -0.9873211 -0.2304693
v -0.7633813 -0.8648077 -0.2304693
v -0.3104694 -0.45488 -0.2304693
v -0.8236179 -0.6980039 -0.2304693
v -0.8842243 -0.4577217 -0.2304693
v -0.34461 -0.2776854 -0.2304693
v -0.9173781 -0.1623994 -0.2304693
v -0.3637344 -0.10049 -0.2304693
v -0.9407627 0.8917556 -0.2304693
v -0.3667884 0.9536642 -0.2304693
v -0.9301843 1.017972 -0.2304693
v -0.3881813 1.079881 -0.2304693
v -0.9077136 1.102098 -0.2304693
v -0.4286385 1.164007 -0.2304693
v -0.8681524 1.178233 -0.2304693
v -0.4876485 1.224085 -0.2304693
v -0.7882759 1.240295 -0.2304693
v -0.5980542 1.262572 -0.2304693
v 0.4220425 -1.197814 -0.2304693
v 0.5830737 -1.102051 0.2304703
v 0.5830737 -1.102051 -0.2304693
v 0.4220425 -1.197814 0.2304703
v 0.2198269 -1.252018 -0.2304693
v 0.2198269 -1.252018 0.2304703
v 5.847482E-14 -1.262572 -0.2304693
v 5.125571E-14 -1.262572 0.2304703
v -0.2198269 -1.252018 -0.2304693
v -0.2198269 -1.252018 0.2304703
v -0.4220425 -1.197814 -0.2304693
v -0.4220425 -1.197814 0.2304703
v -0.5830737 -1.102051 -0.2304693
v -0.5830737 -1.102051 0.2304703
v 0.6864995 -0.9873211 0.2304703
v 0.5830737 -1.102051 -0.2304693
v 0.5830737 -1.102051 0.2304703
v 0.6864995 -0.9873211 -0.2304693
v 0.7633813 -0.8648077 0.2304703
v 0.7633813 -0.8648077 -0.2304693
v 0.8236179 -0.6980039 0.2304703
v 0.8236179 -0.6980039 -0.2304693
v 0.8842243 -0.4577217 0.2304703
v 0.8842243 -0.4577217 -0.2304693
v 0.9173781 -0.1623994 0.2304703
v 0.9173781 -0.1623994 -0.2304693
v 0.9407627 0.8917556 -0.2304693
v 0.9407627 0.8917556 0.2304703
v 0.9301843 1.017972 -0.2304693
v 0.9301843 1.017972 0.2304703
v 0.9077132 1.102098 0.2304703
v 0.9077132 1.102098 -0.2304693
v 0.8681524 1.178233 0.2304703
v 0.8681524 1.178233 -0.2304693
v -0.6864992 -0.9873211 -0.2304693
v -0.5830737 -1.102051 0.2304703
v -0.5830737 -1.102051 -0.2304693
v -0.6864992 -0.9873211 0.2304703
v -0.7633813 -0.8648077 -0.2304693
v -0.7633813 -0.8648077 0.2304703
v -0.8236179 -0.6980039 -0.2304693
v -0.8236179 -0.6980039 0.2304703
v -0.8842243 -0.4577217 -0.2304693
v -0.8842243 -0.4577217 0.2304703
v -0.9173781 -0.1623994 -0.2304693
v -0.9173781 -0.1623994 0.2304703
v -0.9407627 0.8917556 -0.2304693
v -0.9407627 0.8917556 0.2304703
v -0.9301843 1.017972 -0.2304693
v -0.9301843 1.017972 0.2304703
v -0.9077136 1.102098 -0.2304693
v -0.9077136 1.102098 0.2304703
v -0.8681524 1.178233 -0.2304693
v -0.8681524 1.178233 0.2304703
vt 0.1974609 0.1142133
vt 0.1855262 0.1135699
vt 0.1899092 0.1150978
vt 0.2006319 0.1117495
vt 0.1831835 0.1111847
vt 0.2022025 0.108727
vt 0.1815774 0.1078451
vt 0.2030945 0.1053873
vt 0.1807281 0.1028343
vt 0.2035145 0.1003766
vt 0.1806068 0.06098506
vt 0.2025862 0.05852726
vt 0.1798477 0.05395052
vt 0.20127 0.04680318
vt 0.1784922 0.04691598
vt 0.1988639 0.03726414
vt 0.1964726 0.03064212
vt 0.1769301 0.04305407
vt 0.1934204 0.02577841
vt 0.1893145 0.02122369
vt 0.1749446 0.03991705
vt 0.1829216 0.01742199
vt 0.1714577 0.03740224
vt 0.1748938 0.01527011
vt 0.1661668 0.03666478
vt 0.1661668 0.01485115
vt 0.1574398 0.01527011
vt 0.1608759 0.03740224
vt 0.149412 0.01742199
vt 0.157389 0.03991705
vt 0.1430192 0.02122369
vt 0.1554036 0.04305407
vt 0.1389133 0.02577841
vt 0.1358611 0.03064212
vt 0.1538414 0.04691598
vt 0.1334697 0.03726414
vt 0.1310637 0.04680318
vt 0.152486 0.05395052
vt 0.1297475 0.05852729
vt 0.1517268 0.06098506
vt 0.1288192 0.1003766
vt 0.1516055 0.1028343
vt 0.1292391 0.1053873
vt 0.1507563 0.1078451
vt 0.1301312 0.108727
vt 0.1491501 0.1111847
vt 0.1317018 0.1117495
vt 0.1468075 0.1135699
vt 0.1348728 0.1142133
vt 0.1424245 0.1150978
vt 0.2266515 0.01214632
vt 0.2461724 0.01586607
vt 0.2461724 0.01214629
vt 0.2266515 0.01586607
vt 0.2461724 0.02151024
vt 0.2266515 0.02151027
vt 0.2461724 0.02715442
vt 0.2266515 0.02715445
vt 0.2461724 0.03087419
vt 0.2266515 0.03087419
vt 0.2461724 0.03422067
vt 0.2266515 0.03422067
vt 0.2461724 0.03834048
vt 0.2266515 0.03834048
vt 0.2461724 0.0458447
vt 0.2266515 0.0458447
vt 0.2461724 0.05334896
vt 0.2266515 0.05334896
vt 0.2461724 0.0979926
vt 0.2266515 0.0979926
vt 0.2461724 0.1033379
vt 0.2266515 0.1033379
vt 0.2461724 0.1069007
vt 0.2266515 0.1069007
vt 0.2461724 0.109445
vt 0.2266515 0.109445
vt 0.2258738 0.02984381
vt 0.2453947 0.03319028
vt 0.2453947 0.02984378
vt 0.2258738 0.03319028
vt 0.2453947 0.03731009
vt 0.2258738 0.03731009
vt 0.2453947 0.04481432
vt 0.2258738 0.04481432
vt 0.2453947 0.05231857
vt 0.2258738 0.05231857
vt 0.2453947 0.09696221
vt 0.2258738 0.09696221
vt 0.2453947 0.1023076
vt 0.2258738 0.1023076
vt 0.2453947 0.1058702
vt 0.2258738 0.1058702
vt 0.2453947 0.1084145
vt 0.2258738 0.1084145
vt 0.2461808 0.07933199
vt 0.2266599 0.07465637
vt 0.2266599 0.07933199
vt 0.2461808 0.07465637
vt 0.2266599 0.06660044
vt 0.2461808 0.06660044
vt 0.2461808 0.06321764
vt 0.2266599 0.06321764
vt 0.2261447 0.09204257
vt 0.2456656 0.09671825
vt 0.2456656 0.09204257
vt 0.2261447 0.09671825
vt 0.2261447 0.1047742
vt 0.2456656 0.1047742
vt 0.2261447 0.1081569
vt 0.2456656 0.1081569
vt 0.1468075 0.1135699
vt 0.1348728 0.1142133
vt 0.1424245 0.1150978
vt 0.1317018 0.1117495
vt 0.1491502 0.1111847
vt 0.1301312 0.108727
vt 0.1507563 0.1078451
vt 0.1292391 0.1053873
vt 0.1516055 0.1028343
vt 0.1288192 0.1003766
vt 0.1517268 0.06098506
vt 0.1297475 0.05852729
vt 0.152486 0.05395052
vt 0.1310637 0.04680318
vt 0.1538414 0.04691598
vt 0.1334697 0.03726414
vt 0.1358611 0.03064212
vt 0.1554036 0.04305407
vt 0.1389132 0.02577841
vt 0.1430192 0.02122369
vt 0.157389 0.03991705
vt 0.149412 0.01742199
vt 0.1608759 0.03740224
vt 0.1574398 0.01527011
vt 0.1661668 0.03666478
vt 0.1661668 0.01485115
vt 0.1748938 0.01527011
vt 0.1714577 0.03740224
vt 0.1829216 0.01742199
vt 0.1749446 0.03991705
vt 0.1893145 0.02122369
vt 0.1769301 0.04305407
vt 0.1934204 0.02577841
vt 0.1964726 0.03064212
vt 0.1784922 0.04691598
vt 0.1988639 0.03726414
vt 0.20127 0.04680318
vt 0.1798477 0.05395052
vt 0.2025862 0.05852726
vt 0.1806068 0.06098506
vt 0.2035145 0.1003766
vt 0.1807281 0.1028343
vt 0.2030945 0.1053873
vt 0.1815774 0.1078451
vt 0.2022025 0.108727
vt 0.1831835 0.1111847
vt 0.2006319 0.1117495
vt 0.1855262 0.1135699
vt 0.1974609 0.1142133
vt 0.1899092 0.1150978
vt 0.2266599 0.01907018
vt 0.2461808 0.01225048
vt 0.2266599 0.01225048
vt 0.2461808 0.01907018
vt 0.2266599 0.02763405
vt 0.2461808 0.02763405
vt 0.2266599 0.03694376
vt 0.2461808 0.03694376
vt 0.2266599 0.04625347
vt 0.2461808 0.04625347
vt 0.2266599 0.05481735
vt 0.2461808 0.05481735
vt 0.2266599 0.06163704
vt 0.2461808 0.06163704
vt 0.2266515 0.01579148
vt 0.2461724 0.01093262
vt 0.2266515 0.01093265
vt 0.2461724 0.01579148
vt 0.2266515 0.02097997
vt 0.2461724 0.02097994
vt 0.2266515 0.02804413
vt 0.2461724 0.0280441
vt 0.2266515 0.03822014
vt 0.2461724 0.03822014
vt 0.2266515 0.05072707
vt 0.2461724 0.05072707
vt 0.2461724 0.09537077
vt 0.2266515 0.09537077
vt 0.2461724 0.100716
vt 0.2266515 0.100716
vt 0.2266515 0.1042788
vt 0.2461724 0.1042788
vt 0.2266515 0.1075031
vt 0.2461724 0.1075031
vt 0.2258738 0.01476109
vt 0.2453946 0.009902239
vt 0.2258738 0.009902239
vt 0.2453946 0.01476109
vt 0.2258738 0.01994956
vt 0.2453946 0.01994956
vt 0.2258738 0.02701372
vt 0.2453947 0.02701372
vt 0.2258738 0.03718972
vt 0.2453947 0.03718972
vt 0.2258738 0.04969668
vt 0.2453947 0.04969668
vt 0.2258738 0.09434032
vt 0.2453947 0.09434032
vt 0.2258738 0.09968567
vt 0.2453947 0.09968567
vt 0.2258738 0.1032484
vt 0.2453947 0.1032484
vt 0.2258738 0.1064727
vt 0.2453947 0.1064727
vn 0 0 1
vn 0 0 1
vn 0 0 1
vn 0 0 1
vn 0 0 1
vn 0 0 1
vn 0 0 1
vn 0 0 1
vn 0 0 1
vn 0 0 1
vn 0 0 1
vn 0 0 1
vn 0 0 1
vn 0 0 1
vn 0 0 1
vn 0 0 1
vn 0 0 1
vn 0 0 1
vn 0 0 1
vn 0 0 1
vn 0 0 1
vn 0 0 1
vn 0 0 1
vn 0 0 1
vn 0 0 1
vn 0 0 1
vn 0 0 1
vn 0 0 1
vn 0 0 1
vn 0 0 1
vn 0 0 1
vn 0 0 1
vn 0 0 1
vn 0 0 1
vn 0 0 1
vn 0 0 1
vn 0 0 1
vn 0 0 1
vn 0 0 1
vn 0 0 1
vn 0 0 1
vn 0 0 1
vn 0 0 1
vn 0 0 1
vn 0 0 1
vn 0 0 1
vn 0 0 1
vn 0 0 1
vn 0 0 1
vn 0 0 1
vn -0.7281872 0.6853783 0
vn -0.3724585 0.9280488 0
vn -0.7281872 0.6853783 0
vn -0.3724585 0.9280488 0
vn 0 1 0
vn 0 1 0
vn 0.3724585 0.9280488 0
vn 0.3724586 0.9280488 0
vn 0.7281872 0.6853783 0
vn 0.7281872 0.6853784 0
vn 0.8896011 0.4567385 0
vn 0.8896011 0.4567385 0
vn 0.9589954 0.2834216 0
vn 0.9589954 0.2834216 0
vn 0.988931 0.1483763 0
vn 0.988931 0.1483763 0
vn 0.9984766 0.05517665 0
vn 0.9984766 0.05517667 0
vn 0.9963559 0.08529363 0
vn 0.9963559 0.08529363 0
vn 0.9529176 0.3032292 0
vn 0.9529176 0.3032292 0
vn 0.8183022 0.5747883 0
vn 0.8183022 0.5747882 0
vn 0.5353268 0.844645 0
vn 0.5353268 0.844645 0
vn -0.7281872 0.6853783 0
vn -0.8896011 0.4567385 0
vn -0.7281872 0.6853783 0
vn -0.8896011 0.4567385 0
vn -0.9589954 0.2834216 0
vn -0.9589954 0.2834216 0
vn -0.988931 0.1483763 0
vn -0.988931 0.1483763 0
vn -0.9984766 0.05517665 0
vn -0.9984766 0.05517666 0
vn -0.9963559 0.08529363 0
vn -0.9963559 0.08529363 0
vn -0.9529176 0.3032292 0
vn -0.9529176 0.3032292 0
vn -0.8183022 0.5747883 0
vn -0.8183022 0.5747882 0
vn -0.5353268 0.844645 0
vn -0.5353268 0.844645 0
vn -0.5353268 0.844645 0
vn -0.1092032 0.9940195 0
vn -0.5353268 0.844645 0
vn -0.1092032 0.9940195 0
vn 0.3788573 0.9254552 0
vn 0.3788573 0.9254552 0
vn 0.7682238 0.6401813 0
vn 0.7682238 0.6401813 0
vn 0.5353268 0.844645 0
vn 0.1092032 0.9940195 0
vn 0.5353268 0.844645 0
vn 0.1092032 0.9940195 0
vn -0.3788573 0.9254551 0
vn -0.3788573 0.9254551 0
vn -0.7682225 0.6401829 0
vn -0.7682225 0.6401829 0
vn 0 0 -1
vn 0 0 -1
vn 0 0 -1
vn 0 0 -1
vn 0 0 -1
vn 0 0 -1
vn 0 0 -1
vn 0 0 -1
vn 0 0 -1
vn 0 0 -1
vn 0 0 -1
vn 0 0 -1
vn 0 0 -1
vn 0 0 -1
vn 0 0 -1
vn 0 0 -1
vn 0 0 -1
vn 0 0 -1
vn 0 0 -1
vn 0 0 -1
vn 0 0 -1
vn 0 0 -1
vn 0 0 -1
vn 0 0 -1
vn 0 0 -1
vn 0 0 -1
vn 0 0 -1
vn 0 0 -1
vn 0 0 -1
vn 0 0 -1
vn 0 0 -1
vn 0 0 -1
vn 0 0 -1
vn 0 0 -1
vn 0 0 -1
vn 0 0 -1
vn 0 0 -1
vn 0 0 -1
vn 0 0 -1
vn 0 0 -1
vn 0 0 -1
vn 0 0 -1
vn 0 0 -1
vn 0 0 -1
vn 0 0 -1
vn 0 0 -1
vn 0 0 -1
vn 0 0 -1
vn 0 0 -1
vn 0 0 -1
vn 0.3886794 -0.921373 0
vn 0.6340942 -0.7732558 0
vn 0.6340942 -0.7732558 0
vn 0.3886795 -0.921373 0
vn 0.1543131 -0.988022 0
vn 0.1543131 -0.988022 0
vn 0 -1 0
vn 0 -1 0
vn -0.1543131 -0.988022 0
vn -0.1543131 -0.988022 0
vn -0.3886795 -0.921373 0
vn -0.3886794 -0.921373 0
vn -0.634095 -0.7732552 0
vn -0.6340949 -0.7732552 0
vn 0.7978812 -0.6028148 0
vn 0.6340942 -0.7732558 0
vn 0.6340942 -0.7732558 0
vn 0.7978812 -0.6028148 0
vn 0.8989257 -0.4381013 0
vn 0.8989255 -0.4381013 0
vn 0.9562736 -0.2924738 0
vn 0.9562736 -0.2924738 0
vn 0.9839446 -0.1784743 0
vn 0.9839446 -0.1784744 0
vn 0.9977573 -0.06693725 0
vn 0.9977573 -0.06693725 0
vn 0.9995282 0.03071356 0
vn 0.9995282 0.03071357 0
vn 0.98519 0.1714662 0
vn 0.98519 0.1714662 0
vn 0.932285 0.3617249 0
vn 0.932285 0.3617248 0
vn 0.7682238 0.6401813 0
vn 0.7682238 0.6401813 0
vn -0.7978811 -0.602815 0
vn -0.6340949 -0.7732552 0
vn -0.634095 -0.7732552 0
vn -0.7978811 -0.602815 0
vn -0.8989251 -0.4381023 0
vn -0.8989251 -0.4381023 0
vn -0.9562736 -0.2924738 0
vn -0.9562736 -0.2924738 0
vn -0.9839446 -0.1784743 0
vn -0.9839446 -0.1784743 0
vn -0.9977573 -0.06693725 0
vn -0.9977573 -0.06693725 0
vn -0.9995282 0.03071356 0
vn -0.9995282 0.03071357 0
vn -0.9851903 0.1714641 0
vn -0.9851903 0.1714641 0
vn -0.932285 0.3617246 0
vn -0.932285 0.3617247 0
vn -0.7682225 0.6401829 0
vn -0.7682225 0.6401829 0
g Text_U_0
f 3/3/3 2/2/2 1/1/1
f 4/4/4 1/1/1 2/2/2
f 2/2/2 5/5/5 4/4/4
f 6/6/6 4/4/4 5/5/5
f 5/5/5 7/7/7 6/6/6
f 8/8/8 6/6/6 7/7/7
f 7/7/7 9/9/9 8/8/8
f 10/10/10 8/8/8 9/9/9
f 9/9/9 11/11/11 10/10/10
f 12/12/12 10/10/10 11/11/11
f 11/11/11 13/13/13 12/12/12
f 14/14/14 12/12/12 13/13/13
f 13/13/13 15/15/15 14/14/14
f 16/16/16 14/14/14 15/15/15
f 17/17/17 16/16/16 15/15/15
f 15/15/15 18/18/18 17/17/17
f 19/19/19 17/17/17 18/18/18
f 19/19/19 18/18/18 20/20/20
f 18/18/18 21/21/21 20/20/20
f 22/22/22 20/20/20 21/21/21
f 21/21/21 23/23/23 22/22/22
f 24/24/24 22/22/22 23/23/23
f 23/23/23 25/25/25 24/24/24
f 26/26/26 24/24/24 25/25/25
f 26/26/26 25/25/25 27/27/27
f 28/28/28 27/27/27 25/25/25
f 27/27/27 28/28/28 29/29/29
f 30/30/30 29/29/29 28/28/28
f 29/29/29 30/30/30 31/31/31
f 32/32/32 31/31/31 30/30/30
f 32/32/32 33/33/33 31/31/31
f 33/33/33 32/32/32 34/34/34
f 35/35/35 34/34/34 32/32/32
f 36/36/36 34/34/34 35/35/35
f 36/36/36 35/35/35 37/37/37
f 38/38/38 37/37/37 35/35/35
f 37/37/37 38/38/38 39/39/39
f 40/40/40 39/39/39 38/38/38
f 39/39/39 40/40/40 41/41/41
f 42/42/42 41/41/41 40/40/40
f 41/41/41 42/42/42 43/43/43
f 44/44/44 43/43/43 42/42/42
f 43/43/43 44/44/44 45/45/45
f 46/46/46 45/45/45 44/44/44
f 45/45/45 46/46/46 47/47/47
f 48/48/48 47/47/47 46/46/46
f 47/47/47 48/48/48 49/49/49
f 50/50/50 49/49/49 48/48/48
f 53/53/53 52/52/52 51/51/51
f 54/54/54 51/51/51 52/52/52
f 52/52/52 55/55/55 54/54/54
f 56/56/56 54/54/54 55/55/55
f 55/55/55 57/57/57 56/56/56
f 58/58/58 56/56/56 57/57/57
f 57/57/57 59/59/59 58/58/58
f 60/60/60 58/58/58 59/59/59
f 59/59/59 61/61/61 60/60/60
f 62/62/62 60/60/60 61/61/61
f 61/61/61 63/63/63 62/62/62
f 64/64/64 62/62/62 63/63/63
f 63/63/63 65/65/65 64/64/64
f 66/66/66 64/64/64 65/65/65
f 65/65/65 67/67/67 66/66/66
f 68/68/68 66/66/66 67/67/67
f 67/67/67 69/69/69 68/68/68
f 70/70/70 68/68/68 69/69/69
f 69/69/69 71/71/71 70/70/70
f 72/72/72 70/70/70 71/71/71
f 71/71/71 73/73/73 72/72/72
f 74/74/74 72/72/72 73/73/73
f 73/73/73 75/75/75 74/74/74
f 76/76/76 74/74/74 75/75/75
f 79/79/79 78/78/78 77/77/77
f 80/80/80 77/77/77 78/78/78
f 78/78/78 81/81/81 80/80/80
f 82/82/82 80/80/80 81/81/81
f 81/81/81 83/83/83 82/82/82
f 84/84/84 82/82/82 83/83/83
f 83/83/83 85/85/85 84/84/84
f 86/86/86 84/84/84 85/85/85
f 85/85/85 87/87/87 86/86/86
f 88/88/88 86/86/86 87/87/87
f 87/87/87 89/89/89 88/88/88
f 90/90/90 88/88/88 89/89/89
f 89/89/89 91/91/91 90/90/90
f 92/92/92 90/90/90 91/91/91
f 91/91/91 93/93/93 92/92/92
f 94/94/94 92/92/92 93/93/93
f 97/97/97 96/96/96 95/95/95
f 98/98/98 95/95/95 96/96/96
f 96/96/96 99/99/99 98/98/98
f 100/100/100 98/98/98 99/99/99
f 100/100/100 99/99/99 101/101/101
f 102/102/102 101/101/101 99/99/99
f 105/105/105 104/104/104 103/103/103
f 106/106/106 103/103/103 104/104/104
f 106/106/106 104/104/104 107/107/107
f 108/108/108 107/107/107 104/104/104
f 107/107/107 108/108/108 109/109/109
f 110/110/110 109/109/109 108/108/108
f 113/113/113 112/112/112 111/111/111
f 114/114/114 111/111/111 112/112/112
f 111/111/111 114/114/114 115/115/115
f 116/116/116 115/115/115 114/114/114
f 115/115/115 116/116/116 117/117/117
f 118/118/118 117/117/117 116/116/116
f 117/117/117 118/118/118 119/119/119
f 120/120/120 119/119/119 118/118/118
f 119/119/119 120/120/120 121/121/121
f 122/122/122 121/121/121 120/120/120
f 121/121/121 122/122/122 123/123/123
f 124/124/124 123/123/123 122/122/122
f 123/123/123 124/124/124 125/125/125
f 126/126/126 125/125/125 124/124/124
f 126/126/126 127/127/127 125/125/125
f 125/125/125 127/127/127 128/128/128
f 129/129/129 128/128/128 127/127/127
f 128/128/128 129/129/129 130/130/130
f 128/128/128 130/130/130 131/131/131
f 132/132/132 131/131/131 130/130/130
f 131/131/131 132/132/132 133/133/133
f 134/134/134 133/133/133 132/132/132
f 133/133/133 134/134/134 135/135/135
f 136/136/136 135/135/135 134/134/134
f 136/136/136 137/137/137 135/135/135
f 138/138/138 135/135/135 137/137/137
f 137/137/137 139/139/139 138/138/138
f 140/140/140 138/138/138 139/139/139
f 139/139/139 141/141/141 140/140/140
f 142/142/142 140/140/140 141/141/141
f 143/143/143 142/142/142 141/141/141
f 143/143/143 144/144/144 142/142/142
f 145/145/145 142/142/142 144/144/144
f 144/144/144 146/146/146 145/145/145
f 146/146/146 147/147/147 145/145/145
f 148/148/148 145/145/145 147/147/147
f 147/147/147 149/149/149 148/148/148
f 150/150/150 148/148/148 149/149/149
f 149/149/149 151/151/151 150/150/150
f 152/152/152 150/150/150 151/151/151
f 151/151/151 153/153/153 152/152/152
f 154/154/154 152/152/152 153/153/153
f 153/153/153 155/155/155 154/154/154
f 156/156/156 154/154/154 155/155/155
f 155/155/155 157/157/157 156/156/156
f 158/158/158 156/156/156 157/157/157
f 157/157/157 159/159/159 158/158/158
f 160/160/160 158/158/158 159/159/159
f 163/163/163 162/162/162 161/161/161
f 164/164/164 161/161/161 162/162/162
f 161/161/161 164/164/164 165/165/165
f 166/166/166 165/165/165 164/164/164
f 165/165/165 166/166/166 167/167/167
f 168/168/168 167/167/167 166/166/166
f 167/167/167 168/168/168 169/169/169
f 170/170/170 169/169/169 168/168/168
f 169/169/169 170/170/170 171/171/171
f 172/172/172 171/171/171 170/170/170
f 171/171/171 172/172/172 173/173/173
f 174/174/174 173/173/173 172/172/172
f 177/177/177 176/176/176 175/175/175
f 178/178/178 175/175/175 176/176/176
f 175/175/175 178/178/178 179/179/179
f 180/180/180 179/179/179 178/178/178
f 179/179/179 180/180/180 181/181/181
f 182/182/182 181/181/181 180/180/180
f 181/181/181 182/182/182 183/183/183
f 184/184/184 183/183/183 182/182/182
f 183/183/183 184/184/184 185/185/185
f 186/186/186 185/185/185 184/184/184
f 186/186/186 187/187/187 185/185/185
f 188/188/188 185/185/185 187/187/187
f 187/187/187 189/189/189 188/188/188
f 190/190/190 188/188/188 189/189/189
f 190/190/190 189/189/189 191/191/191
f 192/192/192 191/191/191 189/189/189
f 191/191/191 192/192/192 193/193/193
f 194/194/194 193/193/193 192/192/192
f 197/197/197 196/196/196 195/195/195
f 198/198/198 195/195/195 196/196/196
f 195/195/195 198/198/198 199/199/199
f 200/200/200 199/199/199 198/198/198
f 199/199/199 200/200/200 201/201/201
f 202/202/202 201/201/201 200/200/200
f 201/201/201 202/202/202 203/203/203
f 204/204/204 203/203/203 202/202/202
f 203/203/203 204/204/204 205/205/205
f 206/206/206 205/205/205 204/204/204
f 205/205/205 206/206/206 207/207/207
f 208/208/208 207/207/207 206/206/206
f 207/207/207 208/208/208 209/209/209
f 210/210/210 209/209/209 208/208/208
f 209/209/209 210/210/210 211/211/211
f 212/212/212 211/211/211 210/210/210
f 211/211/211 212/212/212 213/213/213
f 214/214/214 213/213/213 212/212/212
