g ToolBox
v 0.5162823 -0.03839039 0.3741398
v -0.4940176 -0.0277843 0.407497
v 0.5162823 -0.02778415 0.407497
v -0.4940171 -0.03839049 0.3741402
v -0.4940176 -0.0277843 0.407497
v 0.5162823 -0.03839039 0.3741398
v 0.5162823 -0.01480559 0.3482762
v -0.4940171 -0.03839049 0.3741402
v 0.5162823 -0.03839039 0.3741398
v -0.4940176 -0.01480574 0.3482762
v 0.5162823 0.01938535 0.3557696
v -0.4940176 -0.01480574 0.3482762
v 0.5162823 -0.01480559 0.3482762
v -0.4940171 0.01938525 0.3557696
v 0.5162823 0.02999161 0.3891263
v -0.4940171 0.01938525 0.3557696
v 0.5162823 0.01938535 0.3557696
v -0.4940176 0.02999151 0.3891263
v 0.5162823 0.006406859 0.4149899
v -0.4940176 0.02999151 0.3891263
v 0.5162823 0.02999161 0.3891263
v -0.4940172 0.006406705 0.4149899
v 0.5162823 -0.02778415 0.407497
v -0.4940172 0.006406705 0.4149899
v 0.5162823 0.006406859 0.4149899
v -0.4940176 -0.0277843 0.407497
v -0.4145934 -0.2990738 0.07021943
v -0.3337238 -0.2990738 0.0323728
v -0.4272999 -0.2990738 0.0323728
v -0.4743592 -0.2990738 0.07021943
v -0.4743593 0.2906748 -0.3229465
v -0.4286255 0.2906748 -0.2891375
v -0.4291434 0.2906748 0.02992102
v -0.4743593 0.2906748 0.07021943
v 0.496624 0.09578545 0.4378292
v 0.496624 -0.2990736 0.07021927
v 0.496624 -0.1041842 0.4378292
v 0.496624 0.2906749 0.07021927
v 0.496624 -0.2990736 -0.3229465
v 0.496624 0.2906749 -0.3229465
v -0.4743593 0.2906748 -0.3229465
v -0.426563 0.2149273 -0.3229465
v 0.4514345 0.2149273 -0.3229465
v 0.496624 0.2906749 -0.3229465
v -0.4743592 -0.2990738 -0.3229465
v -0.4272999 -0.2990738 -0.2873427
v 0.4522373 -0.2990736 -0.2873427
v 0.496624 -0.2990736 -0.3229465
v 0.496624 0.2906749 -0.3229465
v 0.4528792 0.2906749 -0.2874976
v -0.4286255 0.2906748 -0.2891375
v -0.4743593 0.2906748 -0.3229465
v 0.4368588 -0.1041842 0.4378292
v 0.496624 0.09578545 0.4378292
v 0.496624 -0.1041842 0.4378292
v 0.4368588 0.0957854 0.4378292
v 0.496624 -0.2990736 -0.3229465
v 0.4522373 -0.2990736 -0.2873427
v 0.4522373 -0.2990736 0.03237268
v 0.496624 -0.2990736 0.07021927
v 0.4368588 0.2906749 0.07021927
v 0.4102254 0.2906749 0.03156085
v 0.4523612 0.2906749 0.03156085
v 0.496624 0.2906749 0.07021927
v -0.4145935 -0.2689764 0.07021943
v 0.4368589 -0.2990737 0.07021927
v -0.4145934 -0.2990738 0.07021943
v 0.4368588 -0.2689763 0.07021927
v -0.4145935 -0.1041843 0.4378292
v -0.4743592 0.0957853 0.4378292
v -0.4145935 0.0957853 0.4378292
v -0.4743593 -0.1041843 0.4378292
v 0.4368589 -0.2990737 0.07021927
v 0.4368588 -0.2689763 0.07021927
v 0.4368588 -0.1041842 0.4378292
v 0.4368589 0.2605775 0.07021927
v 0.4368588 0.0957854 0.4378292
v 0.4368588 0.2906749 0.07021927
v 0.4368589 0.2605775 -0.2449029
v 0.4368588 -0.2689763 -0.2449029
v 0.4368588 0.2906749 0.07021927
v -0.4145934 0.2605774 0.07021943
v -0.4145935 0.2906748 0.07021943
v 0.4368589 0.2605775 0.07021927
v 0.4368588 0.0957854 0.4378292
v 0.496624 0.2906749 0.07021927
v 0.496624 0.09578545 0.4378292
v 0.4368588 0.2906749 0.07021927
v 0.496624 -0.1041842 0.4378292
v 0.4368589 -0.2990737 0.07021927
v 0.4368588 -0.1041842 0.4378292
v 0.496624 -0.2990736 0.07021927
v 0.4368589 0.2605775 -0.2449029
v -0.4145935 -0.2689764 -0.2449029
v -0.4145934 0.2605774 -0.2449029
v 0.4368588 -0.2689763 -0.2449029
v 0.4368588 -0.2689763 -0.2449029
v -0.4145935 -0.2689764 0.07021943
v -0.4145935 -0.2689764 -0.2449029
v 0.4368588 -0.2689763 0.07021927
v -0.4145934 0.2605774 -0.2449029
v 0.4368589 0.2605775 0.07021927
v 0.4368589 0.2605775 -0.2449029
v -0.4145934 0.2605774 0.07021943
v -0.4145935 -0.2689764 -0.2449029
v -0.4145934 0.2605774 0.07021943
v -0.4145934 0.2605774 -0.2449029
v -0.4145935 -0.2689764 0.07021943
v -0.4145935 0.0957853 0.4378292
v -0.4145935 0.2906748 0.07021943
v -0.4145935 -0.1041843 0.4378292
v -0.4145934 -0.2990738 0.07021943
v -0.4743593 -0.1041843 0.4378292
v -0.4743593 0.2906748 0.07021943
v -0.4743592 0.0957853 0.4378292
v -0.4743592 -0.2990738 0.07021943
v -0.4743593 0.2906748 -0.3229465
v -0.4743592 -0.2990738 -0.3229465
v -0.4145935 -0.1041843 0.4378292
v -0.4743592 -0.2990738 0.07021943
v -0.4743593 -0.1041843 0.4378292
v -0.4145934 -0.2990738 0.07021943
v -0.4743592 0.0957853 0.4378292
v -0.4145935 0.2906748 0.07021943
v -0.4145935 0.0957853 0.4378292
v -0.4743593 0.2906748 0.07021943
v 0.496624 -0.2990736 -0.3229465
v 0.4514345 -0.2233262 -0.3229465
v -0.426563 -0.2233263 -0.3229465
v -0.4743592 -0.2990738 -0.3229465
v 0.4368589 -0.2990737 0.07021927
v 0.3586617 -0.2990737 0.03237268
v -0.3337238 -0.2990738 0.0323728
v -0.4145934 -0.2990738 0.07021943
v -0.4145935 0.2906748 0.07021943
v -0.36997 0.2906748 0.03156095
v 0.4102254 0.2906749 0.03156085
v 0.4368588 0.2906749 0.07021927
v -0.426563 -0.2233263 -0.3229465
v -0.426563 -0.2233263 -0.3083912
v -0.426563 0.2149273 -0.3083912
v -0.426563 0.2149273 -0.3229465
v 0.4514345 -0.2233262 -0.3229465
v 0.4514345 -0.2233262 -0.3083912
v -0.426563 -0.2233263 -0.3083912
v -0.426563 -0.2233263 -0.3229465
v 0.496624 0.2906749 -0.3229465
v 0.4514345 0.2149273 -0.3229465
v 0.4514345 -0.2233262 -0.3229465
v 0.496624 -0.2990736 -0.3229465
v -0.4743592 -0.2990738 -0.3229465
v -0.426563 -0.2233263 -0.3229465
v -0.426563 0.2149273 -0.3229465
v -0.4743593 0.2906748 -0.3229465
v -0.426563 -0.2233263 -0.3083912
v 0.4514345 0.2149273 -0.3083912
v -0.426563 0.2149273 -0.3083912
v 0.4514345 -0.2233262 -0.3083912
v 0.4514345 0.2149273 -0.3229465
v 0.4514345 0.2149273 -0.3083912
v 0.4514345 -0.2233262 -0.3083912
v 0.4514345 -0.2233262 -0.3229465
v -0.426563 0.2149273 -0.3229465
v -0.426563 0.2149273 -0.3083912
v 0.4514345 0.2149273 -0.3083912
v 0.4514345 0.2149273 -0.3229465
v 0.3586617 -0.2990737 0.03237268
v 0.3586617 -0.2878486 0.03237268
v -0.3337238 -0.2878487 0.0323728
v -0.3337238 -0.2990738 0.0323728
v -0.3337238 -0.2990738 0.0323728
v -0.3337238 -0.2878487 0.0323728
v -0.4272999 -0.2878487 0.0323728
v -0.4272999 -0.2990738 0.0323728
v 0.4522373 -0.2990736 -0.2873427
v 0.4522373 -0.2878486 -0.2873427
v 0.4522373 -0.2878486 0.03237268
v 0.4522373 -0.2990736 0.03237268
v -0.4272999 -0.2990738 -0.2873427
v -0.4272999 -0.2878487 -0.2873427
v 0.4522373 -0.2878486 -0.2873427
v 0.4522373 -0.2990736 -0.2873427
v -0.4743592 -0.2990738 0.07021943
v -0.4272999 -0.2990738 0.0323728
v -0.4272999 -0.2990738 -0.2873427
v -0.4743592 -0.2990738 -0.3229465
v 0.496624 -0.2990736 0.07021927
v 0.4522373 -0.2990736 0.03237268
v 0.3586617 -0.2990737 0.03237268
v 0.4368589 -0.2990737 0.07021927
v 0.4523612 0.2906749 0.03156085
v 0.4523612 0.2772048 0.03156085
v 0.4528792 0.2772048 -0.2874976
v 0.4528792 0.2906749 -0.2874976
v -0.4286255 0.2906748 -0.2891375
v -0.4286255 0.2772048 -0.2891375
v -0.4291434 0.2772048 0.02992102
v -0.4291434 0.2906748 0.02992102
v 0.4102254 0.2906749 0.03156085
v 0.4102254 0.2772048 0.03156085
v 0.4523612 0.2772048 0.03156085
v 0.4523612 0.2906749 0.03156085
v 0.4528792 0.2906749 -0.2874976
v 0.4528792 0.2772048 -0.2874976
v -0.4286255 0.2772048 -0.2891375
v -0.4286255 0.2906748 -0.2891375
v 0.496624 0.2906749 0.07021927
v 0.4523612 0.2906749 0.03156085
v 0.4528792 0.2906749 -0.2874976
v 0.496624 0.2906749 -0.3229465
v -0.4743593 0.2906748 0.07021943
v -0.4291434 0.2906748 0.02992102
v -0.36997 0.2906748 0.03156095
v -0.4145935 0.2906748 0.07021943
v 0.4102254 0.2772048 0.03156085
v 0.4528792 0.2772048 -0.2874976
v 0.4523612 0.2772048 0.03156085
v -0.36997 0.2772048 0.03156095
v -0.4286255 0.2772048 -0.2891375
v -0.4291434 0.2772048 0.02992102
v -0.4291434 0.2906748 0.02992102
v -0.4291434 0.2772048 0.02992102
v -0.36997 0.2772048 0.03156095
v -0.36997 0.2906748 0.03156095
v -0.36997 0.2906748 0.03156095
v -0.36997 0.2772048 0.03156095
v 0.4102254 0.2772048 0.03156085
v 0.4102254 0.2906749 0.03156085
v -0.3337238 -0.2878487 0.0323728
v -0.4272999 -0.2878487 -0.2873427
v -0.4272999 -0.2878487 0.0323728
v 0.4522373 -0.2878486 -0.2873427
v 0.3586617 -0.2878486 0.03237268
v 0.4522373 -0.2878486 0.03237268
v -0.4272999 -0.2990738 0.0323728
v -0.4272999 -0.2878487 0.0323728
v -0.4272999 -0.2878487 -0.2873427
v -0.4272999 -0.2990738 -0.2873427
v 0.4522373 -0.2990736 0.03237268
v 0.4522373 -0.2878486 0.03237268
v 0.3586617 -0.2878486 0.03237268
v 0.3586617 -0.2990737 0.03237268
v -0.4940176 -0.01480574 0.3482762
v -0.4940176 -0.004199495 0.3816331
v -0.4940171 -0.03839049 0.3741402
v -0.4940171 0.01938525 0.3557696
v -0.4940176 -0.0277843 0.407497
v -0.4940176 0.02999151 0.3891263
v -0.4940172 0.006406705 0.4149899
v 0.5162823 -0.01480559 0.3482762
v 0.5162823 -0.03839039 0.3741398
v 0.5162823 -0.004199393 0.3816331
v 0.5162823 0.01938535 0.3557696
v 0.5162823 -0.02778415 0.407497
v 0.5162823 0.02999161 0.3891263
v 0.5162823 0.006406859 0.4149899
vt 0.08125722 0.962557
vt 0.07042801 0.9627729
vt 0.08125722 0.9627729
vt 0.06810271 0.962557
vt 0.06810271 0.9627729
vt 0.07893192 0.962557
vt 0.0812572 0.9713034
vt 0.07042799 0.9714707
vt 0.0812572 0.9714707
vt 0.07042799 0.9713034
vt 0.08133484 0.9722731
vt 0.08156452 0.9826981
vt 0.08156452 0.9722731
vt 0.08133484 0.9826981
vt 0.07042799 0.9720282
vt 0.0812572 0.9718125
vt 0.07042799 0.9718125
vt 0.0812572 0.9720282
vt 0.07042799 0.9721956
vt 0.0812572 0.9720282
vt 0.07042799 0.9720282
vt 0.0812572 0.9721956
vt 0.0812572 0.9716865
vt 0.07042799 0.9717349
vt 0.0812572 0.9717349
vt 0.07042799 0.9716865
vt 0.09966207 0.9754955
vt 0.09966207 0.9754955
vt 0.09926053 0.9754955
vt 0.09926053 0.9754955
vt 0.1099033 0.9677023
vt 0.1099033 0.9677023
vt 0.1099033 0.970245
vt 0.1099033 0.970245
vt 0.1165956 0.9733953
vt 0.1139429 0.9710181
vt 0.1152521 0.9733953
vt 0.1179048 0.9710181
vt 0.1139429 0.9684753
vt 0.1179048 0.9684753
vt 0.1098257 0.9779506
vt 0.1098257 0.9779506
vt 0.09926053 0.9779506
vt 0.09926053 0.9779506
vt 0.09926053 0.9729528
vt 0.09926053 0.9729528
vt 0.1098257 0.9729528
vt 0.1098257 0.9729528
vt 0.09926053 0.9779506
vt 0.09926053 0.9779506
vt 0.1098257 0.9779506
vt 0.1098257 0.9779506
vt 0.1086831 0.9677933
vt 0.1073397 0.9681798
vt 0.1086831 0.9681798
vt 0.1073397 0.9677933
vt 0.1139429 0.9684753
vt 0.1139429 0.9684753
vt 0.1139429 0.9710181
vt 0.1139429 0.9710181
vt 0.09966207 0.9804932
vt 0.09966207 0.9804932
vt 0.09926053 0.9804932
vt 0.09926053 0.9804932
vt 0.1250004 0.9667921
vt 0.1252026 0.9761897
vt 0.1252026 0.9667921
vt 0.1250004 0.9761897
vt 0.1086831 0.968644
vt 0.1073397 0.9682575
vt 0.1073397 0.968644
vt 0.1086831 0.9682575
vt 0.1032225 0.9662666
vt 0.1030202 0.9662666
vt 0.1019132 0.968644
vt 0.09946274 0.9662666
vt 0.1005698 0.968644
vt 0.09926053 0.9662666
vt 0.09946274 0.9642286
vt 0.1030202 0.9642286
vt 0.112402 0.9839286
vt 0.1126042 0.9745309
vt 0.112402 0.9745309
vt 0.1126042 0.9839286
vt 0.09966207 0.9828706
vt 0.09926053 0.9804932
vt 0.09926053 0.9828706
vt 0.09966207 0.9804932
vt 0.1098257 0.9778729
vt 0.1094242 0.9754955
vt 0.1094242 0.9778729
vt 0.1098257 0.9754955
vt 0.1139429 0.9828706
vt 0.1175004 0.973473
vt 0.1139429 0.973473
vt 0.1175004 0.9828706
vt 0.09926053 0.9708374
vt 0.1090227 0.9728751
vt 0.1090227 0.9708374
vt 0.09926053 0.9728751
vt 0.09926053 0.9687216
vt 0.1090227 0.9707596
vt 0.1090227 0.9687216
vt 0.09926053 0.9707596
vt 0.1035023 0.9642286
vt 0.1070599 0.9662666
vt 0.1070599 0.9642286
vt 0.1035023 0.9662666
vt 0.1059528 0.968644
vt 0.107262 0.9662666
vt 0.1046094 0.968644
vt 0.1033002 0.9662666
vt 0.112556 0.9726223
vt 0.1099033 0.970245
vt 0.1112126 0.9726223
vt 0.1138652 0.970245
vt 0.1099033 0.9677023
vt 0.1138652 0.9677023
vt 0.09966207 0.9778729
vt 0.09926053 0.9754955
vt 0.09926053 0.9778729
vt 0.09966207 0.9754955
vt 0.1098257 0.9828706
vt 0.1094242 0.9804932
vt 0.1094242 0.9828706
vt 0.1098257 0.9804932
vt 0.1098257 0.9729528
vt 0.1098257 0.9729528
vt 0.09926053 0.9729528
vt 0.09926053 0.9729528
vt 0.1252026 0.9761897
vt 0.1252026 0.9761897
vt 0.1252026 0.9667921
vt 0.1252026 0.9667921
vt 0.1197844 0.9659182
vt 0.1197844 0.9659182
vt 0.1197844 0.9753158
vt 0.1197844 0.9753158
vt 0.1138652 0.9677023
vt 0.1138652 0.9677023
vt 0.1099033 0.9677023
vt 0.1099033 0.9677023
vt 0.1098257 0.9729528
vt 0.1098257 0.9729528
vt 0.09926053 0.9729528
vt 0.09926053 0.9729528
vt 0.1179048 0.9684753
vt 0.1179048 0.9684753
vt 0.1139429 0.9684753
vt 0.1139429 0.9684753
vt 0.1138652 0.9677023
vt 0.1138652 0.9677023
vt 0.1099033 0.9677023
vt 0.1099033 0.9677023
vt 0.208283 0.7654926
vt 0.2059152 0.7594141
vt 0.2059152 0.7654926
vt 0.208283 0.7594141
vt 0.1179048 0.9684753
vt 0.1179048 0.9684753
vt 0.1139429 0.9684753
vt 0.1139429 0.9684753
vt 0.1098257 0.9779506
vt 0.1098257 0.9779506
vt 0.09926053 0.9779506
vt 0.09926053 0.9779506
vt 0.1252026 0.9761897
vt 0.1252026 0.9761897
vt 0.1252026 0.9667921
vt 0.1252026 0.9667921
vt 0.09966207 0.9754955
vt 0.09966207 0.9754955
vt 0.09926053 0.9754955
vt 0.09926053 0.9754955
vt 0.1139429 0.9684753
vt 0.1139429 0.9684753
vt 0.1139429 0.9710181
vt 0.1139429 0.9710181
vt 0.09926053 0.9729528
vt 0.09926053 0.9729528
vt 0.1098257 0.9729528
vt 0.1098257 0.9729528
vt 0.1138652 0.970245
vt 0.1138652 0.970245
vt 0.1138652 0.9677023
vt 0.1138652 0.9677023
vt 0.1098257 0.9754955
vt 0.1098257 0.9754955
vt 0.1094242 0.9754955
vt 0.1094242 0.9754955
vt 0.1179048 0.9710181
vt 0.1179048 0.9710181
vt 0.1179048 0.9684753
vt 0.1179048 0.9684753
vt 0.1099033 0.9677023
vt 0.1099033 0.9677023
vt 0.1099033 0.970245
vt 0.1099033 0.970245
vt 0.09966207 0.9804932
vt 0.09966207 0.9804932
vt 0.09926053 0.9804932
vt 0.09926053 0.9804932
vt 0.09926053 0.9779506
vt 0.09926053 0.9779506
vt 0.1098257 0.9779506
vt 0.1098257 0.9779506
vt 0.1179048 0.9710181
vt 0.1179048 0.9710181
vt 0.1179048 0.9684753
vt 0.1179048 0.9684753
vt 0.1098257 0.9804932
vt 0.1098257 0.9804932
vt 0.1094242 0.9804932
vt 0.1094242 0.9804932
vt 0.1903749 0.7651612
vt 0.1899733 0.7626187
vt 0.1899733 0.7651612
vt 0.2001369 0.7651612
vt 0.2005384 0.7626187
vt 0.2005384 0.7651612
vt 0.1098257 0.9804932
vt 0.1098257 0.9804932
vt 0.1094242 0.9804932
vt 0.1094242 0.9804932
vt 0.1197844 0.9659182
vt 0.1197844 0.9659182
vt 0.1197844 0.9753158
vt 0.1197844 0.9753158
vt 0.1915106 0.7549654
vt 0.1911091 0.7524228
vt 0.1911091 0.7549654
vt 0.2016743 0.7524228
vt 0.2012727 0.7549654
vt 0.2016743 0.7549654
vt 0.1138652 0.970245
vt 0.1138652 0.970245
vt 0.1138652 0.9677023
vt 0.1138652 0.9677023
vt 0.1098257 0.9754955
vt 0.1098257 0.9754955
vt 0.1094242 0.9754955
vt 0.1094242 0.9754955
vt 0.07932248 0.982707
vt 0.07942902 0.9829076
vt 0.0795529 0.9827082
vt 0.07919865 0.9829063
vt 0.07965947 0.9829088
vt 0.07930518 0.9831071
vt 0.07953557 0.9831083
vt 0.06524689 0.9821471
vt 0.06524808 0.9823775
vt 0.06544756 0.9822536
vt 0.06544634 0.9820232
vt 0.06544877 0.9824839
vt 0.06564697 0.9821298
vt 0.06564819 0.9823602
vn 0 -0.9529868 0.3030118
vn 0 -0.9529862 0.3030135
vn 0 -0.9529868 0.3030117
vn 0 -0.9529862 0.3030135
vn 0 -0.9529862 0.3030135
vn 0 -0.9529868 0.3030118
vn 0 -0.7389094 -0.6738049
vn 0 -0.7389147 -0.673799
vn 0 -0.7389092 -0.673805
vn 0 -0.7389148 -0.6737989
vn 0 0.2140821 -0.9768157
vn 0 0.2140818 -0.9768157
vn 0 0.2140822 -0.9768157
vn 0 0.2140818 -0.9768157
vn 0 0.9529856 -0.3030158
vn 0 0.9529856 -0.3030158
vn 0 0.9529856 -0.3030158
vn 0 0.9529856 -0.3030158
vn 0 0.7389091 0.673805
vn 0 0.7389086 0.6738058
vn 0 0.7389091 0.673805
vn 0 0.7389085 0.6738058
vn 0 -0.2140688 0.9768186
vn 0 -0.2140688 0.9768187
vn 0 -0.2140688 0.9768186
vn 0 -0.2140688 0.9768187
vn 0 -1 0
vn 0 -1 0
vn 0 -1 0
vn 0 -1 0
vn 0 1 0
vn 0 1 0
vn 0 1 0
vn 0 1 0
vn 1 0 0
vn 1 0 0
vn 1 0 0
vn 1 0 0
vn 1 0 0
vn 1 0 0
vn 0 0 -1
vn 0 0 -1
vn 0 0 -1
vn 0 0 -1
vn 0 -1 0
vn 0 -1 0
vn 0 -1 0
vn 0 -1 0
vn 0 1 0
vn 0 1 0
vn 0 1 0
vn 0 1 0
vn 0 0 1
vn 0 0 1
vn 0 0 1
vn 0 0 1
vn 0 -1 0
vn 0 -1 0
vn 0 -1 0
vn 0 -1 0
vn 0 1 0
vn 0 1 0
vn 0 1 0
vn 0 1 0
vn 0 0 1
vn 0 0 1
vn 0 0 1
vn 0 0 1
vn 0 0 1
vn 0 0 1
vn 0 0 1
vn 0 0 1
vn -1 0 0
vn -1 0 0
vn -1 0 0
vn -1 0 0
vn -1 0 0
vn -1 0 0
vn -1 0 0
vn -1 0 0
vn 0 0 1
vn 0 0 1
vn 0 0 1
vn 0 0 1
vn 0 0.883517 0.4683991
vn 0 0.8835172 0.4683986
vn 0 0.8835169 0.4683992
vn 0 0.8835173 0.4683985
vn 0 -0.8835172 0.4683987
vn 0 -0.8835171 0.4683987
vn 0 -0.8835172 0.4683986
vn 0 -0.8835171 0.4683987
vn 0 0 1
vn 0 0 1
vn 0 0 1
vn 0 0 1
vn 0 1 0
vn 0 1 0
vn 0 1 0
vn 0 1 0
vn 0 -1 0
vn 0 -1 0
vn 0 -1 0
vn 0 -1 0
vn 1 0 0
vn 1 0 0
vn 1 0 0
vn 1 0 0
vn 1 0 0
vn 1 0 0
vn 1 0 0
vn 1 0 0
vn -1 0 0
vn -1 0 0
vn -1 0 0
vn -1 0 0
vn -1 0 0
vn -1 0 0
vn 0 -0.8835171 0.4683989
vn 0 -0.8835167 0.4683995
vn 0 -0.8835171 0.4683988
vn 0 -0.8835167 0.4683996
vn 0 0.8835169 0.4683992
vn 0 0.883517 0.4683991
vn 0 0.8835169 0.4683992
vn 0 0.883517 0.468399
vn 0 0 -1
vn 0 0 -1
vn 0 0 -1
vn 0 0 -1
vn 0 -1 0
vn 0 -1 0
vn 0 -1 0
vn 0 -1 0
vn 0 1 0
vn 0 1 0
vn 0 1 0
vn 0 1 0
vn 0.7071068 0.7071068 0
vn 0.7071068 0.7071068 0
vn 0.7071068 -0.7071067 0
vn 0.7071068 -0.7071067 0
vn -0.7071068 0.7071067 0
vn -0.7071068 0.7071067 0
vn 0.7071068 0.7071068 0
vn 0.7071068 0.7071068 0
vn 0 0 -1
vn 0 0 -1
vn 0 0 -1
vn 0 0 -1
vn 0 0 -1
vn 0 0 -1
vn 0 0 -1
vn 0 0 -1
vn 0 0 -1
vn 0 0 -1
vn 0 0 -1
vn 0 0 -1
vn -0.7071068 -0.7071068 0
vn -0.7071068 -0.7071068 0
vn -0.7071068 0.7071067 0
vn -0.7071068 0.7071067 0
vn 0.7071068 -0.7071067 0
vn 0.7071068 -0.7071067 0
vn -0.7071068 -0.7071068 0
vn -0.7071068 -0.7071068 0
vn 0 0 -1
vn 0 0 -1
vn 0 0 -1
vn 0 0 -1
vn 0 0 -1
vn 0 0 -1
vn 0.7071068 0 -0.7071068
vn 0.7071068 0 -0.7071068
vn -0.7071068 0 0.7071068
vn -0.7071068 0 0.7071067
vn -0.7071069 0 -0.7071066
vn -0.7071066 0 -0.7071069
vn 0.7071068 0 0.7071068
vn 0.7071067 0 0.7071068
vn -0.7071068 0 0.7071067
vn -0.7071068 0 0.7071068
vn 0 -1 0
vn 0 -1 0
vn 0 -1 0
vn 0 -1 0
vn 0 -1 0
vn 0 -1 0
vn 0 -1 0
vn 0 -1 0
vn -0.7065325 0 -0.7076806
vn -0.7065328 0 -0.7076802
vn -0.7083374 0 0.7058739
vn -0.7083374 0 0.7058739
vn 0.705874 0 0.7083373
vn 0.705874 0 0.7083373
vn 0.7174002 0 -0.6966613
vn 0.7174002 0 -0.6966613
vn 0 0 -1
vn 0 0 -1
vn -0.7065328 0 -0.7076802
vn -0.7065325 0 -0.7076806
vn -0.7083374 0 0.7058739
vn -0.7083374 0 0.7058739
vn 0.705874 0 0.7083373
vn 0.705874 0 0.7083373
vn 0 1 0
vn 0 1 0
vn 0 1 0
vn 0 1 0
vn 0 1 0
vn 0 1 0
vn 0 1 0
vn 0 1 0
vn 0 1 0
vn 0 1 0
vn 0 1 0
vn 0 1 0
vn 0 1 0
vn 0 1 0
vn 0.7174002 0 -0.6966613
vn 0.7174002 0 -0.6966613
vn 0.01385296 0 -0.999904
vn 0.01385296 0 -0.999904
vn 0.01385296 0 -0.999904
vn 0.01385296 0 -0.999904
vn 0 0 -1
vn 0 0 -1
vn 0 -1 0
vn 0 -1 0
vn 0 -1 0
vn 0 -1 0
vn 0 -1 0
vn 0 -1 0
vn 0.7071068 0 -0.7071068
vn 0.7071068 0 -0.7071068
vn 0.7071067 0 0.7071068
vn 0.7071068 0 0.7071068
vn -0.7071066 0 -0.7071069
vn -0.7071069 0 -0.7071066
vn 0 0 -1
vn 0 0 -1
vn -1 0 0
vn -1 0 0
vn -1 -1.320139E-05 0
vn -1 1.011173E-05 -1.107281E-05
vn -1 0 0
vn -1 0 0
vn -1 0 1.298254E-05
vn 1 0 0
vn 1 0 0
vn 1 0 0
vn 1 0 0
vn 1 0 0
vn 1 0 0
vn 1 0 0
g ToolBox_0
f 3/3/3 2/2/2 1/1/1
f 6/6/6 5/5/5 4/4/4
f 9/9/9 8/8/8 7/7/7
f 7/7/7 8/8/8 10/10/10
f 13/13/13 12/12/12 11/11/11
f 11/11/11 12/12/12 14/14/14
f 17/17/17 16/16/16 15/15/15
f 15/15/15 16/16/16 18/18/18
f 21/21/21 20/20/20 19/19/19
f 19/19/19 20/20/20 22/22/22
f 25/25/25 24/24/24 23/23/23
f 23/23/23 24/24/24 26/26/26
f 29/29/29 28/28/28 27/27/27
f 30/30/30 29/29/29 27/27/27
f 33/33/33 32/32/32 31/31/31
f 34/34/34 33/33/33 31/31/31
f 37/37/37 36/36/36 35/35/35
f 35/35/35 36/36/36 38/38/38
f 36/36/36 39/39/39 38/38/38
f 38/38/38 39/39/39 40/40/40
f 43/43/43 42/42/42 41/41/41
f 44/44/44 43/43/43 41/41/41
f 47/47/47 46/46/46 45/45/45
f 48/48/48 47/47/47 45/45/45
f 51/51/51 50/50/50 49/49/49
f 52/52/52 51/51/51 49/49/49
f 55/55/55 54/54/54 53/53/53
f 53/53/53 54/54/54 56/56/56
f 59/59/59 58/58/58 57/57/57
f 60/60/60 59/59/59 57/57/57
f 63/63/63 62/62/62 61/61/61
f 64/64/64 63/63/63 61/61/61
f 67/67/67 66/66/66 65/65/65
f 65/65/65 66/66/66 68/68/68
f 71/71/71 70/70/70 69/69/69
f 69/69/69 70/70/70 72/72/72
f 75/75/75 74/74/74 73/73/73
f 75/75/75 76/76/76 74/74/74
f 77/77/77 76/76/76 75/75/75
f 77/77/77 78/78/78 76/76/76
f 79/79/79 74/74/74 76/76/76
f 80/80/80 74/74/74 79/79/79
f 83/83/83 82/82/82 81/81/81
f 81/81/81 82/82/82 84/84/84
f 87/87/87 86/86/86 85/85/85
f 85/85/85 86/86/86 88/88/88
f 91/91/91 90/90/90 89/89/89
f 89/89/89 90/90/90 92/92/92
f 95/95/95 94/94/94 93/93/93
f 93/93/93 94/94/94 96/96/96
f 99/99/99 98/98/98 97/97/97
f 97/97/97 98/98/98 100/100/100
f 103/103/103 102/102/102 101/101/101
f 101/101/101 102/102/102 104/104/104
f 107/107/107 106/106/106 105/105/105
f 105/105/105 106/106/106 108/108/108
f 109/109/109 108/108/108 106/106/106
f 109/109/109 106/106/106 110/110/110
f 111/111/111 108/108/108 109/109/109
f 111/111/111 112/112/112 108/108/108
f 115/115/115 114/114/114 113/113/113
f 113/113/113 114/114/114 116/116/116
f 114/114/114 117/117/117 116/116/116
f 116/116/116 117/117/117 118/118/118
f 121/121/121 120/120/120 119/119/119
f 119/119/119 120/120/120 122/122/122
f 125/125/125 124/124/124 123/123/123
f 123/123/123 124/124/124 126/126/126
f 129/129/129 128/128/128 127/127/127
f 130/130/130 129/129/129 127/127/127
f 133/133/133 132/132/132 131/131/131
f 134/134/134 133/133/133 131/131/131
f 137/137/137 136/136/136 135/135/135
f 138/138/138 137/137/137 135/135/135
f 141/141/141 140/140/140 139/139/139
f 142/142/142 141/141/141 139/139/139
f 145/145/145 144/144/144 143/143/143
f 146/146/146 145/145/145 143/143/143
f 149/149/149 148/148/148 147/147/147
f 150/150/150 149/149/149 147/147/147
f 153/153/153 152/152/152 151/151/151
f 154/154/154 153/153/153 151/151/151
f 157/157/157 156/156/156 155/155/155
f 155/155/155 156/156/156 158/158/158
f 161/161/161 160/160/160 159/159/159
f 162/162/162 161/161/161 159/159/159
f 165/165/165 164/164/164 163/163/163
f 166/166/166 165/165/165 163/163/163
f 169/169/169 168/168/168 167/167/167
f 170/170/170 169/169/169 167/167/167
f 173/173/173 172/172/172 171/171/171
f 174/174/174 173/173/173 171/171/171
f 177/177/177 176/176/176 175/175/175
f 178/178/178 177/177/177 175/175/175
f 181/181/181 180/180/180 179/179/179
f 182/182/182 181/181/181 179/179/179
f 185/185/185 184/184/184 183/183/183
f 186/186/186 185/185/185 183/183/183
f 189/189/189 188/188/188 187/187/187
f 190/190/190 189/189/189 187/187/187
f 193/193/193 192/192/192 191/191/191
f 194/194/194 193/193/193 191/191/191
f 197/197/197 196/196/196 195/195/195
f 198/198/198 197/197/197 195/195/195
f 201/201/201 200/200/200 199/199/199
f 202/202/202 201/201/201 199/199/199
f 205/205/205 204/204/204 203/203/203
f 206/206/206 205/205/205 203/203/203
f 209/209/209 208/208/208 207/207/207
f 210/210/210 209/209/209 207/207/207
f 213/213/213 212/212/212 211/211/211
f 214/214/214 213/213/213 211/211/211
f 217/217/217 216/216/216 215/215/215
f 215/215/215 216/216/216 218/218/218
f 218/218/218 216/216/216 219/219/219
f 220/220/220 218/218/218 219/219/219
f 223/223/223 222/222/222 221/221/221
f 224/224/224 223/223/223 221/221/221
f 227/227/227 226/226/226 225/225/225
f 228/228/228 227/227/227 225/225/225
f 231/231/231 230/230/230 229/229/229
f 230/230/230 232/232/232 229/229/229
f 229/229/229 232/232/232 233/233/233
f 234/234/234 233/233/233 232/232/232
f 237/237/237 236/236/236 235/235/235
f 238/238/238 237/237/237 235/235/235
f 241/241/241 240/240/240 239/239/239
f 242/242/242 241/241/241 239/239/239
f 245/245/245 244/244/244 243/243/243
f 243/243/243 244/244/244 246/246/246
f 247/247/247 244/244/244 245/245/245
f 246/246/246 244/244/244 248/248/248
f 249/249/249 244/244/244 247/247/247
f 248/248/248 244/244/244 249/249/249
f 252/252/252 251/251/251 250/250/250
f 252/252/252 250/250/250 253/253/253
f 252/252/252 254/254/254 251/251/251
f 252/252/252 253/253/253 255/255/255
f 252/252/252 256/256/256 254/254/254
f 252/252/252 255/255/255 256/256/256
