g yam
v 0.5598884 0.1276091 6.754863E-08
v 0.6276643 0.1164837 7.926395E-08
v 0.6365088 0.104701 0.03556817
v 0.6703789 0.08459749 8.995957E-08
v 0.5682567 0.08144806 0.08254448
v 0.4936778 0.182733 5.021092E-08
v 0.6578612 0.07625528 0.05030094
v 0.4884399 0.1326675 0.1537995
v 0.3528677 0.2805039 1.59302E-08
v 0.6792136 0.04780953 0.03556819
v 0.6880581 0.03602687 9.909663E-08
v 0.5884598 0.001414289 0.1167355
v 0.608663 -0.0786195 0.08254451
v 0.6170313 -0.1117707 1.080523E-07
v 0.3455917 0.1923093 0.213644
v 0.1779746 0.3711247 -2.254482E-08
v 0.4757946 -0.02061111 0.2175052
v 0.4631492 -0.1738897 0.1537995
v 0.4579114 -0.2373799 1.007517E-07
v 0.1689355 0.2615598 0.2654119
v -0.1063711 0.3770315 -6.626636E-08
v 0.328026 -0.02061114 0.3021381
v 0.3104603 -0.2335317 0.213644
v 0.3031843 -0.3217264 8.862001E-08
v -0.1063711 0.2680996 0.2629848
v -0.3185134 0.3333772 -9.248603E-08
v 0.1471134 -0.002953323 0.375349
v 0.1252914 -0.2674665 0.2654119
v 0.1162524 -0.3770316 6.775842E-08
v -0.3260516 0.2372313 0.232829
v -0.5202351 0.2069317 -1.061079E-07
v -0.106371 0.005114809 0.3719167
v -0.1063709 -0.25787 0.2629849
v -0.1063709 -0.366802 3.278108E-08
v -0.517247 0.1407041 0.1600501
v -0.6014354 0.08327749 -1.019033E-07
v -0.3442504 0.00511473 0.3292699
v -0.3624493 -0.2270019 0.232829
v -0.3699874 -0.3231479 -1.283682E-08
v -0.6014802 0.05163544 0.07639066
v -0.6821685 -0.01263832 -1.013217E-07
v -0.5100327 -0.01918335 0.2263451
v -0.5028184 -0.1790708 0.1600502
v -0.4998302 -0.2452985 -4.280881E-08
v -0.6788347 -0.02495107 0.03079593
v -0.6880581 -0.05467678 -9.661324E-08
v -0.6015888 -0.02475522 0.1080328
v -0.6016971 -0.1011459 0.07639068
v -0.6017421 -0.132788 -7.317876E-08
v -0.6707863 -0.05467677 0.04355207
v -0.6627377 -0.08440243 0.03079594
v -0.6594037 -0.09671526 -8.668879E-08
v 0.5598884 0.1276091 6.754863E-08
v 0.6365088 0.104701 -0.03556801
v 0.6276643 0.1164837 7.926395E-08
v 0.6703789 0.08459749 8.995957E-08
v 0.5682568 0.08144803 -0.08254433
v 0.4936778 0.182733 5.021092E-08
v 0.6578612 0.07625526 -0.05030077
v 0.4884399 0.1326675 -0.1537994
v 0.3528677 0.2805039 1.59302E-08
v 0.6792136 0.04780952 -0.035568
v 0.6880581 0.03602687 9.909663E-08
v 0.5884598 0.001414258 -0.1167353
v 0.608663 -0.07861952 -0.0825443
v 0.6170313 -0.1117707 1.080523E-07
v 0.3455918 0.1923093 -0.2136439
v 0.1779746 0.3711247 -2.254482E-08
v 0.4757946 -0.02061117 -0.2175051
v 0.4631493 -0.1738898 -0.1537993
v 0.4579114 -0.2373799 1.007517E-07
v 0.1689356 0.2615598 -0.2654119
v -0.1063711 0.3770315 -6.626636E-08
v 0.3280261 -0.02061122 -0.302138
v 0.3104603 -0.2335317 -0.2136439
v 0.3031843 -0.3217264 8.862001E-08
v -0.106371 0.2680995 -0.2629849
v -0.3185134 0.3333772 -9.248603E-08
v 0.1471135 -0.002953422 -0.375349
v 0.1252915 -0.2674666 -0.2654118
v 0.1162524 -0.3770316 6.775842E-08
v -0.3260516 0.2372313 -0.2328291
v -0.5202351 0.2069317 -1.061079E-07
v -0.1063709 0.00511471 -0.3719168
v -0.1063709 -0.2578701 -0.2629849
v -0.1063709 -0.366802 3.278108E-08
v -0.5172469 0.1407041 -0.1600503
v -0.6014354 0.08327749 -1.019033E-07
v -0.3442503 0.005114642 -0.32927
v -0.3624492 -0.227002 -0.2328291
v -0.3699874 -0.3231479 -1.283682E-08
v -0.6014802 0.05163541 -0.07639086
v -0.6821685 -0.01263832 -1.013217E-07
v -0.5100326 -0.01918341 -0.2263452
v -0.5028184 -0.1790709 -0.1600503
v -0.4998302 -0.2452985 -4.280881E-08
v -0.6788347 -0.02495108 -0.03079613
v -0.6880581 -0.05467678 -9.661324E-08
v -0.6015888 -0.02475525 -0.1080329
v -0.601697 -0.1011459 -0.07639084
v -0.6017421 -0.132788 -7.317876E-08
v -0.6707863 -0.05467679 -0.04355226
v -0.6627377 -0.08440244 -0.03079612
v -0.6594037 -0.09671526 -8.668879E-08
vt 0.7155491 0.8672388
vt 0.72586 0.8696711
vt 0.7264372 0.8643093
vt 0.7333261 0.8664659
vt 0.719363 0.8562862
vt 0.7051705 0.8658203
vt 0.7295067 0.8609387
vt 0.7090535 0.8499677
vt 0.6875046 0.861528
vt 0.733737 0.8597506
vt 0.738346 0.8608988
vt 0.7251876 0.8480972
vt 0.7332689 0.8431038
vt 0.7429715 0.8418265
vt 0.6964211 0.8427182
vt 0.6700419 0.8535795
vt 0.7163122 0.8370581
vt 0.7267066 0.8269886
vt 0.7412876 0.8207246
vt 0.68375 0.8344818
vt 0.6513903 0.8360513
vt 0.7065263 0.827701
vt 0.7189313 0.8149748
vt 0.7359954 0.8040758
vt 0.668877 0.8209137
vt 0.6408438 0.8190084
vt 0.695921 0.8188469
vt 0.7091769 0.8040978
vt 0.7266425 0.7882819
vt 0.658642 0.8081833
vt 0.6355264 0.7975089
vt 0.6831895 0.8070507
vt 0.6968182 0.7922534
vt 0.7116939 0.7741078
vt 0.6506433 0.7927137
vt 0.6363629 0.7820958
vt 0.6711231 0.7954008
vt 0.6810923 0.7803876
vt 0.6906407 0.7613047
vt 0.6457256 0.7801978
vt 0.6385692 0.7664541
vt 0.6619962 0.7842157
vt 0.670437 0.7725497
vt 0.6756187 0.7570286
vt 0.6430107 0.766731
vt 0.6417542 0.7606747
vt 0.6529357 0.7744527
vt 0.6573142 0.7661769
vt 0.6587781 0.7564941
vt 0.6467769 0.7648281
vt 0.649042 0.7610846
vt 0.6486045 0.7561063
vt 0.7155491 0.8672388
vt 0.7264372 0.8643093
vt 0.72586 0.8696711
vt 0.7333261 0.8664659
vt 0.719363 0.8562862
vt 0.7051705 0.8658203
vt 0.7295067 0.8609387
vt 0.7090535 0.8499677
vt 0.6875046 0.861528
vt 0.733737 0.8597506
vt 0.738346 0.8608988
vt 0.7251876 0.8480972
vt 0.7332689 0.8431038
vt 0.7429715 0.8418265
vt 0.6964211 0.8427182
vt 0.6700419 0.8535795
vt 0.7163122 0.8370581
vt 0.7267066 0.8269886
vt 0.7412876 0.8207246
vt 0.68375 0.8344818
vt 0.6513903 0.8360513
vt 0.7065263 0.827701
vt 0.7189313 0.8149748
vt 0.7359954 0.8040758
vt 0.668877 0.8209137
vt 0.6408438 0.8190084
vt 0.695921 0.8188469
vt 0.7091769 0.8040978
vt 0.7266425 0.7882819
vt 0.658642 0.8081833
vt 0.6355264 0.7975089
vt 0.6831895 0.8070507
vt 0.6968182 0.7922534
vt 0.7116939 0.7741078
vt 0.6506433 0.7927137
vt 0.6363629 0.7820958
vt 0.6711231 0.7954008
vt 0.6810923 0.7803876
vt 0.6906407 0.7613047
vt 0.6457256 0.7801978
vt 0.6385692 0.7664541
vt 0.6619962 0.7842157
vt 0.670437 0.7725497
vt 0.6756187 0.7570286
vt 0.6430107 0.766731
vt 0.6417542 0.7606747
vt 0.6529357 0.7744527
vt 0.6573142 0.7661769
vt 0.6587781 0.7564941
vt 0.6467769 0.7648281
vt 0.649042 0.7610846
vt 0.6486045 0.7561063
vn 0.4599157 0.8879626 0
vn 0.304798 0.952417 0
vn 0.396615 0.783909 0.4776852
vn 0.8027872 0.5962657 0
vn 0.5080767 0.6045748 0.6134716
vn 0.603435 0.7974121 0
vn 0.6572921 0.4064851 0.6346156
vn 0.5962837 0.5601658 0.5750305
vn 0.4957085 0.868489 0
vn 0.9039543 0.03188 0.4264392
vn 0.9937389 -0.1117272 0
vn 0.6387998 0.05552954 0.7673665
vn 0.7328715 -0.4378609 0.5207467
vn 0.7707428 -0.6371464 0
vn 0.475825 0.6022069 0.641044
vn 0.2384297 0.9711598 0
vn 0.5724512 -0.02820686 0.8194534
vn 0.5537035 -0.6031287 0.5741499
vn 0.5476807 -0.8366874 0
vn 0.2198956 0.6855846 0.6939883
vn -0.0866926 0.9962351 0
vn 0.4286997 -0.04315067 0.902416
vn 0.3891321 -0.6718885 0.630192
vn 0.3727113 -0.9279473 0
vn -0.08834828 0.7081743 0.7004882
vn -0.3576459 0.9338573 0
vn 0.1753574 -0.006835959 0.9844811
vn 0.1311523 -0.7036337 0.6983543
vn 0.1129525 -0.9936004 0
vn -0.3539062 0.6703658 0.6521963
vn -0.6782871 0.7347969 0
vn -0.0937021 0.006760769 0.9955773
vn -0.1008078 -0.7005661 0.7064311
vn -0.1042031 -0.9945561 0
vn -0.6702299 0.5188565 0.530641
vn -0.8101121 0.5862752 0
vn -0.3448025 0.01973645 0.9384677
vn -0.3339155 -0.6553928 0.6774663
vn -0.3281796 -0.9446153 0
vn -0.793148 0.419793 0.4412369
vn -0.8944758 0.4471163 0
vn -0.64849 -0.01481248 0.7610791
vn -0.6229712 -0.5625649 0.5435326
vn -0.6112537 -0.7914346 0
vn -0.8629574 0.2731203 0.4250997
vn -0.974537 -0.2242268 0
vn -0.7462097 -0.01657229 0.6655046
vn -0.6859159 -0.5188 0.5102608
vn -0.6541559 -0.7563598 0
vn -0.7818223 -0.1520253 0.6046836
vn -0.6923145 -0.5818903 0.4267368
vn -0.6534716 -0.756951 0
vn 0.4599157 0.8879626 0
vn 0.3966152 0.783909 -0.4776853
vn 0.304798 0.952417 0
vn 0.8027872 0.5962657 0
vn 0.508077 0.6045746 -0.6134715
vn 0.603435 0.7974121 0
vn 0.6572923 0.4064849 -0.6346155
vn 0.5962839 0.5601655 -0.5750305
vn 0.4957085 0.868489 0
vn 0.9039544 0.03187988 -0.426439
vn 0.9937389 -0.1117272 0
vn 0.6388 0.05552934 -0.7673662
vn 0.7328717 -0.437861 -0.5207465
vn 0.7707428 -0.6371464 0
vn 0.4758252 0.6022067 -0.641044
vn 0.2384297 0.9711598 0
vn 0.5724515 -0.0282071 -0.8194533
vn 0.5537037 -0.6031289 -0.5741496
vn 0.5476807 -0.8366874 0
vn 0.2198959 0.6855844 -0.6939884
vn -0.0866926 0.9962351 0
vn 0.4287 -0.04315095 -0.9024159
vn 0.3891324 -0.6718886 -0.6301918
vn 0.3727113 -0.9279473 0
vn -0.08834805 0.708174 -0.7004884
vn -0.3576459 0.9338573 0
vn 0.1753577 -0.006836221 -0.9844811
vn 0.1311525 -0.7036338 -0.6983541
vn 0.1129525 -0.9936004 0
vn -0.353906 0.6703657 -0.6521966
vn -0.6782871 0.7347969 0
vn -0.0937018 0.006760514 -0.9955773
vn -0.1008075 -0.7005664 -0.706431
vn -0.1042031 -0.9945561 0
vn -0.6702297 0.5188564 -0.5306413
vn -0.8101121 0.5862752 0
vn -0.3448022 0.0197362 -0.9384678
vn -0.3339154 -0.6553931 -0.6774663
vn -0.3281796 -0.9446153 0
vn -0.793148 0.4197929 -0.4412372
vn -0.8944758 0.4471163 0
vn -0.6484897 -0.01481269 -0.7610793
vn -0.6229711 -0.5625651 -0.5435326
vn -0.6112537 -0.7914346 0
vn -0.8629574 0.2731202 -0.4251
vn -0.974537 -0.2242268 0
vn -0.7462095 -0.01657249 -0.6655049
vn -0.6859156 -0.5188001 -0.5102609
vn -0.6541559 -0.7563598 0
vn -0.781822 -0.1520255 -0.6046838
vn -0.6923143 -0.5818905 -0.426737
vn -0.6534716 -0.756951 0
g yam_0
f 3/3/3 2/2/2 1/1/1
f 3/3/3 4/4/4 2/2/2
f 5/5/5 3/3/3 1/1/1
f 5/5/5 1/1/1 6/6/6
f 7/7/7 4/4/4 3/3/3
f 7/7/7 3/3/3 5/5/5
f 8/8/8 5/5/5 6/6/6
f 8/8/8 6/6/6 9/9/9
f 10/10/10 4/4/4 7/7/7
f 11/11/11 4/4/4 10/10/10
f 12/12/12 7/7/7 5/5/5
f 10/10/10 7/7/7 12/12/12
f 12/12/12 5/5/5 8/8/8
f 11/11/11 10/10/10 13/13/13
f 13/13/13 10/10/10 12/12/12
f 14/14/14 11/11/11 13/13/13
f 15/15/15 8/8/8 9/9/9
f 15/15/15 9/9/9 16/16/16
f 17/17/17 12/12/12 8/8/8
f 13/13/13 12/12/12 17/17/17
f 17/17/17 8/8/8 15/15/15
f 14/14/14 13/13/13 18/18/18
f 18/18/18 13/13/13 17/17/17
f 19/19/19 14/14/14 18/18/18
f 20/20/20 15/15/15 16/16/16
f 16/16/16 21/21/21 20/20/20
f 22/22/22 17/17/17 15/15/15
f 18/18/18 17/17/17 22/22/22
f 22/22/22 15/15/15 20/20/20
f 19/19/19 18/18/18 23/23/23
f 23/23/23 18/18/18 22/22/22
f 24/24/24 19/19/19 23/23/23
f 21/21/21 25/25/25 20/20/20
f 21/21/21 26/26/26 25/25/25
f 27/27/27 22/22/22 20/20/20
f 23/23/23 22/22/22 27/27/27
f 20/20/20 25/25/25 27/27/27
f 24/24/24 23/23/23 28/28/28
f 28/28/28 23/23/23 27/27/27
f 29/29/29 24/24/24 28/28/28
f 26/26/26 30/30/30 25/25/25
f 26/26/26 31/31/31 30/30/30
f 25/25/25 32/32/32 27/27/27
f 27/27/27 32/32/32 28/28/28
f 25/25/25 30/30/30 32/32/32
f 28/28/28 33/33/33 29/29/29
f 32/32/32 33/33/33 28/28/28
f 33/33/33 34/34/34 29/29/29
f 31/31/31 35/35/35 30/30/30
f 31/31/31 36/36/36 35/35/35
f 30/30/30 37/37/37 32/32/32
f 32/32/32 37/37/37 33/33/33
f 30/30/30 35/35/35 37/37/37
f 33/33/33 38/38/38 34/34/34
f 37/37/37 38/38/38 33/33/33
f 38/38/38 39/39/39 34/34/34
f 36/36/36 40/40/40 35/35/35
f 36/36/36 41/41/41 40/40/40
f 35/35/35 42/42/42 37/37/37
f 37/37/37 42/42/42 38/38/38
f 35/35/35 40/40/40 42/42/42
f 38/38/38 43/43/43 39/39/39
f 42/42/42 43/43/43 38/38/38
f 43/43/43 44/44/44 39/39/39
f 41/41/41 45/45/45 40/40/40
f 41/41/41 46/46/46 45/45/45
f 40/40/40 47/47/47 42/42/42
f 42/42/42 47/47/47 43/43/43
f 40/40/40 45/45/45 47/47/47
f 43/43/43 48/48/48 44/44/44
f 47/47/47 48/48/48 43/43/43
f 48/48/48 49/49/49 44/44/44
f 45/45/45 50/50/50 47/47/47
f 45/45/45 46/46/46 50/50/50
f 47/47/47 50/50/50 48/48/48
f 48/48/48 51/51/51 49/49/49
f 50/50/50 51/51/51 48/48/48
f 50/50/50 46/46/46 51/51/51
f 51/51/51 52/52/52 49/49/49
f 51/51/51 46/46/46 52/52/52
f 55/55/55 54/54/54 53/53/53
f 56/56/56 54/54/54 55/55/55
f 54/54/54 57/57/57 53/53/53
f 53/53/53 57/57/57 58/58/58
f 56/56/56 59/59/59 54/54/54
f 54/54/54 59/59/59 57/57/57
f 57/57/57 60/60/60 58/58/58
f 58/58/58 60/60/60 61/61/61
f 56/56/56 62/62/62 59/59/59
f 56/56/56 63/63/63 62/62/62
f 59/59/59 64/64/64 57/57/57
f 59/59/59 62/62/62 64/64/64
f 57/57/57 64/64/64 60/60/60
f 62/62/62 63/63/63 65/65/65
f 62/62/62 65/65/65 64/64/64
f 63/63/63 66/66/66 65/65/65
f 60/60/60 67/67/67 61/61/61
f 61/61/61 67/67/67 68/68/68
f 64/64/64 69/69/69 60/60/60
f 64/64/64 65/65/65 69/69/69
f 60/60/60 69/69/69 67/67/67
f 65/65/65 66/66/66 70/70/70
f 65/65/65 70/70/70 69/69/69
f 66/66/66 71/71/71 70/70/70
f 67/67/67 72/72/72 68/68/68
f 73/73/73 68/68/68 72/72/72
f 69/69/69 74/74/74 67/67/67
f 69/69/69 70/70/70 74/74/74
f 67/67/67 74/74/74 72/72/72
f 70/70/70 71/71/71 75/75/75
f 70/70/70 75/75/75 74/74/74
f 71/71/71 76/76/76 75/75/75
f 77/77/77 73/73/73 72/72/72
f 78/78/78 73/73/73 77/77/77
f 74/74/74 79/79/79 72/72/72
f 74/74/74 75/75/75 79/79/79
f 77/77/77 72/72/72 79/79/79
f 75/75/75 76/76/76 80/80/80
f 75/75/75 80/80/80 79/79/79
f 76/76/76 81/81/81 80/80/80
f 82/82/82 78/78/78 77/77/77
f 83/83/83 78/78/78 82/82/82
f 84/84/84 77/77/77 79/79/79
f 84/84/84 79/79/79 80/80/80
f 82/82/82 77/77/77 84/84/84
f 85/85/85 80/80/80 81/81/81
f 85/85/85 84/84/84 80/80/80
f 86/86/86 85/85/85 81/81/81
f 87/87/87 83/83/83 82/82/82
f 88/88/88 83/83/83 87/87/87
f 89/89/89 82/82/82 84/84/84
f 89/89/89 84/84/84 85/85/85
f 87/87/87 82/82/82 89/89/89
f 90/90/90 85/85/85 86/86/86
f 90/90/90 89/89/89 85/85/85
f 91/91/91 90/90/90 86/86/86
f 92/92/92 88/88/88 87/87/87
f 93/93/93 88/88/88 92/92/92
f 94/94/94 87/87/87 89/89/89
f 94/94/94 89/89/89 90/90/90
f 92/92/92 87/87/87 94/94/94
f 95/95/95 90/90/90 91/91/91
f 95/95/95 94/94/94 90/90/90
f 96/96/96 95/95/95 91/91/91
f 97/97/97 93/93/93 92/92/92
f 98/98/98 93/93/93 97/97/97
f 99/99/99 92/92/92 94/94/94
f 99/99/99 94/94/94 95/95/95
f 97/97/97 92/92/92 99/99/99
f 100/100/100 95/95/95 96/96/96
f 100/100/100 99/99/99 95/95/95
f 101/101/101 100/100/100 96/96/96
f 102/102/102 97/97/97 99/99/99
f 98/98/98 97/97/97 102/102/102
f 102/102/102 99/99/99 100/100/100
f 103/103/103 100/100/100 101/101/101
f 103/103/103 102/102/102 100/100/100
f 98/98/98 102/102/102 103/103/103
f 104/104/104 103/103/103 101/101/101
f 98/98/98 103/103/103 104/104/104
